<svg width="516" height="124" viewBox="0 0 516 124" fill="none" xmlns="http://www.w3.org/2000/svg">
<path d="M10 0.5H506C511.247 0.500003 515.5 4.7533 515.5 10V114C515.5 119.247 511.247 123.5 506 123.5H10C4.7533 123.5 0.5 119.247 0.5 114V10C0.5 4.7533 4.75329 0.5 10 0.5Z" fill="#FAFAFA"/>
<path d="M10 0.5H506C511.247 0.500003 515.5 4.7533 515.5 10V114C515.5 119.247 511.247 123.5 506 123.5H10C4.7533 123.5 0.5 119.247 0.5 114V10C0.5 4.7533 4.75329 0.5 10 0.5Z" fill="#E6E6E6"/>
<path d="M10 0.5H506C511.247 0.500003 515.5 4.7533 515.5 10V114C515.5 119.247 511.247 123.5 506 123.5H10C4.7533 123.5 0.5 119.247 0.5 114V10C0.5 4.7533 4.75329 0.5 10 0.5Z" stroke="#D9D9D9"/>
<g clip-path="url(#clip0_10218_44681)">
<rect width="103" height="32" transform="translate(20 20)" fill="white"/>
<path d="M54.2753 39.336H58.7633V40.5H52.9073V31.8H54.2753V39.336ZM64.0236 38.604H65.2836C64.9836 39.672 64.0236 40.656 62.3796 40.656C60.2916 40.656 59.1636 39.132 59.1636 37.26C59.1636 35.256 60.5076 33.924 62.3436 33.924C64.3356 33.924 65.4996 35.556 65.3676 37.656H60.4476C60.5676 38.844 61.3236 39.588 62.3316 39.588C63.2316 39.588 63.7596 39.216 64.0236 38.604ZM60.4716 36.672H64.0716C64.0356 35.712 63.3636 34.944 62.3316 34.944C61.3596 34.944 60.6396 35.448 60.4716 36.672ZM67.84 34.98C68.212 34.344 68.86 33.924 69.868 33.924C71.428 33.924 72.028 34.932 72.028 36.432V40.5H70.78V36.768C70.78 35.832 70.624 34.968 69.448 34.968C68.368 34.968 67.84 35.748 67.84 37.032V40.5H66.592V34.044H67.84V34.98ZM77.884 34.044H79.132V39.744C79.132 40.932 78.88 41.568 78.436 42.012C77.944 42.528 77.164 42.792 76.18 42.792C74.74 42.792 73.684 42.168 73.48 40.812H74.764C74.896 41.4 75.268 41.748 76.204 41.748C76.816 41.748 77.236 41.58 77.5 41.28C77.752 41.004 77.884 40.668 77.884 40.008V39.324C77.488 39.984 76.84 40.392 75.892 40.392C74.392 40.392 73.144 39.204 73.144 37.152C73.144 35.112 74.392 33.924 75.892 33.924C76.84 33.924 77.488 34.332 77.884 34.992V34.044ZM76.18 34.956C75.148 34.956 74.476 35.772 74.476 37.152C74.476 38.556 75.148 39.372 76.18 39.372C77.14 39.372 77.932 38.7 77.932 37.152C77.932 35.616 77.14 34.956 76.18 34.956ZM81.0471 32.388H82.2951V34.044H83.5671V34.992H82.2951V38.676C82.2951 39.336 82.4031 39.504 83.0271 39.504H83.5551V40.5H82.6431C81.3351 40.5 81.0471 40.176 81.0471 38.844V34.992H80.0631V34.044H81.0471V32.388ZM86.1446 34.98C86.5166 34.344 87.1646 33.924 88.1726 33.924C89.7326 33.924 90.3326 34.932 90.3326 36.432V40.5H89.0846V36.768C89.0846 35.832 88.9286 34.968 87.7526 34.968C86.6726 34.968 86.1446 35.748 86.1446 37.032V40.5H84.8966V31.8H86.1446V34.98Z" fill="#666666"/>
<mask id="path-5-inside-1_10218_44681" fill="white">
<path d="M123 20H226V52H123V20Z"/>
</mask>
<path d="M123 20H226V52H123V20Z" fill="white"/>
<path d="M123 52H124V20H123H122V52H123Z" fill="#D9D9D9" mask="url(#path-5-inside-1_10218_44681)"/>
<path d="M151.66 37.668H152.98C152.596 39.588 151.168 40.656 149.224 40.656C146.704 40.656 145.24 38.808 145.24 36.132C145.24 33.408 146.812 31.644 149.308 31.644C151.168 31.644 152.596 32.724 152.944 34.632H151.624C151.348 33.492 150.532 32.784 149.248 32.784C147.772 32.784 146.644 33.96 146.644 36.132C146.644 38.28 147.76 39.516 149.26 39.516C150.556 39.516 151.384 38.82 151.66 37.668ZM155.459 31.8V34.98C155.831 34.344 156.479 33.924 157.487 33.924C159.047 33.924 159.647 34.932 159.647 36.432V40.5H158.399V36.768C158.399 35.844 158.255 34.968 157.067 34.968C155.975 34.968 155.459 35.736 155.459 37.032V40.5H154.211V31.8H155.459ZM163.931 39.588C164.843 39.588 165.347 39.216 165.623 38.604H166.883C166.595 39.672 165.611 40.656 163.979 40.656C161.903 40.656 160.763 39.132 160.763 37.26C160.763 35.256 162.107 33.924 163.943 33.924C165.935 33.924 167.099 35.556 166.967 37.656H162.047C162.179 38.856 162.911 39.588 163.931 39.588ZM163.931 34.944C162.959 34.944 162.251 35.436 162.071 36.672H165.671C165.635 35.724 164.951 34.944 163.931 34.944ZM170.926 33.924C172.402 33.924 173.53 34.968 173.722 36.228H172.474C172.342 35.496 171.682 34.992 170.866 34.992C169.966 34.992 169.138 35.7 169.138 37.272C169.138 38.868 169.966 39.588 170.866 39.588C171.67 39.588 172.342 39.12 172.522 38.352H173.782C173.518 39.708 172.27 40.656 170.842 40.656C168.97 40.656 167.806 39.24 167.806 37.284C167.806 35.376 169.018 33.924 170.926 33.924ZM174.953 31.8H176.201V36.804L178.769 34.044H180.293L177.785 36.708L180.473 40.5H178.985L176.933 37.608L176.201 38.388V40.5H174.953V31.8ZM186.025 35.844H184.789C184.609 35.172 184.057 34.92 183.325 34.92C182.713 34.92 182.053 35.172 182.053 35.7C182.053 36.18 182.365 36.372 182.953 36.504L183.877 36.684C185.089 36.936 186.169 37.332 186.169 38.604C186.169 39.912 184.945 40.656 183.457 40.656C181.813 40.656 180.829 39.708 180.673 38.496H181.945C182.125 39.228 182.581 39.66 183.493 39.66C184.309 39.66 184.921 39.324 184.921 38.748C184.921 38.16 184.357 37.908 183.685 37.776L182.713 37.584C181.741 37.392 180.829 36.972 180.829 35.748C180.829 34.608 182.041 33.912 183.445 33.912C184.753 33.912 185.773 34.596 186.025 35.844ZM191.406 40.5V39.588C191.034 40.248 190.41 40.656 189.438 40.656C187.914 40.656 187.326 39.72 187.326 38.148V34.044H188.574V37.812C188.574 38.736 188.73 39.6 189.858 39.6C190.914 39.6 191.418 38.832 191.418 37.548V34.044H192.666V40.5H191.406ZM195.584 37.032V40.5H194.336V34.044H195.584V34.98C195.956 34.344 196.568 33.924 197.492 33.924C198.5 33.924 199.076 34.344 199.364 35.064C199.904 34.248 200.648 33.924 201.5 33.924C203.012 33.924 203.6 34.932 203.6 36.432V40.5H202.352V36.768C202.352 35.844 202.196 34.968 201.08 34.968C200.084 34.968 199.592 35.736 199.592 37.032V40.5H198.344V36.768C198.344 35.844 198.188 34.968 197.072 34.968C196.064 34.968 195.584 35.736 195.584 37.032Z" fill="#666666"/>
<mask id="path-8-inside-2_10218_44681" fill="white">
<path d="M226 20H496V52H226V20Z"/>
</mask>
<path d="M226 20H496V52H226V20Z" fill="white"/>
<path d="M226 52H227V20H226H225V52H226Z" fill="#D9D9D9" mask="url(#path-8-inside-2_10218_44681)"/>
<path d="M347.728 40.5V31.8H353.752V32.964H349.096V35.448H353.488V36.6H349.096V39.336H353.752V40.5H347.728ZM356.227 34.044V34.98C356.599 34.344 357.247 33.924 358.255 33.924C359.815 33.924 360.415 34.932 360.415 36.432V40.5H359.167V36.768C359.167 35.844 359.023 34.968 357.835 34.968C356.743 34.968 356.227 35.736 356.227 37.032V40.5H354.979V34.044H356.227ZM362.227 34.044V32.388H363.475V34.044H364.747V34.992H363.475V38.676C363.475 39.336 363.583 39.504 364.207 39.504H364.735V40.5H363.823C362.515 40.5 362.227 40.176 362.227 38.844V34.992H361.243V34.044H362.227ZM369.319 34.032V35.328C369.091 35.304 368.875 35.292 368.671 35.292C367.711 35.292 367.207 35.76 367.207 37.116V40.5H365.959V34.044H367.183V35.184C367.519 34.452 368.155 34.032 368.971 34.02C369.079 34.02 369.211 34.02 369.319 34.032ZM370.583 42.6H369.983V41.604H370.475C371.147 41.604 371.435 41.544 371.747 40.632L371.795 40.488L369.467 34.044H370.847L372.407 38.856L373.931 34.044H375.227L372.947 40.644C372.407 42.168 372.047 42.6 370.583 42.6Z" fill="#666666"/>
</g>
<rect x="20.5" y="20.5" width="475" height="31" rx="9.5" stroke="#E6E6E6"/>
<path d="M20 62V67C20 69.7614 22.2386 72 25 72H66.5C69.2614 72 71.5 74.2386 71.5 77V82" stroke="#0D0D0D" stroke-miterlimit="10"/>
<path d="M123 62V67C123 69.7614 120.761 72 118 72H76.5C73.7386 72 71.5 74.2386 71.5 77V82" stroke="#0D0D0D" stroke-miterlimit="10"/>
<path d="M123 62V67C123 69.7614 125.239 72 128 72H169.5C172.261 72 174.5 74.2386 174.5 77V82" stroke="#0D0D0D" stroke-miterlimit="10"/>
<path d="M226 62V67C226 69.7614 223.761 72 221 72H179.5C176.739 72 174.5 74.2386 174.5 77V82" stroke="#0D0D0D" stroke-miterlimit="10"/>
<path d="M226 62V67C226 69.7614 228.239 72 231 72H354C356.761 72 359 74.2386 359 77V82" stroke="#0D0D0D" stroke-miterlimit="10"/>
<path d="M492 62V67C492 69.7614 489.761 72 487 72H364C361.239 72 359 74.2386 359 77V82" stroke="#0D0D0D" stroke-miterlimit="10"/>
<g clip-path="url(#clip1_10218_44681)">
<path d="M57.2977 94.62C58.8377 94.62 59.8277 95.41 59.8277 96.48C59.8277 97.13 59.5777 97.73 58.9477 98.12C59.7577 98.59 60.0477 99.22 60.0477 99.93C60.0477 101.34 58.8377 102.13 57.2977 102.13C55.7777 102.13 54.5577 101.34 54.5577 99.93C54.5577 99.22 54.8577 98.57 55.6677 98.12C55.0677 97.77 54.7777 97.13 54.7777 96.49C54.7777 95.41 55.7777 94.62 57.2977 94.62ZM57.2977 98.68C56.4877 98.68 55.9677 99.15 55.9677 99.87C55.9677 100.59 56.4877 101.09 57.2977 101.09C58.1277 101.09 58.6377 100.59 58.6377 99.87C58.6377 99.15 58.1277 98.68 57.2977 98.68ZM58.4877 96.65C58.4877 96.05 58.0177 95.66 57.2977 95.66C56.5777 95.66 56.1177 96.05 56.1177 96.65C56.1177 97.25 56.5777 97.69 57.2977 97.69C58.0177 97.69 58.4877 97.25 58.4877 96.65ZM65.9698 101.07C66.6898 101.07 67.1998 100.37 67.1998 99.32C67.1998 98.27 66.6898 97.56 65.9698 97.56C65.2098 97.56 64.7098 98.23 64.7098 99.31C64.7098 100.42 65.2098 101.07 65.9698 101.07ZM64.7598 102H63.3798V94.75H64.7598V97.31C65.0498 96.8 65.6298 96.5 66.3098 96.5C67.6098 96.5 68.6498 97.62 68.6498 99.31C68.6498 101.03 67.5898 102.13 66.3098 102.13C65.7498 102.13 65.1098 101.92 64.7598 101.32V102ZM69.8866 103.75H69.3066V102.69H69.8266C70.2866 102.69 70.4866 102.7 70.7266 102.13L70.7866 101.98L68.7266 96.62H70.2366L71.4566 100.5L72.7066 96.62H74.1066L72.1366 101.84C71.4966 103.51 71.2266 103.75 69.8866 103.75ZM74.9174 96.62V95.16H76.2974V96.62H77.4174V97.57H76.2974V100.35C76.2974 100.9 76.4874 101.01 76.9774 101.01H77.3974V102H76.3874C75.1474 102 74.9174 101.62 74.9174 100.55V97.57H74.1574V96.62H74.9174ZM83.2916 99.69H79.3216C79.4016 100.61 80.0216 101.06 80.6816 101.06C81.1116 101.06 81.5316 100.91 81.8116 100.44H83.2316C82.9416 101.24 82.1616 102.13 80.6916 102.13C78.9616 102.13 77.9516 100.84 77.9516 99.29C77.9516 97.69 79.0616 96.5 80.6516 96.5C82.3116 96.5 83.3416 97.79 83.2916 99.69ZM80.6416 97.51C80.1216 97.51 79.4516 97.83 79.3416 98.74H81.8916C81.8616 97.83 81.2216 97.51 80.6416 97.51ZM88.5494 98.24H87.2594C87.1494 97.79 86.7494 97.47 86.1094 97.47C85.5994 97.47 85.2394 97.66 85.2394 97.99C85.2394 98.28 85.4494 98.5 85.9594 98.61L86.6794 98.77C87.7494 99.01 88.6594 99.28 88.6594 100.39C88.6594 101.47 87.5494 102.13 86.3294 102.13C85.0094 102.13 84.0094 101.45 83.8794 100.22H85.2094C85.2894 100.74 85.6494 101.13 86.3694 101.13C86.9694 101.13 87.3394 100.91 87.3394 100.52C87.3394 100.12 86.9294 99.97 86.4594 99.86L85.6594 99.69C84.6494 99.48 83.9794 99.06 83.9794 98.08C83.9794 97.12 85.0194 96.48 86.1794 96.48C87.2994 96.48 88.3594 97 88.5494 98.24Z" fill="#0D0D0D"/>
<path d="M160.298 94.62C161.838 94.62 162.828 95.41 162.828 96.48C162.828 97.13 162.578 97.73 161.948 98.12C162.758 98.59 163.048 99.22 163.048 99.93C163.048 101.34 161.838 102.13 160.298 102.13C158.778 102.13 157.558 101.34 157.558 99.93C157.558 99.22 157.858 98.57 158.668 98.12C158.068 97.77 157.778 97.13 157.778 96.49C157.778 95.41 158.778 94.62 160.298 94.62ZM160.298 98.68C159.488 98.68 158.968 99.15 158.968 99.87C158.968 100.59 159.488 101.09 160.298 101.09C161.128 101.09 161.638 100.59 161.638 99.87C161.638 99.15 161.128 98.68 160.298 98.68ZM161.488 96.65C161.488 96.05 161.018 95.66 160.298 95.66C159.578 95.66 159.118 96.05 159.118 96.65C159.118 97.25 159.578 97.69 160.298 97.69C161.018 97.69 161.488 97.25 161.488 96.65ZM168.97 101.07C169.69 101.07 170.2 100.37 170.2 99.32C170.2 98.27 169.69 97.56 168.97 97.56C168.21 97.56 167.71 98.23 167.71 99.31C167.71 100.42 168.21 101.07 168.97 101.07ZM167.76 102H166.38V94.75H167.76V97.31C168.05 96.8 168.63 96.5 169.31 96.5C170.61 96.5 171.65 97.62 171.65 99.31C171.65 101.03 170.59 102.13 169.31 102.13C168.75 102.13 168.11 101.92 167.76 101.32V102ZM172.887 103.75H172.307V102.69H172.827C173.287 102.69 173.487 102.7 173.727 102.13L173.787 101.98L171.727 96.62H173.237L174.457 100.5L175.707 96.62H177.107L175.137 101.84C174.497 103.51 174.227 103.75 172.887 103.75ZM177.917 96.62V95.16H179.297V96.62H180.417V97.57H179.297V100.35C179.297 100.9 179.487 101.01 179.977 101.01H180.397V102H179.387C178.147 102 177.917 101.62 177.917 100.55V97.57H177.157V96.62H177.917ZM186.292 99.69H182.322C182.402 100.61 183.022 101.06 183.682 101.06C184.112 101.06 184.532 100.91 184.812 100.44H186.232C185.942 101.24 185.162 102.13 183.692 102.13C181.962 102.13 180.952 100.84 180.952 99.29C180.952 97.69 182.062 96.5 183.652 96.5C185.312 96.5 186.342 97.79 186.292 99.69ZM183.642 97.51C183.122 97.51 182.452 97.83 182.342 98.74H184.892C184.862 97.83 184.222 97.51 183.642 97.51ZM191.549 98.24H190.259C190.149 97.79 189.749 97.47 189.109 97.47C188.599 97.47 188.239 97.66 188.239 97.99C188.239 98.28 188.449 98.5 188.959 98.61L189.679 98.77C190.749 99.01 191.659 99.28 191.659 100.39C191.659 101.47 190.549 102.13 189.329 102.13C188.009 102.13 187.009 101.45 186.879 100.22H188.209C188.289 100.74 188.649 101.13 189.369 101.13C189.969 101.13 190.339 100.91 190.339 100.52C190.339 100.12 189.929 99.97 189.459 99.86L188.659 99.69C187.649 99.48 186.979 99.06 186.979 98.08C186.979 97.12 188.019 96.48 189.179 96.48C190.299 96.48 191.359 97 191.549 98.24Z" fill="#0D0D0D"/>
<path d="M332.318 94.75V100.84H335.848V102H330.888V94.75H332.318ZM341.454 99.69H337.484C337.564 100.61 338.184 101.06 338.844 101.06C339.274 101.06 339.694 100.91 339.974 100.44H341.394C341.104 101.24 340.324 102.13 338.854 102.13C337.124 102.13 336.114 100.84 336.114 99.29C336.114 97.69 337.224 96.5 338.814 96.5C340.474 96.5 341.504 97.79 341.454 99.69ZM338.804 97.51C338.284 97.51 337.614 97.83 337.504 98.74H340.054C340.024 97.83 339.384 97.51 338.804 97.51ZM343.723 96.62V97.33C344.033 96.78 344.613 96.5 345.283 96.5C346.573 96.5 347.143 97.28 347.143 98.61V102H345.763V98.91C345.763 98.22 345.613 97.61 344.833 97.61C343.923 97.61 343.723 98.35 343.723 99.2V102H342.343V96.62H343.723ZM350.64 100.76C351.41 100.76 351.88 100.11 351.88 99.15C351.88 98.2 351.41 97.55 350.64 97.55C349.93 97.55 349.4 98.26 349.4 99.16C349.4 100.05 349.93 100.76 350.64 100.76ZM351.83 96.62H353.2V101.46C353.2 103.22 352.21 103.88 350.56 103.88C349.41 103.88 348.4 103.46 348.21 102.21H349.52C349.64 102.65 350.01 102.87 350.63 102.87C351.35 102.87 351.83 102.53 351.83 101.72V101C351.48 101.59 350.85 101.81 350.29 101.81C348.97 101.81 347.95 100.72 347.95 99.15C347.95 97.62 348.94 96.5 350.29 96.5C350.97 96.5 351.59 96.85 351.83 97.32V96.62ZM354.642 96.62V95.16H356.022V96.62H357.142V97.57H356.022V100.35C356.022 100.9 356.212 101.01 356.702 101.01H357.122V102H356.112C354.872 102 354.642 101.62 354.642 100.55V97.57H353.882V96.62H354.642ZM359.406 94.75V97.33C359.716 96.78 360.296 96.5 360.966 96.5C362.256 96.5 362.826 97.28 362.826 98.61V102H361.446V98.91C361.446 98.22 361.296 97.61 360.516 97.61C359.606 97.61 359.406 98.35 359.406 99.2V102H358.026V94.75H359.406ZM368.829 101.07C369.549 101.07 370.059 100.37 370.059 99.32C370.059 98.27 369.549 97.56 368.829 97.56C368.069 97.56 367.569 98.23 367.569 99.31C367.569 100.42 368.069 101.07 368.829 101.07ZM367.619 102H366.239V94.75H367.619V97.31C367.909 96.8 368.489 96.5 369.169 96.5C370.469 96.5 371.509 97.62 371.509 99.31C371.509 101.03 370.449 102.13 369.169 102.13C368.609 102.13 367.969 101.92 367.619 101.32V102ZM372.746 103.75H372.166V102.69H372.686C373.146 102.69 373.346 102.7 373.586 102.13L373.646 101.98L371.586 96.62H373.096L374.316 100.5L375.566 96.62H376.966L374.996 101.84C374.356 103.51 374.086 103.75 372.746 103.75ZM377.777 96.62V95.16H379.157V96.62H380.277V97.57H379.157V100.35C379.157 100.9 379.347 101.01 379.837 101.01H380.257V102H379.247C378.007 102 377.777 101.62 377.777 100.55V97.57H377.017V96.62H377.777ZM386.151 99.69H382.181C382.261 100.61 382.881 101.06 383.541 101.06C383.971 101.06 384.391 100.91 384.671 100.44H386.091C385.801 101.24 385.021 102.13 383.551 102.13C381.821 102.13 380.811 100.84 380.811 99.29C380.811 97.69 381.921 96.5 383.511 96.5C385.171 96.5 386.201 97.79 386.151 99.69ZM383.501 97.51C382.981 97.51 382.311 97.83 382.201 98.74H384.751C384.721 97.83 384.081 97.51 383.501 97.51ZM391.409 98.24H390.119C390.009 97.79 389.609 97.47 388.969 97.47C388.459 97.47 388.099 97.66 388.099 97.99C388.099 98.28 388.309 98.5 388.819 98.61L389.539 98.77C390.609 99.01 391.519 99.28 391.519 100.39C391.519 101.47 390.409 102.13 389.189 102.13C387.869 102.13 386.869 101.45 386.739 100.22H388.069C388.149 100.74 388.509 101.13 389.229 101.13C389.829 101.13 390.199 100.91 390.199 100.52C390.199 100.12 389.789 99.97 389.319 99.86L388.519 99.69C387.509 99.48 386.839 99.06 386.839 98.08C386.839 97.12 387.879 96.48 389.039 96.48C390.159 96.48 391.219 97 391.409 98.24Z" fill="#0D0D0D"/>
</g>
<defs>
<clipPath id="clip0_10218_44681">
<rect x="20" y="20" width="476" height="32" rx="10" fill="white"/>
</clipPath>
<clipPath id="clip1_10218_44681">
<rect x="20" y="92" width="476" height="12" rx="6" fill="white"/>
</clipPath>
</defs>
</svg>
