<svg width="465" height="289" viewBox="0 0 465 289" fill="none" xmlns="http://www.w3.org/2000/svg">
<path d="M10 0.5H454.2C459.447 0.500097 463.7 4.75335 463.7 10V279C463.7 284.247 459.447 288.5 454.2 288.5H10C4.7533 288.5 0.5 284.247 0.5 279V10C0.5 4.7533 4.75329 0.5 10 0.5Z" fill="#FAFAFA"/>
<path d="M10 0.5H454.2C459.447 0.500097 463.7 4.75335 463.7 10V279C463.7 284.247 459.447 288.5 454.2 288.5H10C4.7533 288.5 0.5 284.247 0.5 279V10C0.5 4.7533 4.75329 0.5 10 0.5Z" fill="#E6E6E6"/>
<path d="M10 0.5H454.2C459.447 0.500097 463.7 4.75335 463.7 10V279C463.7 284.247 459.447 288.5 454.2 288.5H10C4.7533 288.5 0.5 284.247 0.5 279V10C0.5 4.7533 4.75329 0.5 10 0.5Z" stroke="#D9D9D9"/>
<g clip-path="url(#clip0_10218_44792)">
<path d="M151.266 25.88L149.202 28.424H151.266V25.88ZM154.446 28.424V30.164H153.246V32H151.266V30.164H147.03V28.616L151.41 23.3H153.246V28.424H154.446ZM158.823 32.156C156.375 32.156 155.091 30.416 155.091 27.632C155.091 24.86 156.375 23.156 158.823 23.156C161.259 23.156 162.543 24.86 162.543 27.632C162.543 30.416 161.259 32.156 158.823 32.156ZM158.823 30.692C159.831 30.692 160.515 29.744 160.515 27.632C160.515 25.532 159.831 24.62 158.823 24.62C157.803 24.62 157.119 25.532 157.119 27.632C157.119 29.744 157.803 30.692 158.823 30.692ZM167.869 29.648H163.633V27.98H167.869V29.648ZM172.411 26.936C171.631 26.936 170.983 27.44 170.983 28.772C170.983 30.104 171.631 30.62 172.411 30.62C173.203 30.62 173.851 29.972 173.851 28.772C173.851 27.572 173.203 26.936 172.411 26.936ZM171.079 23.3V26.42C171.499 25.712 172.363 25.4 173.059 25.4C174.727 25.4 175.903 26.66 175.903 28.772C175.903 30.884 174.727 32.156 173.059 32.156C172.363 32.156 171.499 31.844 171.079 31.136V32H169.099V23.3H171.079ZM177.4 34.1H176.764V32.672H177.16C177.976 32.672 178.144 32.612 178.336 32.132L178.396 31.964L175.984 25.544H178.156L179.344 29.588L180.616 25.544H182.74L180.208 32C179.56 33.644 179.08 34.1 177.4 34.1ZM183.766 25.544V23.78H185.746V25.544H187.162V26.948H185.746V29.84C185.746 30.452 185.938 30.572 186.598 30.572H187.162V32H185.902C184.306 32 183.766 31.688 183.766 30.188V26.948H182.746V25.544H183.766ZM192.76 29.972H194.584C194.008 31.496 192.652 32.156 191.368 32.156C189.268 32.156 187.828 30.884 187.828 28.736C187.828 26.672 189.4 25.352 191.284 25.352C193.432 25.352 194.74 26.972 194.608 29.276H189.82C189.88 30.188 190.588 30.62 191.308 30.62C192.064 30.62 192.532 30.356 192.76 29.972ZM191.284 26.864C190.576 26.864 189.952 27.224 189.844 28.076H192.64C192.604 27.26 192.04 26.864 191.284 26.864ZM201.543 26.936C200.763 26.936 200.115 27.44 200.115 28.772C200.115 30.104 200.763 30.62 201.543 30.62C202.335 30.62 202.983 29.972 202.983 28.772C202.983 27.572 202.335 26.936 201.543 26.936ZM200.211 23.3V26.42C200.631 25.712 201.495 25.4 202.191 25.4C203.859 25.4 205.035 26.66 205.035 28.772C205.035 30.884 203.859 32.156 202.191 32.156C201.495 32.156 200.631 31.844 200.211 31.136V32H198.231V23.3H200.211ZM208.016 23.3V32H206.036V23.3H208.016ZM212.471 26.888C211.691 26.888 211.067 27.368 211.067 28.748C211.067 30.104 211.667 30.62 212.471 30.62C213.275 30.62 213.875 30.104 213.875 28.748C213.875 27.368 213.251 26.888 212.471 26.888ZM212.471 25.352C214.259 25.352 215.891 26.408 215.891 28.748C215.891 31.088 214.259 32.156 212.471 32.156C210.683 32.156 209.051 31.088 209.051 28.748C209.051 26.408 210.683 25.352 212.471 25.352ZM219.933 25.352C221.277 25.352 222.753 25.964 223.137 27.908H221.289C221.109 27.152 220.641 26.888 220.053 26.888C219.345 26.888 218.649 27.368 218.649 28.748C218.649 30.152 219.345 30.62 220.053 30.62C220.785 30.62 221.229 30.236 221.373 29.624H223.221C222.777 31.544 221.229 32.156 219.933 32.156C217.809 32.156 216.633 30.788 216.633 28.736C216.633 26.684 217.977 25.352 219.933 25.352ZM224.165 23.3H226.145V28.004L228.317 25.544H230.657L228.353 28.016L230.849 32H228.533L227.009 29.456L226.145 30.38V32H224.165V23.3ZM236.071 23.3V26.396C236.359 25.916 237.055 25.4 238.075 25.4C239.731 25.4 240.247 26.372 240.247 28.124V32H238.267V28.616C238.267 27.692 238.243 26.936 237.283 26.936C236.431 26.936 236.071 27.488 236.071 28.688V32H234.091V23.3H236.071ZM246.092 29.972H247.916C247.34 31.496 245.984 32.156 244.7 32.156C242.6 32.156 241.16 30.884 241.16 28.736C241.16 26.672 242.732 25.352 244.616 25.352C246.764 25.352 248.072 26.972 247.94 29.276H243.152C243.212 30.188 243.92 30.62 244.64 30.62C245.396 30.62 245.864 30.356 246.092 29.972ZM244.616 26.864C243.908 26.864 243.284 27.224 243.176 28.076H245.972C245.936 27.26 245.372 26.864 244.616 26.864ZM252.933 27.968V27.716C252.933 26.948 252.561 26.684 251.841 26.684C251.205 26.684 250.773 27.008 250.689 27.632H248.841C248.937 26.42 250.089 25.34 252.009 25.34C253.869 25.34 254.925 26.096 254.889 28.052L254.865 29.456V30.128C254.865 30.836 254.913 31.592 255.009 32H253.065L253.041 31.22C252.561 31.904 251.793 32.156 250.869 32.156C249.645 32.156 248.637 31.436 248.637 30.26C248.637 28.676 250.425 28.16 252.933 27.968ZM252.981 29.288V29.132C251.601 29.264 250.677 29.42 250.677 30.116C250.677 30.536 251.073 30.812 251.589 30.812C252.381 30.812 252.981 30.476 252.981 29.288ZM260.55 23.3H262.53V32H260.55V31.136C260.13 31.844 259.266 32.156 258.57 32.156C256.902 32.156 255.726 30.884 255.726 28.772C255.726 26.66 256.902 25.4 258.57 25.4C259.266 25.4 260.13 25.712 260.55 26.42V23.3ZM259.218 26.936C258.426 26.936 257.778 27.572 257.778 28.772C257.778 29.972 258.426 30.62 259.218 30.62C259.998 30.62 260.646 30.104 260.646 28.772C260.646 27.44 259.998 26.936 259.218 26.936ZM268.498 29.972H270.322C269.746 31.496 268.39 32.156 267.106 32.156C265.006 32.156 263.566 30.884 263.566 28.736C263.566 26.672 265.138 25.352 267.022 25.352C269.17 25.352 270.478 26.972 270.346 29.276H265.558C265.618 30.188 266.326 30.62 267.046 30.62C267.802 30.62 268.27 30.356 268.498 29.972ZM267.022 26.864C266.314 26.864 265.69 27.224 265.582 28.076H268.378C268.342 27.26 267.778 26.864 267.022 26.864ZM275.364 25.508V27.44C275.136 27.404 275.004 27.404 274.824 27.404C273.864 27.404 273.372 27.752 273.372 28.76V32H271.392V25.544H273.3V26.768C273.6 26 274.14 25.532 275.064 25.496H275.208C275.268 25.496 275.316 25.496 275.364 25.508Z" fill="#0D0D0D"/>
</g>
<path d="M402 65V60C402 57.2386 399.761 55 397 55L216 55C213.239 55 211 52.7614 211 50V45" stroke="#0D0D0D" stroke-miterlimit="10"/>
<path d="M20 65V60C20 57.2386 22.2386 55 25 55L206 55C208.761 55 211 52.7614 211 50V45" stroke="#0D0D0D" stroke-miterlimit="10"/>
<g clip-path="url(#clip1_10218_44792)">
<rect width="127.2" height="32" transform="translate(20 75)" fill="white"/>
<path d="M65.4719 95.5H63.5639L59.7239 88.3V95.5H58.3799V86.8H60.2879L64.1279 93.988V86.8H65.4719V95.5ZM68.1596 92.296C68.1596 93.88 69.0356 94.6 69.9716 94.6C70.9316 94.6 71.7956 93.868 71.7956 92.296C71.7956 90.7 70.9316 89.98 69.9716 89.98C69.0356 89.98 68.1596 90.664 68.1596 92.296ZM69.9716 88.924C71.5076 88.924 73.1156 89.956 73.1156 92.296C73.1156 94.624 71.5076 95.656 69.9716 95.656C68.4476 95.656 66.8396 94.624 66.8396 92.296C66.8396 89.956 68.4476 88.924 69.9716 88.924ZM75.6095 89.044V89.98C75.9815 89.344 76.6295 88.924 77.6375 88.924C79.1975 88.924 79.7975 89.932 79.7975 91.432V95.5H78.5495V91.768C78.5495 90.844 78.4055 89.968 77.2175 89.968C76.1255 89.968 75.6095 90.736 75.6095 92.032V95.5H74.3615V89.044H75.6095ZM84.0336 88.924C85.5096 88.924 86.6376 89.968 86.8296 91.228H85.5816C85.4496 90.496 84.7896 89.992 83.9736 89.992C83.0736 89.992 82.2456 90.7 82.2456 92.272C82.2456 93.868 83.0736 94.588 83.9736 94.588C84.7776 94.588 85.4496 94.12 85.6296 93.352H86.8896C86.6256 94.708 85.3776 95.656 83.9496 95.656C82.0776 95.656 80.9136 94.24 80.9136 92.284C80.9136 90.376 82.1256 88.924 84.0336 88.924ZM90.8433 94.588C91.7553 94.588 92.2593 94.216 92.5353 93.604H93.7953C93.5073 94.672 92.5233 95.656 90.8913 95.656C88.8153 95.656 87.6753 94.132 87.6753 92.26C87.6753 90.256 89.0193 88.924 90.8553 88.924C92.8473 88.924 94.0113 90.556 93.8793 92.656H88.9593C89.0913 93.856 89.8233 94.588 90.8433 94.588ZM90.8433 89.944C89.8713 89.944 89.1633 90.436 88.9833 91.672H92.5833C92.5473 90.724 91.8633 89.944 90.8433 89.944ZM95.4637 95.5H94.2397L97.6357 86.8H98.8717L95.4637 95.5ZM101.162 86.8V95.5H99.794V86.8H101.162ZM102.199 86.8H103.699L106.015 93.976L108.271 86.8H109.711L106.747 95.5H105.199L102.199 86.8Z" fill="#666666"/>
<mask id="path-9-inside-1_10218_44792" fill="white">
<path d="M147.2 75H316.8V107H147.2V75Z"/>
</mask>
<path d="M147.2 75H316.8V107H147.2V75Z" fill="white"/>
<path d="M147.2 107H148.2V75H147.2H146.2V107H147.2Z" fill="#D9D9D9" mask="url(#path-9-inside-1_10218_44792)"/>
<path d="M224.841 95.5V87.964H222.045V86.8H228.993V87.964H226.209V95.5H224.841ZM232.87 92.896V92.428C230.866 92.62 229.81 92.908 229.81 93.736C229.81 94.324 230.266 94.696 231.034 94.696C232.054 94.696 232.87 94.18 232.87 92.896ZM230.758 95.656C229.45 95.656 228.454 94.936 228.454 93.76C228.454 92.188 230.314 91.756 232.81 91.504V91.372C232.81 90.232 232.21 89.848 231.418 89.848C230.554 89.848 230.062 90.28 230.014 91.084H228.754C228.85 89.704 229.99 88.888 231.466 88.888C233.134 88.888 234.082 89.692 234.07 91.624C234.07 91.78 234.046 92.896 234.046 93.172C234.046 94.144 234.106 94.924 234.226 95.5H233.026C232.978 95.248 232.954 95.068 232.918 94.648C232.534 95.308 231.814 95.656 230.758 95.656ZM239.907 89.992V89.044H241.155V94.744C241.155 95.932 240.903 96.568 240.459 97.012C239.967 97.528 239.199 97.792 238.203 97.792C236.751 97.792 235.707 97.168 235.503 95.812H236.787C236.919 96.4 237.279 96.748 238.227 96.748C238.815 96.748 239.247 96.592 239.523 96.28C239.775 96.004 239.907 95.68 239.907 95.008V94.324C239.511 94.996 238.875 95.392 237.915 95.392C236.415 95.392 235.167 94.216 235.167 92.152C235.167 90.1 236.415 88.924 237.915 88.924C238.875 88.924 239.511 89.32 239.907 89.992ZM239.955 92.152C239.955 90.616 239.163 89.956 238.203 89.956C237.159 89.956 236.499 90.76 236.499 92.152C236.499 93.556 237.159 94.372 238.203 94.372C239.163 94.372 239.955 93.688 239.955 92.152Z" fill="#666666"/>
<mask id="path-12-inside-2_10218_44792" fill="white">
<path d="M316.8 75H401.58V107H316.8V75Z"/>
</mask>
<path d="M316.8 75H401.58V107H316.8V75Z" fill="white"/>
<path d="M316.8 107H317.8V75H316.8H315.8V107H316.8Z" fill="#D9D9D9" mask="url(#path-12-inside-2_10218_44792)"/>
<path d="M336.35 92.668H337.67C337.286 94.588 335.858 95.656 333.914 95.656C331.394 95.656 329.93 93.808 329.93 91.132C329.93 88.408 331.502 86.644 333.998 86.644C335.858 86.644 337.286 87.724 337.634 89.632H336.314C336.038 88.492 335.222 87.784 333.938 87.784C332.462 87.784 331.334 88.96 331.334 91.132C331.334 93.28 332.45 94.516 333.95 94.516C335.246 94.516 336.074 93.82 336.35 92.668ZM340.149 86.8V89.98C340.521 89.344 341.169 88.924 342.177 88.924C343.737 88.924 344.337 89.932 344.337 91.432V95.5H343.089V91.768C343.089 90.844 342.945 89.968 341.757 89.968C340.665 89.968 340.149 90.736 340.149 92.032V95.5H338.901V86.8H340.149ZM348.621 94.588C349.533 94.588 350.037 94.216 350.313 93.604H351.573C351.285 94.672 350.301 95.656 348.669 95.656C346.593 95.656 345.453 94.132 345.453 92.26C345.453 90.256 346.797 88.924 348.633 88.924C350.625 88.924 351.789 90.556 351.657 92.656H346.737C346.869 93.856 347.601 94.588 348.621 94.588ZM348.621 89.944C347.649 89.944 346.941 90.436 346.761 91.672H350.361C350.325 90.724 349.641 89.944 348.621 89.944ZM355.616 88.924C357.092 88.924 358.22 89.968 358.412 91.228H357.164C357.032 90.496 356.372 89.992 355.556 89.992C354.656 89.992 353.828 90.7 353.828 92.272C353.828 93.868 354.656 94.588 355.556 94.588C356.36 94.588 357.032 94.12 357.212 93.352H358.472C358.208 94.708 356.96 95.656 355.532 95.656C353.66 95.656 352.496 94.24 352.496 92.284C352.496 90.376 353.708 88.924 355.616 88.924ZM359.643 86.8H360.891V91.804L363.459 89.044H364.983L362.475 91.708L365.163 95.5H363.675L361.623 92.608L360.891 93.388V95.5H359.643V86.8ZM370.715 90.844H369.479C369.299 90.172 368.747 89.92 368.015 89.92C367.403 89.92 366.743 90.172 366.743 90.7C366.743 91.18 367.055 91.372 367.643 91.504L368.567 91.684C369.779 91.936 370.859 92.332 370.859 93.604C370.859 94.912 369.635 95.656 368.147 95.656C366.503 95.656 365.519 94.708 365.363 93.496H366.635C366.815 94.228 367.271 94.66 368.183 94.66C368.999 94.66 369.611 94.324 369.611 93.748C369.611 93.16 369.047 92.908 368.375 92.776L367.403 92.584C366.431 92.392 365.519 91.972 365.519 90.748C365.519 89.608 366.731 88.912 368.135 88.912C369.443 88.912 370.463 89.596 370.715 90.844ZM376.095 95.5V94.588C375.723 95.248 375.099 95.656 374.127 95.656C372.603 95.656 372.015 94.72 372.015 93.148V89.044H373.263V92.812C373.263 93.736 373.419 94.6 374.547 94.6C375.603 94.6 376.107 93.832 376.107 92.548V89.044H377.355V95.5H376.095ZM380.274 92.032V95.5H379.026V89.044H380.274V89.98C380.646 89.344 381.258 88.924 382.182 88.924C383.19 88.924 383.766 89.344 384.054 90.064C384.594 89.248 385.338 88.924 386.19 88.924C387.702 88.924 388.29 89.932 388.29 91.432V95.5H387.042V91.768C387.042 90.844 386.886 89.968 385.77 89.968C384.774 89.968 384.282 90.736 384.282 92.032V95.5H383.034V91.768C383.034 90.844 382.878 89.968 381.762 89.968C380.754 89.968 380.274 90.736 380.274 92.032Z" fill="#666666"/>
</g>
<rect x="20.5" y="75.5" width="380.58" height="31" rx="9.5" stroke="#E6E6E6"/>
<path d="M20 117V122C20 124.761 22.2386 127 25 127H78.6C81.3614 127 83.6 129.239 83.6 132V137" stroke="#0D0D0D" stroke-miterlimit="10"/>
<path d="M147.2 117V122C147.2 124.761 144.962 127 142.2 127H88.6002C85.8388 127 83.6002 129.239 83.6002 132V137" stroke="#0D0D0D" stroke-miterlimit="10"/>
<path d="M147.2 117V122C147.2 124.761 149.439 127 152.2 127H227C229.762 127 232 129.239 232 132V137" stroke="#0D0D0D" stroke-miterlimit="10"/>
<path d="M316.8 117V122C316.8 124.761 314.561 127 311.8 127H237C234.238 127 232 129.239 232 132V137" stroke="#0D0D0D" stroke-miterlimit="10"/>
<path d="M316.8 117V122C316.8 124.761 319.038 127 321.8 127H353.4C356.161 127 358.4 129.239 358.4 132V137" stroke="#0D0D0D" stroke-miterlimit="10"/>
<path d="M400 117V122C400 124.761 397.761 127 395 127H363.4C360.638 127 358.4 129.239 358.4 132V137" stroke="#0D0D0D" stroke-miterlimit="10"/>
<g clip-path="url(#clip2_10218_44792)">
<path d="M67.355 157H65.975V151.58H64.415V150.64C65.455 150.61 65.965 150.54 66.305 149.75H67.355V157ZM69.9664 154.65C69.9664 155.52 70.5364 156.09 71.2964 156.09C72.0464 156.09 72.5964 155.53 72.5964 154.65C72.5964 153.8 72.0464 153.24 71.2964 153.24C70.5364 153.24 69.9664 153.8 69.9664 154.65ZM71.3564 150.67C70.4364 150.67 69.8864 151.52 69.8864 152.88C70.1964 152.49 70.7764 152.19 71.5364 152.19C72.8764 152.19 73.9964 153.1 73.9964 154.67C73.9964 156.16 72.8664 157.13 71.2964 157.13C69.3564 157.13 68.5064 155.57 68.5064 153.54C68.5064 151.46 69.2764 149.62 71.4464 149.62C73.0264 149.62 73.7664 150.69 73.8464 151.62H72.4964C72.4264 151.02 71.9564 150.67 71.3564 150.67ZM79.8516 156.07C80.5716 156.07 81.0816 155.37 81.0816 154.32C81.0816 153.27 80.5716 152.56 79.8516 152.56C79.0916 152.56 78.5916 153.23 78.5916 154.31C78.5916 155.42 79.0916 156.07 79.8516 156.07ZM78.6416 157H77.2616V149.75H78.6416V152.31C78.9316 151.8 79.5116 151.5 80.1916 151.5C81.4916 151.5 82.5316 152.62 82.5316 154.31C82.5316 156.03 81.4716 157.13 80.1916 157.13C79.6316 157.13 78.9916 156.92 78.6416 156.32V157ZM83.7684 158.75H83.1884V157.69H83.7084C84.1684 157.69 84.3684 157.7 84.6084 157.13L84.6684 156.98L82.6084 151.62H84.1184L85.3384 155.5L86.5884 151.62H87.9884L86.0184 156.84C85.3784 158.51 85.1084 158.75 83.7684 158.75ZM88.7993 151.62V150.16H90.1793V151.62H91.2993V152.57H90.1793V155.35C90.1793 155.9 90.3693 156.01 90.8593 156.01H91.2793V157H90.2693C89.0293 157 88.7993 156.62 88.7993 155.55V152.57H88.0393V151.62H88.7993ZM97.1735 154.69H93.2035C93.2835 155.61 93.9035 156.06 94.5635 156.06C94.9935 156.06 95.4135 155.91 95.6935 155.44H97.1135C96.8235 156.24 96.0435 157.13 94.5735 157.13C92.8435 157.13 91.8335 155.84 91.8335 154.29C91.8335 152.69 92.9435 151.5 94.5335 151.5C96.1935 151.5 97.2235 152.79 97.1735 154.69ZM94.5235 152.51C94.0035 152.51 93.3335 152.83 93.2235 153.74H95.7735C95.7435 152.83 95.1035 152.51 94.5235 152.51ZM102.431 153.24H101.141C101.031 152.79 100.631 152.47 99.9912 152.47C99.4812 152.47 99.1212 152.66 99.1212 152.99C99.1212 153.28 99.3312 153.5 99.8412 153.61L100.561 153.77C101.631 154.01 102.541 154.28 102.541 155.39C102.541 156.47 101.431 157.13 100.211 157.13C98.8912 157.13 97.8912 156.45 97.7612 155.22H99.0912C99.1712 155.74 99.5312 156.13 100.251 156.13C100.851 156.13 101.221 155.91 101.221 155.52C101.221 155.12 100.811 154.97 100.341 154.86L99.5412 154.69C98.5312 154.48 97.8612 154.06 97.8612 153.08C97.8612 152.12 98.9012 151.48 100.061 151.48C101.181 151.48 102.241 152 102.431 153.24Z" fill="#0D0D0D"/>
<path d="M215.755 157H214.375V151.58H212.815V150.64C213.855 150.61 214.365 150.54 214.705 149.75H215.755V157ZM218.367 154.65C218.367 155.52 218.937 156.09 219.697 156.09C220.447 156.09 220.997 155.53 220.997 154.65C220.997 153.8 220.447 153.24 219.697 153.24C218.937 153.24 218.367 153.8 218.367 154.65ZM219.757 150.67C218.837 150.67 218.287 151.52 218.287 152.88C218.597 152.49 219.177 152.19 219.937 152.19C221.277 152.19 222.397 153.1 222.397 154.67C222.397 156.16 221.267 157.13 219.697 157.13C217.757 157.13 216.907 155.57 216.907 153.54C216.907 151.46 217.677 149.62 219.847 149.62C221.427 149.62 222.167 150.69 222.247 151.62H220.897C220.827 151.02 220.357 150.67 219.757 150.67ZM228.252 156.07C228.972 156.07 229.482 155.37 229.482 154.32C229.482 153.27 228.972 152.56 228.252 152.56C227.492 152.56 226.992 153.23 226.992 154.31C226.992 155.42 227.492 156.07 228.252 156.07ZM227.042 157H225.662V149.75H227.042V152.31C227.332 151.8 227.912 151.5 228.592 151.5C229.892 151.5 230.932 152.62 230.932 154.31C230.932 156.03 229.872 157.13 228.592 157.13C228.032 157.13 227.392 156.92 227.042 156.32V157ZM232.169 158.75H231.589V157.69H232.109C232.569 157.69 232.769 157.7 233.009 157.13L233.069 156.98L231.009 151.62H232.519L233.739 155.5L234.989 151.62H236.389L234.419 156.84C233.779 158.51 233.509 158.75 232.169 158.75ZM237.2 151.62V150.16H238.58V151.62H239.7V152.57H238.58V155.35C238.58 155.9 238.77 156.01 239.26 156.01H239.68V157H238.67C237.43 157 237.2 156.62 237.2 155.55V152.57H236.44V151.62H237.2ZM245.574 154.69H241.604C241.684 155.61 242.304 156.06 242.964 156.06C243.394 156.06 243.814 155.91 244.094 155.44H245.514C245.224 156.24 244.444 157.13 242.974 157.13C241.244 157.13 240.234 155.84 240.234 154.29C240.234 152.69 241.344 151.5 242.934 151.5C244.594 151.5 245.624 152.79 245.574 154.69ZM242.924 152.51C242.404 152.51 241.734 152.83 241.624 153.74H244.174C244.144 152.83 243.504 152.51 242.924 152.51ZM250.832 153.24H249.542C249.432 152.79 249.032 152.47 248.392 152.47C247.882 152.47 247.522 152.66 247.522 152.99C247.522 153.28 247.732 153.5 248.242 153.61L248.962 153.77C250.032 154.01 250.942 154.28 250.942 155.39C250.942 156.47 249.832 157.13 248.612 157.13C247.292 157.13 246.292 156.45 246.162 155.22H247.492C247.572 155.74 247.932 156.13 248.652 156.13C249.252 156.13 249.622 155.91 249.622 155.52C249.622 155.12 249.212 154.97 248.742 154.86L247.942 154.69C246.932 154.48 246.262 154.06 246.262 153.08C246.262 152.12 247.302 151.48 248.462 151.48C249.582 151.48 250.642 152 250.832 153.24Z" fill="#0D0D0D"/>
<path d="M345.097 149.62C346.637 149.62 347.627 150.41 347.627 151.48C347.627 152.13 347.377 152.73 346.747 153.12C347.557 153.59 347.847 154.22 347.847 154.93C347.847 156.34 346.637 157.13 345.097 157.13C343.577 157.13 342.357 156.34 342.357 154.93C342.357 154.22 342.657 153.57 343.467 153.12C342.867 152.77 342.577 152.13 342.577 151.49C342.577 150.41 343.577 149.62 345.097 149.62ZM345.097 153.68C344.287 153.68 343.767 154.15 343.767 154.87C343.767 155.59 344.287 156.09 345.097 156.09C345.927 156.09 346.437 155.59 346.437 154.87C346.437 154.15 345.927 153.68 345.097 153.68ZM346.287 151.65C346.287 151.05 345.817 150.66 345.097 150.66C344.377 150.66 343.917 151.05 343.917 151.65C343.917 152.25 344.377 152.69 345.097 152.69C345.817 152.69 346.287 152.25 346.287 151.65ZM353.77 156.07C354.49 156.07 355 155.37 355 154.32C355 153.27 354.49 152.56 353.77 152.56C353.01 152.56 352.51 153.23 352.51 154.31C352.51 155.42 353.01 156.07 353.77 156.07ZM352.56 157H351.18V149.75H352.56V152.31C352.85 151.8 353.43 151.5 354.11 151.5C355.41 151.5 356.45 152.62 356.45 154.31C356.45 156.03 355.39 157.13 354.11 157.13C353.55 157.13 352.91 156.92 352.56 156.32V157ZM357.686 158.75H357.106V157.69H357.626C358.086 157.69 358.286 157.7 358.526 157.13L358.586 156.98L356.526 151.62H358.036L359.256 155.5L360.506 151.62H361.906L359.936 156.84C359.296 158.51 359.026 158.75 357.686 158.75ZM362.717 151.62V150.16H364.097V151.62H365.217V152.57H364.097V155.35C364.097 155.9 364.287 156.01 364.777 156.01H365.197V157H364.187C362.947 157 362.717 156.62 362.717 155.55V152.57H361.957V151.62H362.717ZM371.091 154.69H367.121C367.201 155.61 367.821 156.06 368.481 156.06C368.911 156.06 369.331 155.91 369.611 155.44H371.031C370.741 156.24 369.961 157.13 368.491 157.13C366.761 157.13 365.751 155.84 365.751 154.29C365.751 152.69 366.861 151.5 368.451 151.5C370.111 151.5 371.141 152.79 371.091 154.69ZM368.441 152.51C367.921 152.51 367.251 152.83 367.141 153.74H369.691C369.661 152.83 369.021 152.51 368.441 152.51ZM376.349 153.24H375.059C374.949 152.79 374.549 152.47 373.909 152.47C373.399 152.47 373.039 152.66 373.039 152.99C373.039 153.28 373.249 153.5 373.759 153.61L374.479 153.77C375.549 154.01 376.459 154.28 376.459 155.39C376.459 156.47 375.349 157.13 374.129 157.13C372.809 157.13 371.809 156.45 371.679 155.22H373.009C373.089 155.74 373.449 156.13 374.169 156.13C374.769 156.13 375.139 155.91 375.139 155.52C375.139 155.12 374.729 154.97 374.259 154.86L373.459 154.69C372.449 154.48 371.779 154.06 371.779 153.08C371.779 152.12 372.819 151.48 373.979 151.48C375.099 151.48 376.159 152 376.349 153.24Z" fill="#0D0D0D"/>
</g>
<path d="M198.286 264.156C200.11 264.156 201.43 265.056 201.43 266.604C201.43 268.428 199.87 269.904 197.302 271.38H201.466V273H194.782V271.38C197.122 269.676 199.438 268.152 199.438 266.724C199.438 265.968 198.886 265.62 198.226 265.62C197.53 265.62 196.774 266.04 196.834 267.432H194.878C194.818 265.368 196.27 264.156 198.286 264.156ZM205.826 271.692C206.702 271.692 207.362 271.14 207.362 270.132C207.362 269.064 206.63 268.548 205.862 268.548C205.178 268.548 204.674 268.848 204.374 269.412L202.562 269.232L203.174 264.3H208.994V265.908H204.818L204.614 267.54C205.034 267.252 205.73 267.084 206.342 267.084C207.914 267.084 209.402 268.104 209.402 270.12C209.402 272.112 207.758 273.156 205.85 273.156C204.05 273.156 202.622 272.172 202.334 270.324H204.242C204.422 271.332 205.058 271.692 205.826 271.692ZM212.425 270.144C212.425 271.092 212.977 271.692 213.841 271.692C214.705 271.692 215.221 271.092 215.221 270.144C215.221 269.232 214.705 268.596 213.841 268.596C212.977 268.596 212.425 269.184 212.425 270.144ZM213.961 265.584C213.049 265.584 212.365 266.268 212.401 267.744C212.833 267.36 213.409 267.108 214.273 267.108C215.845 267.108 217.249 268.368 217.249 270.144C217.249 271.98 215.821 273.156 213.841 273.156C211.369 273.156 210.337 271.272 210.337 268.86C210.337 266.316 211.417 264.156 214.069 264.156C216.085 264.156 217.057 265.284 217.153 266.664H215.209C215.113 265.848 214.585 265.584 213.961 265.584ZM218.429 264.3H220.409V269.004L222.581 266.544H224.921L222.617 269.016L225.113 273H222.797L221.273 270.456L220.409 271.38V273H218.429V264.3ZM225.86 273V264.3H229.652C231.56 264.3 232.976 264.732 232.976 266.556C232.976 267.36 232.616 267.948 231.944 268.368C232.76 268.656 233.324 269.268 233.324 270.324C233.324 272.28 231.92 273 229.808 273H225.86ZM227.912 269.304V271.272H229.832C230.708 271.272 231.152 270.9 231.152 270.288C231.152 269.676 230.708 269.304 229.832 269.304H227.912ZM227.912 266.028V267.78H229.724C230.444 267.78 230.84 267.432 230.84 266.892C230.84 266.352 230.444 266.028 229.724 266.028H227.912ZM240.233 267.936C239.453 267.936 238.805 268.44 238.805 269.772C238.805 271.104 239.453 271.62 240.233 271.62C241.025 271.62 241.673 270.972 241.673 269.772C241.673 268.572 241.025 267.936 240.233 267.936ZM238.901 264.3V267.42C239.321 266.712 240.185 266.4 240.881 266.4C242.549 266.4 243.725 267.66 243.725 269.772C243.725 271.884 242.549 273.156 240.881 273.156C240.185 273.156 239.321 272.844 238.901 272.136V273H236.921V264.3H238.901ZM246.706 264.3V273H244.726V264.3H246.706ZM251.16 267.888C250.38 267.888 249.756 268.368 249.756 269.748C249.756 271.104 250.356 271.62 251.16 271.62C251.964 271.62 252.564 271.104 252.564 269.748C252.564 268.368 251.94 267.888 251.16 267.888ZM251.16 266.352C252.948 266.352 254.58 267.408 254.58 269.748C254.58 272.088 252.948 273.156 251.16 273.156C249.372 273.156 247.74 272.088 247.74 269.748C247.74 267.408 249.372 266.352 251.16 266.352ZM258.622 266.352C259.966 266.352 261.442 266.964 261.826 268.908H259.978C259.798 268.152 259.33 267.888 258.742 267.888C258.034 267.888 257.338 268.368 257.338 269.748C257.338 271.152 258.034 271.62 258.742 271.62C259.474 271.62 259.918 271.236 260.062 270.624H261.91C261.466 272.544 259.918 273.156 258.622 273.156C256.498 273.156 255.322 271.788 255.322 269.736C255.322 267.684 256.666 266.352 258.622 266.352ZM262.854 264.3H264.834V269.004L267.006 266.544H269.346L267.042 269.016L269.538 273H267.222L265.698 270.456L264.834 271.38V273H262.854V264.3Z" fill="#0D0D0D"/>
<defs>
<clipPath id="clip0_10218_44792">
<rect x="20" y="20" width="382" height="15" rx="7.5" fill="white"/>
</clipPath>
<clipPath id="clip1_10218_44792">
<rect x="20" y="75" width="381.58" height="32" rx="10" fill="white"/>
</clipPath>
<clipPath id="clip2_10218_44792">
<rect x="20" y="147" width="424.2" height="12" rx="6" fill="white"/>
</clipPath>
</defs>
</svg>
