<svg width="464" height="172" viewBox="0 0 464 172" fill="none" xmlns="http://www.w3.org/2000/svg">
<path d="M10 0.5H454C459.247 0.500001 463.5 4.7533 463.5 10V162C463.5 167.247 459.247 171.5 454 171.5H10C4.7533 171.5 0.5 167.247 0.5 162V10C0.500003 4.7533 4.7533 0.5 10 0.5Z" fill="#FAFAFA"/>
<path d="M10 0.5H454C459.247 0.500001 463.5 4.7533 463.5 10V162C463.5 167.247 459.247 171.5 454 171.5H10C4.7533 171.5 0.5 167.247 0.5 162V10C0.500003 4.7533 4.7533 0.5 10 0.5Z" fill="#E6E6E6"/>
<path d="M10 0.5H454C459.247 0.500001 463.5 4.7533 463.5 10V162C463.5 167.247 459.247 171.5 454 171.5H10C4.7533 171.5 0.5 167.247 0.5 162V10C0.500003 4.7533 4.7533 0.5 10 0.5Z" stroke="#D9D9D9"/>
<g clip-path="url(#clip0_10218_44845)">
<path d="M24.104 32.156C22.088 32.156 20.552 31.16 20.552 29.42C20.552 28.604 20.828 27.884 21.728 27.32C21.116 26.9 20.792 26.408 20.792 25.496C20.792 24.188 22.088 23.156 24.104 23.156C26.12 23.156 27.404 24.188 27.404 25.496C27.404 26.408 27.068 26.9 26.48 27.32C27.38 27.884 27.656 28.604 27.656 29.42C27.656 31.16 26.12 32.156 24.104 32.156ZM24.104 30.692C25.088 30.692 25.628 30.068 25.628 29.348C25.628 28.628 25.1 28.052 24.104 28.052C23.108 28.052 22.58 28.628 22.58 29.348C22.58 30.068 23.12 30.692 24.104 30.692ZM24.104 26.756C25.004 26.756 25.448 26.3 25.448 25.688C25.448 25.064 25.004 24.62 24.104 24.62C23.204 24.62 22.76 25.064 22.76 25.688C22.76 26.3 23.204 26.756 24.104 26.756ZM32.8145 29.648H28.5785V27.98H32.8145V29.648ZM37.3559 26.936C36.5759 26.936 35.9279 27.44 35.9279 28.772C35.9279 30.104 36.5759 30.62 37.3559 30.62C38.1479 30.62 38.7959 29.972 38.7959 28.772C38.7959 27.572 38.1479 26.936 37.3559 26.936ZM36.0239 23.3V26.42C36.4439 25.712 37.3079 25.4 38.0039 25.4C39.6719 25.4 40.8479 26.66 40.8479 28.772C40.8479 30.884 39.6719 32.156 38.0039 32.156C37.3079 32.156 36.4439 31.844 36.0239 31.136V32H34.0439V23.3H36.0239ZM42.3457 34.1H41.7097V32.672H42.1057C42.9217 32.672 43.0897 32.612 43.2817 32.132L43.3417 31.964L40.9297 25.544H43.1017L44.2897 29.588L45.5617 25.544H47.6857L45.1537 32C44.5057 33.644 44.0257 34.1 42.3457 34.1ZM48.7114 25.544V23.78H50.6914V25.544H52.1074V26.948H50.6914V29.84C50.6914 30.452 50.8834 30.572 51.5434 30.572H52.1074V32H50.8474C49.2514 32 48.7114 31.688 48.7114 30.188V26.948H47.6914V25.544H48.7114ZM57.7052 29.972H59.5292C58.9532 31.496 57.5972 32.156 56.3132 32.156C54.2132 32.156 52.7732 30.884 52.7732 28.736C52.7732 26.672 54.3452 25.352 56.2292 25.352C58.3772 25.352 59.6852 26.972 59.5532 29.276H54.7652C54.8252 30.188 55.5332 30.62 56.2532 30.62C57.0092 30.62 57.4772 30.356 57.7052 29.972ZM56.2292 26.864C55.5212 26.864 54.8972 27.224 54.7892 28.076H57.5852C57.5492 27.26 56.9852 26.864 56.2292 26.864ZM66.4888 26.936C65.7088 26.936 65.0608 27.44 65.0608 28.772C65.0608 30.104 65.7088 30.62 66.4888 30.62C67.2808 30.62 67.9288 29.972 67.9288 28.772C67.9288 27.572 67.2808 26.936 66.4888 26.936ZM65.1568 23.3V26.42C65.5768 25.712 66.4408 25.4 67.1368 25.4C68.8047 25.4 69.9808 26.66 69.9808 28.772C69.9808 30.884 68.8047 32.156 67.1368 32.156C66.4408 32.156 65.5768 31.844 65.1568 31.136V32H63.1768V23.3H65.1568ZM72.9614 23.3V32H70.9814V23.3H72.9614ZM77.4159 26.888C76.6359 26.888 76.0119 27.368 76.0119 28.748C76.0119 30.104 76.6119 30.62 77.4159 30.62C78.2199 30.62 78.8199 30.104 78.8199 28.748C78.8199 27.368 78.1959 26.888 77.4159 26.888ZM77.4159 25.352C79.2039 25.352 80.8359 26.408 80.8359 28.748C80.8359 31.088 79.2039 32.156 77.4159 32.156C75.6279 32.156 73.9959 31.088 73.9959 28.748C73.9959 26.408 75.6279 25.352 77.4159 25.352ZM84.8779 25.352C86.2219 25.352 87.6979 25.964 88.0819 27.908H86.2339C86.0539 27.152 85.5859 26.888 84.9979 26.888C84.2899 26.888 83.5939 27.368 83.5939 28.748C83.5939 30.152 84.2899 30.62 84.9979 30.62C85.7299 30.62 86.1739 30.236 86.3179 29.624H88.1659C87.7219 31.544 86.1739 32.156 84.8779 32.156C82.7539 32.156 81.5779 30.788 81.5779 28.736C81.5779 26.684 82.9219 25.352 84.8779 25.352ZM89.1103 23.3H91.0903V28.004L93.2623 25.544H95.6023L93.2983 28.016L95.7943 32H93.4783L91.9543 29.456L91.0903 30.38V32H89.1103V23.3ZM101.016 23.3V26.396C101.304 25.916 102 25.4 103.02 25.4C104.676 25.4 105.192 26.372 105.192 28.124V32H103.212V28.616C103.212 27.692 103.188 26.936 102.228 26.936C101.376 26.936 101.016 27.488 101.016 28.688V32H99.0361V23.3H101.016ZM111.037 29.972H112.861C112.285 31.496 110.929 32.156 109.645 32.156C107.545 32.156 106.105 30.884 106.105 28.736C106.105 26.672 107.677 25.352 109.561 25.352C111.709 25.352 113.017 26.972 112.885 29.276H108.097C108.157 30.188 108.865 30.62 109.585 30.62C110.341 30.62 110.809 30.356 111.037 29.972ZM109.561 26.864C108.853 26.864 108.229 27.224 108.121 28.076H110.917C110.881 27.26 110.317 26.864 109.561 26.864ZM117.879 27.968V27.716C117.879 26.948 117.507 26.684 116.787 26.684C116.151 26.684 115.719 27.008 115.635 27.632H113.787C113.883 26.42 115.035 25.34 116.955 25.34C118.815 25.34 119.871 26.096 119.835 28.052L119.811 29.456V30.128C119.811 30.836 119.859 31.592 119.955 32H118.011L117.987 31.22C117.507 31.904 116.739 32.156 115.815 32.156C114.591 32.156 113.583 31.436 113.583 30.26C113.583 28.676 115.371 28.16 117.879 27.968ZM117.927 29.288V29.132C116.547 29.264 115.623 29.42 115.623 30.116C115.623 30.536 116.019 30.812 116.535 30.812C117.327 30.812 117.927 30.476 117.927 29.288ZM125.495 23.3H127.475V32H125.495V31.136C125.075 31.844 124.211 32.156 123.515 32.156C121.847 32.156 120.671 30.884 120.671 28.772C120.671 26.66 121.847 25.4 123.515 25.4C124.211 25.4 125.075 25.712 125.495 26.42V23.3ZM124.163 26.936C123.371 26.936 122.723 27.572 122.723 28.772C122.723 29.972 123.371 30.62 124.163 30.62C124.943 30.62 125.591 30.104 125.591 28.772C125.591 27.44 124.943 26.936 124.163 26.936ZM133.444 29.972H135.268C134.692 31.496 133.336 32.156 132.052 32.156C129.951 32.156 128.512 30.884 128.512 28.736C128.512 26.672 130.084 25.352 131.968 25.352C134.116 25.352 135.424 26.972 135.292 29.276H130.504C130.564 30.188 131.271 30.62 131.992 30.62C132.748 30.62 133.216 30.356 133.444 29.972ZM131.968 26.864C131.26 26.864 130.636 27.224 130.528 28.076H133.324C133.288 27.26 132.724 26.864 131.968 26.864ZM140.309 25.508V27.44C140.081 27.404 139.949 27.404 139.769 27.404C138.809 27.404 138.317 27.752 138.317 28.76V32H136.337V25.544H138.245V26.768C138.545 26 139.085 25.532 140.009 25.496H140.153C140.213 25.496 140.261 25.496 140.309 25.508Z" fill="#0D0D0D"/>
</g>
<path d="M105 65V60C105 57.2386 102.761 55 100 55L67.5 55C64.7386 55 62.5 52.7614 62.5 50V45" stroke="#0D0D0D" stroke-miterlimit="10"/>
<path d="M20 65V60C20 57.2386 22.2386 55 25 55L57.5 55C60.2614 55 62.5 52.7614 62.5 50V45" stroke="#0D0D0D" stroke-miterlimit="10"/>
<g clip-path="url(#clip1_10218_44845)">
<rect width="84.78" height="32" transform="translate(20 75)" fill="white"/>
<path d="M40.8697 92.668C40.4977 94.6 39.0457 95.656 37.1137 95.656C34.5937 95.656 33.1297 93.808 33.1297 91.132C33.1297 88.408 34.7017 86.644 37.1977 86.644C39.0577 86.644 40.4737 87.724 40.8337 89.632H39.5137C39.2497 88.504 38.4097 87.784 37.1377 87.784C35.6737 87.784 34.5337 88.948 34.5337 91.132C34.5337 93.28 35.6377 94.516 37.1497 94.516C38.4337 94.516 39.2857 93.82 39.5497 92.668H40.8697ZM43.3487 89.98C43.7207 89.344 44.3687 88.924 45.3767 88.924C46.9367 88.924 47.5367 89.932 47.5367 91.432V95.5H46.2887V91.768C46.2887 90.832 46.1327 89.968 44.9567 89.968C43.8767 89.968 43.3487 90.748 43.3487 92.032V95.5H42.1007V86.8H43.3487V89.98ZM53.5128 93.604H54.7728C54.4728 94.672 53.5128 95.656 51.8688 95.656C49.7808 95.656 48.6528 94.132 48.6528 92.26C48.6528 90.256 49.9968 88.924 51.8328 88.924C53.8248 88.924 54.9888 90.556 54.8568 92.656H49.9368C50.0568 93.844 50.8128 94.588 51.8208 94.588C52.7208 94.588 53.2488 94.216 53.5128 93.604ZM49.9608 91.672H53.5608C53.5248 90.712 52.8528 89.944 51.8208 89.944C50.8488 89.944 50.1288 90.448 49.9608 91.672ZM61.6118 91.228H60.3638C60.2318 90.496 59.5718 89.992 58.7558 89.992C57.8558 89.992 57.0278 90.7 57.0278 92.272C57.0278 93.868 57.8678 94.588 58.7558 94.588C59.5478 94.588 60.2438 94.12 60.4118 93.352H61.6718C61.4198 94.708 60.1598 95.656 58.7318 95.656C56.8718 95.656 55.6958 94.228 55.6958 92.284C55.6958 90.364 56.9078 88.924 58.8158 88.924C60.2918 88.924 61.4198 89.968 61.6118 91.228ZM64.0909 86.8V91.804L66.6589 89.044H68.1829L65.6749 91.708L68.3629 95.5H66.8749L64.8229 92.608L64.0909 93.388V95.5H62.8429V86.8H64.0909ZM72.679 90.844C72.499 90.184 71.947 89.92 71.215 89.92C70.603 89.92 69.943 90.172 69.943 90.7C69.943 91.18 70.255 91.384 70.843 91.504L71.767 91.684C72.991 91.924 74.059 92.344 74.059 93.604C74.059 94.912 72.835 95.656 71.347 95.656C69.715 95.656 68.719 94.708 68.563 93.496H69.835C70.003 94.228 70.483 94.66 71.383 94.66C72.187 94.66 72.811 94.324 72.811 93.748C72.811 93.148 72.247 92.908 71.575 92.776L70.603 92.584C69.631 92.392 68.719 91.96 68.719 90.748C68.719 89.608 69.919 88.912 71.335 88.912C72.631 88.912 73.675 89.596 73.915 90.844H72.679ZM79.2957 94.588C78.9237 95.236 78.2997 95.656 77.3277 95.656C75.8037 95.656 75.2157 94.708 75.2157 93.148V89.044H76.4637V92.812C76.4637 93.748 76.6197 94.6 77.7477 94.6C78.7917 94.6 79.3077 93.82 79.3077 92.548V89.044H80.5557V95.5H79.2957V94.588ZM83.4737 95.5H82.2257V89.044H83.4737V89.98C83.8457 89.344 84.4577 88.924 85.3817 88.924C86.3777 88.924 86.9657 89.344 87.2537 90.064C87.7937 89.26 88.5497 88.924 89.3897 88.924C90.9017 88.924 91.4897 89.932 91.4897 91.432V95.5H90.2417V91.768C90.2417 90.832 90.0977 89.968 88.9697 89.968C87.9857 89.968 87.4817 90.748 87.4817 92.032V95.5H86.2337V91.768C86.2337 90.832 86.0897 89.968 84.9617 89.968C83.9657 89.968 83.4737 90.748 83.4737 92.032V95.5Z" fill="#666666"/>
</g>
<rect x="20.5" y="75.5" width="83.78" height="31" rx="9.5" stroke="#E6E6E6"/>
<path d="M198.286 140.156C200.11 140.156 201.43 141.056 201.43 142.604C201.43 144.428 199.87 145.904 197.302 147.38H201.466V149H194.782V147.38C197.122 145.676 199.438 144.152 199.438 142.724C199.438 141.968 198.886 141.62 198.226 141.62C197.53 141.62 196.774 142.04 196.834 143.432H194.878C194.818 141.368 196.27 140.156 198.286 140.156ZM205.826 147.692C206.702 147.692 207.362 147.14 207.362 146.132C207.362 145.064 206.63 144.548 205.862 144.548C205.178 144.548 204.674 144.848 204.374 145.412L202.562 145.232L203.174 140.3H208.994V141.908H204.818L204.614 143.54C205.034 143.252 205.73 143.084 206.342 143.084C207.914 143.084 209.402 144.104 209.402 146.12C209.402 148.112 207.758 149.156 205.85 149.156C204.05 149.156 202.622 148.172 202.334 146.324H204.242C204.422 147.332 205.058 147.692 205.826 147.692ZM212.425 146.144C212.425 147.092 212.977 147.692 213.841 147.692C214.705 147.692 215.221 147.092 215.221 146.144C215.221 145.232 214.705 144.596 213.841 144.596C212.977 144.596 212.425 145.184 212.425 146.144ZM213.961 141.584C213.049 141.584 212.365 142.268 212.401 143.744C212.833 143.36 213.409 143.108 214.273 143.108C215.845 143.108 217.249 144.368 217.249 146.144C217.249 147.98 215.821 149.156 213.841 149.156C211.369 149.156 210.337 147.272 210.337 144.86C210.337 142.316 211.417 140.156 214.069 140.156C216.085 140.156 217.057 141.284 217.153 142.664H215.209C215.113 141.848 214.585 141.584 213.961 141.584ZM218.429 140.3H220.409V145.004L222.581 142.544H224.921L222.617 145.016L225.113 149H222.797L221.273 146.456L220.409 147.38V149H218.429V140.3ZM225.86 149V140.3H229.652C231.56 140.3 232.976 140.732 232.976 142.556C232.976 143.36 232.616 143.948 231.944 144.368C232.76 144.656 233.324 145.268 233.324 146.324C233.324 148.28 231.92 149 229.808 149H225.86ZM227.912 145.304V147.272H229.832C230.708 147.272 231.152 146.9 231.152 146.288C231.152 145.676 230.708 145.304 229.832 145.304H227.912ZM227.912 142.028V143.78H229.724C230.444 143.78 230.84 143.432 230.84 142.892C230.84 142.352 230.444 142.028 229.724 142.028H227.912ZM240.233 143.936C239.453 143.936 238.805 144.44 238.805 145.772C238.805 147.104 239.453 147.62 240.233 147.62C241.025 147.62 241.673 146.972 241.673 145.772C241.673 144.572 241.025 143.936 240.233 143.936ZM238.901 140.3V143.42C239.321 142.712 240.185 142.4 240.881 142.4C242.549 142.4 243.725 143.66 243.725 145.772C243.725 147.884 242.549 149.156 240.881 149.156C240.185 149.156 239.321 148.844 238.901 148.136V149H236.921V140.3H238.901ZM246.706 140.3V149H244.726V140.3H246.706ZM251.16 143.888C250.38 143.888 249.756 144.368 249.756 145.748C249.756 147.104 250.356 147.62 251.16 147.62C251.964 147.62 252.564 147.104 252.564 145.748C252.564 144.368 251.94 143.888 251.16 143.888ZM251.16 142.352C252.948 142.352 254.58 143.408 254.58 145.748C254.58 148.088 252.948 149.156 251.16 149.156C249.372 149.156 247.74 148.088 247.74 145.748C247.74 143.408 249.372 142.352 251.16 142.352ZM258.622 142.352C259.966 142.352 261.442 142.964 261.826 144.908H259.978C259.798 144.152 259.33 143.888 258.742 143.888C258.034 143.888 257.338 144.368 257.338 145.748C257.338 147.152 258.034 147.62 258.742 147.62C259.474 147.62 259.918 147.236 260.062 146.624H261.91C261.466 148.544 259.918 149.156 258.622 149.156C256.498 149.156 255.322 147.788 255.322 145.736C255.322 143.684 256.666 142.352 258.622 142.352ZM262.854 140.3H264.834V145.004L267.006 142.544H269.346L267.042 145.016L269.538 149H267.222L265.698 146.456L264.834 147.38V149H262.854V140.3Z" fill="#0D0D0D"/>
<defs>
<clipPath id="clip0_10218_44845">
<rect x="20" y="20" width="121" height="15" rx="7.5" fill="white"/>
</clipPath>
<clipPath id="clip1_10218_44845">
<rect x="20" y="75" width="84.78" height="32" rx="10" fill="white"/>
</clipPath>
</defs>
</svg>
