<svg width="750" height="179" viewBox="0 0 750 179" fill="none" xmlns="http://www.w3.org/2000/svg">
<path d="M10 0.5H740C745.247 0.5 749.5 4.75329 749.5 10V169C749.5 174.247 745.247 178.5 740 178.5H10C4.7533 178.5 0.5 174.247 0.5 169V10C0.500002 4.7533 4.7533 0.5 10 0.5Z" fill="#FAFAFA"/>
<path d="M10 0.5H740C745.247 0.5 749.5 4.75329 749.5 10V169C749.5 174.247 745.247 178.5 740 178.5H10C4.7533 178.5 0.5 174.247 0.5 169V10C0.500002 4.7533 4.7533 0.5 10 0.5Z" fill="#E6E6E6"/>
<path d="M10 0.5H740C745.247 0.5 749.5 4.75329 749.5 10V169C749.5 174.247 745.247 178.5 740 178.5H10C4.7533 178.5 0.5 174.247 0.5 169V10C0.500002 4.7533 4.7533 0.5 10 0.5Z" stroke="#D9D9D9"/>
<g clip-path="url(#clip0_10218_44737)">
<path d="M389.741 32V23.3H396.413V25.1H391.793V26.624H396.161V28.436H391.793V30.188H396.413V32H389.741ZM399.594 25.544V26.396C399.882 25.916 400.578 25.4 401.598 25.4C403.254 25.4 403.77 26.372 403.77 28.124V32H401.79V28.616C401.79 27.692 401.754 26.936 400.794 26.936C399.942 26.936 399.594 27.488 399.594 28.688V32H397.614V25.544H399.594ZM407.983 25.352C409.327 25.352 410.803 25.964 411.187 27.908H409.339C409.159 27.152 408.691 26.888 408.103 26.888C407.395 26.888 406.699 27.368 406.699 28.748C406.699 30.152 407.395 30.62 408.103 30.62C408.835 30.62 409.279 30.236 409.423 29.624H411.271C410.827 31.544 409.279 32.156 407.983 32.156C405.859 32.156 404.683 30.788 404.683 28.736C404.683 26.684 406.027 25.352 407.983 25.352ZM416.188 25.508V27.44C415.96 27.404 415.828 27.404 415.648 27.404C414.688 27.404 414.196 27.752 414.196 28.76V32H412.216V25.544H414.124V26.768C414.424 26 414.964 25.532 415.888 25.496H416.032C416.092 25.496 416.14 25.496 416.188 25.508ZM417.74 34.1H417.104V32.672H417.5C418.316 32.672 418.484 32.612 418.676 32.132L418.736 31.964L416.324 25.544H418.496L419.684 29.588L420.956 25.544H423.08L420.548 32C419.9 33.644 419.42 34.1 417.74 34.1ZM425.774 25.544V26.42C426.194 25.712 427.058 25.4 427.754 25.4C429.422 25.4 430.598 26.66 430.598 28.772C430.598 30.884 429.422 32.156 427.754 32.156C427.058 32.156 426.194 31.844 425.774 31.136V34.1H423.794V25.544H425.774ZM427.106 26.936C426.326 26.936 425.678 27.44 425.678 28.772C425.678 30.104 426.326 30.62 427.106 30.62C427.898 30.62 428.546 29.972 428.546 28.772C428.546 27.572 427.898 26.936 427.106 26.936ZM431.911 25.544V23.78H433.891V25.544H435.307V26.948H433.891V29.84C433.891 30.452 434.083 30.572 434.743 30.572H435.307V32H434.047C432.451 32 431.911 31.688 431.911 30.188V26.948H430.891V25.544H431.911ZM440.904 29.972H442.728C442.152 31.496 440.796 32.156 439.512 32.156C437.412 32.156 435.972 30.884 435.972 28.736C435.972 26.672 437.544 25.352 439.428 25.352C441.576 25.352 442.884 26.972 442.752 29.276H437.964C438.024 30.188 438.732 30.62 439.452 30.62C440.208 30.62 440.676 30.356 440.904 29.972ZM439.428 26.864C438.72 26.864 438.096 27.224 437.988 28.076H440.784C440.748 27.26 440.184 26.864 439.428 26.864ZM448.307 23.3H450.287V32H448.307V31.136C447.887 31.844 447.023 32.156 446.327 32.156C444.659 32.156 443.483 30.884 443.483 28.772C443.483 26.66 444.659 25.4 446.327 25.4C447.023 25.4 447.887 25.712 448.307 26.42V23.3ZM446.975 26.936C446.183 26.936 445.535 27.572 445.535 28.772C445.535 29.972 446.183 30.62 446.975 30.62C447.755 30.62 448.403 30.104 448.403 28.772C448.403 27.44 447.755 26.936 446.975 26.936Z" fill="#0D0D0D"/>
</g>
<path d="M569 65V60C569 57.2386 566.761 55 564 55L422.75 55C419.989 55 417.75 52.7614 417.75 50V45" stroke="#0D0D0D" stroke-miterlimit="10"/>
<path d="M266.5 65V60C266.5 57.2386 268.739 55 271.5 55L412.75 55C415.511 55 417.75 52.7614 417.75 50V45" stroke="#0D0D0D" stroke-miterlimit="10"/>
<g clip-path="url(#clip1_10218_44737)">
<rect width="84.78" height="32" transform="translate(20 75)" fill="white"/>
<path d="M45.1649 94.336H49.6529V95.5H43.7969V86.8H45.1649V94.336ZM54.9132 93.604H56.1732C55.8732 94.672 54.9132 95.656 53.2692 95.656C51.1812 95.656 50.0532 94.132 50.0532 92.26C50.0532 90.256 51.3972 88.924 53.2332 88.924C55.2252 88.924 56.3892 90.556 56.2572 92.656H51.3372C51.4572 93.844 52.2132 94.588 53.2212 94.588C54.1212 94.588 54.6492 94.216 54.9132 93.604ZM51.3612 91.672H54.9612C54.9252 90.712 54.2532 89.944 53.2212 89.944C52.2492 89.944 51.5292 90.448 51.3612 91.672ZM58.7296 89.98C59.1016 89.344 59.7496 88.924 60.7576 88.924C62.3176 88.924 62.9176 89.932 62.9176 91.432V95.5H61.6696V91.768C61.6696 90.832 61.5136 89.968 60.3376 89.968C59.2576 89.968 58.7296 90.748 58.7296 92.032V95.5H57.4816V89.044H58.7296V89.98ZM68.7737 89.044H70.0217V94.744C70.0217 95.932 69.7697 96.568 69.3257 97.012C68.8337 97.528 68.0537 97.792 67.0697 97.792C65.6297 97.792 64.5737 97.168 64.3697 95.812H65.6537C65.7857 96.4 66.1577 96.748 67.0937 96.748C67.7057 96.748 68.1257 96.58 68.3897 96.28C68.6417 96.004 68.7737 95.668 68.7737 95.008V94.324C68.3777 94.984 67.7297 95.392 66.7817 95.392C65.2817 95.392 64.0337 94.204 64.0337 92.152C64.0337 90.112 65.2817 88.924 66.7817 88.924C67.7297 88.924 68.3777 89.332 68.7737 89.992V89.044ZM67.0697 89.956C66.0377 89.956 65.3657 90.772 65.3657 92.152C65.3657 93.556 66.0377 94.372 67.0697 94.372C68.0297 94.372 68.8217 93.7 68.8217 92.152C68.8217 90.616 68.0297 89.956 67.0697 89.956ZM71.9367 87.388H73.1847V89.044H74.4567V89.992H73.1847V93.676C73.1847 94.336 73.2927 94.504 73.9167 94.504H74.4447V95.5H73.5327C72.2247 95.5 71.9367 95.176 71.9367 93.844V89.992H70.9527V89.044H71.9367V87.388ZM77.0343 89.98C77.4063 89.344 78.0543 88.924 79.0623 88.924C80.6223 88.924 81.2223 89.932 81.2223 91.432V95.5H79.9743V91.768C79.9743 90.832 79.8183 89.968 78.6423 89.968C77.5623 89.968 77.0343 90.748 77.0343 92.032V95.5H75.7863V86.8H77.0343V89.98Z" fill="#666666"/>
<mask id="path-9-inside-1_10218_44737" fill="white">
<path d="M104.78 75H265.85V107H104.78V75Z"/>
</mask>
<path d="M104.78 75H265.85V107H104.78V75Z" fill="white"/>
<path d="M104.78 107H105.78V75H104.78H103.78V107H104.78Z" fill="#D9D9D9" mask="url(#path-9-inside-1_10218_44737)"/>
<path d="M167.188 95.5H165.28L161.44 88.3V95.5H160.096V86.8H162.004L165.844 93.988V86.8H167.188V95.5ZM169.875 92.296C169.875 93.88 170.751 94.6 171.687 94.6C172.647 94.6 173.511 93.868 173.511 92.296C173.511 90.7 172.647 89.98 171.687 89.98C170.751 89.98 169.875 90.664 169.875 92.296ZM171.687 88.924C173.223 88.924 174.831 89.956 174.831 92.296C174.831 94.624 173.223 95.656 171.687 95.656C170.163 95.656 168.555 94.624 168.555 92.296C168.555 89.956 170.163 88.924 171.687 88.924ZM177.325 89.044V89.98C177.697 89.344 178.345 88.924 179.353 88.924C180.913 88.924 181.513 89.932 181.513 91.432V95.5H180.265V91.768C180.265 90.844 180.121 89.968 178.933 89.968C177.841 89.968 177.325 90.736 177.325 92.032V95.5H176.077V89.044H177.325ZM185.749 88.924C187.225 88.924 188.353 89.968 188.545 91.228H187.297C187.165 90.496 186.505 89.992 185.689 89.992C184.789 89.992 183.961 90.7 183.961 92.272C183.961 93.868 184.789 94.588 185.689 94.588C186.493 94.588 187.165 94.12 187.345 93.352H188.605C188.341 94.708 187.093 95.656 185.665 95.656C183.793 95.656 182.629 94.24 182.629 92.284C182.629 90.376 183.841 88.924 185.749 88.924ZM192.559 94.588C193.471 94.588 193.975 94.216 194.251 93.604H195.511C195.223 94.672 194.239 95.656 192.607 95.656C190.531 95.656 189.391 94.132 189.391 92.26C189.391 90.256 190.735 88.924 192.571 88.924C194.563 88.924 195.727 90.556 195.595 92.656H190.675C190.807 93.856 191.539 94.588 192.559 94.588ZM192.559 89.944C191.587 89.944 190.879 90.436 190.699 91.672H194.299C194.263 90.724 193.579 89.944 192.559 89.944ZM197.179 95.5H195.955L199.351 86.8H200.587L197.179 95.5ZM202.878 86.8V95.5H201.51V86.8H202.878ZM203.915 86.8H205.415L207.731 93.976L209.987 86.8H211.427L208.463 95.5H206.915L203.915 86.8Z" fill="#666666"/>
<mask id="path-12-inside-2_10218_44737" fill="white">
<path d="M265.85 75H350.63V107H265.85V75Z"/>
</mask>
<path d="M265.85 75H350.63V107H265.85V75Z" fill="white"/>
<path d="M265.85 107H266.85V75H265.85H264.85V107H265.85Z" fill="#D9D9D9" mask="url(#path-12-inside-2_10218_44737)"/>
<path d="M285.399 92.668H286.719C286.335 94.588 284.907 95.656 282.963 95.656C280.443 95.656 278.979 93.808 278.979 91.132C278.979 88.408 280.551 86.644 283.047 86.644C284.907 86.644 286.335 87.724 286.683 89.632H285.363C285.087 88.492 284.271 87.784 282.987 87.784C281.511 87.784 280.383 88.96 280.383 91.132C280.383 93.28 281.499 94.516 282.999 94.516C284.295 94.516 285.123 93.82 285.399 92.668ZM289.198 86.8V89.98C289.57 89.344 290.218 88.924 291.226 88.924C292.786 88.924 293.386 89.932 293.386 91.432V95.5H292.138V91.768C292.138 90.844 291.994 89.968 290.806 89.968C289.714 89.968 289.198 90.736 289.198 92.032V95.5H287.95V86.8H289.198ZM297.67 94.588C298.582 94.588 299.086 94.216 299.362 93.604H300.622C300.334 94.672 299.35 95.656 297.718 95.656C295.642 95.656 294.502 94.132 294.502 92.26C294.502 90.256 295.846 88.924 297.682 88.924C299.674 88.924 300.838 90.556 300.706 92.656H295.786C295.918 93.856 296.65 94.588 297.67 94.588ZM297.67 89.944C296.698 89.944 295.99 90.436 295.81 91.672H299.41C299.374 90.724 298.69 89.944 297.67 89.944ZM304.665 88.924C306.141 88.924 307.269 89.968 307.461 91.228H306.213C306.081 90.496 305.421 89.992 304.605 89.992C303.705 89.992 302.877 90.7 302.877 92.272C302.877 93.868 303.705 94.588 304.605 94.588C305.409 94.588 306.081 94.12 306.261 93.352H307.521C307.257 94.708 306.009 95.656 304.581 95.656C302.709 95.656 301.545 94.24 301.545 92.284C301.545 90.376 302.757 88.924 304.665 88.924ZM308.693 86.8H309.941V91.804L312.509 89.044H314.033L311.525 91.708L314.213 95.5H312.725L310.673 92.608L309.941 93.388V95.5H308.693V86.8ZM319.765 90.844H318.529C318.349 90.172 317.797 89.92 317.065 89.92C316.453 89.92 315.793 90.172 315.793 90.7C315.793 91.18 316.105 91.372 316.693 91.504L317.617 91.684C318.829 91.936 319.909 92.332 319.909 93.604C319.909 94.912 318.685 95.656 317.197 95.656C315.553 95.656 314.569 94.708 314.413 93.496H315.685C315.865 94.228 316.321 94.66 317.233 94.66C318.049 94.66 318.661 94.324 318.661 93.748C318.661 93.16 318.097 92.908 317.425 92.776L316.453 92.584C315.481 92.392 314.569 91.972 314.569 90.748C314.569 89.608 315.781 88.912 317.185 88.912C318.493 88.912 319.513 89.596 319.765 90.844ZM325.145 95.5V94.588C324.773 95.248 324.149 95.656 323.177 95.656C321.653 95.656 321.065 94.72 321.065 93.148V89.044H322.313V92.812C322.313 93.736 322.469 94.6 323.597 94.6C324.653 94.6 325.157 93.832 325.157 92.548V89.044H326.405V95.5H325.145ZM329.323 92.032V95.5H328.075V89.044H329.323V89.98C329.695 89.344 330.307 88.924 331.231 88.924C332.239 88.924 332.815 89.344 333.103 90.064C333.643 89.248 334.387 88.924 335.239 88.924C336.751 88.924 337.339 89.932 337.339 91.432V95.5H336.091V91.768C336.091 90.844 335.935 89.968 334.819 89.968C333.823 89.968 333.331 90.736 333.331 92.032V95.5H332.083V91.768C332.083 90.844 331.927 89.968 330.811 89.968C329.803 89.968 329.323 90.736 329.323 92.032Z" fill="#666666"/>
<mask id="path-15-inside-3_10218_44737" fill="white">
<path d="M350.63 75H568.93V107H350.63V75Z"/>
</mask>
<path d="M350.63 75H568.93V107H350.63V75Z" fill="white"/>
<path d="M350.63 107H351.63V75H350.63H349.63V107H350.63Z" fill="#D9D9D9" mask="url(#path-15-inside-3_10218_44737)"/>
<path d="M446.508 95.5V86.8H452.532V87.964H447.876V90.448H452.268V91.6H447.876V94.336H452.532V95.5H446.508ZM455.007 89.044V89.98C455.379 89.344 456.027 88.924 457.035 88.924C458.595 88.924 459.195 89.932 459.195 91.432V95.5H457.947V91.768C457.947 90.844 457.803 89.968 456.615 89.968C455.523 89.968 455.007 90.736 455.007 92.032V95.5H453.759V89.044H455.007ZM461.007 89.044V87.388H462.255V89.044H463.527V89.992H462.255V93.676C462.255 94.336 462.363 94.504 462.987 94.504H463.515V95.5H462.603C461.295 95.5 461.007 95.176 461.007 93.844V89.992H460.023V89.044H461.007ZM468.099 89.032V90.328C467.871 90.304 467.655 90.292 467.451 90.292C466.491 90.292 465.987 90.76 465.987 92.116V95.5H464.739V89.044H465.963V90.184C466.299 89.452 466.935 89.032 467.751 89.02C467.859 89.02 467.991 89.02 468.099 89.032ZM469.363 97.6H468.763V96.604H469.255C469.927 96.604 470.215 96.544 470.527 95.632L470.575 95.488L468.247 89.044H469.627L471.187 93.856L472.711 89.044H474.007L471.727 95.644C471.187 97.168 470.827 97.6 469.363 97.6Z" fill="#666666"/>
<mask id="path-18-inside-4_10218_44737" fill="white">
<path d="M568.93 75H730V107H568.93V75Z"/>
</mask>
<path d="M568.93 75H730V107H568.93V75Z" fill="white"/>
<path d="M568.93 107H569.93V75H568.93H567.93V107H568.93Z" fill="#D9D9D9" mask="url(#path-18-inside-4_10218_44737)"/>
<path d="M642.306 95.5V87.964H639.51V86.8H646.458V87.964H643.674V95.5H642.306ZM650.335 92.896V92.428C648.331 92.62 647.275 92.908 647.275 93.736C647.275 94.324 647.731 94.696 648.499 94.696C649.519 94.696 650.335 94.18 650.335 92.896ZM648.223 95.656C646.915 95.656 645.919 94.936 645.919 93.76C645.919 92.188 647.779 91.756 650.275 91.504V91.372C650.275 90.232 649.675 89.848 648.883 89.848C648.019 89.848 647.527 90.28 647.479 91.084H646.219C646.315 89.704 647.455 88.888 648.931 88.888C650.599 88.888 651.547 89.692 651.535 91.624C651.535 91.78 651.511 92.896 651.511 93.172C651.511 94.144 651.571 94.924 651.691 95.5H650.491C650.443 95.248 650.419 95.068 650.383 94.648C649.999 95.308 649.279 95.656 648.223 95.656ZM657.372 89.992V89.044H658.62V94.744C658.62 95.932 658.368 96.568 657.924 97.012C657.432 97.528 656.664 97.792 655.668 97.792C654.216 97.792 653.172 97.168 652.968 95.812H654.252C654.384 96.4 654.744 96.748 655.692 96.748C656.28 96.748 656.712 96.592 656.988 96.28C657.24 96.004 657.372 95.68 657.372 95.008V94.324C656.976 94.996 656.34 95.392 655.38 95.392C653.88 95.392 652.632 94.216 652.632 92.152C652.632 90.1 653.88 88.924 655.38 88.924C656.34 88.924 656.976 89.32 657.372 89.992ZM657.42 92.152C657.42 90.616 656.628 89.956 655.668 89.956C654.624 89.956 653.964 90.76 653.964 92.152C653.964 93.556 654.624 94.372 655.668 94.372C656.628 94.372 657.42 93.688 657.42 92.152Z" fill="#666666"/>
</g>
<rect x="20.5" y="75.5" width="709" height="31" rx="9.5" stroke="#E6E6E6"/>
<path d="M20 117V122C20 124.761 22.2386 127 25 127H57.5C60.2614 127 62.5 129.239 62.5 132V137" stroke="#0D0D0D" stroke-miterlimit="10"/>
<path d="M105 117V122C105 124.761 102.761 127 100 127H67.5C64.7386 127 62.5 129.239 62.5 132V137" stroke="#0D0D0D" stroke-miterlimit="10"/>
<path d="M105 117V122C105 124.761 107.239 127 110 127H180.5C183.261 127 185.5 129.239 185.5 132V137" stroke="#0D0D0D" stroke-miterlimit="10"/>
<path d="M266 117V122C266 124.761 263.761 127 261 127H190.5C187.739 127 185.5 129.239 185.5 132V137" stroke="#0D0D0D" stroke-miterlimit="10"/>
<path d="M266 117V122C266 124.761 268.239 127 271 127H303.5C306.261 127 308.5 129.239 308.5 132V137" stroke="#0D0D0D" stroke-miterlimit="10"/>
<path d="M351 117V122C351 124.761 348.761 127 346 127H313.5C310.739 127 308.5 129.239 308.5 132V137" stroke="#0D0D0D" stroke-miterlimit="10"/>
<path d="M351 117V122C351 124.761 353.239 127 356 127H455C457.761 127 460 129.239 460 132V137" stroke="#0D0D0D" stroke-miterlimit="10"/>
<path d="M569 117V122C569 124.761 566.761 127 564 127H465C462.239 127 460 129.239 460 132V137" stroke="#0D0D0D" stroke-miterlimit="10"/>
<path d="M569 117V122C569 124.761 571.239 127 574 127H644.5C647.261 127 649.5 129.239 649.5 132V137" stroke="#0D0D0D" stroke-miterlimit="10"/>
<path d="M730 117V122C730 124.761 727.761 127 725 127H654.5C651.739 127 649.5 129.239 649.5 132V137" stroke="#0D0D0D" stroke-miterlimit="10"/>
<g clip-path="url(#clip2_10218_44737)">
<path d="M48.1873 149.62C49.7273 149.62 50.7173 150.41 50.7173 151.48C50.7173 152.13 50.4673 152.73 49.8373 153.12C50.6473 153.59 50.9373 154.22 50.9373 154.93C50.9373 156.34 49.7273 157.13 48.1873 157.13C46.6673 157.13 45.4473 156.34 45.4473 154.93C45.4473 154.22 45.7473 153.57 46.5573 153.12C45.9573 152.77 45.6673 152.13 45.6673 151.49C45.6673 150.41 46.6673 149.62 48.1873 149.62ZM48.1873 153.68C47.3773 153.68 46.8573 154.15 46.8573 154.87C46.8573 155.59 47.3773 156.09 48.1873 156.09C49.0173 156.09 49.5273 155.59 49.5273 154.87C49.5273 154.15 49.0173 153.68 48.1873 153.68ZM49.3773 151.65C49.3773 151.05 48.9073 150.66 48.1873 150.66C47.4673 150.66 47.0073 151.05 47.0073 151.65C47.0073 152.25 47.4673 152.69 48.1873 152.69C48.9073 152.69 49.3773 152.25 49.3773 151.65ZM56.8594 156.07C57.5794 156.07 58.0894 155.37 58.0894 154.32C58.0894 153.27 57.5794 152.56 56.8594 152.56C56.0994 152.56 55.5994 153.23 55.5994 154.31C55.5994 155.42 56.0994 156.07 56.8594 156.07ZM55.6494 157H54.2694V149.75H55.6494V152.31C55.9394 151.8 56.5194 151.5 57.1994 151.5C58.4994 151.5 59.5394 152.62 59.5394 154.31C59.5394 156.03 58.4794 157.13 57.1994 157.13C56.6394 157.13 55.9994 156.92 55.6494 156.32V157ZM60.7762 158.75H60.1962V157.69H60.7162C61.1762 157.69 61.3762 157.7 61.6162 157.13L61.6762 156.98L59.6162 151.62H61.1262L62.3462 155.5L63.5962 151.62H64.9962L63.0262 156.84C62.3862 158.51 62.1162 158.75 60.7762 158.75ZM65.8071 151.62V150.16H67.1871V151.62H68.3071V152.57H67.1871V155.35C67.1871 155.9 67.3771 156.01 67.8671 156.01H68.2871V157H67.2771C66.0371 157 65.8071 156.62 65.8071 155.55V152.57H65.0471V151.62H65.8071ZM74.1813 154.69H70.2113C70.2913 155.61 70.9113 156.06 71.5713 156.06C72.0013 156.06 72.4213 155.91 72.7013 155.44H74.1213C73.8313 156.24 73.0513 157.13 71.5813 157.13C69.8513 157.13 68.8413 155.84 68.8413 154.29C68.8413 152.69 69.9513 151.5 71.5413 151.5C73.2013 151.5 74.2313 152.79 74.1813 154.69ZM71.5313 152.51C71.0113 152.51 70.3413 152.83 70.2313 153.74H72.7813C72.7513 152.83 72.1113 152.51 71.5313 152.51ZM79.439 153.24H78.149C78.039 152.79 77.639 152.47 76.999 152.47C76.489 152.47 76.129 152.66 76.129 152.99C76.129 153.28 76.339 153.5 76.849 153.61L77.569 153.77C78.639 154.01 79.549 154.28 79.549 155.39C79.549 156.47 78.439 157.13 77.219 157.13C75.899 157.13 74.899 156.45 74.769 155.22H76.099C76.179 155.74 76.539 156.13 77.259 156.13C77.859 156.13 78.229 155.91 78.229 155.52C78.229 155.12 77.819 154.97 77.349 154.86L76.549 154.69C75.539 154.48 74.869 154.06 74.869 153.08C74.869 152.12 75.909 151.48 77.069 151.48C78.189 151.48 79.249 152 79.439 153.24Z" fill="#0D0D0D"/>
<path d="M169.071 157H167.691V151.58H166.131V150.64C167.171 150.61 167.681 150.54 168.021 149.75H169.071V157ZM171.682 154.65C171.682 155.52 172.252 156.09 173.012 156.09C173.762 156.09 174.312 155.53 174.312 154.65C174.312 153.8 173.762 153.24 173.012 153.24C172.252 153.24 171.682 153.8 171.682 154.65ZM173.072 150.67C172.152 150.67 171.602 151.52 171.602 152.88C171.912 152.49 172.492 152.19 173.252 152.19C174.592 152.19 175.712 153.1 175.712 154.67C175.712 156.16 174.582 157.13 173.012 157.13C171.072 157.13 170.222 155.57 170.222 153.54C170.222 151.46 170.992 149.62 173.162 149.62C174.742 149.62 175.482 150.69 175.562 151.62H174.212C174.142 151.02 173.672 150.67 173.072 150.67ZM181.567 156.07C182.287 156.07 182.797 155.37 182.797 154.32C182.797 153.27 182.287 152.56 181.567 152.56C180.807 152.56 180.307 153.23 180.307 154.31C180.307 155.42 180.807 156.07 181.567 156.07ZM180.357 157H178.977V149.75H180.357V152.31C180.647 151.8 181.227 151.5 181.907 151.5C183.207 151.5 184.247 152.62 184.247 154.31C184.247 156.03 183.187 157.13 181.907 157.13C181.347 157.13 180.707 156.92 180.357 156.32V157ZM185.484 158.75H184.904V157.69H185.424C185.884 157.69 186.084 157.7 186.324 157.13L186.384 156.98L184.324 151.62H185.834L187.054 155.5L188.304 151.62H189.704L187.734 156.84C187.094 158.51 186.824 158.75 185.484 158.75ZM190.515 151.62V150.16H191.895V151.62H193.015V152.57H191.895V155.35C191.895 155.9 192.085 156.01 192.575 156.01H192.995V157H191.985C190.745 157 190.515 156.62 190.515 155.55V152.57H189.755V151.62H190.515ZM198.889 154.69H194.919C194.999 155.61 195.619 156.06 196.279 156.06C196.709 156.06 197.129 155.91 197.409 155.44H198.829C198.539 156.24 197.759 157.13 196.289 157.13C194.559 157.13 193.549 155.84 193.549 154.29C193.549 152.69 194.659 151.5 196.249 151.5C197.909 151.5 198.939 152.79 198.889 154.69ZM196.239 152.51C195.719 152.51 195.049 152.83 194.939 153.74H197.489C197.459 152.83 196.819 152.51 196.239 152.51ZM204.147 153.24H202.857C202.747 152.79 202.347 152.47 201.707 152.47C201.197 152.47 200.837 152.66 200.837 152.99C200.837 153.28 201.047 153.5 201.557 153.61L202.277 153.77C203.347 154.01 204.257 154.28 204.257 155.39C204.257 156.47 203.147 157.13 201.927 157.13C200.607 157.13 199.607 156.45 199.477 155.22H200.807C200.887 155.74 201.247 156.13 201.967 156.13C202.567 156.13 202.937 155.91 202.937 155.52C202.937 155.12 202.527 154.97 202.057 154.86L201.257 154.69C200.247 154.48 199.577 154.06 199.577 153.08C199.577 152.12 200.617 151.48 201.777 151.48C202.897 151.48 203.957 152 204.147 153.24Z" fill="#0D0D0D"/>
<path d="M294.037 149.62C295.577 149.62 296.567 150.41 296.567 151.48C296.567 152.13 296.317 152.73 295.687 153.12C296.497 153.59 296.787 154.22 296.787 154.93C296.787 156.34 295.577 157.13 294.037 157.13C292.517 157.13 291.297 156.34 291.297 154.93C291.297 154.22 291.597 153.57 292.407 153.12C291.807 152.77 291.517 152.13 291.517 151.49C291.517 150.41 292.517 149.62 294.037 149.62ZM294.037 153.68C293.227 153.68 292.707 154.15 292.707 154.87C292.707 155.59 293.227 156.09 294.037 156.09C294.867 156.09 295.377 155.59 295.377 154.87C295.377 154.15 294.867 153.68 294.037 153.68ZM295.227 151.65C295.227 151.05 294.757 150.66 294.037 150.66C293.317 150.66 292.857 151.05 292.857 151.65C292.857 152.25 293.317 152.69 294.037 152.69C294.757 152.69 295.227 152.25 295.227 151.65ZM302.709 156.07C303.429 156.07 303.939 155.37 303.939 154.32C303.939 153.27 303.429 152.56 302.709 152.56C301.949 152.56 301.449 153.23 301.449 154.31C301.449 155.42 301.949 156.07 302.709 156.07ZM301.499 157H300.119V149.75H301.499V152.31C301.789 151.8 302.369 151.5 303.049 151.5C304.349 151.5 305.389 152.62 305.389 154.31C305.389 156.03 304.329 157.13 303.049 157.13C302.489 157.13 301.849 156.92 301.499 156.32V157ZM306.626 158.75H306.046V157.69H306.566C307.026 157.69 307.226 157.7 307.466 157.13L307.526 156.98L305.466 151.62H306.976L308.196 155.5L309.446 151.62H310.846L308.876 156.84C308.236 158.51 307.966 158.75 306.626 158.75ZM311.657 151.62V150.16H313.037V151.62H314.157V152.57H313.037V155.35C313.037 155.9 313.227 156.01 313.717 156.01H314.137V157H313.127C311.887 157 311.657 156.62 311.657 155.55V152.57H310.897V151.62H311.657ZM320.031 154.69H316.061C316.141 155.61 316.761 156.06 317.421 156.06C317.851 156.06 318.271 155.91 318.551 155.44H319.971C319.681 156.24 318.901 157.13 317.431 157.13C315.701 157.13 314.691 155.84 314.691 154.29C314.691 152.69 315.801 151.5 317.391 151.5C319.051 151.5 320.081 152.79 320.031 154.69ZM317.381 152.51C316.861 152.51 316.191 152.83 316.081 153.74H318.631C318.601 152.83 317.961 152.51 317.381 152.51ZM325.289 153.24H323.999C323.889 152.79 323.489 152.47 322.849 152.47C322.339 152.47 321.979 152.66 321.979 152.99C321.979 153.28 322.189 153.5 322.699 153.61L323.419 153.77C324.489 154.01 325.399 154.28 325.399 155.39C325.399 156.47 324.289 157.13 323.069 157.13C321.749 157.13 320.749 156.45 320.619 155.22H321.949C322.029 155.74 322.389 156.13 323.109 156.13C323.709 156.13 324.079 155.91 324.079 155.52C324.079 155.12 323.669 154.97 323.199 154.86L322.399 154.69C321.389 154.48 320.719 154.06 320.719 153.08C320.719 152.12 321.759 151.48 322.919 151.48C324.039 151.48 325.099 152 325.289 153.24Z" fill="#0D0D0D"/>
<path d="M431.099 149.75V155.84H434.629V157H429.669V149.75H431.099ZM440.234 154.69H436.264C436.344 155.61 436.964 156.06 437.624 156.06C438.054 156.06 438.474 155.91 438.754 155.44H440.174C439.884 156.24 439.104 157.13 437.634 157.13C435.904 157.13 434.894 155.84 434.894 154.29C434.894 152.69 436.004 151.5 437.594 151.5C439.254 151.5 440.284 152.79 440.234 154.69ZM437.584 152.51C437.064 152.51 436.394 152.83 436.284 153.74H438.834C438.804 152.83 438.164 152.51 437.584 152.51ZM442.503 151.62V152.33C442.813 151.78 443.393 151.5 444.063 151.5C445.353 151.5 445.923 152.28 445.923 153.61V157H444.543V153.91C444.543 153.22 444.393 152.61 443.613 152.61C442.703 152.61 442.503 153.35 442.503 154.2V157H441.123V151.62H442.503ZM449.42 155.76C450.19 155.76 450.66 155.11 450.66 154.15C450.66 153.2 450.19 152.55 449.42 152.55C448.71 152.55 448.18 153.26 448.18 154.16C448.18 155.05 448.71 155.76 449.42 155.76ZM450.61 151.62H451.98V156.46C451.98 158.22 450.99 158.88 449.34 158.88C448.19 158.88 447.18 158.46 446.99 157.21H448.3C448.42 157.65 448.79 157.87 449.41 157.87C450.13 157.87 450.61 157.53 450.61 156.72V156C450.26 156.59 449.63 156.81 449.07 156.81C447.75 156.81 446.73 155.72 446.73 154.15C446.73 152.62 447.72 151.5 449.07 151.5C449.75 151.5 450.37 151.85 450.61 152.32V151.62ZM453.422 151.62V150.16H454.802V151.62H455.922V152.57H454.802V155.35C454.802 155.9 454.992 156.01 455.482 156.01H455.902V157H454.892C453.652 157 453.422 156.62 453.422 155.55V152.57H452.662V151.62H453.422ZM458.187 149.75V152.33C458.497 151.78 459.077 151.5 459.747 151.5C461.037 151.5 461.607 152.28 461.607 153.61V157H460.227V153.91C460.227 153.22 460.077 152.61 459.297 152.61C458.387 152.61 458.187 153.35 458.187 154.2V157H456.807V149.75H458.187ZM467.609 156.07C468.329 156.07 468.839 155.37 468.839 154.32C468.839 153.27 468.329 152.56 467.609 152.56C466.849 152.56 466.349 153.23 466.349 154.31C466.349 155.42 466.849 156.07 467.609 156.07ZM466.399 157H465.019V149.75H466.399V152.31C466.689 151.8 467.269 151.5 467.949 151.5C469.249 151.5 470.289 152.62 470.289 154.31C470.289 156.03 469.229 157.13 467.949 157.13C467.389 157.13 466.749 156.92 466.399 156.32V157ZM471.526 158.75H470.946V157.69H471.466C471.926 157.69 472.126 157.7 472.366 157.13L472.426 156.98L470.366 151.62H471.876L473.096 155.5L474.346 151.62H475.746L473.776 156.84C473.136 158.51 472.866 158.75 471.526 158.75ZM476.557 151.62V150.16H477.937V151.62H479.057V152.57H477.937V155.35C477.937 155.9 478.127 156.01 478.617 156.01H479.037V157H478.027C476.787 157 476.557 156.62 476.557 155.55V152.57H475.797V151.62H476.557ZM484.931 154.69H480.961C481.041 155.61 481.661 156.06 482.321 156.06C482.751 156.06 483.171 155.91 483.451 155.44H484.871C484.581 156.24 483.801 157.13 482.331 157.13C480.601 157.13 479.591 155.84 479.591 154.29C479.591 152.69 480.701 151.5 482.291 151.5C483.951 151.5 484.981 152.79 484.931 154.69ZM482.281 152.51C481.761 152.51 481.091 152.83 480.981 153.74H483.531C483.501 152.83 482.861 152.51 482.281 152.51ZM490.189 153.24H488.899C488.789 152.79 488.389 152.47 487.749 152.47C487.239 152.47 486.879 152.66 486.879 152.99C486.879 153.28 487.089 153.5 487.599 153.61L488.319 153.77C489.389 154.01 490.299 154.28 490.299 155.39C490.299 156.47 489.189 157.13 487.969 157.13C486.649 157.13 485.649 156.45 485.519 155.22H486.849C486.929 155.74 487.289 156.13 488.009 156.13C488.609 156.13 488.979 155.91 488.979 155.52C488.979 155.12 488.569 154.97 488.099 154.86L487.299 154.69C486.289 154.48 485.619 154.06 485.619 153.08C485.619 152.12 486.659 151.48 487.819 151.48C488.939 151.48 489.999 152 490.189 153.24Z" fill="#0D0D0D"/>
<path d="M633.22 157H631.84V151.58H630.28V150.64C631.32 150.61 631.83 150.54 632.17 149.75H633.22V157ZM635.832 154.65C635.832 155.52 636.402 156.09 637.162 156.09C637.912 156.09 638.462 155.53 638.462 154.65C638.462 153.8 637.912 153.24 637.162 153.24C636.402 153.24 635.832 153.8 635.832 154.65ZM637.222 150.67C636.302 150.67 635.752 151.52 635.752 152.88C636.062 152.49 636.642 152.19 637.402 152.19C638.742 152.19 639.862 153.1 639.862 154.67C639.862 156.16 638.732 157.13 637.162 157.13C635.222 157.13 634.372 155.57 634.372 153.54C634.372 151.46 635.142 149.62 637.312 149.62C638.892 149.62 639.632 150.69 639.712 151.62H638.362C638.292 151.02 637.822 150.67 637.222 150.67ZM645.717 156.07C646.437 156.07 646.947 155.37 646.947 154.32C646.947 153.27 646.437 152.56 645.717 152.56C644.957 152.56 644.457 153.23 644.457 154.31C644.457 155.42 644.957 156.07 645.717 156.07ZM644.507 157H643.127V149.75H644.507V152.31C644.797 151.8 645.377 151.5 646.057 151.5C647.357 151.5 648.397 152.62 648.397 154.31C648.397 156.03 647.337 157.13 646.057 157.13C645.497 157.13 644.857 156.92 644.507 156.32V157ZM649.634 158.75H649.054V157.69H649.574C650.034 157.69 650.234 157.7 650.474 157.13L650.534 156.98L648.474 151.62H649.984L651.204 155.5L652.454 151.62H653.854L651.884 156.84C651.244 158.51 650.974 158.75 649.634 158.75ZM654.664 151.62V150.16H656.044V151.62H657.164V152.57H656.044V155.35C656.044 155.9 656.234 156.01 656.724 156.01H657.144V157H656.134C654.894 157 654.664 156.62 654.664 155.55V152.57H653.904V151.62H654.664ZM663.039 154.69H659.069C659.149 155.61 659.769 156.06 660.429 156.06C660.859 156.06 661.279 155.91 661.559 155.44H662.979C662.689 156.24 661.909 157.13 660.439 157.13C658.709 157.13 657.699 155.84 657.699 154.29C657.699 152.69 658.809 151.5 660.399 151.5C662.059 151.5 663.089 152.79 663.039 154.69ZM660.389 152.51C659.869 152.51 659.199 152.83 659.089 153.74H661.639C661.609 152.83 660.969 152.51 660.389 152.51ZM668.296 153.24H667.006C666.896 152.79 666.496 152.47 665.856 152.47C665.346 152.47 664.986 152.66 664.986 152.99C664.986 153.28 665.196 153.5 665.706 153.61L666.426 153.77C667.496 154.01 668.406 154.28 668.406 155.39C668.406 156.47 667.296 157.13 666.076 157.13C664.756 157.13 663.756 156.45 663.626 155.22H664.956C665.036 155.74 665.396 156.13 666.116 156.13C666.716 156.13 667.086 155.91 667.086 155.52C667.086 155.12 666.676 154.97 666.206 154.86L665.406 154.69C664.396 154.48 663.726 154.06 663.726 153.08C663.726 152.12 664.766 151.48 665.926 151.48C667.046 151.48 668.106 152 668.296 153.24Z" fill="#0D0D0D"/>
</g>
<defs>
<clipPath id="clip0_10218_44737">
<rect x="20" y="20" width="446" height="15" rx="7.5" fill="white"/>
</clipPath>
<clipPath id="clip1_10218_44737">
<rect x="20" y="75" width="710" height="32" rx="10" fill="white"/>
</clipPath>
<clipPath id="clip2_10218_44737">
<rect x="20" y="147" width="710" height="12" rx="6" fill="white"/>
</clipPath>
</defs>
</svg>
