<svg xmlns="http://www.w3.org/2000/svg" viewBox="0 0 800 400">
  <rect width="800" height="400" fill="#ffffff"/>
  <text x="400" y="36" text-anchor="middle" font-size="24" fill="#111827" font-family="Arial, sans-serif">复盘方法论证链</text>
  <g font-family="Arial, sans-serif" font-size="15" fill="#111827">
    <rect x="35" y="82" width="145" height="86" rx="8" fill="#dbeafe" stroke="#2563eb"/>
    <text x="107" y="112" text-anchor="middle">前提A</text>
    <text x="107" y="137" text-anchor="middle">记忆会美化交易</text>
    <rect x="220" y="82" width="145" height="86" rx="8" fill="#ecfdf5" stroke="#10b981"/>
    <text x="292" y="112" text-anchor="middle">前提B</text>
    <text x="292" y="137" text-anchor="middle">盈亏不等于质量</text>
    <rect x="405" y="82" width="145" height="86" rx="8" fill="#fef3c7" stroke="#f59e0b"/>
    <text x="477" y="112" text-anchor="middle">前提C</text>
    <text x="477" y="137" text-anchor="middle">错误会重复出现</text>
    <rect x="590" y="82" width="145" height="86" rx="8" fill="#fee2e2" stroke="#dc2626"/>
    <text x="662" y="112" text-anchor="middle">前提D</text>
    <text x="662" y="137" text-anchor="middle">组合会逐月漂移</text>
  </g>
  <path d="M107 178 V218 H292" stroke="#64748b" stroke-width="3" fill="none"/>
  <path d="M292 218 l-12 -8 v16 z" fill="#64748b"/>
  <path d="M292 178 V218" stroke="#64748b" stroke-width="3"/>
  <path d="M477 178 V218" stroke="#64748b" stroke-width="3"/>
  <path d="M662 178 V218 H477" stroke="#64748b" stroke-width="3" fill="none"/>
  <path d="M477 218 l12 -8 v16 z" fill="#64748b"/>
  <rect x="205" y="218" width="390" height="88" rx="8" fill="#f8fafc" stroke="#94a3b8"/>
  <text x="400" y="250" text-anchor="middle" font-size="17" fill="#0f172a" font-family="Arial, sans-serif">推导</text>
  <text x="400" y="276" text-anchor="middle" font-size="15" fill="#334155" font-family="Arial, sans-serif">先记录事实, 再归因模式, 最后调整组合规则</text>
  <path d="M400 306 V338" stroke="#64748b" stroke-width="3"/>
  <path d="M400 338 l-9 -12 h18 z" fill="#64748b"/>
  <rect x="155" y="338" width="490" height="44" rx="8" fill="#dcfce7" stroke="#16a34a"/>
  <text x="400" y="366" text-anchor="middle" font-size="17" fill="#14532d" font-family="Arial, sans-serif">结论: 日复盘纠动作, 周复盘纠模式, 月复盘纠系统</text>
</svg>
