<svg xmlns="http://www.w3.org/2000/svg" viewBox="0 0 800 400" width="800" height="400">
  <rect width="800" height="400" fill="#f8fafc"/>
  <text x="400" y="42" text-anchor="middle" font-size="24" font-weight="700" fill="#111827">财报后股价反应：看预期差，不只看好坏</text>
  <line x1="110" y1="205" x2="690" y2="205" stroke="#475569" stroke-width="4" stroke-linecap="round"/>
  <polygon points="690,205 672,194 672,216" fill="#475569"/>
  <circle cx="250" cy="205" r="42" fill="#fee2e2" stroke="#dc2626" stroke-width="3"/>
  <circle cx="400" cy="205" r="42" fill="#e5e7eb" stroke="#6b7280" stroke-width="3"/>
  <circle cx="550" cy="205" r="42" fill="#dcfce7" stroke="#16a34a" stroke-width="3"/>
  <text x="250" y="200" text-anchor="middle" font-size="18" font-weight="700" fill="#991b1b">低于</text>
  <text x="250" y="224" text-anchor="middle" font-size="18" font-weight="700" fill="#991b1b">预期</text>
  <text x="400" y="200" text-anchor="middle" font-size="18" font-weight="700" fill="#374151">符合</text>
  <text x="400" y="224" text-anchor="middle" font-size="18" font-weight="700" fill="#374151">预期</text>
  <text x="550" y="200" text-anchor="middle" font-size="18" font-weight="700" fill="#166534">超出</text>
  <text x="550" y="224" text-anchor="middle" font-size="18" font-weight="700" fill="#166534">预期</text>
  <rect x="142" y="86" width="216" height="62" rx="8" fill="#ffffff" stroke="#cbd5e1"/>
  <text x="250" y="112" text-anchor="middle" font-size="16" font-weight="700" fill="#111827">市场提前写剧本</text>
  <text x="250" y="136" text-anchor="middle" font-size="14" fill="#475569">估值、股价、分析师预测</text>
  <rect x="442" y="86" width="216" height="62" rx="8" fill="#ffffff" stroke="#cbd5e1"/>
  <text x="550" y="112" text-anchor="middle" font-size="16" font-weight="700" fill="#111827">财报公布交答案</text>
  <text x="550" y="136" text-anchor="middle" font-size="14" fill="#475569">EPS、收入、Guidance</text>
  <path d="M250 148 C260 170, 270 178, 295 188" fill="none" stroke="#64748b" stroke-width="2"/>
  <path d="M550 148 C540 170, 530 178, 505 188" fill="none" stroke="#64748b" stroke-width="2"/>
  <rect x="115" y="295" width="570" height="58" rx="8" fill="#eef2ff" stroke="#6366f1"/>
  <text x="400" y="320" text-anchor="middle" font-size="17" font-weight="700" fill="#312e81">操作含义</text>
  <text x="400" y="344" text-anchor="middle" font-size="15" fill="#334155">先判断差距来源，再决定加仓、观察、减仓或退出</text>
</svg>
