<?xml version="1.0" encoding="UTF-8"?>
<svg xmlns="http://www.w3.org/2000/svg" xmlns:xlink="http://www.w3.org/1999/xlink" width="102" height="271">
  <rect width="20" height="20" x="26" y="6" id="r"/>
  <use y="30" xlink:href="#r"/>
  <use y="60" xlink:href="#r"/>
  <use x="20" y="90" xlink:href="#r"/>
  <use x="20" y="120" xlink:href="#r"/>
  <use x="20" y="150" xlink:href="#r"/>
  <use x="20" y="180" xlink:href="#r"/>
  <use y="210" xlink:href="#r"/>
  <rect width="19" height="19" x="66.5" y="66.5" fill="#9865c3" stroke="#000" id="t"/>
  <use y="-30" xlink:href="#t"/>
  <use x="10" y="30" xlink:href="#t"/>
  <use x="10" y="60" xlink:href="#t"/>
  <use x="-60" y="120" xlink:href="#t"/>
  <rect width="19" height="19" x="26.5" y="246.5" fill="#448e73" stroke="#000"/>
  <path d="m 66,136 10,0 m -40,100 0,10 m 20,-70 0,10 m 0,-40 0,10 m 30,-40 0,10 m -30,-10 0,10 M 76,56 76,66 M 36,56 36,66 m 0,-40 0,10 M 14.813189,205.34165 37.464028,217.91519 M 57.070035,205.22195 36.077544,217.0773 M 34.788331,85.490793 57.43917,98.064333 m 19.606007,-12.69324 -20.992491,11.85535" fill="none" stroke="#000"/>
</svg>
