<svg xmlns="http://www.w3.org/2000/svg" viewBox="0 0 800 400">
  <rect width="800" height="400" fill="#f8fafc"/>
  <text x="400" y="42" text-anchor="middle" font-size="24" fill="#111827" font-family="Arial, sans-serif">三类高危诱饵：不是机会，是筛选受害者</text>
  <rect x="50" y="95" width="190" height="92" rx="8" fill="#fff7ed" stroke="#fb923c" stroke-width="2"/>
  <text x="145" y="128" text-anchor="middle" font-size="22" fill="#9a3412" font-family="Arial, sans-serif">老师带单</text>
  <text x="145" y="158" text-anchor="middle" font-size="15" fill="#7c2d12" font-family="Arial, sans-serif">先免费诊股</text>
  <text x="145" y="179" text-anchor="middle" font-size="15" fill="#7c2d12" font-family="Arial, sans-serif">再收群费/服务费</text>
  <rect x="305" y="95" width="190" height="92" rx="8" fill="#eff6ff" stroke="#60a5fa" stroke-width="2"/>
  <text x="400" y="128" text-anchor="middle" font-size="22" fill="#1d4ed8" font-family="Arial, sans-serif">内幕消息</text>
  <text x="400" y="158" text-anchor="middle" font-size="15" fill="#1e3a8a" font-family="Arial, sans-serif">制造稀缺感</text>
  <text x="400" y="179" text-anchor="middle" font-size="15" fill="#1e3a8a" font-family="Arial, sans-serif">让你来不及核验</text>
  <rect x="560" y="95" width="190" height="92" rx="8" fill="#fef2f2" stroke="#f87171" stroke-width="2"/>
  <text x="655" y="128" text-anchor="middle" font-size="22" fill="#b91c1c" font-family="Arial, sans-serif">稳赚模型</text>
  <text x="655" y="158" text-anchor="middle" font-size="15" fill="#7f1d1d" font-family="Arial, sans-serif">承诺收益</text>
  <text x="655" y="179" text-anchor="middle" font-size="15" fill="#7f1d1d" font-family="Arial, sans-serif">掩盖风险和资质</text>
  <path d="M145 200 C145 235 280 236 335 258" fill="none" stroke="#64748b" stroke-width="3" marker-end="url(#arrow)"/>
  <path d="M400 200 L400 250" fill="none" stroke="#64748b" stroke-width="3" marker-end="url(#arrow)"/>
  <path d="M655 200 C655 235 520 236 465 258" fill="none" stroke="#64748b" stroke-width="3" marker-end="url(#arrow)"/>
  <rect x="250" y="260" width="300" height="92" rx="10" fill="#ffffff" stroke="#334155" stroke-width="2"/>
  <text x="400" y="292" text-anchor="middle" font-size="21" fill="#111827" font-family="Arial, sans-serif">共同目的</text>
  <text x="400" y="322" text-anchor="middle" font-size="16" fill="#334155" font-family="Arial, sans-serif">让你绕开正规机构、真实账户和冷静期</text>
  <text x="400" y="345" text-anchor="middle" font-size="16" fill="#334155" font-family="Arial, sans-serif">把钱转到对方可控制的路径里</text>
  <defs>
    <marker id="arrow" markerWidth="10" markerHeight="10" refX="8" refY="3" orient="auto" markerUnits="strokeWidth">
      <path d="M0,0 L0,6 L9,3 z" fill="#64748b"/>
    </marker>
  </defs>
</svg>
