<svg xmlns="http://www.w3.org/2000/svg" viewBox="0 0 800 400" width="800" height="400">
  <rect width="800" height="400" fill="#f8fafc"/>
  <text x="400" y="40" text-anchor="middle" font-size="24" font-weight="700" fill="#111827">前提变化后的操作分支</text>
  <defs>
    <marker id="arrow" markerWidth="10" markerHeight="10" refX="9" refY="3" orient="auto" markerUnits="strokeWidth">
      <path d="M0,0 L0,6 L9,3 z" fill="#475569"/>
    </marker>
  </defs>
  <rect x="285" y="78" width="230" height="58" rx="12" fill="#111827"/>
  <text x="400" y="113" text-anchor="middle" font-size="18" font-weight="700" fill="#ffffff">想参与商品资产</text>
  <line x1="400" y1="136" x2="400" y2="178" stroke="#475569" stroke-width="2" marker-end="url(#arrow)"/>
  <rect x="250" y="178" width="300" height="54" rx="10" fill="#ffffff" stroke="#94a3b8"/>
  <text x="400" y="211" text-anchor="middle" font-size="17" font-weight="700" fill="#0f172a">先问：三项前提是否成立？</text>
  <line x1="250" y1="205" x2="118" y2="268" stroke="#475569" stroke-width="2" marker-end="url(#arrow)"/>
  <line x1="400" y1="232" x2="400" y2="268" stroke="#475569" stroke-width="2" marker-end="url(#arrow)"/>
  <line x1="550" y1="205" x2="682" y2="268" stroke="#475569" stroke-width="2" marker-end="url(#arrow)"/>
  <rect x="35" y="268" width="170" height="82" rx="10" fill="#fef2f2" stroke="#ef4444"/>
  <text x="120" y="296" text-anchor="middle" font-size="16" font-weight="700" fill="#991b1b">看不懂驱动</text>
  <text x="120" y="323" text-anchor="middle" font-size="14" fill="#334155">不交易</text>
  <text x="120" y="344" text-anchor="middle" font-size="14" fill="#334155">只做观察表</text>
  <rect x="315" y="268" width="170" height="82" rx="10" fill="#f0fdf4" stroke="#22c55e"/>
  <text x="400" y="296" text-anchor="middle" font-size="16" font-weight="700" fill="#166534">工具低杠杆</text>
  <text x="400" y="323" text-anchor="middle" font-size="14" fill="#334155">商品ETF/基金</text>
  <text x="400" y="344" text-anchor="middle" font-size="14" fill="#334155">小仓位学习</text>
  <rect x="595" y="268" width="170" height="82" rx="10" fill="#fff7ed" stroke="#fb923c"/>
  <text x="680" y="296" text-anchor="middle" font-size="16" font-weight="700" fill="#9a3412">使用期货杠杆</text>
  <text x="680" y="323" text-anchor="middle" font-size="14" fill="#334155">只模拟或极小仓</text>
  <text x="680" y="344" text-anchor="middle" font-size="14" fill="#334155">先学风控</text>
</svg>
