<svg xmlns="http://www.w3.org/2000/svg" viewBox="0 0 800 400">
  <rect width="800" height="400" fill="#f8fafc"/>
  <text x="400" y="38" text-anchor="middle" font-size="24" fill="#111827" font-family="Arial, sans-serif">再平衡: 把漂移的仓位拉回目标</text>
  <rect x="55" y="78" width="270" height="255" rx="8" fill="#ffffff" stroke="#cbd5e1"/>
  <text x="190" y="112" text-anchor="middle" font-size="18" fill="#0f172a" font-family="Arial, sans-serif">年初目标比例</text>
  <rect x="95" y="145" width="170" height="34" fill="#2563eb"/>
  <text x="278" y="168" font-size="15" fill="#111827" font-family="Arial, sans-serif">核心 60%</text>
  <rect x="95" y="192" width="85" height="34" fill="#f59e0b"/>
  <text x="193" y="215" font-size="15" fill="#111827" font-family="Arial, sans-serif">卫星 20%</text>
  <rect x="95" y="239" width="85" height="34" fill="#10b981"/>
  <text x="193" y="262" font-size="15" fill="#111827" font-family="Arial, sans-serif">防守 20%</text>
  <rect x="475" y="78" width="270" height="255" rx="8" fill="#ffffff" stroke="#cbd5e1"/>
  <text x="610" y="112" text-anchor="middle" font-size="18" fill="#0f172a" font-family="Arial, sans-serif">上涨后实际比例</text>
  <rect x="515" y="145" width="148" height="34" fill="#2563eb"/>
  <text x="676" y="168" font-size="15" fill="#111827" font-family="Arial, sans-serif">核心 52%</text>
  <rect x="515" y="192" width="121" height="34" fill="#f59e0b"/>
  <text x="649" y="215" font-size="15" fill="#111827" font-family="Arial, sans-serif">卫星 34%</text>
  <rect x="515" y="239" width="49" height="34" fill="#10b981"/>
  <text x="577" y="262" font-size="15" fill="#111827" font-family="Arial, sans-serif">防守 14%</text>
  <path d="M345 196 H430" stroke="#64748b" stroke-width="3"/>
  <path d="M430 196 l-13 -9 v18 z" fill="#64748b"/>
  <text x="400" y="176" text-anchor="middle" font-size="15" fill="#475569" font-family="Arial, sans-serif">市场涨跌让比例漂移</text>
  <path d="M610 333 C560 370 250 370 190 333" fill="none" stroke="#dc2626" stroke-width="3"/>
  <path d="M190 333 l14 -4 l-7 13 z" fill="#dc2626"/>
  <text x="400" y="369" text-anchor="middle" font-size="16" fill="#dc2626" font-family="Arial, sans-serif">超过阈值时: 卖超配、补低配, 回到风险预算</text>
</svg>
