<svg viewBox="0 0 800 420" xmlns="http://www.w3.org/2000/svg" font-family="Arial, sans-serif">
  <rect width="800" height="420" fill="#f8f9fa"/>
  <text x="400" y="36" text-anchor="middle" font-size="18" font-weight="bold" fill="#1a1a2e">ETF大家族：五类非股票ETF全景图</text>

  <!-- 债券ETF -->
  <rect x="30" y="60" width="138" height="310" rx="10" fill="#e3f0ff" stroke="#4a90d9" stroke-width="1.5"/>
  <text x="99" y="90" text-anchor="middle" font-size="13" font-weight="bold" fill="#1a5fa8">债券ETF</text>
  <text x="99" y="115" text-anchor="middle" font-size="11" fill="#2c3e50">📌 买的是什么？</text>
  <text x="99" y="133" text-anchor="middle" font-size="10" fill="#555">一篮子债券</text>
  <text x="99" y="153" text-anchor="middle" font-size="11" fill="#2c3e50">📌 收益来源</text>
  <text x="99" y="171" text-anchor="middle" font-size="10" fill="#555">利息+价格波动</text>
  <text x="99" y="195" text-anchor="middle" font-size="11" fill="#2c3e50">📌 典型品种</text>
  <text x="99" y="213" text-anchor="middle" font-size="10" fill="#555">国债/政金债/信用</text>
  <text x="99" y="233" text-anchor="middle" font-size="11" fill="#2c3e50">📌 主要风险</text>
  <text x="99" y="251" text-anchor="middle" font-size="10" fill="#555">利率风险</text>
  <text x="99" y="275" text-anchor="middle" font-size="11" fill="#2c3e50">📌 适合环境</text>
  <text x="99" y="293" text-anchor="middle" font-size="10" fill="#555">利率下行周期</text>
  <rect x="50" y="320" width="98" height="28" rx="6" fill="#4a90d9"/>
  <text x="99" y="339" text-anchor="middle" font-size="11" fill="white">防守资产</text>

  <!-- 货币ETF -->
  <rect x="182" y="60" width="138" height="310" rx="10" fill="#e8f5e9" stroke="#43a047" stroke-width="1.5"/>
  <text x="251" y="90" text-anchor="middle" font-size="13" font-weight="bold" fill="#2e7d32">货币ETF</text>
  <text x="251" y="115" text-anchor="middle" font-size="11" fill="#2c3e50">📌 买的是什么？</text>
  <text x="251" y="133" text-anchor="middle" font-size="10" fill="#555">短期货币市场工具</text>
  <text x="251" y="153" text-anchor="middle" font-size="11" fill="#2c3e50">📌 收益来源</text>
  <text x="251" y="171" text-anchor="middle" font-size="10" fill="#555">短期利息</text>
  <text x="251" y="195" text-anchor="middle" font-size="11" fill="#2c3e50">📌 典型品种</text>
  <text x="251" y="213" text-anchor="middle" font-size="10" fill="#555">511880/511990</text>
  <text x="251" y="233" text-anchor="middle" font-size="11" fill="#2c3e50">📌 主要风险</text>
  <text x="251" y="251" text-anchor="middle" font-size="10" fill="#555">极低，近似无风险</text>
  <text x="251" y="275" text-anchor="middle" font-size="11" fill="#2c3e50">📌 适合环境</text>
  <text x="251" y="293" text-anchor="middle" font-size="10" fill="#555">任何时候/备用金</text>
  <rect x="202" y="320" width="98" height="28" rx="6" fill="#43a047"/>
  <text x="251" y="339" text-anchor="middle" font-size="11" fill="white">现金替代</text>

  <!-- 黄金ETF -->
  <rect x="334" y="60" width="138" height="310" rx="10" fill="#fffde7" stroke="#f9a825" stroke-width="1.5"/>
  <text x="403" y="90" text-anchor="middle" font-size="13" font-weight="bold" fill="#f57f17">黄金ETF</text>
  <text x="403" y="115" text-anchor="middle" font-size="11" fill="#2c3e50">📌 买的是什么？</text>
  <text x="403" y="133" text-anchor="middle" font-size="10" fill="#555">挂钩实物黄金</text>
  <text x="403" y="153" text-anchor="middle" font-size="11" fill="#2c3e50">📌 收益来源</text>
  <text x="403" y="171" text-anchor="middle" font-size="10" fill="#555">黄金价格涨跌</text>
  <text x="403" y="195" text-anchor="middle" font-size="11" fill="#2c3e50">📌 典型品种</text>
  <text x="403" y="213" text-anchor="middle" font-size="10" fill="#555">518880/159937</text>
  <text x="403" y="233" text-anchor="middle" font-size="11" fill="#2c3e50">📌 主要风险</text>
  <text x="403" y="251" text-anchor="middle" font-size="10" fill="#555">价格波动较大</text>
  <text x="403" y="275" text-anchor="middle" font-size="11" fill="#2c3e50">📌 适合环境</text>
  <text x="403" y="293" text-anchor="middle" font-size="10" fill="#555">避险/通胀/弱美元</text>
  <rect x="354" y="320" width="98" height="28" rx="6" fill="#f9a825"/>
  <text x="403" y="339" text-anchor="middle" font-size="11" fill="white">避险对冲</text>

  <!-- 跨境ETF -->
  <rect x="486" y="60" width="138" height="310" rx="10" fill="#fce4ec" stroke="#e91e8c" stroke-width="1.5"/>
  <text x="555" y="90" text-anchor="middle" font-size="13" font-weight="bold" fill="#880e4f">跨境ETF</text>
  <text x="555" y="115" text-anchor="middle" font-size="11" fill="#2c3e50">📌 买的是什么？</text>
  <text x="555" y="133" text-anchor="middle" font-size="10" fill="#555">境外指数资产</text>
  <text x="555" y="153" text-anchor="middle" font-size="11" fill="#2c3e50">📌 收益来源</text>
  <text x="555" y="171" text-anchor="middle" font-size="10" fill="#555">海外股价+汇率</text>
  <text x="555" y="195" text-anchor="middle" font-size="11" fill="#2c3e50">📌 典型品种</text>
  <text x="555" y="213" text-anchor="middle" font-size="10" fill="#555">纳指/标普/港股</text>
  <text x="555" y="233" text-anchor="middle" font-size="11" fill="#2c3e50">📌 主要风险</text>
  <text x="555" y="251" text-anchor="middle" font-size="10" fill="#555">市场+汇率+溢价</text>
  <text x="555" y="275" text-anchor="middle" font-size="11" fill="#2c3e50">📌 适合环境</text>
  <text x="555" y="293" text-anchor="middle" font-size="10" fill="#555">海外市场强势时</text>
  <rect x="506" y="320" width="98" height="28" rx="6" fill="#e91e8c"/>
  <text x="555" y="339" text-anchor="middle" font-size="11" fill="white">全球配置</text>

  <!-- 商品ETF -->
  <rect x="638" y="60" width="138" height="310" rx="10" fill="#f3e5f5" stroke="#8e24aa" stroke-width="1.5"/>
  <text x="707" y="90" text-anchor="middle" font-size="13" font-weight="bold" fill="#6a1b9a">商品ETF</text>
  <text x="707" y="115" text-anchor="middle" font-size="11" fill="#2c3e50">📌 买的是什么？</text>
  <text x="707" y="133" text-anchor="middle" font-size="10" fill="#555">能源/农产品/金属</text>
  <text x="707" y="153" text-anchor="middle" font-size="11" fill="#2c3e50">📌 收益来源</text>
  <text x="707" y="171" text-anchor="middle" font-size="10" fill="#555">商品价格涨跌</text>
  <text x="707" y="195" text-anchor="middle" font-size="11" fill="#2c3e50">📌 典型品种</text>
  <text x="707" y="213" text-anchor="middle" font-size="10" fill="#555">石油/豆粕/铜</text>
  <text x="707" y="233" text-anchor="middle" font-size="11" fill="#2c3e50">📌 主要风险</text>
  <text x="707" y="251" text-anchor="middle" font-size="10" fill="#555">高波动+期货展期</text>
  <text x="707" y="275" text-anchor="middle" font-size="11" fill="#2c3e50">📌 适合环境</text>
  <text x="707" y="293" text-anchor="middle" font-size="10" fill="#555">通胀/供应冲击</text>
  <rect x="658" y="320" width="98" height="28" rx="6" fill="#8e24aa"/>
  <text x="707" y="339" text-anchor="middle" font-size="11" fill="white">通胀对冲</text>

  <text x="400" y="400" text-anchor="middle" font-size="10" fill="#aaa">全品种操盘手册 · 第四章第七节</text>
</svg>
