<svg width="750" height="538" viewBox="0 0 750 538" fill="none" xmlns="http://www.w3.org/2000/svg">
<rect width="667" height="538" rx="10" fill="#FAFAFA"/>
<rect width="667" height="538" rx="10" fill="#E6E6E6"/>
<path d="M39.0991 63.418H41.3671V65H34.7871V63.418H37.1671V57.552H34.7871V56.25C36.2571 56.208 37.1811 56.11 37.6291 55.004H39.0991V63.418ZM45.6194 65H43.5474V62.9H45.6194V65ZM56.53 54.668C58.924 54.668 60.52 56.054 60.856 57.93H58.952C58.63 56.81 57.65 56.264 56.516 56.264C54.822 56.264 53.632 57.454 53.632 59.876C53.632 62.298 54.766 63.586 56.502 63.586C57.58 63.586 59.036 63.04 59.036 61.416V61.248H56.502V59.61H60.884V65H59.302L59.246 63.81C58.672 64.65 57.636 65.182 56.194 65.182C53.338 65.182 51.56 63.124 51.56 59.876C51.56 56.726 53.422 54.668 56.53 54.668ZM69.6551 61.766H64.0971C64.2091 63.054 65.0771 63.684 66.0011 63.684C66.6031 63.684 67.1911 63.474 67.5831 62.816H69.5711C69.1651 63.936 68.0731 65.182 66.0151 65.182C63.5931 65.182 62.1791 63.376 62.1791 61.206C62.1791 58.966 63.7331 57.3 65.9591 57.3C68.2831 57.3 69.7251 59.106 69.6551 61.766ZM65.9451 58.714C65.2171 58.714 64.2791 59.162 64.1251 60.436H67.6951C67.6531 59.162 66.7571 58.714 65.9451 58.714ZM72.8456 57.468V58.462C73.2796 57.692 74.0916 57.3 75.0296 57.3C76.8356 57.3 77.6336 58.392 77.6336 60.254V65H75.7016V60.674C75.7016 59.708 75.4916 58.854 74.3996 58.854C73.1256 58.854 72.8456 59.89 72.8456 61.08V65H70.9136V57.468H72.8456ZM86.2534 61.766H80.6954C80.8074 63.054 81.6754 63.684 82.5994 63.684C83.2014 63.684 83.7894 63.474 84.1814 62.816H86.1694C85.7634 63.936 84.6714 65.182 82.6134 65.182C80.1914 65.182 78.7774 63.376 78.7774 61.206C78.7774 58.966 80.3314 57.3 82.5574 57.3C84.8814 57.3 86.3234 59.106 86.2534 61.766ZM82.5434 58.714C81.8154 58.714 80.8774 59.162 80.7234 60.436H84.2934C84.2514 59.162 83.3554 58.714 82.5434 58.714ZM91.8239 57.51V59.33C91.5439 59.288 91.3059 59.288 91.0259 59.288C90.0739 59.288 89.4439 59.638 89.4439 61.052V65H87.5119V57.468H89.4159V58.784C89.8499 57.846 90.5219 57.482 91.4039 57.482C91.5299 57.482 91.6979 57.496 91.8239 57.51ZM97.2611 62.116V61.556C95.0911 61.78 94.2371 62.032 94.2371 62.872C94.2371 63.418 94.6571 63.866 95.5391 63.866C96.7571 63.866 97.2611 63.222 97.2611 62.116ZM97.4291 64.062C96.8831 64.846 96.0991 65.182 94.9651 65.182C93.5231 65.182 92.2491 64.342 92.2491 62.97C92.2491 61.192 94.2371 60.66 97.2051 60.324V60.198C97.2051 59.036 96.5751 58.63 95.7911 58.63C95.0491 58.63 94.4331 59.008 94.3911 59.848H92.5851C92.7391 58.364 93.9431 57.272 95.8891 57.272C97.6671 57.272 99.1371 58.056 99.1371 60.59C99.1371 60.814 99.1091 61.836 99.1091 62.508C99.1091 63.698 99.1791 64.37 99.3331 65H97.5551C97.4991 64.762 97.4711 64.44 97.4291 64.062ZM101.027 57.468V55.424H102.959V57.468H104.527V58.798H102.959V62.69C102.959 63.46 103.225 63.614 103.911 63.614H104.499V65H103.085C101.349 65 101.027 64.468 101.027 62.97V58.798H99.9626V57.468H101.027ZM112.765 61.766H107.206C107.318 63.054 108.186 63.684 109.11 63.684C109.712 63.684 110.3 63.474 110.692 62.816H112.68C112.274 63.936 111.182 65.182 109.124 65.182C106.702 65.182 105.288 63.376 105.288 61.206C105.288 58.966 106.842 57.3 109.068 57.3C111.392 57.3 112.835 59.106 112.765 61.766ZM109.054 58.714C108.326 58.714 107.388 59.162 107.234 60.436H110.805C110.762 59.162 109.866 58.714 109.054 58.714ZM117.461 57.468V55.424H119.393V57.468H120.961V58.798H119.393V62.69C119.393 63.46 119.659 63.614 120.345 63.614H120.933V65H119.519C117.783 65 117.461 64.468 117.461 62.97V58.798H116.397V57.468H117.461ZM124.145 54.85V58.462C124.579 57.692 125.391 57.3 126.329 57.3C128.135 57.3 128.933 58.392 128.933 60.254V65H127.001V60.674C127.001 59.708 126.791 58.854 125.699 58.854C124.425 58.854 124.145 59.89 124.145 61.08V65H122.213V54.85H124.145ZM137.553 61.766H131.995C132.107 63.054 132.975 63.684 133.899 63.684C134.501 63.684 135.089 63.474 135.481 62.816H137.469C137.063 63.936 135.971 65.182 133.913 65.182C131.491 65.182 130.077 63.376 130.077 61.206C130.077 58.966 131.631 57.3 133.857 57.3C136.181 57.3 137.623 59.106 137.553 61.766ZM133.843 58.714C133.115 58.714 132.177 59.162 132.023 60.436H135.593C135.551 59.162 134.655 58.714 133.843 58.714ZM143.916 54.85V65H141.984V54.85H143.916ZM145.662 57.468H147.594V65H145.662V57.468ZM145.662 54.85H147.594V56.642H145.662V54.85ZM155.388 59.736H153.582C153.428 59.106 152.868 58.658 151.972 58.658C151.258 58.658 150.754 58.924 150.754 59.386C150.754 59.792 151.048 60.1 151.762 60.254L152.77 60.478C154.268 60.814 155.542 61.192 155.542 62.746C155.542 64.258 153.988 65.182 152.28 65.182C150.432 65.182 149.032 64.23 148.85 62.508H150.712C150.824 63.236 151.328 63.782 152.336 63.782C153.176 63.782 153.694 63.474 153.694 62.928C153.694 62.368 153.12 62.158 152.462 62.004L151.342 61.766C149.928 61.472 148.99 60.884 148.99 59.512C148.99 58.168 150.446 57.272 152.07 57.272C153.638 57.272 155.122 58 155.388 59.736ZM157.126 57.468V55.424H159.058V57.468H160.626V58.798H159.058V62.69C159.058 63.46 159.324 63.614 160.01 63.614H160.598V65H159.184C157.448 65 157.126 64.468 157.126 62.97V58.798H156.062V57.468H157.126ZM168.326 58.812C167.262 58.812 166.506 59.666 166.506 61.248C166.506 62.83 167.262 63.67 168.326 63.67C169.39 63.67 170.146 62.83 170.146 61.248C170.146 59.666 169.39 58.812 168.326 58.812ZM168.326 65.182C166.422 65.182 164.546 63.88 164.546 61.248C164.546 58.602 166.422 57.3 168.326 57.3C170.23 57.3 172.106 58.602 172.106 61.248C172.106 63.88 170.23 65.182 168.326 65.182ZM173.736 57.468V57.048C173.736 55.144 174.632 54.85 176.522 54.85H177.18V56.278H176.802C175.85 56.278 175.668 56.39 175.668 57.104V57.468H177.18V58.798H175.668V65H173.736V58.798H172.672V57.468H173.736ZM184.974 63.698C185.982 63.698 186.696 62.718 186.696 61.248C186.696 59.778 185.982 58.784 184.974 58.784C183.91 58.784 183.21 59.722 183.21 61.234C183.21 62.788 183.91 63.698 184.974 63.698ZM183.28 67.45H181.348V57.468H183.28V58.434C183.686 57.72 184.498 57.3 185.45 57.3C187.27 57.3 188.726 58.868 188.726 61.234C188.726 63.642 187.228 65.182 185.436 65.182C184.652 65.182 183.77 64.888 183.28 64.048V67.45ZM194.624 62.116V61.556C192.454 61.78 191.6 62.032 191.6 62.872C191.6 63.418 192.02 63.866 192.902 63.866C194.12 63.866 194.624 63.222 194.624 62.116ZM194.792 64.062C194.246 64.846 193.462 65.182 192.328 65.182C190.886 65.182 189.612 64.342 189.612 62.97C189.612 61.192 191.6 60.66 194.568 60.324V60.198C194.568 59.036 193.938 58.63 193.154 58.63C192.412 58.63 191.796 59.008 191.754 59.848H189.948C190.102 58.364 191.306 57.272 193.252 57.272C195.03 57.272 196.5 58.056 196.5 60.59C196.5 60.814 196.472 61.836 196.472 62.508C196.472 63.698 196.542 64.37 196.696 65H194.918C194.862 64.762 194.834 64.44 194.792 64.062ZM202.436 57.51V59.33C202.156 59.288 201.918 59.288 201.638 59.288C200.686 59.288 200.056 59.638 200.056 61.052V65H198.124V57.468H200.028V58.784C200.462 57.846 201.134 57.482 202.016 57.482C202.142 57.482 202.31 57.496 202.436 57.51ZM206.704 63.698C207.768 63.698 208.468 62.788 208.468 61.234C208.468 59.722 207.768 58.784 206.704 58.784C205.696 58.784 204.982 59.778 204.982 61.248C204.982 62.718 205.696 63.698 206.704 63.698ZM210.33 57.468V67.45H208.398V64.048C207.908 64.888 207.012 65.182 206.228 65.182C204.436 65.182 202.952 63.642 202.952 61.234C202.952 58.868 204.408 57.3 206.228 57.3C207.18 57.3 207.992 57.72 208.398 58.434V57.468H210.33ZM216.731 65V64.006C216.297 64.776 215.471 65.182 214.533 65.182C212.727 65.182 211.999 64.076 211.999 62.228V57.468H213.931V61.808C213.931 62.816 214.085 63.628 215.163 63.628C216.451 63.628 216.731 62.578 216.731 61.388V57.468H218.663V65H216.731ZM227.396 61.766H221.838C221.95 63.054 222.818 63.684 223.742 63.684C224.344 63.684 224.932 63.474 225.324 62.816H227.312C226.906 63.936 225.814 65.182 223.756 65.182C221.334 65.182 219.92 63.376 219.92 61.206C219.92 58.966 221.474 57.3 223.7 57.3C226.024 57.3 227.466 59.106 227.396 61.766ZM223.686 58.714C222.958 58.714 222.02 59.162 221.866 60.436H225.436C225.394 59.162 224.498 58.714 223.686 58.714ZM228.92 57.468V55.424H230.852V57.468H232.42V58.798H230.852V62.69C230.852 63.46 231.118 63.614 231.804 63.614H232.392V65H230.978C229.242 65 228.92 64.468 228.92 62.97V58.798H227.856V57.468H228.92ZM239.72 59.736H237.914C237.76 59.106 237.2 58.658 236.304 58.658C235.59 58.658 235.086 58.924 235.086 59.386C235.086 59.792 235.38 60.1 236.094 60.254L237.102 60.478C238.6 60.814 239.874 61.192 239.874 62.746C239.874 64.258 238.32 65.182 236.612 65.182C234.764 65.182 233.364 64.23 233.182 62.508H235.044C235.156 63.236 235.66 63.782 236.668 63.782C237.508 63.782 238.026 63.474 238.026 62.928C238.026 62.368 237.452 62.158 236.794 62.004L235.674 61.766C234.26 61.472 233.322 60.884 233.322 59.512C233.322 58.168 234.778 57.272 236.402 57.272C237.97 57.272 239.454 58 239.72 59.736Z" fill="#0D0D0D"/>
<path d="M38.7771 476.3L35.8791 479.926H38.7771V476.3ZM42.4311 479.926V481.564H40.6951V484H38.7771V481.564H33.7651V480.052L38.8051 473.85H40.6951V479.926H42.4311ZM45.6194 484H43.5474V481.9H45.6194V484ZM51.91 473.85H55.382C57.454 473.85 59.848 474.144 59.848 477.21C59.848 479.8 57.79 480.43 55.438 480.43H53.912V484H51.91V473.85ZM55.424 475.418H53.912V478.876H55.564C56.796 478.876 57.79 478.568 57.79 477.224C57.79 475.558 56.502 475.418 55.424 475.418ZM65.2113 484V483.006C64.7773 483.776 63.9513 484.182 63.0133 484.182C61.2073 484.182 60.4793 483.076 60.4793 481.228V476.468H62.4113V480.808C62.4113 481.816 62.5653 482.628 63.6433 482.628C64.9313 482.628 65.2113 481.578 65.2113 480.388V476.468H67.1433V484H65.2113ZM72.5161 482.698C73.5241 482.698 74.2381 481.718 74.2381 480.248C74.2381 478.778 73.5241 477.784 72.5161 477.784C71.4521 477.784 70.7521 478.722 70.7521 480.234C70.7521 481.788 71.4521 482.698 72.5161 482.698ZM70.8221 484H68.8901V473.85H70.8221V477.434C71.2281 476.72 72.0401 476.3 72.9921 476.3C74.8121 476.3 76.2681 477.868 76.2681 480.234C76.2681 482.642 74.7841 484.182 72.9921 484.182C72.2081 484.182 71.3121 483.888 70.8221 483.048V484ZM79.4631 473.85V484H77.5311V473.85H79.4631ZM81.2092 476.468H83.1412V484H81.2092V476.468ZM81.2092 473.85H83.1412V475.642H81.2092V473.85ZM90.9352 478.736H89.1292C88.9752 478.106 88.4152 477.658 87.5192 477.658C86.8052 477.658 86.3012 477.924 86.3012 478.386C86.3012 478.792 86.5952 479.1 87.3092 479.254L88.3172 479.478C89.8152 479.814 91.0892 480.192 91.0892 481.746C91.0892 483.258 89.5352 484.182 87.8272 484.182C85.9792 484.182 84.5792 483.23 84.3972 481.508H86.2592C86.3712 482.236 86.8752 482.782 87.8832 482.782C88.7232 482.782 89.2412 482.474 89.2412 481.928C89.2412 481.368 88.6672 481.158 88.0092 481.004L86.8892 480.766C85.4752 480.472 84.5372 479.884 84.5372 478.512C84.5372 477.168 85.9932 476.272 87.6172 476.272C89.1852 476.272 90.6692 477 90.9352 478.736ZM94.2434 473.85V477.462C94.6774 476.692 95.4894 476.3 96.4274 476.3C98.2334 476.3 99.0314 477.392 99.0314 479.254V484H97.0994V479.674C97.0994 478.708 96.8894 477.854 95.7974 477.854C94.5234 477.854 94.2434 478.89 94.2434 480.08V484H92.3114V473.85H94.2434ZM104.103 476.468V474.424H106.035V476.468H107.603V477.798H106.035V481.69C106.035 482.46 106.301 482.614 106.987 482.614H107.575V484H106.161C104.425 484 104.103 483.468 104.103 481.97V477.798H103.039V476.468H104.103ZM112.131 477.812C111.067 477.812 110.311 478.666 110.311 480.248C110.311 481.83 111.067 482.67 112.131 482.67C113.195 482.67 113.951 481.83 113.951 480.248C113.951 478.666 113.195 477.812 112.131 477.812ZM112.131 484.182C110.227 484.182 108.351 482.88 108.351 480.248C108.351 477.602 110.227 476.3 112.131 476.3C114.035 476.3 115.911 477.602 115.911 480.248C115.911 482.88 114.035 484.182 112.131 484.182ZM120.593 476.468V474.424H122.525V476.468H124.093V477.798H122.525V481.69C122.525 482.46 122.791 482.614 123.477 482.614H124.065V484H122.651C120.915 484 120.593 483.468 120.593 481.97V477.798H119.529V476.468H120.593ZM127.277 473.85V477.462C127.711 476.692 128.523 476.3 129.461 476.3C131.267 476.3 132.065 477.392 132.065 479.254V484H130.133V479.674C130.133 478.708 129.923 477.854 128.831 477.854C127.557 477.854 127.277 478.89 127.277 480.08V484H125.345V473.85H127.277ZM140.684 480.766H135.126C135.238 482.054 136.106 482.684 137.03 482.684C137.632 482.684 138.22 482.474 138.612 481.816H140.6C140.194 482.936 139.102 484.182 137.044 484.182C134.622 484.182 133.208 482.376 133.208 480.206C133.208 477.966 134.762 476.3 136.988 476.3C139.312 476.3 140.754 478.106 140.684 480.766ZM136.974 477.714C136.246 477.714 135.308 478.162 135.154 479.436H138.724C138.682 478.162 137.786 477.714 136.974 477.714ZM148.405 476.3C149.987 476.3 151.555 477.182 151.821 479.044H149.973C149.819 478.316 149.147 477.798 148.405 477.798C147.397 477.798 146.599 478.652 146.599 480.22C146.599 481.802 147.355 482.684 148.419 482.684C149.091 482.684 149.777 482.334 150.043 481.438H151.891C151.443 483.496 149.889 484.182 148.321 484.182C146.067 484.182 144.625 482.53 144.625 480.248C144.625 477.952 146.151 476.3 148.405 476.3ZM154.991 473.85V484H153.059V473.85H154.991ZM160.013 477.812C158.949 477.812 158.193 478.666 158.193 480.248C158.193 481.83 158.949 482.67 160.013 482.67C161.077 482.67 161.833 481.83 161.833 480.248C161.833 478.666 161.077 477.812 160.013 477.812ZM160.013 484.182C158.109 484.182 156.233 482.88 156.233 480.248C156.233 477.602 158.109 476.3 160.013 476.3C161.917 476.3 163.793 477.602 163.793 480.248C163.793 482.88 161.917 484.182 160.013 484.182ZM169.67 484V483.006C169.236 483.776 168.41 484.182 167.472 484.182C165.666 484.182 164.938 483.076 164.938 481.228V476.468H166.87V480.808C166.87 481.816 167.024 482.628 168.102 482.628C169.39 482.628 169.67 481.578 169.67 480.388V476.468H171.602V484H169.67ZM180.237 484H178.305V483.048C177.815 483.888 176.919 484.182 176.135 484.182C174.343 484.182 172.859 482.642 172.859 480.234C172.859 477.868 174.315 476.3 176.135 476.3C177.087 476.3 177.899 476.72 178.305 477.434V473.85H180.237V484ZM176.611 482.698C177.675 482.698 178.375 481.788 178.375 480.234C178.375 478.722 177.675 477.784 176.611 477.784C175.603 477.784 174.889 478.778 174.889 480.248C174.889 481.718 175.603 482.698 176.611 482.698Z" fill="#0D0D0D"/>
<path d="M38.2451 188.668C40.2751 188.668 41.5771 189.62 41.5771 191.398C41.5771 193.288 39.7291 195.29 36.6071 197.376H41.8151V199H34.3531V197.432C37.6151 194.814 39.6311 193.106 39.6311 191.496C39.6311 190.6 39.0851 190.096 38.1331 190.096C37.2791 190.096 36.4111 190.614 36.4111 192.126H34.5351C34.4931 190.04 36.0051 188.668 38.2451 188.668ZM45.6194 199H43.5474V196.9H45.6194V199ZM56.53 188.668C58.924 188.668 60.52 190.054 60.856 191.93H58.952C58.63 190.81 57.65 190.264 56.516 190.264C54.822 190.264 53.632 191.454 53.632 193.876C53.632 196.298 54.766 197.586 56.502 197.586C57.58 197.586 59.036 197.04 59.036 195.416V195.248H56.502V193.61H60.884V199H59.302L59.246 197.81C58.672 198.65 57.636 199.182 56.194 199.182C53.338 199.182 51.56 197.124 51.56 193.876C51.56 190.726 53.422 188.668 56.53 188.668ZM69.6551 195.766H64.0971C64.2091 197.054 65.0771 197.684 66.0011 197.684C66.6031 197.684 67.1911 197.474 67.5831 196.816H69.5711C69.1651 197.936 68.0731 199.182 66.0151 199.182C63.5931 199.182 62.1791 197.376 62.1791 195.206C62.1791 192.966 63.7331 191.3 65.9591 191.3C68.2831 191.3 69.7251 193.106 69.6551 195.766ZM65.9451 192.714C65.2171 192.714 64.2791 193.162 64.1251 194.436H67.6951C67.6531 193.162 66.7571 192.714 65.9451 192.714ZM72.8456 191.468V192.462C73.2796 191.692 74.0916 191.3 75.0296 191.3C76.8356 191.3 77.6336 192.392 77.6336 194.254V199H75.7016V194.674C75.7016 193.708 75.4916 192.854 74.3996 192.854C73.1256 192.854 72.8456 193.89 72.8456 195.08V199H70.9136V191.468H72.8456ZM86.2534 195.766H80.6954C80.8074 197.054 81.6754 197.684 82.5994 197.684C83.2014 197.684 83.7894 197.474 84.1814 196.816H86.1694C85.7634 197.936 84.6714 199.182 82.6134 199.182C80.1914 199.182 78.7774 197.376 78.7774 195.206C78.7774 192.966 80.3314 191.3 82.5574 191.3C84.8814 191.3 86.3234 193.106 86.2534 195.766ZM82.5434 192.714C81.8154 192.714 80.8774 193.162 80.7234 194.436H84.2934C84.2514 193.162 83.3554 192.714 82.5434 192.714ZM91.8239 191.51V193.33C91.5439 193.288 91.3059 193.288 91.0259 193.288C90.0739 193.288 89.4439 193.638 89.4439 195.052V199H87.5119V191.468H89.4159V192.784C89.8499 191.846 90.5219 191.482 91.4039 191.482C91.5299 191.482 91.6979 191.496 91.8239 191.51ZM97.2611 196.116V195.556C95.0911 195.78 94.2371 196.032 94.2371 196.872C94.2371 197.418 94.6571 197.866 95.5391 197.866C96.7571 197.866 97.2611 197.222 97.2611 196.116ZM97.4291 198.062C96.8831 198.846 96.0991 199.182 94.9651 199.182C93.5231 199.182 92.2491 198.342 92.2491 196.97C92.2491 195.192 94.2371 194.66 97.2051 194.324V194.198C97.2051 193.036 96.5751 192.63 95.7911 192.63C95.0491 192.63 94.4331 193.008 94.3911 193.848H92.5851C92.7391 192.364 93.9431 191.272 95.8891 191.272C97.6671 191.272 99.1371 192.056 99.1371 194.59C99.1371 194.814 99.1091 195.836 99.1091 196.508C99.1091 197.698 99.1791 198.37 99.3331 199H97.5551C97.4991 198.762 97.4711 198.44 97.4291 198.062ZM101.027 191.468V189.424H102.959V191.468H104.527V192.798H102.959V196.69C102.959 197.46 103.225 197.614 103.911 197.614H104.499V199H103.085C101.349 199 101.027 198.468 101.027 196.97V192.798H99.9626V191.468H101.027ZM112.765 195.766H107.206C107.318 197.054 108.186 197.684 109.11 197.684C109.712 197.684 110.3 197.474 110.692 196.816H112.68C112.274 197.936 111.182 199.182 109.124 199.182C106.702 199.182 105.288 197.376 105.288 195.206C105.288 192.966 106.842 191.3 109.068 191.3C111.392 191.3 112.835 193.106 112.765 195.766ZM109.054 192.714C108.326 192.714 107.388 193.162 107.234 194.436H110.805C110.762 193.162 109.866 192.714 109.054 192.714ZM123.817 193.918C123.817 190.88 122.011 190.418 120.163 190.418H119.239V197.432H120.163C122.011 197.432 123.817 196.984 123.817 193.918ZM117.237 188.85H120.247C123.467 188.85 125.889 189.886 125.889 193.918C125.889 197.95 123.467 199 120.247 199H117.237V188.85ZM131.742 199V198.006C131.308 198.776 130.482 199.182 129.544 199.182C127.738 199.182 127.01 198.076 127.01 196.228V191.468H128.942V195.808C128.942 196.816 129.096 197.628 130.174 197.628C131.462 197.628 131.742 196.578 131.742 195.388V191.468H133.674V199H131.742ZM138.71 191.3C140.292 191.3 141.86 192.182 142.126 194.044H140.278C140.124 193.316 139.452 192.798 138.71 192.798C137.702 192.798 136.904 193.652 136.904 195.22C136.904 196.802 137.66 197.684 138.724 197.684C139.396 197.684 140.082 197.334 140.348 196.438H142.196C141.748 198.496 140.194 199.182 138.626 199.182C136.372 199.182 134.93 197.53 134.93 195.248C134.93 192.952 136.456 191.3 138.71 191.3ZM143.364 188.85H145.296V194.492L148.04 191.468H150.21L147.508 194.352L150.364 199H148.194L146.22 195.738L145.296 196.732V199H143.364V188.85ZM153.188 188.85V197.376H158.13V199H151.186V188.85H153.188ZM163.778 196.116V195.556C161.608 195.78 160.754 196.032 160.754 196.872C160.754 197.418 161.174 197.866 162.056 197.866C163.274 197.866 163.778 197.222 163.778 196.116ZM163.946 198.062C163.4 198.846 162.616 199.182 161.482 199.182C160.04 199.182 158.766 198.342 158.766 196.97C158.766 195.192 160.754 194.66 163.722 194.324V194.198C163.722 193.036 163.092 192.63 162.308 192.63C161.566 192.63 160.95 193.008 160.908 193.848H159.102C159.256 192.364 160.46 191.272 162.406 191.272C164.184 191.272 165.654 192.056 165.654 194.59C165.654 194.814 165.626 195.836 165.626 196.508C165.626 197.698 165.696 198.37 165.85 199H164.072C164.016 198.762 163.988 198.44 163.946 198.062ZM167.277 188.85H169.209V194.492L171.953 191.468H174.123L171.421 194.352L174.277 199H172.107L170.133 195.738L169.209 196.732V199H167.277V188.85ZM181.906 195.766H176.348C176.46 197.054 177.328 197.684 178.252 197.684C178.854 197.684 179.442 197.474 179.834 196.816H181.822C181.416 197.936 180.324 199.182 178.266 199.182C175.844 199.182 174.43 197.376 174.43 195.206C174.43 192.966 175.984 191.3 178.21 191.3C180.534 191.3 181.976 193.106 181.906 195.766ZM178.196 192.714C177.468 192.714 176.53 193.162 176.376 194.436H179.946C179.904 193.162 179.008 192.714 178.196 192.714ZM189.613 197.264C190.691 197.264 191.349 196.354 191.349 195.01C191.349 193.68 190.691 192.77 189.613 192.77C188.619 192.77 187.877 193.764 187.877 195.024C187.877 196.27 188.619 197.264 189.613 197.264ZM191.279 191.468H193.197V198.244C193.197 200.708 191.811 201.632 189.501 201.632C187.891 201.632 186.477 201.044 186.211 199.294H188.045C188.213 199.91 188.731 200.218 189.599 200.218C190.607 200.218 191.279 199.742 191.279 198.608V197.6C190.789 198.426 189.907 198.734 189.123 198.734C187.275 198.734 185.847 197.208 185.847 195.01C185.847 192.868 187.233 191.3 189.123 191.3C190.075 191.3 190.943 191.79 191.279 192.448V191.468ZM201.95 195.766H196.392C196.504 197.054 197.372 197.684 198.296 197.684C198.898 197.684 199.486 197.474 199.878 196.816H201.866C201.46 197.936 200.368 199.182 198.31 199.182C195.888 199.182 194.474 197.376 194.474 195.206C194.474 192.966 196.028 191.3 198.254 191.3C200.578 191.3 202.02 193.106 201.95 195.766ZM198.24 192.714C197.512 192.714 196.574 193.162 196.42 194.436H199.99C199.948 193.162 199.052 192.714 198.24 192.714ZM205.141 191.468V192.462C205.575 191.692 206.387 191.3 207.325 191.3C209.131 191.3 209.929 192.392 209.929 194.254V199H207.997V194.674C207.997 193.708 207.787 192.854 206.695 192.854C205.421 192.854 205.141 193.89 205.141 195.08V199H203.209V191.468H205.141ZM218.548 195.766H212.99C213.102 197.054 213.97 197.684 214.894 197.684C215.496 197.684 216.084 197.474 216.476 196.816H218.464C218.058 197.936 216.966 199.182 214.908 199.182C212.486 199.182 211.072 197.376 211.072 195.206C211.072 192.966 212.626 191.3 214.852 191.3C217.176 191.3 218.618 193.106 218.548 195.766ZM214.838 192.714C214.11 192.714 213.172 193.162 213.018 194.436H216.588C216.546 193.162 215.65 192.714 214.838 192.714ZM224.119 191.51V193.33C223.839 193.288 223.601 193.288 223.321 193.288C222.369 193.288 221.739 193.638 221.739 195.052V199H219.807V191.468H221.711V192.784C222.145 191.846 222.817 191.482 223.699 191.482C223.825 191.482 223.993 191.496 224.119 191.51ZM229.556 196.116V195.556C227.386 195.78 226.532 196.032 226.532 196.872C226.532 197.418 226.952 197.866 227.834 197.866C229.052 197.866 229.556 197.222 229.556 196.116ZM229.724 198.062C229.178 198.846 228.394 199.182 227.26 199.182C225.818 199.182 224.544 198.342 224.544 196.97C224.544 195.192 226.532 194.66 229.5 194.324V194.198C229.5 193.036 228.87 192.63 228.086 192.63C227.344 192.63 226.728 193.008 226.686 193.848H224.88C225.034 192.364 226.238 191.272 228.184 191.272C229.962 191.272 231.432 192.056 231.432 194.59C231.432 194.814 231.404 195.836 231.404 196.508C231.404 197.698 231.474 198.37 231.628 199H229.85C229.794 198.762 229.766 198.44 229.724 198.062ZM233.322 191.468V189.424H235.254V191.468H236.822V192.798H235.254V196.69C235.254 197.46 235.52 197.614 236.206 197.614H236.794V199H235.38C233.644 199 233.322 198.468 233.322 196.97V192.798H232.258V191.468H233.322ZM238.073 191.468H240.005V199H238.073V191.468ZM238.073 188.85H240.005V190.642H238.073V188.85ZM245.028 192.812C243.964 192.812 243.208 193.666 243.208 195.248C243.208 196.83 243.964 197.67 245.028 197.67C246.092 197.67 246.848 196.83 246.848 195.248C246.848 193.666 246.092 192.812 245.028 192.812ZM245.028 199.182C243.124 199.182 241.248 197.88 241.248 195.248C241.248 192.602 243.124 191.3 245.028 191.3C246.932 191.3 248.808 192.602 248.808 195.248C248.808 197.88 246.932 199.182 245.028 199.182ZM251.983 191.468V192.462C252.417 191.692 253.229 191.3 254.167 191.3C255.973 191.3 256.771 192.392 256.771 194.254V199H254.839V194.674C254.839 193.708 254.629 192.854 253.537 192.854C252.263 192.854 251.983 193.89 251.983 195.08V199H250.051V191.468H251.983ZM57.916 210.736H56.11C55.956 210.106 55.396 209.658 54.5 209.658C53.786 209.658 53.282 209.924 53.282 210.386C53.282 210.792 53.576 211.1 54.29 211.254L55.298 211.478C56.796 211.814 58.07 212.192 58.07 213.746C58.07 215.258 56.516 216.182 54.808 216.182C52.96 216.182 51.56 215.23 51.378 213.508H53.24C53.352 214.236 53.856 214.782 54.864 214.782C55.704 214.782 56.222 214.474 56.222 213.928C56.222 213.368 55.648 213.158 54.99 213.004L53.87 212.766C52.456 212.472 51.518 211.884 51.518 210.512C51.518 209.168 52.974 208.272 54.598 208.272C56.166 208.272 57.65 209 57.916 210.736ZM62.6505 208.3C64.2325 208.3 65.8005 209.182 66.0665 211.044H64.2185C64.0645 210.316 63.3925 209.798 62.6505 209.798C61.6425 209.798 60.8445 210.652 60.8445 212.22C60.8445 213.802 61.6005 214.684 62.6645 214.684C63.3365 214.684 64.0225 214.334 64.2885 213.438H66.1365C65.6885 215.496 64.1345 216.182 62.5665 216.182C60.3125 216.182 58.8705 214.53 58.8705 212.248C58.8705 209.952 60.3965 208.3 62.6505 208.3ZM71.6162 208.51V210.33C71.3362 210.288 71.0982 210.288 70.8182 210.288C69.8662 210.288 69.2362 210.638 69.2362 212.052V216H67.3042V208.468H69.2082V209.784C69.6422 208.846 70.3142 208.482 71.1962 208.482C71.3222 208.482 71.4902 208.496 71.6162 208.51ZM72.6229 208.468H74.5549V216H72.6229V208.468ZM72.6229 205.85H74.5549V207.642H72.6229V205.85ZM79.927 214.698C80.935 214.698 81.649 213.718 81.649 212.248C81.649 210.778 80.935 209.784 79.927 209.784C78.863 209.784 78.163 210.722 78.163 212.234C78.163 213.788 78.863 214.698 79.927 214.698ZM78.233 218.45H76.301V208.468H78.233V209.434C78.639 208.72 79.451 208.3 80.403 208.3C82.223 208.3 83.679 209.868 83.679 212.234C83.679 214.642 82.181 216.182 80.389 216.182C79.605 216.182 78.723 215.888 78.233 215.048V218.45ZM85.2079 208.468V206.424H87.1399V208.468H88.7079V209.798H87.1399V213.69C87.1399 214.46 87.4059 214.614 88.0919 214.614H88.6799V216H87.2659C85.5299 216 85.2079 215.468 85.2079 213.97V209.798H84.1439V208.468H85.2079ZM96.0078 210.736H94.2018C94.0478 210.106 93.4878 209.658 92.5918 209.658C91.8778 209.658 91.3738 209.924 91.3738 210.386C91.3738 210.792 91.6678 211.1 92.3818 211.254L93.3898 211.478C94.8878 211.814 96.1618 212.192 96.1618 213.746C96.1618 215.258 94.6078 216.182 92.8998 216.182C91.0518 216.182 89.6518 215.23 89.4698 213.508H91.3318C91.4438 214.236 91.9478 214.782 92.9558 214.782C93.7958 214.782 94.3138 214.474 94.3138 213.928C94.3138 213.368 93.7398 213.158 93.0818 213.004L91.9618 212.766C90.5478 212.472 89.6098 211.884 89.6098 210.512C89.6098 209.168 91.0658 208.272 92.6898 208.272C94.2578 208.272 95.7418 209 96.0078 210.736Z" fill="#0D0D0D"/>
<path d="M38.1051 363.726C39.1691 363.726 40.0091 363.096 40.0091 362.144C40.0091 360.954 38.9031 360.478 37.4611 360.478H37.0551V358.966H37.3911C38.8471 358.966 39.7571 358.434 39.7571 357.482C39.7571 356.6 38.9871 356.124 38.1471 356.124C36.9711 356.124 36.2431 356.852 36.1451 357.916H34.3111C34.5351 355.886 35.9211 354.668 38.2591 354.668C39.9531 354.668 41.7031 355.48 41.7031 357.398C41.7031 358.392 41.1151 359.19 40.3311 359.624C41.3811 360.072 41.9691 361.066 41.9691 362.088C41.9691 364.146 40.1911 365.182 38.0491 365.182C35.7251 365.182 34.3391 363.67 34.2271 361.808H36.0471C36.2011 362.83 36.8311 363.726 38.1051 363.726ZM45.6194 365H43.5474V362.9H45.6194V365ZM51.91 365V354.85H59.302V356.474H53.912V358.994H59.008V360.618H53.912V363.376H59.302V365H51.91ZM67.1306 357.468L64.4846 361.066L67.2566 365H65.0866L63.3786 362.578L61.6146 365H59.6546L62.4266 361.206L59.8086 357.468H61.9646L63.5326 359.694L65.1566 357.468H67.1306ZM74.8781 361.766H69.3201C69.4321 363.054 70.3001 363.684 71.2241 363.684C71.8261 363.684 72.4141 363.474 72.8061 362.816H74.7941C74.3881 363.936 73.2961 365.182 71.2381 365.182C68.8161 365.182 67.4021 363.376 67.4021 361.206C67.4021 358.966 68.9561 357.3 71.1821 357.3C73.5061 357.3 74.9481 359.106 74.8781 361.766ZM71.1681 358.714C70.4401 358.714 69.5021 359.162 69.3481 360.436H72.9181C72.8761 359.162 71.9801 358.714 71.1681 358.714ZM79.6316 357.3C81.2136 357.3 82.7816 358.182 83.0476 360.044H81.1996C81.0456 359.316 80.3736 358.798 79.6316 358.798C78.6236 358.798 77.8256 359.652 77.8256 361.22C77.8256 362.802 78.5816 363.684 79.6456 363.684C80.3176 363.684 81.0036 363.334 81.2696 362.438H83.1176C82.6696 364.496 81.1156 365.182 79.5476 365.182C77.2936 365.182 75.8516 363.53 75.8516 361.248C75.8516 358.952 77.3776 357.3 79.6316 357.3ZM88.9193 365V364.006C88.4853 364.776 87.6593 365.182 86.7213 365.182C84.9153 365.182 84.1873 364.076 84.1873 362.228V357.468H86.1193V361.808C86.1193 362.816 86.2733 363.628 87.3513 363.628C88.6393 363.628 88.9193 362.578 88.9193 361.388V357.468H90.8513V365H88.9193ZM92.8642 357.468V355.424H94.7962V357.468H96.3642V358.798H94.7962V362.69C94.7962 363.46 95.0622 363.614 95.7482 363.614H96.3362V365H94.9222C93.1862 365 92.8642 364.468 92.8642 362.97V358.798H91.8002V357.468H92.8642ZM104.602 361.766H99.0441C99.1561 363.054 100.024 363.684 100.948 363.684C101.55 363.684 102.138 363.474 102.53 362.816H104.518C104.112 363.936 103.02 365.182 100.962 365.182C98.5401 365.182 97.1261 363.376 97.1261 361.206C97.1261 358.966 98.6801 357.3 100.906 357.3C103.23 357.3 104.672 359.106 104.602 361.766ZM100.892 358.714C100.164 358.714 99.2261 359.162 99.0721 360.436H102.642C102.6 359.162 101.704 358.714 100.892 358.714ZM109.299 357.468V355.424H111.231V357.468H112.799V358.798H111.231V362.69C111.231 363.46 111.497 363.614 112.183 363.614H112.771V365H111.357C109.621 365 109.299 364.468 109.299 362.97V358.798H108.235V357.468H109.299ZM115.983 354.85V358.462C116.417 357.692 117.229 357.3 118.167 357.3C119.973 357.3 120.771 358.392 120.771 360.254V365H118.839V360.674C118.839 359.708 118.629 358.854 117.537 358.854C116.263 358.854 115.983 359.89 115.983 361.08V365H114.051V354.85H115.983ZM129.39 361.766H123.832C123.944 363.054 124.812 363.684 125.736 363.684C126.338 363.684 126.926 363.474 127.318 362.816H129.306C128.9 363.936 127.808 365.182 125.75 365.182C123.328 365.182 121.914 363.376 121.914 361.206C121.914 358.966 123.468 357.3 125.694 357.3C128.018 357.3 129.46 359.106 129.39 361.766ZM125.68 358.714C124.952 358.714 124.014 359.162 123.86 360.436H127.43C127.388 359.162 126.492 358.714 125.68 358.714ZM139.869 359.736H138.063C137.909 359.106 137.349 358.658 136.453 358.658C135.739 358.658 135.235 358.924 135.235 359.386C135.235 359.792 135.529 360.1 136.243 360.254L137.251 360.478C138.749 360.814 140.023 361.192 140.023 362.746C140.023 364.258 138.469 365.182 136.761 365.182C134.913 365.182 133.513 364.23 133.331 362.508H135.193C135.305 363.236 135.809 363.782 136.817 363.782C137.657 363.782 138.175 363.474 138.175 362.928C138.175 362.368 137.601 362.158 136.943 362.004L135.823 361.766C134.409 361.472 133.471 360.884 133.471 359.512C133.471 358.168 134.927 357.272 136.551 357.272C138.119 357.272 139.603 358 139.869 359.736ZM144.604 357.3C146.186 357.3 147.754 358.182 148.02 360.044H146.172C146.018 359.316 145.346 358.798 144.604 358.798C143.596 358.798 142.798 359.652 142.798 361.22C142.798 362.802 143.554 363.684 144.618 363.684C145.29 363.684 145.976 363.334 146.242 362.438H148.09C147.642 364.496 146.088 365.182 144.52 365.182C142.266 365.182 140.824 363.53 140.824 361.248C140.824 358.952 142.35 357.3 144.604 357.3ZM153.569 357.51V359.33C153.289 359.288 153.051 359.288 152.771 359.288C151.819 359.288 151.189 359.638 151.189 361.052V365H149.257V357.468H151.161V358.784C151.595 357.846 152.267 357.482 153.149 357.482C153.275 357.482 153.443 357.496 153.569 357.51ZM154.576 357.468H156.508V365H154.576V357.468ZM154.576 354.85H156.508V356.642H154.576V354.85ZM161.88 363.698C162.888 363.698 163.602 362.718 163.602 361.248C163.602 359.778 162.888 358.784 161.88 358.784C160.816 358.784 160.116 359.722 160.116 361.234C160.116 362.788 160.816 363.698 161.88 363.698ZM160.186 367.45H158.254V357.468H160.186V358.434C160.592 357.72 161.404 357.3 162.356 357.3C164.176 357.3 165.632 358.868 165.632 361.234C165.632 363.642 164.134 365.182 162.342 365.182C161.558 365.182 160.676 364.888 160.186 364.048V367.45ZM167.161 357.468V355.424H169.093V357.468H170.661V358.798H169.093V362.69C169.093 363.46 169.359 363.614 170.045 363.614H170.633V365H169.219C167.483 365 167.161 364.468 167.161 362.97V358.798H166.097V357.468H167.161ZM177.961 359.736H176.155C176.001 359.106 175.441 358.658 174.545 358.658C173.831 358.658 173.327 358.924 173.327 359.386C173.327 359.792 173.621 360.1 174.335 360.254L175.343 360.478C176.841 360.814 178.115 361.192 178.115 362.746C178.115 364.258 176.561 365.182 174.853 365.182C173.005 365.182 171.605 364.23 171.423 362.508H173.285C173.397 363.236 173.901 363.782 174.909 363.782C175.749 363.782 176.267 363.474 176.267 362.928C176.267 362.368 175.693 362.158 175.035 362.004L173.915 361.766C172.501 361.472 171.563 360.884 171.563 359.512C171.563 358.168 173.019 357.272 174.643 357.272C176.211 357.272 177.695 358 177.961 359.736ZM182.775 357.468V355.424H184.707V357.468H186.275V358.798H184.707V362.69C184.707 363.46 184.973 363.614 185.659 363.614H186.247V365H184.833C183.097 365 182.775 364.468 182.775 362.97V358.798H181.711V357.468H182.775ZM190.803 358.812C189.739 358.812 188.983 359.666 188.983 361.248C188.983 362.83 189.739 363.67 190.803 363.67C191.867 363.67 192.623 362.83 192.623 361.248C192.623 359.666 191.867 358.812 190.803 358.812ZM190.803 365.182C188.899 365.182 187.023 363.88 187.023 361.248C187.023 358.602 188.899 357.3 190.803 357.3C192.707 357.3 194.583 358.602 194.583 361.248C194.583 363.88 192.707 365.182 190.803 365.182ZM202.289 357.3C203.871 357.3 205.439 358.182 205.705 360.044H203.857C203.703 359.316 203.031 358.798 202.289 358.798C201.281 358.798 200.483 359.652 200.483 361.22C200.483 362.802 201.239 363.684 202.303 363.684C202.975 363.684 203.661 363.334 203.927 362.438H205.775C205.327 364.496 203.773 365.182 202.205 365.182C199.951 365.182 198.509 363.53 198.509 361.248C198.509 358.952 200.035 357.3 202.289 357.3ZM211.254 357.51V359.33C210.974 359.288 210.736 359.288 210.456 359.288C209.504 359.288 208.874 359.638 208.874 361.052V365H206.942V357.468H208.846V358.784C209.28 357.846 209.952 357.482 210.834 357.482C210.96 357.482 211.128 357.496 211.254 357.51ZM219.247 361.766H213.689C213.801 363.054 214.669 363.684 215.593 363.684C216.195 363.684 216.783 363.474 217.175 362.816H219.163C218.757 363.936 217.665 365.182 215.607 365.182C213.185 365.182 211.771 363.376 211.771 361.206C211.771 358.966 213.325 357.3 215.551 357.3C217.875 357.3 219.317 359.106 219.247 361.766ZM215.537 358.714C214.809 358.714 213.871 359.162 213.717 360.436H217.287C217.245 359.162 216.349 358.714 215.537 358.714ZM225.209 362.116V361.556C223.039 361.78 222.185 362.032 222.185 362.872C222.185 363.418 222.605 363.866 223.487 363.866C224.705 363.866 225.209 363.222 225.209 362.116ZM225.377 364.062C224.831 364.846 224.047 365.182 222.913 365.182C221.471 365.182 220.197 364.342 220.197 362.97C220.197 361.192 222.185 360.66 225.153 360.324V360.198C225.153 359.036 224.523 358.63 223.739 358.63C222.997 358.63 222.381 359.008 222.339 359.848H220.533C220.687 358.364 221.891 357.272 223.837 357.272C225.615 357.272 227.085 358.056 227.085 360.59C227.085 360.814 227.057 361.836 227.057 362.508C227.057 363.698 227.127 364.37 227.281 365H225.503C225.447 364.762 225.419 364.44 225.377 364.062ZM228.975 357.468V355.424H230.907V357.468H232.475V358.798H230.907V362.69C230.907 363.46 231.173 363.614 231.859 363.614H232.447V365H231.033C229.297 365 228.975 364.468 228.975 362.97V358.798H227.911V357.468H228.975ZM240.713 361.766H235.155C235.267 363.054 236.135 363.684 237.059 363.684C237.661 363.684 238.249 363.474 238.641 362.816H240.629C240.223 363.936 239.131 365.182 237.073 365.182C234.651 365.182 233.237 363.376 233.237 361.206C233.237 358.966 234.791 357.3 237.017 357.3C239.341 357.3 240.783 359.106 240.713 361.766ZM237.003 358.714C236.275 358.714 235.337 359.162 235.183 360.436H238.753C238.711 359.162 237.815 358.714 237.003 358.714ZM56.572 379.116V378.556C54.402 378.78 53.548 379.032 53.548 379.872C53.548 380.418 53.968 380.866 54.85 380.866C56.068 380.866 56.572 380.222 56.572 379.116ZM56.74 381.062C56.194 381.846 55.41 382.182 54.276 382.182C52.834 382.182 51.56 381.342 51.56 379.97C51.56 378.192 53.548 377.66 56.516 377.324V377.198C56.516 376.036 55.886 375.63 55.102 375.63C54.36 375.63 53.744 376.008 53.702 376.848H51.896C52.05 375.364 53.254 374.272 55.2 374.272C56.978 374.272 58.448 375.056 58.448 377.59C58.448 377.814 58.42 378.836 58.42 379.508C58.42 380.698 58.49 381.37 58.644 382H56.866C56.81 381.762 56.782 381.44 56.74 381.062ZM65.1757 371.85V382H63.2437V371.85H65.1757ZM70.1977 375.812C69.1337 375.812 68.3777 376.666 68.3777 378.248C68.3777 379.83 69.1337 380.67 70.1977 380.67C71.2617 380.67 72.0177 379.83 72.0177 378.248C72.0177 376.666 71.2617 375.812 70.1977 375.812ZM70.1977 382.182C68.2937 382.182 66.4177 380.88 66.4177 378.248C66.4177 375.602 68.2937 374.3 70.1977 374.3C72.1017 374.3 73.9777 375.602 73.9777 378.248C73.9777 380.88 72.1017 382.182 70.1977 382.182ZM78.6203 374.3C80.2023 374.3 81.7702 375.182 82.0362 377.044H80.1882C80.0343 376.316 79.3623 375.798 78.6203 375.798C77.6122 375.798 76.8142 376.652 76.8142 378.22C76.8142 379.802 77.5703 380.684 78.6342 380.684C79.3062 380.684 79.9922 380.334 80.2583 379.438H82.1062C81.6582 381.496 80.1043 382.182 78.5362 382.182C76.2822 382.182 74.8402 380.53 74.8402 378.248C74.8402 375.952 76.3662 374.3 78.6203 374.3ZM87.9506 379.116V378.556C85.7806 378.78 84.9266 379.032 84.9266 379.872C84.9266 380.418 85.3466 380.866 86.2286 380.866C87.4466 380.866 87.9506 380.222 87.9506 379.116ZM88.1186 381.062C87.5726 381.846 86.7886 382.182 85.6546 382.182C84.2126 382.182 82.9386 381.342 82.9386 379.97C82.9386 378.192 84.9266 377.66 87.8946 377.324V377.198C87.8946 376.036 87.2646 375.63 86.4806 375.63C85.7386 375.63 85.1226 376.008 85.0806 376.848H83.2746C83.4286 375.364 84.6326 374.272 86.5786 374.272C88.3566 374.272 89.8266 375.056 89.8266 377.59C89.8266 377.814 89.7986 378.836 89.7986 379.508C89.7986 380.698 89.8686 381.37 90.0226 382H88.2446C88.1886 381.762 88.1606 381.44 88.1186 381.062ZM93.382 371.85V382H91.45V371.85H93.382ZM104.922 376.918C104.922 373.88 103.116 373.418 101.268 373.418H100.344V380.432H101.268C103.116 380.432 104.922 379.984 104.922 376.918ZM98.3423 371.85H101.352C104.572 371.85 106.994 372.886 106.994 376.918C106.994 380.95 104.572 382 101.352 382H98.3423V371.85ZM112.847 382V381.006C112.413 381.776 111.587 382.182 110.649 382.182C108.843 382.182 108.115 381.076 108.115 379.228V374.468H110.047V378.808C110.047 379.816 110.201 380.628 111.279 380.628C112.567 380.628 112.847 379.578 112.847 378.388V374.468H114.779V382H112.847ZM119.816 374.3C121.398 374.3 122.966 375.182 123.232 377.044H121.384C121.23 376.316 120.558 375.798 119.816 375.798C118.808 375.798 118.01 376.652 118.01 378.22C118.01 379.802 118.766 380.684 119.83 380.684C120.502 380.684 121.188 380.334 121.454 379.438H123.302C122.854 381.496 121.3 382.182 119.732 382.182C117.478 382.182 116.036 380.53 116.036 378.248C116.036 375.952 117.562 374.3 119.816 374.3ZM124.469 371.85H126.401V377.492L129.145 374.468H131.315L128.613 377.352L131.469 382H129.299L127.325 378.738L126.401 379.732V382H124.469V371.85ZM134.293 371.85V380.376H139.235V382H132.291V371.85H134.293ZM144.883 379.116V378.556C142.713 378.78 141.859 379.032 141.859 379.872C141.859 380.418 142.279 380.866 143.161 380.866C144.379 380.866 144.883 380.222 144.883 379.116ZM145.051 381.062C144.505 381.846 143.721 382.182 142.587 382.182C141.145 382.182 139.871 381.342 139.871 379.97C139.871 378.192 141.859 377.66 144.827 377.324V377.198C144.827 376.036 144.197 375.63 143.413 375.63C142.671 375.63 142.055 376.008 142.013 376.848H140.207C140.361 375.364 141.565 374.272 143.511 374.272C145.289 374.272 146.759 375.056 146.759 377.59C146.759 377.814 146.731 378.836 146.731 379.508C146.731 380.698 146.801 381.37 146.955 382H145.177C145.121 381.762 145.093 381.44 145.051 381.062ZM148.382 371.85H150.314V377.492L153.058 374.468H155.228L152.526 377.352L155.382 382H153.212L151.238 378.738L150.314 379.732V382H148.382V371.85ZM163.011 378.766H157.453C157.565 380.054 158.433 380.684 159.357 380.684C159.959 380.684 160.547 380.474 160.939 379.816H162.927C162.521 380.936 161.429 382.182 159.371 382.182C156.949 382.182 155.535 380.376 155.535 378.206C155.535 375.966 157.089 374.3 159.315 374.3C161.639 374.3 163.081 376.106 163.011 378.766ZM159.301 375.714C158.573 375.714 157.635 376.162 157.481 377.436H161.051C161.009 376.162 160.113 375.714 159.301 375.714Z" fill="#0D0D0D"/>
<rect x="353.5" y="172.5" width="83" height="64" rx="32" fill="white"/>
<rect x="353.5" y="172.5" width="83" height="64" rx="32" stroke="#D9D9D9"/>
<path d="M380.945 189.728H379.697C379.565 188.996 378.905 188.492 378.089 188.492C377.189 188.492 376.361 189.2 376.361 190.772C376.361 192.368 377.201 193.088 378.089 193.088C378.881 193.088 379.577 192.62 379.745 191.852H381.005C380.753 193.208 379.493 194.156 378.065 194.156C376.205 194.156 375.029 192.728 375.029 190.784C375.029 188.864 376.241 187.424 378.149 187.424C379.625 187.424 380.753 188.468 380.945 189.728ZM385.536 188.828C385.308 188.804 385.092 188.792 384.888 188.792C383.928 188.792 383.424 189.26 383.424 190.616V194H382.176V187.544H383.4V188.684C383.736 187.952 384.384 187.532 385.188 187.52C385.296 187.52 385.428 187.52 385.536 187.532V188.828ZM390.822 192.104H392.082C391.782 193.172 390.822 194.156 389.178 194.156C387.09 194.156 385.962 192.632 385.962 190.76C385.962 188.756 387.306 187.424 389.142 187.424C391.134 187.424 392.298 189.056 392.166 191.156H387.246C387.366 192.344 388.122 193.088 389.13 193.088C390.03 193.088 390.558 192.716 390.822 192.104ZM387.27 190.172H390.87C390.834 189.212 390.162 188.444 389.13 188.444C388.158 188.444 387.438 188.948 387.27 190.172ZM392.948 192.26C392.948 190.688 394.796 190.268 397.304 190.004V189.872C397.304 188.732 396.704 188.348 395.912 188.348C395.048 188.348 394.556 188.792 394.508 189.584H393.248C393.356 188.216 394.484 187.388 395.96 187.388C397.628 187.388 398.588 188.192 398.564 190.124C398.564 190.28 398.54 191.396 398.54 191.672C398.54 192.632 398.6 193.424 398.72 194H397.52C397.472 193.748 397.436 193.556 397.412 193.148C397.028 193.796 396.296 194.156 395.252 194.156C393.944 194.156 392.948 193.436 392.948 192.26ZM397.364 190.928C395.36 191.12 394.304 191.396 394.304 192.236C394.304 192.824 394.772 193.196 395.528 193.196C396.56 193.196 397.364 192.68 397.364 191.396V190.928ZM400.358 185.888H401.606V187.544H402.878V188.492H401.606V192.176C401.606 192.836 401.714 193.004 402.338 193.004H402.866V194H401.954C400.646 194 400.358 193.676 400.358 192.344V188.492H399.374V187.544H400.358V185.888ZM408.447 192.104H409.707C409.407 193.172 408.447 194.156 406.803 194.156C404.715 194.156 403.587 192.632 403.587 190.76C403.587 188.756 404.931 187.424 406.767 187.424C408.759 187.424 409.923 189.056 409.791 191.156H404.871C404.991 192.344 405.747 193.088 406.755 193.088C407.655 193.088 408.183 192.716 408.447 192.104ZM404.895 190.172H408.495C408.459 189.212 407.787 188.444 406.755 188.444C405.783 188.444 405.063 188.948 404.895 190.172ZM410.95 191.312V190.16H414.814V191.312H410.95ZM376.44 200.3V201.68H375.192V200.3H376.44ZM376.44 202.544V209H375.192V202.544H376.44ZM379.369 209H378.121V202.544H379.369V203.48C379.741 202.844 380.353 202.424 381.277 202.424C382.273 202.424 382.861 202.844 383.149 203.564C383.689 202.76 384.445 202.424 385.285 202.424C386.797 202.424 387.385 203.432 387.385 204.932V209H386.137V205.268C386.137 204.332 385.993 203.468 384.865 203.468C383.881 203.468 383.377 204.248 383.377 205.532V209H382.129V205.268C382.129 204.332 381.985 203.468 380.857 203.468C379.861 203.468 379.369 204.248 379.369 205.532V209ZM390.209 202.544V203.492C390.605 202.832 391.277 202.424 392.225 202.424C393.725 202.424 395.009 203.684 395.009 205.784C395.009 207.896 393.725 209.156 392.225 209.156C391.277 209.156 390.605 208.748 390.209 208.088V211.1H388.961V202.544H390.209ZM391.937 208.112C392.969 208.112 393.677 207.236 393.677 205.784C393.677 204.332 392.969 203.468 391.937 203.468C390.977 203.468 390.161 204.188 390.161 205.784C390.161 207.38 390.977 208.112 391.937 208.112ZM402.188 205.796C402.188 208.124 400.58 209.156 399.044 209.156C397.52 209.156 395.912 208.124 395.912 205.796C395.912 203.456 397.52 202.424 399.044 202.424C400.58 202.424 402.188 203.456 402.188 205.796ZM399.044 208.1C399.992 208.1 400.868 207.368 400.868 205.796C400.868 204.188 399.992 203.48 399.044 203.48C398.108 203.48 397.232 204.164 397.232 205.796C397.232 207.392 398.108 208.1 399.044 208.1ZM406.794 203.828C406.566 203.804 406.35 203.792 406.146 203.792C405.186 203.792 404.682 204.26 404.682 205.616V209H403.434V202.544H404.658V203.684C404.994 202.952 405.642 202.532 406.446 202.52C406.554 202.52 406.686 202.52 406.794 202.532V203.828ZM408.033 200.888H409.281V202.544H410.553V203.492H409.281V207.176C409.281 207.836 409.389 208.004 410.013 208.004H410.541V209H409.629C408.321 209 408.033 208.676 408.033 207.344V203.492H407.049V202.544H408.033V200.888ZM411.231 206.312V205.16H415.095V206.312H411.231ZM372.588 219.344C372.408 218.684 371.856 218.42 371.124 218.42C370.512 218.42 369.852 218.672 369.852 219.2C369.852 219.68 370.164 219.884 370.752 220.004L371.676 220.184C372.9 220.424 373.968 220.844 373.968 222.104C373.968 223.412 372.744 224.156 371.256 224.156C369.624 224.156 368.628 223.208 368.472 221.996H369.744C369.912 222.728 370.392 223.16 371.292 223.16C372.096 223.16 372.72 222.824 372.72 222.248C372.72 221.648 372.156 221.408 371.484 221.276L370.512 221.084C369.54 220.892 368.628 220.46 368.628 219.248C368.628 218.108 369.828 217.412 371.244 217.412C372.54 217.412 373.584 218.096 373.824 219.344H372.588ZM380.693 219.728H379.445C379.313 218.996 378.653 218.492 377.837 218.492C376.937 218.492 376.109 219.2 376.109 220.772C376.109 222.368 376.949 223.088 377.837 223.088C378.629 223.088 379.325 222.62 379.493 221.852H380.753C380.501 223.208 379.241 224.156 377.813 224.156C375.953 224.156 374.777 222.728 374.777 220.784C374.777 218.864 375.989 217.424 377.897 217.424C379.373 217.424 380.501 218.468 380.693 219.728ZM385.284 218.828C385.056 218.804 384.84 218.792 384.636 218.792C383.676 218.792 383.172 219.26 383.172 220.616V224H381.924V217.544H383.148V218.684C383.484 217.952 384.132 217.532 384.936 217.52C385.044 217.52 385.176 217.52 385.284 217.532V218.828ZM387.52 215.3V216.68H386.272V215.3H387.52ZM387.52 217.544V224H386.272V217.544H387.52ZM390.449 217.544V218.492C390.845 217.832 391.517 217.424 392.465 217.424C393.965 217.424 395.249 218.684 395.249 220.784C395.249 222.896 393.965 224.156 392.465 224.156C391.517 224.156 390.845 223.748 390.449 223.088V226.1H389.201V217.544H390.449ZM392.177 223.112C393.209 223.112 393.917 222.236 393.917 220.784C393.917 219.332 393.209 218.468 392.177 218.468C391.217 218.468 390.401 219.188 390.401 220.784C390.401 222.38 391.217 223.112 392.177 223.112ZM396.742 215.888H397.99V217.544H399.262V218.492H397.99V222.176C397.99 222.836 398.098 223.004 398.722 223.004H399.25V224H398.338C397.03 224 396.742 223.676 396.742 222.344V218.492H395.758V217.544H396.742V215.888ZM404.147 219.344C403.967 218.684 403.415 218.42 402.683 218.42C402.071 218.42 401.411 218.672 401.411 219.2C401.411 219.68 401.723 219.884 402.311 220.004L403.235 220.184C404.459 220.424 405.527 220.844 405.527 222.104C405.527 223.412 404.303 224.156 402.815 224.156C401.183 224.156 400.187 223.208 400.031 221.996H401.303C401.471 222.728 401.951 223.16 402.851 223.16C403.655 223.16 404.279 222.824 404.279 222.248C404.279 221.648 403.715 221.408 403.043 221.276L402.071 221.084C401.099 220.892 400.187 220.46 400.187 219.248C400.187 218.108 401.387 217.412 402.803 217.412C404.099 217.412 405.143 218.096 405.383 219.344H404.147ZM406.53 224V222.5H408.03V224H406.53ZM413.135 219.344C412.955 218.684 412.403 218.42 411.671 218.42C411.059 218.42 410.399 218.672 410.399 219.2C410.399 219.68 410.711 219.884 411.299 220.004L412.223 220.184C413.447 220.424 414.515 220.844 414.515 222.104C414.515 223.412 413.291 224.156 411.803 224.156C410.171 224.156 409.175 223.208 409.019 221.996H410.291C410.459 222.728 410.939 223.16 411.839 223.16C412.643 223.16 413.267 222.824 413.267 222.248C413.267 221.648 412.703 221.408 412.031 221.276L411.059 221.084C410.087 220.892 409.175 220.46 409.175 219.248C409.175 218.108 410.375 217.412 411.791 217.412C413.087 217.412 414.131 218.096 414.371 219.344H413.135ZM417.016 218.48C417.388 217.844 418.036 217.424 419.044 217.424C420.604 217.424 421.204 218.432 421.204 219.932V224H419.956V220.268C419.956 219.332 419.8 218.468 418.624 218.468C417.544 218.468 417.016 219.248 417.016 220.532V224H415.768V215.3H417.016V218.48Z" fill="#666666"/>
<rect x="359.5" y="338.5" width="71" height="58" rx="29" fill="white"/>
<rect x="359.5" y="338.5" width="71" height="58" rx="29" stroke="#D9D9D9"/>
<path d="M379.43 363.3H380.678V372H379.43V371.088C379.034 371.748 378.362 372.156 377.414 372.156C375.914 372.156 374.63 370.896 374.63 368.784C374.63 366.684 375.914 365.424 377.414 365.424C378.362 365.424 379.034 365.832 379.43 366.492V363.3ZM377.702 366.468C376.67 366.468 375.962 367.332 375.962 368.784C375.962 370.236 376.67 371.112 377.702 371.112C378.662 371.112 379.478 370.38 379.478 368.784C379.478 367.188 378.662 366.468 377.702 366.468ZM386.347 371.088C385.975 371.736 385.351 372.156 384.379 372.156C382.855 372.156 382.267 371.208 382.267 369.648V365.544H383.515V369.312C383.515 370.248 383.671 371.1 384.799 371.1C385.843 371.1 386.359 370.32 386.359 369.048V365.544H387.607V372H386.347V371.088ZM394.75 367.728H393.502C393.37 366.996 392.71 366.492 391.894 366.492C390.994 366.492 390.166 367.2 390.166 368.772C390.166 370.368 391.006 371.088 391.894 371.088C392.686 371.088 393.382 370.62 393.55 369.852H394.81C394.558 371.208 393.298 372.156 391.87 372.156C390.01 372.156 388.833 370.728 388.833 368.784C388.833 366.864 390.046 365.424 391.954 365.424C393.43 365.424 394.558 366.468 394.75 367.728ZM397.229 363.3V368.304L399.797 365.544H401.321L398.813 368.208L401.501 372H400.013L397.961 369.108L397.229 369.888V372H395.981V363.3H397.229ZM406.384 363.3H407.632V372H406.384V371.088C405.988 371.748 405.316 372.156 404.368 372.156C402.868 372.156 401.583 370.896 401.583 368.784C401.583 366.684 402.868 365.424 404.368 365.424C405.316 365.424 405.988 365.832 406.384 366.492V363.3ZM404.656 366.468C403.624 366.468 402.916 367.332 402.916 368.784C402.916 370.236 403.624 371.112 404.656 371.112C405.616 371.112 406.432 370.38 406.432 368.784C406.432 367.188 405.616 366.468 404.656 366.468ZM410.565 363.3V366.492C410.961 365.832 411.633 365.424 412.581 365.424C414.081 365.424 415.365 366.684 415.365 368.784C415.365 370.896 414.081 372.156 412.581 372.156C411.633 372.156 410.961 371.748 410.565 371.088V372H409.317V363.3H410.565ZM412.293 371.112C413.325 371.112 414.033 370.236 414.033 368.784C414.033 367.332 413.325 366.468 412.293 366.468C411.333 366.468 410.517 367.188 410.517 368.784C410.517 370.38 411.333 371.112 412.293 371.112Z" fill="#666666"/>
<path d="M300 20.5H498C503.247 20.5 507.5 24.7533 507.5 30V109C507.5 114.247 503.247 118.5 498 118.5H300C294.753 118.5 290.5 114.247 290.5 109V30C290.5 24.7533 294.753 20.5 300 20.5Z" fill="#F2F2F2"/>
<path d="M300 20.5H498C503.247 20.5 507.5 24.7533 507.5 30V109C507.5 114.247 503.247 118.5 498 118.5H300C294.753 118.5 290.5 114.247 290.5 109V30C290.5 24.7533 294.753 20.5 300 20.5Z" stroke="#D9D9D9"/>
<rect x="310.5" y="40.5" width="78" height="58" rx="29" fill="white"/>
<rect x="310.5" y="40.5" width="78" height="58" rx="29" stroke="#D9D9D9"/>
<path d="M337.871 62.228H336.623C336.491 61.496 335.831 60.992 335.015 60.992C334.115 60.992 333.287 61.7 333.287 63.272C333.287 64.868 334.127 65.588 335.015 65.588C335.807 65.588 336.503 65.12 336.671 64.352H337.931C337.679 65.708 336.419 66.656 334.991 66.656C333.131 66.656 331.955 65.228 331.955 63.284C331.955 61.364 333.167 59.924 335.075 59.924C336.551 59.924 337.679 60.968 337.871 62.228ZM340.35 66.5H339.102V57.8H340.35V66.5ZM347.875 63.296C347.875 65.624 346.267 66.656 344.731 66.656C343.207 66.656 341.599 65.624 341.599 63.296C341.599 60.956 343.207 59.924 344.731 59.924C346.267 59.924 347.875 60.956 347.875 63.296ZM344.731 65.6C345.679 65.6 346.555 64.868 346.555 63.296C346.555 61.688 345.679 60.98 344.731 60.98C343.795 60.98 342.919 61.664 342.919 63.296C342.919 64.892 343.795 65.6 344.731 65.6ZM353.105 65.588C352.733 66.236 352.109 66.656 351.137 66.656C349.613 66.656 349.025 65.708 349.025 64.148V60.044H350.273V63.812C350.273 64.748 350.429 65.6 351.557 65.6C352.601 65.6 353.117 64.82 353.117 63.548V60.044H354.365V66.5H353.105V65.588ZM360.391 57.8H361.639V66.5H360.391V65.588C359.995 66.248 359.323 66.656 358.375 66.656C356.875 66.656 355.591 65.396 355.591 63.284C355.591 61.184 356.875 59.924 358.375 59.924C359.323 59.924 359.995 60.332 360.391 60.992V57.8ZM358.663 60.968C357.631 60.968 356.923 61.832 356.923 63.284C356.923 64.736 357.631 65.612 358.663 65.612C359.623 65.612 360.439 64.88 360.439 63.284C360.439 61.688 359.623 60.968 358.663 60.968ZM363.024 63.812V62.66H366.888V63.812H363.024ZM326.111 74.612C326.111 73.184 326.531 72.8 328.043 72.8H328.607V73.796H328.127C327.491 73.796 327.359 73.928 327.359 74.6V75.044H328.607V75.992H327.359V81.5H326.111V75.992H325.211V75.044H326.111V74.612ZM330.951 72.8V74.18H329.703V72.8H330.951ZM330.951 75.044V81.5H329.703V75.044H330.951ZM333.881 81.5H332.633V72.8H333.881V81.5ZM339.979 79.604H341.239C340.939 80.672 339.979 81.656 338.335 81.656C336.247 81.656 335.119 80.132 335.119 78.26C335.119 76.256 336.463 74.924 338.299 74.924C340.291 74.924 341.455 76.556 341.323 78.656H336.403C336.523 79.844 337.279 80.588 338.287 80.588C339.187 80.588 339.715 80.216 339.979 79.604ZM336.427 77.672H340.027C339.991 76.712 339.319 75.944 338.287 75.944C337.315 75.944 336.595 76.448 336.427 77.672ZM343.795 81.5H342.547V72.8H343.795V81.5ZM346.725 72.8V74.18H345.477V72.8H346.725ZM346.725 75.044V81.5H345.477V75.044H346.725ZM352.078 76.844C351.898 76.184 351.346 75.92 350.614 75.92C350.002 75.92 349.342 76.172 349.342 76.7C349.342 77.18 349.654 77.384 350.242 77.504L351.166 77.684C352.39 77.924 353.458 78.344 353.458 79.604C353.458 80.912 352.234 81.656 350.746 81.656C349.114 81.656 348.118 80.708 347.962 79.496H349.234C349.402 80.228 349.882 80.66 350.782 80.66C351.586 80.66 352.21 80.324 352.21 79.748C352.21 79.148 351.646 78.908 350.974 78.776L350.002 78.584C349.03 78.392 348.118 77.96 348.118 76.748C348.118 75.608 349.318 74.912 350.734 74.912C352.03 74.912 353.074 75.596 353.314 76.844H352.078ZM354.963 73.388H356.211V75.044H357.483V75.992H356.211V79.676C356.211 80.336 356.319 80.504 356.943 80.504H357.471V81.5H356.559C355.251 81.5 354.963 81.176 354.963 79.844V75.992H353.979V75.044H354.963V73.388ZM358.563 81.5V80H360.063V81.5H358.563ZM365.168 76.844C364.988 76.184 364.436 75.92 363.704 75.92C363.092 75.92 362.432 76.172 362.432 76.7C362.432 77.18 362.744 77.384 363.332 77.504L364.256 77.684C365.48 77.924 366.548 78.344 366.548 79.604C366.548 80.912 365.324 81.656 363.836 81.656C362.204 81.656 361.208 80.708 361.052 79.496H362.324C362.492 80.228 362.972 80.66 363.872 80.66C364.676 80.66 365.3 80.324 365.3 79.748C365.3 79.148 364.736 78.908 364.064 78.776L363.092 78.584C362.12 78.392 361.208 77.96 361.208 76.748C361.208 75.608 362.408 74.912 363.824 74.912C365.12 74.912 366.164 75.596 366.404 76.844H365.168ZM369.049 75.98C369.421 75.344 370.069 74.924 371.077 74.924C372.637 74.924 373.237 75.932 373.237 77.432V81.5H371.989V77.768C371.989 76.832 371.833 75.968 370.657 75.968C369.577 75.968 369.049 76.748 369.049 78.032V81.5H367.801V72.8H369.049V75.98Z" fill="#666666"/>
<rect x="409.5" y="40.5" width="78" height="58" rx="29" fill="white"/>
<rect x="409.5" y="40.5" width="78" height="58" rx="29" stroke="#D9D9D9"/>
<path d="M433.322 60.044H434.57V65.744C434.57 66.932 434.318 67.568 433.874 68.012C433.382 68.528 432.602 68.792 431.618 68.792C430.178 68.792 429.122 68.168 428.918 66.812H430.202C430.334 67.4 430.706 67.748 431.642 67.748C432.254 67.748 432.674 67.58 432.938 67.28C433.19 67.004 433.322 66.668 433.322 66.008V65.324C432.926 65.984 432.278 66.392 431.33 66.392C429.83 66.392 428.582 65.204 428.582 63.152C428.582 61.112 429.83 59.924 431.33 59.924C432.278 59.924 432.926 60.332 433.322 60.992V60.044ZM431.618 60.956C430.586 60.956 429.914 61.772 429.914 63.152C429.914 64.556 430.586 65.372 431.618 65.372C432.578 65.372 433.37 64.7 433.37 63.152C433.37 61.616 432.578 60.956 431.618 60.956ZM437.481 57.8V59.18H436.233V57.8H437.481ZM437.481 60.044V66.5H436.233V60.044H437.481ZM439.414 58.388H440.662V60.044H441.934V60.992H440.662V64.676C440.662 65.336 440.77 65.504 441.394 65.504H441.922V66.5H441.01C439.702 66.5 439.414 66.176 439.414 64.844V60.992H438.43V60.044H439.414V58.388ZM444.512 60.98C444.884 60.344 445.532 59.924 446.54 59.924C448.1 59.924 448.7 60.932 448.7 62.432V66.5H447.452V62.768C447.452 61.832 447.296 60.968 446.12 60.968C445.04 60.968 444.512 61.748 444.512 63.032V66.5H443.264V57.8H444.512V60.98ZM454.244 65.588C453.872 66.236 453.248 66.656 452.276 66.656C450.752 66.656 450.164 65.708 450.164 64.148V60.044H451.412V63.812C451.412 64.748 451.568 65.6 452.696 65.6C453.74 65.6 454.256 64.82 454.256 63.548V60.044H455.504V66.5H454.244V65.588ZM458.422 57.8V60.992C458.818 60.332 459.49 59.924 460.438 59.924C461.938 59.924 463.222 61.184 463.222 63.284C463.222 65.396 461.938 66.656 460.438 66.656C459.49 66.656 458.818 66.248 458.422 65.588V66.5H457.174V57.8H458.422ZM460.15 65.612C461.182 65.612 461.89 64.736 461.89 63.284C461.89 61.832 461.182 60.968 460.15 60.968C459.19 60.968 458.374 61.688 458.374 63.284C458.374 64.88 459.19 65.612 460.15 65.612ZM464.397 63.812V62.66H468.261V63.812H464.397ZM425.111 74.612C425.111 73.184 425.531 72.8 427.043 72.8H427.607V73.796H427.127C426.491 73.796 426.359 73.928 426.359 74.6V75.044H427.607V75.992H426.359V81.5H425.111V75.992H424.211V75.044H425.111V74.612ZM429.951 72.8V74.18H428.703V72.8H429.951ZM429.951 75.044V81.5H428.703V75.044H429.951ZM432.881 81.5H431.633V72.8H432.881V81.5ZM438.979 79.604H440.239C439.939 80.672 438.979 81.656 437.335 81.656C435.247 81.656 434.119 80.132 434.119 78.26C434.119 76.256 435.463 74.924 437.299 74.924C439.291 74.924 440.455 76.556 440.323 78.656H435.403C435.523 79.844 436.279 80.588 437.287 80.588C438.187 80.588 438.715 80.216 438.979 79.604ZM435.427 77.672H439.027C438.991 76.712 438.319 75.944 437.287 75.944C436.315 75.944 435.595 76.448 435.427 77.672ZM442.795 81.5H441.547V72.8H442.795V81.5ZM445.725 72.8V74.18H444.477V72.8H445.725ZM445.725 75.044V81.5H444.477V75.044H445.725ZM451.078 76.844C450.898 76.184 450.346 75.92 449.614 75.92C449.002 75.92 448.342 76.172 448.342 76.7C448.342 77.18 448.654 77.384 449.242 77.504L450.166 77.684C451.39 77.924 452.458 78.344 452.458 79.604C452.458 80.912 451.234 81.656 449.746 81.656C448.114 81.656 447.118 80.708 446.962 79.496H448.234C448.402 80.228 448.882 80.66 449.782 80.66C450.586 80.66 451.21 80.324 451.21 79.748C451.21 79.148 450.646 78.908 449.974 78.776L449.002 78.584C448.03 78.392 447.118 77.96 447.118 76.748C447.118 75.608 448.318 74.912 449.734 74.912C451.03 74.912 452.074 75.596 452.314 76.844H451.078ZM453.963 73.388H455.211V75.044H456.483V75.992H455.211V79.676C455.211 80.336 455.319 80.504 455.943 80.504H456.471V81.5H455.559C454.251 81.5 453.963 81.176 453.963 79.844V75.992H452.979V75.044H453.963V73.388ZM457.563 81.5V80H459.063V81.5H457.563ZM464.168 76.844C463.988 76.184 463.436 75.92 462.704 75.92C462.092 75.92 461.432 76.172 461.432 76.7C461.432 77.18 461.744 77.384 462.332 77.504L463.256 77.684C464.48 77.924 465.548 78.344 465.548 79.604C465.548 80.912 464.324 81.656 462.836 81.656C461.204 81.656 460.208 80.708 460.052 79.496H461.324C461.492 80.228 461.972 80.66 462.872 80.66C463.676 80.66 464.3 80.324 464.3 79.748C464.3 79.148 463.736 78.908 463.064 78.776L462.092 78.584C461.12 78.392 460.208 77.96 460.208 76.748C460.208 75.608 461.408 74.912 462.824 74.912C464.12 74.912 465.164 75.596 465.404 76.844H464.168ZM468.049 75.98C468.421 75.344 469.069 74.924 470.077 74.924C471.637 74.924 472.237 75.932 472.237 77.432V81.5H470.989V77.768C470.989 76.832 470.833 75.968 469.657 75.968C468.577 75.968 468.049 76.748 468.049 78.032V81.5H466.801V72.8H468.049V75.98Z" fill="#666666"/>
<rect x="327.5" y="448.5" width="134" height="58" rx="9.5" fill="white"/>
<rect x="327.5" y="448.5" width="134" height="58" rx="9.5" stroke="#D9D9D9"/>
<path d="M344.486 482H343.238V475.544H344.486V476.48C344.858 475.844 345.47 475.424 346.394 475.424C347.39 475.424 347.978 475.844 348.266 476.564C348.806 475.76 349.562 475.424 350.402 475.424C351.914 475.424 352.502 476.432 352.502 477.932V482H351.254V478.268C351.254 477.332 351.11 476.468 349.982 476.468C348.998 476.468 348.494 477.248 348.494 478.532V482H347.246V478.268C347.246 477.332 347.102 476.468 345.974 476.468C344.978 476.468 344.486 477.248 344.486 478.532V482ZM353.696 484.1V483.104H354.188C354.86 483.104 355.148 483.056 355.46 482.132L355.508 481.988L353.18 475.544H354.56L356.12 480.356L357.644 475.544H358.94L356.66 482.144C356.132 483.668 355.748 484.1 354.296 484.1H353.696ZM360.013 475.112C360.013 473.684 360.433 473.3 361.945 473.3H362.509V474.296H362.029C361.393 474.296 361.261 474.428 361.261 475.1V475.544H362.509V476.492H361.261V482H360.013V476.492H359.113V475.544H360.013V475.112ZM366.966 476.828C366.738 476.804 366.522 476.792 366.318 476.792C365.358 476.792 364.854 477.26 364.854 478.616V482H363.606V475.544H364.83V476.684C365.166 475.952 365.814 475.532 366.618 475.52C366.726 475.52 366.858 475.52 366.966 475.532V476.828ZM373.68 478.796C373.68 481.124 372.072 482.156 370.536 482.156C369.012 482.156 367.404 481.124 367.404 478.796C367.404 476.456 369.012 475.424 370.536 475.424C372.072 475.424 373.68 476.456 373.68 478.796ZM370.536 481.1C371.484 481.1 372.36 480.368 372.36 478.796C372.36 477.188 371.484 476.48 370.536 476.48C369.6 476.48 368.724 477.164 368.724 478.796C368.724 480.392 369.6 481.1 370.536 481.1ZM374.446 480.98L378.046 476.564H374.686V475.544H379.558V476.564L375.958 480.98H379.63V482H374.446V480.98ZM385.236 480.104H386.496C386.196 481.172 385.236 482.156 383.592 482.156C381.504 482.156 380.376 480.632 380.376 478.76C380.376 476.756 381.72 475.424 383.556 475.424C385.548 475.424 386.712 477.056 386.58 479.156H381.66C381.78 480.344 382.536 481.088 383.544 481.088C384.444 481.088 384.972 480.716 385.236 480.104ZM381.684 478.172H385.284C385.248 477.212 384.576 476.444 383.544 476.444C382.572 476.444 381.852 476.948 381.684 478.172ZM389.053 476.48C389.425 475.844 390.073 475.424 391.081 475.424C392.641 475.424 393.241 476.432 393.241 477.932V482H391.993V478.268C391.993 477.332 391.837 476.468 390.661 476.468C389.581 476.468 389.053 477.248 389.053 478.532V482H387.805V475.544H389.053V476.48ZM394.763 482V480.5H396.263V482H394.763ZM401.934 473.3H403.182V482H401.934V481.088C401.538 481.748 400.866 482.156 399.918 482.156C398.418 482.156 397.134 480.896 397.134 478.784C397.134 476.684 398.418 475.424 399.918 475.424C400.866 475.424 401.538 475.832 401.934 476.492V473.3ZM400.206 476.468C399.174 476.468 398.466 477.332 398.466 478.784C398.466 480.236 399.174 481.112 400.206 481.112C401.166 481.112 401.982 480.38 401.982 478.784C401.982 477.188 401.166 476.468 400.206 476.468ZM408.851 481.088C408.479 481.736 407.855 482.156 406.883 482.156C405.359 482.156 404.771 481.208 404.771 479.648V475.544H406.019V479.312C406.019 480.248 406.175 481.1 407.303 481.1C408.347 481.1 408.863 480.32 408.863 479.048V475.544H410.111V482H408.851V481.088ZM417.253 477.728H416.005C415.873 476.996 415.213 476.492 414.397 476.492C413.497 476.492 412.669 477.2 412.669 478.772C412.669 480.368 413.509 481.088 414.397 481.088C415.189 481.088 415.885 480.62 416.053 479.852H417.313C417.061 481.208 415.801 482.156 414.373 482.156C412.513 482.156 411.337 480.728 411.337 478.784C411.337 476.864 412.549 475.424 414.457 475.424C415.933 475.424 417.061 476.468 417.253 477.728ZM419.733 473.3V478.304L422.301 475.544H423.825L421.317 478.208L424.005 482H422.517L420.465 479.108L419.733 479.888V482H418.485V473.3H419.733ZM425.955 482H424.707V473.3H425.955V482ZM427.253 480.26C427.253 478.688 429.101 478.268 431.609 478.004V477.872C431.609 476.732 431.009 476.348 430.217 476.348C429.353 476.348 428.861 476.792 428.813 477.584H427.553C427.661 476.216 428.789 475.388 430.265 475.388C431.933 475.388 432.893 476.192 432.869 478.124C432.869 478.28 432.845 479.396 432.845 479.672C432.845 480.632 432.905 481.424 433.025 482H431.825C431.777 481.748 431.741 481.556 431.717 481.148C431.333 481.796 430.601 482.156 429.557 482.156C428.249 482.156 427.253 481.436 427.253 480.26ZM431.669 478.928C429.665 479.12 428.609 479.396 428.609 480.236C428.609 480.824 429.077 481.196 429.833 481.196C430.865 481.196 431.669 480.68 431.669 479.396V478.928ZM435.658 473.3V478.304L438.226 475.544H439.75L437.242 478.208L439.93 482H438.442L436.39 479.108L435.658 479.888V482H434.41V473.3H435.658ZM444.873 480.104H446.133C445.833 481.172 444.873 482.156 443.229 482.156C441.141 482.156 440.013 480.632 440.013 478.76C440.013 476.756 441.357 475.424 443.193 475.424C445.185 475.424 446.349 477.056 446.217 479.156H441.297C441.417 480.344 442.173 481.088 443.181 481.088C444.081 481.088 444.609 480.716 444.873 480.104ZM441.321 478.172H444.921C444.885 477.212 444.213 476.444 443.181 476.444C442.209 476.444 441.489 476.948 441.321 478.172Z" fill="#666666"/>
<rect x="507.5" y="448.5" width="134" height="58" rx="9.5" fill="white"/>
<rect x="507.5" y="448.5" width="134" height="58" rx="9.5" stroke="#D9D9D9"/>
<path d="M563.89 470.228H562.642C562.51 469.496 561.85 468.992 561.034 468.992C560.134 468.992 559.306 469.7 559.306 471.272C559.306 472.868 560.146 473.588 561.034 473.588C561.826 473.588 562.522 473.12 562.69 472.352H563.95C563.698 473.708 562.438 474.656 561.01 474.656C559.15 474.656 557.974 473.228 557.974 471.284C557.974 469.364 559.186 467.924 561.094 467.924C562.57 467.924 563.698 468.968 563.89 470.228ZM566.369 474.5H565.121V465.8H566.369V474.5ZM573.895 471.296C573.895 473.624 572.287 474.656 570.751 474.656C569.227 474.656 567.619 473.624 567.619 471.296C567.619 468.956 569.227 467.924 570.751 467.924C572.287 467.924 573.895 468.956 573.895 471.296ZM570.751 473.6C571.699 473.6 572.575 472.868 572.575 471.296C572.575 469.688 571.699 468.98 570.751 468.98C569.815 468.98 568.939 469.664 568.939 471.296C568.939 472.892 569.815 473.6 570.751 473.6ZM579.125 473.588C578.753 474.236 578.129 474.656 577.157 474.656C575.633 474.656 575.045 473.708 575.045 472.148V468.044H576.293V471.812C576.293 472.748 576.449 473.6 577.577 473.6C578.621 473.6 579.137 472.82 579.137 471.548V468.044H580.385V474.5H579.125V473.588ZM586.411 465.8H587.659V474.5H586.411V473.588C586.015 474.248 585.343 474.656 584.395 474.656C582.895 474.656 581.611 473.396 581.611 471.284C581.611 469.184 582.895 467.924 584.395 467.924C585.343 467.924 586.015 468.332 586.411 468.992V465.8ZM584.683 468.968C583.651 468.968 582.943 469.832 582.943 471.284C582.943 472.736 583.651 473.612 584.683 473.612C585.643 473.612 586.459 472.88 586.459 471.284C586.459 469.688 585.643 468.968 584.683 468.968ZM589.212 469.544V468.044H590.712V469.544H589.212ZM589.212 474.5V473H590.712V474.5H589.212ZM524.486 489.5H523.238V483.044H524.486V483.98C524.858 483.344 525.47 482.924 526.394 482.924C527.39 482.924 527.978 483.344 528.266 484.064C528.806 483.26 529.562 482.924 530.402 482.924C531.914 482.924 532.502 483.932 532.502 485.432V489.5H531.254V485.768C531.254 484.832 531.11 483.968 529.982 483.968C528.998 483.968 528.494 484.748 528.494 486.032V489.5H527.246V485.768C527.246 484.832 527.102 483.968 525.974 483.968C524.978 483.968 524.486 484.748 524.486 486.032V489.5ZM533.696 491.6V490.604H534.188C534.86 490.604 535.148 490.556 535.46 489.632L535.508 489.488L533.18 483.044H534.56L536.12 487.856L537.644 483.044H538.94L536.66 489.644C536.132 491.168 535.748 491.6 534.296 491.6H533.696ZM540.013 482.612C540.013 481.184 540.433 480.8 541.945 480.8H542.509V481.796H542.029C541.393 481.796 541.261 481.928 541.261 482.6V483.044H542.509V483.992H541.261V489.5H540.013V483.992H539.113V483.044H540.013V482.612ZM546.966 484.328C546.738 484.304 546.522 484.292 546.318 484.292C545.358 484.292 544.854 484.76 544.854 486.116V489.5H543.606V483.044H544.83V484.184C545.166 483.452 545.814 483.032 546.618 483.02C546.726 483.02 546.858 483.02 546.966 483.032V484.328ZM553.68 486.296C553.68 488.624 552.072 489.656 550.536 489.656C549.012 489.656 547.404 488.624 547.404 486.296C547.404 483.956 549.012 482.924 550.536 482.924C552.072 482.924 553.68 483.956 553.68 486.296ZM550.536 488.6C551.484 488.6 552.36 487.868 552.36 486.296C552.36 484.688 551.484 483.98 550.536 483.98C549.6 483.98 548.724 484.664 548.724 486.296C548.724 487.892 549.6 488.6 550.536 488.6ZM554.446 488.48L558.046 484.064H554.686V483.044H559.558V484.064L555.958 488.48H559.63V489.5H554.446V488.48ZM565.236 487.604H566.496C566.196 488.672 565.236 489.656 563.592 489.656C561.504 489.656 560.376 488.132 560.376 486.26C560.376 484.256 561.72 482.924 563.556 482.924C565.548 482.924 566.712 484.556 566.58 486.656H561.66C561.78 487.844 562.536 488.588 563.544 488.588C564.444 488.588 564.972 488.216 565.236 487.604ZM561.684 485.672H565.284C565.248 484.712 564.576 483.944 563.544 483.944C562.572 483.944 561.852 484.448 561.684 485.672ZM569.053 483.98C569.425 483.344 570.073 482.924 571.081 482.924C572.641 482.924 573.241 483.932 573.241 485.432V489.5H571.993V485.768C571.993 484.832 571.837 483.968 570.661 483.968C569.581 483.968 569.053 484.748 569.053 486.032V489.5H567.805V483.044H569.053V483.98ZM574.763 489.5V488H576.263V489.5H574.763ZM581.934 480.8H583.182V489.5H581.934V488.588C581.538 489.248 580.866 489.656 579.918 489.656C578.418 489.656 577.134 488.396 577.134 486.284C577.134 484.184 578.418 482.924 579.918 482.924C580.866 482.924 581.538 483.332 581.934 483.992V480.8ZM580.206 483.968C579.174 483.968 578.466 484.832 578.466 486.284C578.466 487.736 579.174 488.612 580.206 488.612C581.166 488.612 581.982 487.88 581.982 486.284C581.982 484.688 581.166 483.968 580.206 483.968ZM588.851 488.588C588.479 489.236 587.855 489.656 586.883 489.656C585.359 489.656 584.771 488.708 584.771 487.148V483.044H586.019V486.812C586.019 487.748 586.175 488.6 587.303 488.6C588.347 488.6 588.863 487.82 588.863 486.548V483.044H590.111V489.5H588.851V488.588ZM597.253 485.228H596.005C595.873 484.496 595.213 483.992 594.397 483.992C593.497 483.992 592.669 484.7 592.669 486.272C592.669 487.868 593.509 488.588 594.397 488.588C595.189 488.588 595.885 488.12 596.053 487.352H597.313C597.061 488.708 595.801 489.656 594.373 489.656C592.513 489.656 591.337 488.228 591.337 486.284C591.337 484.364 592.549 482.924 594.457 482.924C595.933 482.924 597.061 483.968 597.253 485.228ZM599.733 480.8V485.804L602.301 483.044H603.825L601.317 485.708L604.005 489.5H602.517L600.465 486.608L599.733 487.388V489.5H598.485V480.8H599.733ZM605.955 489.5H604.707V480.8H605.955V489.5ZM607.253 487.76C607.253 486.188 609.101 485.768 611.609 485.504V485.372C611.609 484.232 611.009 483.848 610.217 483.848C609.353 483.848 608.861 484.292 608.813 485.084H607.553C607.661 483.716 608.789 482.888 610.265 482.888C611.933 482.888 612.893 483.692 612.869 485.624C612.869 485.78 612.845 486.896 612.845 487.172C612.845 488.132 612.905 488.924 613.025 489.5H611.825C611.777 489.248 611.741 489.056 611.717 488.648C611.333 489.296 610.601 489.656 609.557 489.656C608.249 489.656 607.253 488.936 607.253 487.76ZM611.669 486.428C609.665 486.62 608.609 486.896 608.609 487.736C608.609 488.324 609.077 488.696 609.833 488.696C610.865 488.696 611.669 488.18 611.669 486.896V486.428ZM615.658 480.8V485.804L618.226 483.044H619.75L617.242 485.708L619.93 489.5H618.442L616.39 486.608L615.658 487.388V489.5H614.41V480.8H615.658ZM624.873 487.604H626.133C625.833 488.672 624.873 489.656 623.229 489.656C621.141 489.656 620.013 488.132 620.013 486.26C620.013 484.256 621.357 482.924 623.193 482.924C625.185 482.924 626.349 484.556 626.217 486.656H621.297C621.417 487.844 622.173 488.588 623.181 488.588C624.081 488.588 624.609 488.216 624.873 487.604ZM621.321 485.672H624.921C624.885 484.712 624.213 483.944 623.181 483.944C622.209 483.944 621.489 484.448 621.321 485.672Z" fill="#666666"/>
<path d="M345 99V123C345 128.523 349.477 133 355 133H441C446.523 133 451 128.523 451 123V99" stroke="#CCCCCC"/>
<path d="M394.646 171.854C394.842 172.049 395.158 172.049 395.354 171.854L398.536 168.672C398.731 168.476 398.731 168.16 398.536 167.964C398.34 167.769 398.024 167.769 397.828 167.964L395 170.793L392.172 167.964C391.976 167.769 391.66 167.769 391.464 167.964C391.269 168.16 391.269 168.476 391.464 168.672L394.646 171.854ZM395 133.5L394.5 133.5V171.5H395H395.5V133.5L395 133.5Z" fill="#CCCCCC"/>
<path d="M394.646 337.854C394.842 338.049 395.158 338.049 395.354 337.854L398.536 334.672C398.731 334.476 398.731 334.16 398.536 333.964C398.34 333.769 398.024 333.769 397.828 333.964L395 336.793L392.172 333.964C391.976 333.769 391.66 333.769 391.464 333.964C391.269 334.16 391.269 334.476 391.464 334.672L394.646 337.854ZM395 236.5H394.5V337.5H395H395.5V236.5H395Z" fill="#CCCCCC"/>
<path d="M394.646 447.854C394.842 448.049 395.158 448.049 395.354 447.854L398.536 444.672C398.731 444.476 398.731 444.16 398.536 443.964C398.34 443.769 398.024 443.769 397.828 443.964L395 446.793L392.172 443.964C391.976 443.769 391.66 443.769 391.464 443.964C391.269 444.16 391.269 444.476 391.464 444.672L394.646 447.854ZM395 397H394.5V447.5H395H395.5V397H395Z" fill="#CCCCCC"/>
<path d="M506.854 478.354C507.049 478.158 507.049 477.842 506.854 477.646L503.672 474.464C503.476 474.269 503.16 474.269 502.964 474.464C502.769 474.66 502.769 474.976 502.964 475.172L505.793 478L502.964 480.828C502.769 481.024 502.769 481.34 502.964 481.536C503.16 481.731 503.476 481.731 503.672 481.536L506.854 478.354ZM462 478L462 478.5L506.5 478.5L506.5 478L506.5 477.5L462 477.5L462 478Z" fill="#CCCCCC"/>
<rect x="362" y="145" width="66" height="14" fill="#E6E6E6"/>
<rect x="362" y="145" width="66" height="14" fill="#E6E6E6"/>
<path d="M367.125 149.62V148.24H368.165V149.62H369.225V150.41H368.165V153.48C368.165 154.03 368.255 154.17 368.775 154.17H369.215V155H368.455C367.365 155 367.125 154.73 367.125 153.62V150.41H366.305V149.62H367.125ZM371.275 152.11V155H370.235V149.62H371.275V150.4C371.585 149.87 372.095 149.52 372.865 149.52C373.705 149.52 374.185 149.87 374.425 150.47C374.875 149.79 375.495 149.52 376.205 149.52C377.465 149.52 377.955 150.36 377.955 151.61V155H376.915V151.89C376.915 151.12 376.785 150.39 375.855 150.39C375.025 150.39 374.615 151.03 374.615 152.11V155H373.575V151.89C373.575 151.12 373.445 150.39 372.515 150.39C371.675 150.39 371.275 151.03 371.275 152.11ZM379.268 149.62H380.308V150.41C380.638 149.85 381.188 149.52 381.988 149.52C383.238 149.52 384.308 150.56 384.308 152.32C384.308 154.08 383.238 155.13 381.988 155.13C381.188 155.13 380.638 154.8 380.308 154.24V156.75H379.268V149.62ZM380.268 152.32C380.268 153.65 380.948 154.26 381.748 154.26C382.618 154.26 383.198 153.53 383.198 152.32C383.198 151.11 382.618 150.39 381.748 150.39C380.948 150.39 380.268 150.99 380.268 152.32ZM388.827 155.96H384.737V155H388.827V155.96ZM389.761 149.62V149.26C389.761 148.07 390.121 147.75 391.371 147.75H391.841V148.58H391.441C390.911 148.58 390.801 148.69 390.801 149.25V149.62H391.841V150.41H390.801V155H389.761V150.41H389.011V149.62H389.761ZM392.755 149.62H393.795V155H392.755V149.62ZM392.755 147.75H393.795V148.9H392.755V147.75ZM396.236 147.75V155H395.196V147.75H396.236ZM399.908 154.24C400.668 154.24 401.088 153.93 401.318 153.42H402.368C402.128 154.31 401.308 155.13 399.948 155.13C398.218 155.13 397.267 153.86 397.267 152.3C397.267 150.63 398.388 149.52 399.918 149.52C401.578 149.52 402.548 150.88 402.438 152.63H398.338C398.448 153.63 399.058 154.24 399.908 154.24ZM399.908 150.37C399.098 150.37 398.508 150.78 398.358 151.81H401.358C401.328 151.02 400.758 150.37 399.908 150.37ZM407.567 151.12H406.537C406.387 150.56 405.927 150.35 405.317 150.35C404.807 150.35 404.257 150.56 404.257 151C404.257 151.4 404.517 151.56 405.007 151.67L405.777 151.82C406.787 152.03 407.687 152.36 407.687 153.42C407.687 154.51 406.667 155.13 405.427 155.13C404.057 155.13 403.237 154.34 403.107 153.33H404.167C404.317 153.94 404.697 154.3 405.457 154.3C406.137 154.3 406.647 154.02 406.647 153.54C406.647 153.05 406.177 152.84 405.617 152.73L404.807 152.57C403.997 152.41 403.237 152.06 403.237 151.04C403.237 150.09 404.247 149.51 405.417 149.51C406.507 149.51 407.357 150.08 407.567 151.12ZM409.774 155H408.524V153.75H409.774V155ZM413.1 149.52C414.33 149.52 415.27 150.39 415.43 151.44H414.39C414.28 150.83 413.73 150.41 413.05 150.41C412.3 150.41 411.61 151 411.61 152.31C411.61 153.64 412.3 154.24 413.05 154.24C413.72 154.24 414.28 153.85 414.43 153.21H415.48C415.26 154.34 414.22 155.13 413.03 155.13C411.47 155.13 410.5 153.95 410.5 152.32C410.5 150.73 411.51 149.52 413.1 149.52ZM420.595 151.12H419.565C419.415 150.56 418.955 150.35 418.345 150.35C417.835 150.35 417.285 150.56 417.285 151C417.285 151.4 417.545 151.56 418.035 151.67L418.805 151.82C419.815 152.03 420.715 152.36 420.715 153.42C420.715 154.51 419.695 155.13 418.455 155.13C417.085 155.13 416.265 154.34 416.135 153.33H417.195C417.345 153.94 417.725 154.3 418.485 154.3C419.165 154.3 419.675 154.02 419.675 153.54C419.675 153.05 419.205 152.84 418.645 152.73L417.835 152.57C417.025 152.41 416.265 152.06 416.265 151.04C416.265 150.09 417.275 149.51 418.445 149.51C419.535 149.51 420.385 150.08 420.595 151.12ZM422.209 149.62L423.569 153.61L424.919 149.62H425.999L424.009 155H423.059L421.059 149.62H422.209Z" fill="#666666"/>
<rect x="331" y="266" width="128" height="27" fill="#E6E6E6"/>
<rect x="331" y="266" width="128" height="27" fill="#E6E6E6"/>
<path d="M345.388 270.62V269.24H346.428V270.62H347.488V271.41H346.428V274.48C346.428 275.03 346.518 275.17 347.038 275.17H347.478V276H346.718C345.628 276 345.388 275.73 345.388 274.62V271.41H344.568V270.62H345.388ZM349.538 273.11V276H348.498V270.62H349.538V271.4C349.848 270.87 350.358 270.52 351.128 270.52C351.968 270.52 352.448 270.87 352.688 271.47C353.138 270.79 353.758 270.52 354.468 270.52C355.728 270.52 356.218 271.36 356.218 272.61V276H355.178V272.89C355.178 272.12 355.048 271.39 354.118 271.39C353.288 271.39 352.878 272.03 352.878 273.11V276H351.838V272.89C351.838 272.12 351.708 271.39 350.778 271.39C349.938 271.39 349.538 272.03 349.538 273.11ZM357.531 270.62H358.571V271.41C358.901 270.85 359.451 270.52 360.251 270.52C361.501 270.52 362.571 271.56 362.571 273.32C362.571 275.08 361.501 276.13 360.251 276.13C359.451 276.13 358.901 275.8 358.571 275.24V277.75H357.531V270.62ZM358.531 273.32C358.531 274.65 359.211 275.26 360.011 275.26C360.881 275.26 361.461 274.53 361.461 273.32C361.461 272.11 360.881 271.39 360.011 271.39C359.211 271.39 358.531 271.99 358.531 273.32ZM367.09 276.96H363V276H367.09V276.96ZM370.122 270.52C371.352 270.52 372.292 271.39 372.452 272.44H371.412C371.302 271.83 370.752 271.41 370.072 271.41C369.322 271.41 368.632 272 368.632 273.31C368.632 274.64 369.322 275.24 370.072 275.24C370.742 275.24 371.302 274.85 371.452 274.21H372.502C372.282 275.34 371.242 276.13 370.052 276.13C368.492 276.13 367.522 274.95 367.522 273.32C367.522 271.73 368.532 270.52 370.122 270.52ZM376.278 270.61V271.69C376.088 271.67 375.908 271.66 375.738 271.66C374.938 271.66 374.518 272.05 374.518 273.18V276H373.478V270.62H374.498V271.57C374.778 270.96 375.308 270.61 375.988 270.6C376.078 270.6 376.188 270.6 376.278 270.61ZM379.274 275.24C380.034 275.24 380.454 274.93 380.684 274.42H381.734C381.494 275.31 380.674 276.13 379.314 276.13C377.584 276.13 376.634 274.86 376.634 273.3C376.634 271.63 377.754 270.52 379.284 270.52C380.944 270.52 381.914 271.88 381.804 273.63H377.704C377.814 274.63 378.424 275.24 379.274 275.24ZM379.274 271.37C378.464 271.37 377.874 271.78 377.724 272.81H380.724C380.694 272.02 380.124 271.37 379.274 271.37ZM386.135 273.83V273.44C384.465 273.6 383.585 273.84 383.585 274.53C383.585 275.02 383.965 275.33 384.605 275.33C385.455 275.33 386.135 274.9 386.135 273.83ZM384.375 276.13C383.285 276.13 382.455 275.53 382.455 274.55C382.455 273.24 384.005 272.88 386.085 272.67V272.56C386.085 271.61 385.585 271.29 384.925 271.29C384.205 271.29 383.795 271.65 383.755 272.32H382.705C382.785 271.17 383.735 270.49 384.965 270.49C386.355 270.49 387.145 271.16 387.135 272.77C387.135 272.9 387.115 273.83 387.115 274.06C387.115 274.87 387.165 275.52 387.265 276H386.265C386.225 275.79 386.205 275.64 386.175 275.29C385.855 275.84 385.255 276.13 384.375 276.13ZM388.63 270.62V269.24H389.67V270.62H390.73V271.41H389.67V274.48C389.67 275.03 389.76 275.17 390.28 275.17H390.72V276H389.96C388.87 276 388.63 275.73 388.63 274.62V271.41H387.81V270.62H388.63ZM393.961 275.24C394.721 275.24 395.141 274.93 395.371 274.42H396.421C396.181 275.31 395.361 276.13 394.001 276.13C392.271 276.13 391.321 274.86 391.321 273.3C391.321 271.63 392.441 270.52 393.971 270.52C395.631 270.52 396.601 271.88 396.491 273.63H392.391C392.501 274.63 393.111 275.24 393.961 275.24ZM393.961 271.37C393.151 271.37 392.561 271.78 392.411 272.81H395.411C395.381 272.02 394.811 271.37 393.961 271.37ZM401.045 276.96H396.955V276H401.045V276.96ZM401.852 270.62V269.24H402.892V270.62H403.952V271.41H402.892V274.48C402.892 275.03 402.982 275.17 403.502 275.17H403.942V276H403.182C402.092 276 401.852 275.73 401.852 274.62V271.41H401.032V270.62H401.852ZM408.323 273.83V273.44C406.653 273.6 405.773 273.84 405.773 274.53C405.773 275.02 406.153 275.33 406.793 275.33C407.643 275.33 408.323 274.9 408.323 273.83ZM406.563 276.13C405.473 276.13 404.643 275.53 404.643 274.55C404.643 273.24 406.193 272.88 408.273 272.67V272.56C408.273 271.61 407.773 271.29 407.113 271.29C406.393 271.29 405.983 271.65 405.943 272.32H404.893C404.973 271.17 405.923 270.49 407.153 270.49C408.543 270.49 409.333 271.16 409.323 272.77C409.323 272.9 409.303 273.83 409.303 274.06C409.303 274.87 409.353 275.52 409.453 276H408.453C408.413 275.79 408.393 275.64 408.363 275.29C408.043 275.84 407.443 276.13 406.563 276.13ZM411.607 273.32C411.607 274.65 412.287 275.26 413.087 275.26C413.957 275.26 414.537 274.53 414.537 273.32C414.537 272.11 413.957 271.39 413.087 271.39C412.287 271.39 411.607 271.99 411.607 273.32ZM410.607 268.75H411.647V271.41C411.977 270.85 412.527 270.52 413.327 270.52C414.577 270.52 415.647 271.56 415.647 273.32C415.647 275.08 414.577 276.13 413.327 276.13C412.527 276.13 411.977 275.8 411.647 275.24V276H410.607V268.75ZM417.721 268.75V276H416.681V268.75H417.721ZM421.393 275.24C422.153 275.24 422.573 274.93 422.803 274.42H423.853C423.613 275.31 422.793 276.13 421.433 276.13C419.703 276.13 418.753 274.86 418.753 273.3C418.753 271.63 419.873 270.52 421.403 270.52C423.063 270.52 424.033 271.88 423.923 273.63H419.823C419.933 274.63 420.543 275.24 421.393 275.24ZM421.393 271.37C420.583 271.37 419.993 271.78 419.843 272.81H422.843C422.813 272.02 422.243 271.37 421.393 271.37ZM429.053 272.12H428.023C427.873 271.56 427.413 271.35 426.803 271.35C426.293 271.35 425.743 271.56 425.743 272C425.743 272.4 426.003 272.56 426.493 272.67L427.263 272.82C428.273 273.03 429.173 273.36 429.173 274.42C429.173 275.51 428.153 276.13 426.913 276.13C425.543 276.13 424.723 275.34 424.593 274.33H425.653C425.803 274.94 426.183 275.3 426.943 275.3C427.623 275.3 428.133 275.02 428.133 274.54C428.133 274.05 427.663 273.84 427.103 273.73L426.293 273.57C425.483 273.41 424.723 273.06 424.723 272.04C424.723 271.09 425.733 270.51 426.903 270.51C427.993 270.51 428.843 271.08 429.053 272.12ZM431.259 276H430.009V274.75H431.259V276ZM436.543 272.12H435.513C435.363 271.56 434.903 271.35 434.293 271.35C433.783 271.35 433.233 271.56 433.233 272C433.233 272.4 433.493 272.56 433.983 272.67L434.753 272.82C435.763 273.03 436.663 273.36 436.663 274.42C436.663 275.51 435.643 276.13 434.403 276.13C433.033 276.13 432.213 275.34 432.083 274.33H433.143C433.293 274.94 433.673 275.3 434.433 275.3C435.113 275.3 435.623 275.02 435.623 274.54C435.623 274.05 435.153 273.84 434.593 273.73L433.783 273.57C432.973 273.41 432.213 273.06 432.213 272.04C432.213 271.09 433.223 270.51 434.393 270.51C435.483 270.51 436.333 271.08 436.543 272.12ZM441.337 271.41V270.62H442.377V277.75H441.337V275.24C441.007 275.8 440.457 276.13 439.657 276.13C438.407 276.13 437.337 275.08 437.337 273.32C437.337 271.56 438.407 270.52 439.657 270.52C440.457 270.52 441.007 270.85 441.337 271.41ZM441.377 273.32C441.377 271.99 440.697 271.39 439.897 271.39C439.027 271.39 438.447 272.11 438.447 273.32C438.447 274.53 439.027 275.26 439.897 275.26C440.697 275.26 441.377 274.65 441.377 273.32ZM444.821 268.75V276H443.781V268.75H444.821ZM343.19 282.62V281.24H344.23V282.62H345.29V283.41H344.23V286.48C344.23 287.03 344.32 287.17 344.84 287.17H345.28V288H344.52C343.43 288 343.19 287.73 343.19 286.62V283.41H342.37V282.62H343.19ZM347.341 285.11V288H346.301V282.62H347.341V283.4C347.651 282.87 348.161 282.52 348.931 282.52C349.771 282.52 350.251 282.87 350.491 283.47C350.941 282.79 351.561 282.52 352.271 282.52C353.531 282.52 354.021 283.36 354.021 284.61V288H352.981V284.89C352.981 284.12 352.851 283.39 351.921 283.39C351.091 283.39 350.681 284.03 350.681 285.11V288H349.641V284.89C349.641 284.12 349.511 283.39 348.581 283.39C347.741 283.39 347.341 284.03 347.341 285.11ZM355.334 282.62H356.374V283.41C356.704 282.85 357.254 282.52 358.054 282.52C359.304 282.52 360.374 283.56 360.374 285.32C360.374 287.08 359.304 288.13 358.054 288.13C357.254 288.13 356.704 287.8 356.374 287.24V289.75H355.334V282.62ZM356.334 285.32C356.334 286.65 357.014 287.26 357.814 287.26C358.684 287.26 359.264 286.53 359.264 285.32C359.264 284.11 358.684 283.39 357.814 283.39C357.014 283.39 356.334 283.99 356.334 285.32ZM364.893 288.96H360.803V288H364.893V288.96ZM369.153 285.83V285.44C367.483 285.6 366.603 285.84 366.603 286.53C366.603 287.02 366.983 287.33 367.623 287.33C368.473 287.33 369.153 286.9 369.153 285.83ZM367.393 288.13C366.303 288.13 365.473 287.53 365.473 286.55C365.473 285.24 367.023 284.88 369.103 284.67V284.56C369.103 283.61 368.603 283.29 367.943 283.29C367.223 283.29 366.813 283.65 366.773 284.32H365.723C365.803 283.17 366.753 282.49 367.983 282.49C369.373 282.49 370.163 283.16 370.153 284.77C370.153 284.9 370.133 285.83 370.133 286.06C370.133 286.87 370.183 287.52 370.283 288H369.283C369.243 287.79 369.223 287.64 369.193 287.29C368.873 287.84 368.273 288.13 367.393 288.13ZM375.067 283.41V280.75H376.107V288H375.067V287.24C374.737 287.8 374.187 288.13 373.387 288.13C372.137 288.13 371.067 287.08 371.067 285.32C371.067 283.56 372.137 282.52 373.387 282.52C374.187 282.52 374.737 282.85 375.067 283.41ZM375.107 285.32C375.107 283.99 374.427 283.39 373.627 283.39C372.757 283.39 372.177 284.11 372.177 285.32C372.177 286.53 372.757 287.26 373.627 287.26C374.427 287.26 375.107 286.65 375.107 285.32ZM381.142 283.41V280.75H382.182V288H381.142V287.24C380.812 287.8 380.262 288.13 379.462 288.13C378.212 288.13 377.142 287.08 377.142 285.32C377.142 283.56 378.212 282.52 379.462 282.52C380.262 282.52 380.812 282.85 381.142 283.41ZM381.182 285.32C381.182 283.99 380.502 283.39 379.702 283.39C378.832 283.39 378.252 284.11 378.252 285.32C378.252 286.53 378.832 287.26 379.702 287.26C380.502 287.26 381.182 286.65 381.182 285.32ZM387.266 288.96H383.176V288H387.266V288.96ZM391.698 283.41V280.75H392.738V288H391.698V287.24C391.368 287.8 390.818 288.13 390.018 288.13C388.768 288.13 387.698 287.08 387.698 285.32C387.698 283.56 388.768 282.52 390.018 282.52C390.818 282.52 391.368 282.85 391.698 283.41ZM391.738 285.32C391.738 283.99 391.058 283.39 390.258 283.39C389.388 283.39 388.808 284.11 388.808 285.32C388.808 286.53 389.388 287.26 390.258 287.26C391.058 287.26 391.738 286.65 391.738 285.32ZM397.502 285.83V285.44C395.832 285.6 394.952 285.84 394.952 286.53C394.952 287.02 395.332 287.33 395.972 287.33C396.822 287.33 397.502 286.9 397.502 285.83ZM395.742 288.13C394.652 288.13 393.822 287.53 393.822 286.55C393.822 285.24 395.372 284.88 397.452 284.67V284.56C397.452 283.61 396.952 283.29 396.292 283.29C395.572 283.29 395.162 283.65 395.122 284.32H394.072C394.152 283.17 395.102 282.49 396.332 282.49C397.722 282.49 398.512 283.16 398.502 284.77C398.502 284.9 398.482 285.83 398.482 286.06C398.482 286.87 398.532 287.52 398.632 288H397.632C397.592 287.79 397.572 287.64 397.542 287.29C397.222 287.84 396.622 288.13 395.742 288.13ZM399.997 282.62V281.24H401.037V282.62H402.097V283.41H401.037V286.48C401.037 287.03 401.127 287.17 401.647 287.17H402.087V288H401.327C400.237 288 399.997 287.73 399.997 286.62V283.41H399.177V282.62H399.997ZM406.467 285.83V285.44C404.797 285.6 403.917 285.84 403.917 286.53C403.917 287.02 404.297 287.33 404.937 287.33C405.787 287.33 406.467 286.9 406.467 285.83ZM404.707 288.13C403.617 288.13 402.787 287.53 402.787 286.55C402.787 285.24 404.337 284.88 406.417 284.67V284.56C406.417 283.61 405.917 283.29 405.257 283.29C404.537 283.29 404.127 283.65 404.087 284.32H403.037C403.117 283.17 404.067 282.49 405.297 282.49C406.687 282.49 407.477 283.16 407.467 284.77C407.467 284.9 407.447 285.83 407.447 286.06C407.447 286.87 407.497 287.52 407.597 288H406.597C406.557 287.79 406.537 287.64 406.507 287.29C406.187 287.84 405.587 288.13 404.707 288.13ZM412.51 288.96H408.42V288H412.51V288.96ZM413.444 282.62V282.26C413.444 281.07 413.804 280.75 415.054 280.75H415.524V281.58H415.124C414.594 281.58 414.484 281.69 414.484 282.25V282.62H415.524V283.41H414.484V288H413.444V283.41H412.694V282.62H413.444ZM416.437 282.62H417.477V288H416.437V282.62ZM416.437 280.75H417.477V281.9H416.437V280.75ZM419.919 280.75V288H418.879V280.75H419.919ZM423.59 287.24C424.35 287.24 424.77 286.93 425 286.42H426.05C425.81 287.31 424.99 288.13 423.63 288.13C421.9 288.13 420.95 286.86 420.95 285.3C420.95 283.63 422.07 282.52 423.6 282.52C425.26 282.52 426.23 283.88 426.12 285.63H422.02C422.13 286.63 422.74 287.24 423.59 287.24ZM423.59 283.37C422.78 283.37 422.19 283.78 422.04 284.81H425.04C425.01 284.02 424.44 283.37 423.59 283.37ZM431.25 284.12H430.22C430.07 283.56 429.61 283.35 429 283.35C428.49 283.35 427.94 283.56 427.94 284C427.94 284.4 428.2 284.56 428.69 284.67L429.46 284.82C430.47 285.03 431.37 285.36 431.37 286.42C431.37 287.51 430.35 288.13 429.11 288.13C427.74 288.13 426.92 287.34 426.79 286.33H427.85C428 286.94 428.38 287.3 429.14 287.3C429.82 287.3 430.33 287.02 430.33 286.54C430.33 286.05 429.86 285.84 429.3 285.73L428.49 285.57C427.68 285.41 426.92 285.06 426.92 284.04C426.92 283.09 427.93 282.51 429.1 282.51C430.19 282.51 431.04 283.08 431.25 284.12ZM433.456 288H432.206V286.75H433.456V288ZM438.74 284.12H437.71C437.56 283.56 437.1 283.35 436.49 283.35C435.98 283.35 435.43 283.56 435.43 284C435.43 284.4 435.69 284.56 436.18 284.67L436.95 284.82C437.96 285.03 438.86 285.36 438.86 286.42C438.86 287.51 437.84 288.13 436.6 288.13C435.23 288.13 434.41 287.34 434.28 286.33H435.34C435.49 286.94 435.87 287.3 436.63 287.3C437.31 287.3 437.82 287.02 437.82 286.54C437.82 286.05 437.35 285.84 436.79 285.73L435.98 285.57C435.17 285.41 434.41 285.06 434.41 284.04C434.41 283.09 435.42 282.51 436.59 282.51C437.68 282.51 438.53 283.08 438.74 284.12ZM443.534 283.41V282.62H444.574V289.75H443.534V287.24C443.204 287.8 442.654 288.13 441.854 288.13C440.604 288.13 439.534 287.08 439.534 285.32C439.534 283.56 440.604 282.52 441.854 282.52C442.654 282.52 443.204 282.85 443.534 283.41ZM443.574 285.32C443.574 283.99 442.894 283.39 442.094 283.39C441.224 283.39 440.644 284.11 440.644 285.32C440.644 286.53 441.224 287.26 442.094 287.26C442.894 287.26 443.574 286.65 443.574 285.32ZM447.018 280.75V288H445.978V280.75H447.018Z" fill="#666666"/>
</svg>
