<svg width="750" height="420" viewBox="0 0 750 420" fill="none" xmlns="http://www.w3.org/2000/svg">
<path d="M10 0.5H343.5C348.747 0.5 353 4.75329 353 10V409.891C353 415.137 348.747 419.391 343.5 419.391H10C4.75329 419.391 0.5 415.137 0.5 409.891V10C0.500006 4.7533 4.7533 0.5 10 0.5Z" fill="#FAFAFA"/>
<path d="M10 0.5H343.5C348.747 0.5 353 4.75329 353 10V409.891C353 415.137 348.747 419.391 343.5 419.391H10C4.75329 419.391 0.5 415.137 0.5 409.891V10C0.500006 4.7533 4.7533 0.5 10 0.5Z" fill="#E6E6E6"/>
<path d="M10 0.5H343.5C348.747 0.5 353 4.75329 353 10V409.891C353 415.137 348.747 419.391 343.5 419.391H10C4.75329 419.391 0.5 415.137 0.5 409.891V10C0.500006 4.7533 4.7533 0.5 10 0.5Z" stroke="#D9D9D9"/>
<path d="M132.449 31.192H134.625C134.321 33.544 132.369 35.208 129.601 35.208C126.145 35.208 124.177 32.856 124.177 29.144C124.177 25.48 126.289 23.192 129.665 23.192C132.385 23.192 134.241 24.744 134.625 27.16H132.449C132.017 25.544 130.929 25.016 129.649 25.016C127.905 25.016 126.545 26.456 126.545 29.144C126.545 31.912 127.905 33.384 129.569 33.384C130.945 33.384 132.065 32.776 132.449 31.192ZM138.253 23.4V35H136.045V23.4H138.253ZM143.992 27.928C142.776 27.928 141.912 28.904 141.912 30.712C141.912 32.52 142.776 33.48 143.992 33.48C145.208 33.48 146.072 32.52 146.072 30.712C146.072 28.904 145.208 27.928 143.992 27.928ZM143.992 35.208C141.816 35.208 139.672 33.72 139.672 30.712C139.672 27.688 141.816 26.2 143.992 26.2C146.168 26.2 148.312 27.688 148.312 30.712C148.312 33.72 146.168 35.208 143.992 35.208ZM155.029 35V33.864C154.533 34.744 153.589 35.208 152.517 35.208C150.453 35.208 149.621 33.944 149.621 31.832V26.392H151.829V31.352C151.829 32.504 152.005 33.432 153.237 33.432C154.709 33.432 155.029 32.232 155.029 30.872V26.392H157.237V35H155.029ZM167.105 35H164.897V33.912C164.337 34.872 163.313 35.208 162.417 35.208C160.369 35.208 158.673 33.448 158.673 30.696C158.673 27.992 160.337 26.2 162.417 26.2C163.505 26.2 164.433 26.68 164.897 27.496V23.4H167.105V35ZM162.961 33.512C164.177 33.512 164.977 32.472 164.977 30.696C164.977 28.968 164.177 27.896 162.961 27.896C161.809 27.896 160.993 29.032 160.993 30.712C160.993 32.392 161.809 33.512 162.961 33.512ZM179.646 28.984H177.582C177.406 28.264 176.766 27.752 175.742 27.752C174.926 27.752 174.35 28.056 174.35 28.584C174.35 29.048 174.686 29.4 175.502 29.576L176.654 29.832C178.366 30.216 179.822 30.648 179.822 32.424C179.822 34.152 178.046 35.208 176.094 35.208C173.982 35.208 172.382 34.12 172.174 32.152H174.302C174.43 32.984 175.006 33.608 176.158 33.608C177.118 33.608 177.71 33.256 177.71 32.632C177.71 31.992 177.054 31.752 176.302 31.576L175.022 31.304C173.406 30.968 172.334 30.296 172.334 28.728C172.334 27.192 173.998 26.168 175.854 26.168C177.646 26.168 179.342 27 179.646 28.984ZM181.632 26.392V24.056H183.84V26.392H185.632V27.912H183.84V32.36C183.84 33.24 184.144 33.416 184.928 33.416H185.6V35H183.984C182 35 181.632 34.392 181.632 32.68V27.912H180.416V26.392H181.632ZM190.807 27.928C189.591 27.928 188.727 28.904 188.727 30.712C188.727 32.52 189.591 33.48 190.807 33.48C192.023 33.48 192.887 32.52 192.887 30.712C192.887 28.904 192.023 27.928 190.807 27.928ZM190.807 35.208C188.631 35.208 186.487 33.72 186.487 30.712C186.487 27.688 188.631 26.2 190.807 26.2C192.983 26.2 195.127 27.688 195.127 30.712C195.127 33.72 192.983 35.208 190.807 35.208ZM201.476 26.44V28.52C201.156 28.472 200.884 28.472 200.564 28.472C199.476 28.472 198.756 28.872 198.756 30.488V35H196.548V26.392H198.724V27.896C199.22 26.824 199.988 26.408 200.996 26.408C201.14 26.408 201.332 26.424 201.476 26.44ZM207.69 31.704V31.064C205.21 31.32 204.234 31.608 204.234 32.568C204.234 33.192 204.714 33.704 205.722 33.704C207.114 33.704 207.69 32.968 207.69 31.704ZM207.882 33.928C207.258 34.824 206.362 35.208 205.066 35.208C203.418 35.208 201.962 34.248 201.962 32.68C201.962 30.648 204.234 30.04 207.626 29.656V29.512C207.626 28.184 206.906 27.72 206.01 27.72C205.162 27.72 204.458 28.152 204.41 29.112H202.346C202.522 27.416 203.898 26.168 206.122 26.168C208.154 26.168 209.834 27.064 209.834 29.96C209.834 30.216 209.802 31.384 209.802 32.152C209.802 33.512 209.882 34.28 210.058 35H208.026C207.962 34.728 207.93 34.36 207.882 33.928ZM215.433 33.016C216.665 33.016 217.417 31.976 217.417 30.44C217.417 28.92 216.665 27.88 215.433 27.88C214.297 27.88 213.449 29.016 213.449 30.456C213.449 31.88 214.297 33.016 215.433 33.016ZM217.337 26.392H219.529V34.136C219.529 36.952 217.945 38.008 215.305 38.008C213.465 38.008 211.849 37.336 211.545 35.336H213.641C213.833 36.04 214.425 36.392 215.417 36.392C216.569 36.392 217.337 35.848 217.337 34.552V33.4C216.777 34.344 215.769 34.696 214.873 34.696C212.761 34.696 211.129 32.952 211.129 30.44C211.129 27.992 212.713 26.2 214.873 26.2C215.961 26.2 216.953 26.76 217.337 27.512V26.392ZM229.533 31.304H223.181C223.309 32.776 224.301 33.496 225.357 33.496C226.045 33.496 226.717 33.256 227.165 32.504H229.437C228.973 33.784 227.725 35.208 225.373 35.208C222.605 35.208 220.989 33.144 220.989 30.664C220.989 28.104 222.765 26.2 225.309 26.2C227.965 26.2 229.613 28.264 229.533 31.304ZM225.293 27.816C224.461 27.816 223.389 28.328 223.213 29.784H227.293C227.245 28.328 226.221 27.816 225.293 27.816Z" fill="#0D0D0D"/>
<path d="M127.25 317.876C128.642 317.072 130.358 317.072 131.75 317.876L172.751 341.548C175.751 343.28 175.751 347.611 172.751 349.343L131.75 373.015C130.358 373.818 128.642 373.818 127.25 373.015L86.25 349.343C83.25 347.611 83.25 343.28 86.25 341.548L127.25 317.876Z" fill="#F2F2F2" fill-opacity="0.6" stroke="#D9D9D9"/>
<path d="M118.797 343.544V344.492C119.193 343.832 119.865 343.424 120.813 343.424C122.313 343.424 123.597 344.684 123.597 346.784C123.597 348.896 122.313 350.156 120.813 350.156C119.865 350.156 119.193 349.748 118.797 349.088V352.1H117.549V343.544H118.797ZM120.525 349.112C121.557 349.112 122.265 348.236 122.265 346.784C122.265 345.332 121.557 344.468 120.525 344.468C119.565 344.468 118.749 345.188 118.749 346.784C118.749 348.38 119.565 349.112 120.525 349.112ZM124.454 348.26C124.454 346.688 126.302 346.268 128.81 346.004V345.872C128.81 344.732 128.21 344.348 127.418 344.348C126.554 344.348 126.062 344.792 126.014 345.584H124.754C124.862 344.216 125.99 343.388 127.466 343.388C129.134 343.388 130.094 344.192 130.07 346.124C130.07 346.28 130.046 347.396 130.046 347.672C130.046 348.632 130.106 349.424 130.226 350H129.026C128.978 349.748 128.942 349.556 128.918 349.148C128.534 349.796 127.802 350.156 126.758 350.156C125.45 350.156 124.454 349.436 124.454 348.26ZM128.87 346.928C126.866 347.12 125.81 347.396 125.81 348.236C125.81 348.824 126.278 349.196 127.034 349.196C128.066 349.196 128.87 348.68 128.87 347.396V346.928ZM134.971 344.828C134.743 344.804 134.527 344.792 134.323 344.792C133.363 344.792 132.859 345.26 132.859 346.616V350H131.611V343.544H132.835V344.684C133.171 343.952 133.819 343.532 134.623 343.52C134.731 343.52 134.863 343.52 134.971 343.532V344.828ZM140.198 343.544H141.446V352.1H140.198V349.088C139.802 349.748 139.13 350.156 138.182 350.156C136.682 350.156 135.398 348.896 135.398 346.784C135.398 344.684 136.682 343.424 138.182 343.424C139.13 343.424 139.802 343.832 140.198 344.492V343.544ZM138.47 344.468C137.438 344.468 136.73 345.332 136.73 346.784C136.73 348.236 137.438 349.112 138.47 349.112C139.43 349.112 140.246 348.38 140.246 346.784C140.246 345.188 139.43 344.468 138.47 344.468Z" fill="#666666"/>
<path d="M170.25 292.876C171.642 292.072 173.358 292.072 174.75 292.876L215.751 316.548C218.751 318.28 218.751 322.611 215.751 324.343L174.75 348.015C173.358 348.818 171.642 348.818 170.25 348.015L129.25 324.343C126.25 322.611 126.25 318.28 129.25 316.548L170.25 292.876Z" fill="#F2F2F2" fill-opacity="0.6" stroke="#D9D9D9"/>
<path d="M161.797 318.544V319.492C162.193 318.832 162.865 318.424 163.813 318.424C165.313 318.424 166.597 319.684 166.597 321.784C166.597 323.896 165.313 325.156 163.813 325.156C162.865 325.156 162.193 324.748 161.797 324.088V327.1H160.549V318.544H161.797ZM163.525 324.112C164.557 324.112 165.265 323.236 165.265 321.784C165.265 320.332 164.557 319.468 163.525 319.468C162.565 319.468 161.749 320.188 161.749 321.784C161.749 323.38 162.565 324.112 163.525 324.112ZM167.454 323.26C167.454 321.688 169.302 321.268 171.81 321.004V320.872C171.81 319.732 171.21 319.348 170.418 319.348C169.554 319.348 169.062 319.792 169.014 320.584H167.754C167.862 319.216 168.99 318.388 170.466 318.388C172.134 318.388 173.094 319.192 173.07 321.124C173.07 321.28 173.046 322.396 173.046 322.672C173.046 323.632 173.106 324.424 173.226 325H172.026C171.978 324.748 171.942 324.556 171.918 324.148C171.534 324.796 170.802 325.156 169.758 325.156C168.45 325.156 167.454 324.436 167.454 323.26ZM171.87 321.928C169.866 322.12 168.81 322.396 168.81 323.236C168.81 323.824 169.278 324.196 170.034 324.196C171.066 324.196 171.87 323.68 171.87 322.396V321.928ZM177.971 319.828C177.743 319.804 177.527 319.792 177.323 319.792C176.363 319.792 175.859 320.26 175.859 321.616V325H174.611V318.544H175.835V319.684C176.171 318.952 176.819 318.532 177.623 318.52C177.731 318.52 177.863 318.52 177.971 318.532V319.828ZM183.198 318.544H184.446V327.1H183.198V324.088C182.802 324.748 182.13 325.156 181.182 325.156C179.682 325.156 178.398 323.896 178.398 321.784C178.398 319.684 179.682 318.424 181.182 318.424C182.13 318.424 182.802 318.832 183.198 319.492V318.544ZM181.47 319.468C180.438 319.468 179.73 320.332 179.73 321.784C179.73 323.236 180.438 324.112 181.47 324.112C182.43 324.112 183.246 323.38 183.246 321.784C183.246 320.188 182.43 319.468 181.47 319.468Z" fill="#666666"/>
<path d="M146.062 279.644C146.062 277.34 144.682 277.028 143.182 277.028H142.33V282.272H143.182C144.682 282.272 146.062 281.948 146.062 279.644ZM140.278 275.3H143.146C145.99 275.3 148.234 276.344 148.234 279.644C148.234 282.956 145.99 284 143.146 284H140.278V275.3ZM153.095 279.968V279.716C153.095 278.948 152.723 278.684 152.003 278.684C151.367 278.684 150.935 279.008 150.851 279.632H149.003C149.099 278.42 150.251 277.34 152.171 277.34C154.031 277.34 155.087 278.096 155.051 280.052L155.027 281.456V282.128C155.027 282.836 155.075 283.592 155.171 284H153.227L153.203 283.22C152.723 283.904 151.955 284.156 151.031 284.156C149.807 284.156 148.799 283.436 148.799 282.26C148.799 280.676 150.587 280.16 153.095 279.968ZM153.143 281.288V281.132C151.763 281.264 150.839 281.42 150.839 282.116C150.839 282.536 151.235 282.812 151.751 282.812C152.543 282.812 153.143 282.476 153.143 281.288ZM156.62 277.544V275.78H158.6V277.544H160.016V278.948H158.6V281.84C158.6 282.452 158.792 282.572 159.452 282.572H160.016V284H158.756C157.16 284 156.62 283.688 156.62 282.188V278.948H155.6V277.544H156.62ZM165.013 279.968V279.716C165.013 278.948 164.641 278.684 163.921 278.684C163.285 278.684 162.853 279.008 162.769 279.632H160.921C161.017 278.42 162.169 277.34 164.089 277.34C165.949 277.34 167.005 278.096 166.969 280.052L166.945 281.456V282.128C166.945 282.836 166.993 283.592 167.089 284H165.145L165.121 283.22C164.641 283.904 163.873 284.156 162.949 284.156C161.725 284.156 160.717 283.436 160.717 282.26C160.717 280.676 162.505 280.16 165.013 279.968ZM165.061 281.288V281.132C163.681 281.264 162.757 281.42 162.757 282.116C162.757 282.536 163.153 282.812 163.669 282.812C164.461 282.812 165.061 282.476 165.061 281.288ZM170.888 284V275.3H177.296V277.1H172.94V278.624H177.032V280.436H172.94V284H170.888ZM177.987 277.544H179.979V284H177.987V277.544ZM177.987 275.3H179.967V276.884H177.987V275.3ZM183.377 275.3V284H181.397V275.3H183.377ZM189.344 281.972H191.168C190.592 283.496 189.236 284.156 187.952 284.156C185.852 284.156 184.412 282.884 184.412 280.736C184.412 278.672 185.984 277.352 187.868 277.352C190.016 277.352 191.324 278.972 191.192 281.276H186.404C186.464 282.188 187.172 282.62 187.892 282.62C188.648 282.62 189.116 282.356 189.344 281.972ZM187.868 278.864C187.16 278.864 186.536 279.224 186.428 280.076H189.224C189.188 279.26 188.624 278.864 187.868 278.864ZM198.057 279.44H196.209C196.077 278.96 195.573 278.816 194.949 278.816C194.265 278.816 193.917 278.972 193.917 279.296C193.917 279.596 194.145 279.764 194.709 279.872L195.909 280.088C197.457 280.376 198.201 280.832 198.201 281.972C198.201 283.424 196.869 284.156 195.081 284.156C193.377 284.156 192.141 283.412 191.913 281.9H193.749C193.929 282.524 194.421 282.716 195.105 282.716C195.813 282.716 196.305 282.524 196.305 282.14C196.305 281.852 196.053 281.672 195.297 281.54L194.145 281.348C192.897 281.144 192.045 280.52 192.045 279.368C192.045 278.084 193.401 277.376 194.997 277.376C196.473 277.376 197.805 277.964 198.057 279.44Z" fill="#666666"/>
<path d="M240.336 103.644C240.336 101.34 238.956 101.028 237.456 101.028H236.604V106.272H237.456C238.956 106.272 240.336 105.948 240.336 103.644ZM234.552 99.3H237.42C240.264 99.3 242.508 100.344 242.508 103.644C242.508 106.956 240.264 108 237.42 108H234.552V99.3ZM247.464 108V107.1C247.068 107.736 246.564 108.156 245.568 108.156C243.852 108.156 243.336 107.184 243.336 105.432V101.544H245.316V104.94C245.316 105.864 245.34 106.62 246.3 106.62C247.152 106.62 247.464 106.152 247.464 104.952V101.544H249.444V108H247.464ZM253.79 101.352C255.134 101.352 256.61 101.964 256.994 103.908H255.146C254.966 103.152 254.498 102.888 253.91 102.888C253.202 102.888 252.506 103.368 252.506 104.748C252.506 106.152 253.202 106.62 253.91 106.62C254.642 106.62 255.086 106.236 255.23 105.624H257.078C256.634 107.544 255.086 108.156 253.79 108.156C251.666 108.156 250.49 106.788 250.49 104.736C250.49 102.684 251.834 101.352 253.79 101.352ZM258.022 99.3H260.002V104.004L262.174 101.544H264.514L262.21 104.016L264.706 108H262.39L260.866 105.456L260.002 106.38V108H258.022V99.3ZM271.238 103.644C271.238 101.34 269.858 101.028 268.358 101.028H267.506V106.272H268.358C269.858 106.272 271.238 105.948 271.238 103.644ZM265.454 99.3H268.322C271.166 99.3 273.41 100.344 273.41 103.644C273.41 106.956 271.166 108 268.322 108H265.454V99.3ZM274.454 108V99.3H278.246C280.154 99.3 281.57 99.732 281.57 101.556C281.57 102.36 281.21 102.948 280.538 103.368C281.354 103.656 281.918 104.268 281.918 105.324C281.918 107.28 280.514 108 278.402 108H274.454ZM276.506 104.304V106.272H278.426C279.302 106.272 279.746 105.9 279.746 105.288C279.746 104.676 279.302 104.304 278.426 104.304H276.506ZM276.506 101.028V102.78H278.318C279.038 102.78 279.434 102.432 279.434 101.892C279.434 101.352 279.038 101.028 278.318 101.028H276.506ZM285.599 108V99.3H292.007V101.1H287.651V102.624H291.743V104.436H287.651V108H285.599ZM292.698 101.544H294.69V108H292.698V101.544ZM292.698 99.3H294.678V100.884H292.698V99.3ZM298.088 99.3V108H296.108V99.3H298.088ZM304.055 105.972H305.879C305.303 107.496 303.947 108.156 302.663 108.156C300.563 108.156 299.123 106.884 299.123 104.736C299.123 102.672 300.695 101.352 302.579 101.352C304.727 101.352 306.035 102.972 305.903 105.276H301.115C301.175 106.188 301.883 106.62 302.603 106.62C303.359 106.62 303.827 106.356 304.055 105.972ZM302.579 102.864C301.871 102.864 301.247 103.224 301.139 104.076H303.935C303.899 103.26 303.335 102.864 302.579 102.864Z" fill="#666666"/>
<path d="M213.25 317.876C214.642 317.072 216.358 317.072 217.75 317.876L258.751 341.548C261.751 343.28 261.751 347.611 258.751 349.343L217.75 373.015C216.358 373.818 214.642 373.818 213.25 373.015L172.25 349.343C169.25 347.611 169.25 343.28 172.25 341.548L213.25 317.876Z" fill="#F2F2F2" fill-opacity="0.6" stroke="#D9D9D9"/>
<path d="M204.797 343.544V344.492C205.193 343.832 205.865 343.424 206.813 343.424C208.313 343.424 209.597 344.684 209.597 346.784C209.597 348.896 208.313 350.156 206.813 350.156C205.865 350.156 205.193 349.748 204.797 349.088V352.1H203.549V343.544H204.797ZM206.525 349.112C207.557 349.112 208.265 348.236 208.265 346.784C208.265 345.332 207.557 344.468 206.525 344.468C205.565 344.468 204.749 345.188 204.749 346.784C204.749 348.38 205.565 349.112 206.525 349.112ZM210.454 348.26C210.454 346.688 212.302 346.268 214.81 346.004V345.872C214.81 344.732 214.21 344.348 213.418 344.348C212.554 344.348 212.062 344.792 212.014 345.584H210.754C210.862 344.216 211.99 343.388 213.466 343.388C215.134 343.388 216.094 344.192 216.07 346.124C216.07 346.28 216.046 347.396 216.046 347.672C216.046 348.632 216.106 349.424 216.226 350H215.026C214.978 349.748 214.942 349.556 214.918 349.148C214.534 349.796 213.802 350.156 212.758 350.156C211.45 350.156 210.454 349.436 210.454 348.26ZM214.87 346.928C212.866 347.12 211.81 347.396 211.81 348.236C211.81 348.824 212.278 349.196 213.034 349.196C214.066 349.196 214.87 348.68 214.87 347.396V346.928ZM220.971 344.828C220.743 344.804 220.527 344.792 220.323 344.792C219.363 344.792 218.859 345.26 218.859 346.616V350H217.611V343.544H218.835V344.684C219.171 343.952 219.819 343.532 220.623 343.52C220.731 343.52 220.863 343.52 220.971 343.532V344.828ZM226.198 343.544H227.446V352.1H226.198V349.088C225.802 349.748 225.13 350.156 224.182 350.156C222.682 350.156 221.398 348.896 221.398 346.784C221.398 344.684 222.682 343.424 224.182 343.424C225.13 343.424 225.802 343.832 226.198 344.492V343.544ZM224.47 344.468C223.438 344.468 222.73 345.332 222.73 346.784C222.73 348.236 223.438 349.112 224.47 349.112C225.43 349.112 226.246 348.38 226.246 346.784C226.246 345.188 225.43 344.468 224.47 344.468Z" fill="#666666"/>
<path d="M170.25 342.876C171.642 342.072 173.358 342.072 174.75 342.876L215.751 366.548C218.751 368.28 218.751 372.611 215.751 374.343L174.75 398.015C173.358 398.818 171.642 398.818 170.25 398.015L129.25 374.343C126.25 372.611 126.25 368.28 129.25 366.548L170.25 342.876Z" fill="#F2F2F2" fill-opacity="0.6" stroke="#D9D9D9"/>
<path d="M161.797 368.544V369.492C162.193 368.832 162.865 368.424 163.813 368.424C165.313 368.424 166.597 369.684 166.597 371.784C166.597 373.896 165.313 375.156 163.813 375.156C162.865 375.156 162.193 374.748 161.797 374.088V377.1H160.549V368.544H161.797ZM163.525 374.112C164.557 374.112 165.265 373.236 165.265 371.784C165.265 370.332 164.557 369.468 163.525 369.468C162.565 369.468 161.749 370.188 161.749 371.784C161.749 373.38 162.565 374.112 163.525 374.112ZM167.454 373.26C167.454 371.688 169.302 371.268 171.81 371.004V370.872C171.81 369.732 171.21 369.348 170.418 369.348C169.554 369.348 169.062 369.792 169.014 370.584H167.754C167.862 369.216 168.99 368.388 170.466 368.388C172.134 368.388 173.094 369.192 173.07 371.124C173.07 371.28 173.046 372.396 173.046 372.672C173.046 373.632 173.106 374.424 173.226 375H172.026C171.978 374.748 171.942 374.556 171.918 374.148C171.534 374.796 170.802 375.156 169.758 375.156C168.45 375.156 167.454 374.436 167.454 373.26ZM171.87 371.928C169.866 372.12 168.81 372.396 168.81 373.236C168.81 373.824 169.278 374.196 170.034 374.196C171.066 374.196 171.87 373.68 171.87 372.396V371.928ZM177.971 369.828C177.743 369.804 177.527 369.792 177.323 369.792C176.363 369.792 175.859 370.26 175.859 371.616V375H174.611V368.544H175.835V369.684C176.171 368.952 176.819 368.532 177.623 368.52C177.731 368.52 177.863 368.52 177.971 368.532V369.828ZM183.198 368.544H184.446V377.1H183.198V374.088C182.802 374.748 182.13 375.156 181.182 375.156C179.682 375.156 178.398 373.896 178.398 371.784C178.398 369.684 179.682 368.424 181.182 368.424C182.13 368.424 182.802 368.832 183.198 369.492V368.544ZM181.47 369.468C180.438 369.468 179.73 370.332 179.73 371.784C179.73 373.236 180.438 374.112 181.47 374.112C182.43 374.112 183.246 373.38 183.246 371.784C183.246 370.188 182.43 369.468 181.47 369.468Z" fill="#666666"/>
<path d="M67 181C67 180.724 67.2239 180.5 67.5 180.5C67.7761 180.5 68 180.724 68 181L67.5 181L67 181ZM123.854 303.854C123.658 304.049 123.342 304.049 123.147 303.854L119.965 300.672C119.769 300.476 119.769 300.16 119.965 299.964C120.16 299.769 120.477 299.769 120.672 299.964L123.5 302.793L126.329 299.964C126.524 299.769 126.84 299.769 127.036 299.964C127.231 300.16 127.231 300.476 127.036 300.672L123.854 303.854ZM67.5 192.5L67 192.5L67.5 192.5ZM67.5 181L68 181L68 192.5L67.5 192.5L67 192.5L67 181L67.5 181ZM123.5 212.5L124 212.5L124 303.5L123.5 303.5L123 303.5L123 212.5L123.5 212.5ZM77.5 202.5L77.5 202L113.5 202L113.5 202.5L113.5 203L77.5 203L77.5 202.5ZM123.5 212.5L123 212.5C123 207.253 118.747 203 113.5 203L113.5 202.5L113.5 202C119.299 202 124 206.701 124 212.5L123.5 212.5ZM67.5 192.5L68 192.5C68 197.747 72.2533 202 77.5 202L77.5 202.5L77.5 203C71.701 203 67 198.299 67 192.5L67.5 192.5Z" fill="#CCCCCC"/>
<path d="M268 181C268 180.724 267.776 180.5 267.5 180.5C267.224 180.5 267 180.724 267 181L267.5 181L268 181ZM211.146 303.854C211.342 304.049 211.658 304.049 211.853 303.854L215.035 300.672C215.231 300.476 215.231 300.16 215.035 299.964C214.84 299.769 214.523 299.769 214.328 299.964L211.5 302.793L208.671 299.964C208.476 299.769 208.16 299.769 207.964 299.964C207.769 300.16 207.769 300.476 207.964 300.672L211.146 303.854ZM267.5 192.5L268 192.5L267.5 192.5ZM267.5 181L267 181L267 192.5L267.5 192.5L268 192.5L268 181L267.5 181ZM211.5 212.5L211 212.5L211 303.5L211.5 303.5L212 303.5L212 212.5L211.5 212.5ZM257.5 202.5L257.5 202L221.5 202L221.5 202.5L221.5 203L257.5 203L257.5 202.5ZM211.5 212.5L212 212.5C212 207.253 216.253 203 221.5 203L221.5 202.5L221.5 202C215.701 202 211 206.701 211 212.5L211.5 212.5ZM267.5 192.5L267 192.5C267 197.747 262.747 202 257.5 202L257.5 202.5L257.5 203C263.299 203 268 198.299 268 192.5L267.5 192.5Z" fill="#CCCCCC"/>
<rect width="62" height="17" transform="translate(93 225)" fill="#E6E6E6"/>
<rect width="62" height="17" transform="translate(93 225)" fill="#E6E6E6"/>
<path d="M113.242 231.12H114.322L115.322 235.02L116.242 231.12H117.372L115.872 236.5H114.902L113.772 232.34L112.672 236.5H111.692L110.202 231.12H111.332L112.242 235.02L113.242 231.12ZM120.918 232.19C120.728 232.17 120.548 232.16 120.378 232.16C119.578 232.16 119.158 232.55 119.158 233.68V236.5H118.118V231.12H119.138V232.07C119.418 231.46 119.958 231.11 120.628 231.1C120.718 231.1 120.828 231.1 120.918 231.11V232.19ZM122.781 229.25V230.4H121.741V229.25H122.781ZM122.781 231.12V236.5H121.741V231.12H122.781ZM124.392 229.74H125.432V231.12H126.492V231.91H125.432V234.98C125.432 235.53 125.522 235.67 126.042 235.67H126.482V236.5H125.722C124.632 236.5 124.392 236.23 124.392 235.12V231.91H123.572V231.12H124.392V229.74ZM131.134 234.92H132.184C131.934 235.81 131.134 236.63 129.764 236.63C128.024 236.63 127.084 235.36 127.084 233.8C127.084 232.13 128.204 231.02 129.734 231.02C131.394 231.02 132.364 232.38 132.254 234.13H128.154C128.254 235.12 128.884 235.74 129.724 235.74C130.474 235.74 130.914 235.43 131.134 234.92ZM128.174 233.31H131.174C131.144 232.51 130.584 231.87 129.724 231.87C128.914 231.87 128.314 232.29 128.174 233.31ZM136.354 232.62C136.204 232.07 135.744 231.85 135.134 231.85C134.624 231.85 134.074 232.06 134.074 232.5C134.074 232.9 134.334 233.07 134.824 233.17L135.594 233.32C136.614 233.52 137.504 233.87 137.504 234.92C137.504 236.01 136.484 236.63 135.244 236.63C133.884 236.63 133.054 235.84 132.924 234.83H133.984C134.124 235.44 134.524 235.8 135.274 235.8C135.944 235.8 136.464 235.52 136.464 235.04C136.464 234.54 135.994 234.34 135.434 234.23L134.624 234.07C133.814 233.91 133.054 233.55 133.054 232.54C133.054 231.59 134.054 231.01 135.234 231.01C136.314 231.01 137.184 231.58 137.384 232.62H136.354Z" fill="#B2B2B2"/>
<rect width="85" height="17" transform="translate(168 225)" fill="#E6E6E6"/>
<rect width="85" height="17" transform="translate(168 225)" fill="#E6E6E6"/>
<path d="M188.873 232.19C188.683 232.17 188.503 232.16 188.333 232.16C187.533 232.16 187.113 232.55 187.113 233.68V236.5H186.073V231.12H187.093V232.07C187.373 231.46 187.913 231.11 188.583 231.1C188.673 231.1 188.783 231.1 188.873 231.11V232.19ZM193.278 234.92H194.328C194.078 235.81 193.278 236.63 191.908 236.63C190.168 236.63 189.228 235.36 189.228 233.8C189.228 232.13 190.348 231.02 191.878 231.02C193.538 231.02 194.508 232.38 194.398 234.13H190.298C190.398 235.12 191.028 235.74 191.868 235.74C192.618 235.74 193.058 235.43 193.278 234.92ZM190.318 233.31H193.318C193.288 232.51 192.728 231.87 191.868 231.87C191.058 231.87 190.458 232.29 190.318 233.31ZM195.706 230.76C195.706 229.57 196.056 229.25 197.316 229.25H197.786V230.08H197.386C196.856 230.08 196.746 230.19 196.746 230.75V231.12H197.786V231.91H196.746V236.5H195.706V231.91H194.956V231.12H195.706V230.76ZM202.282 234.92H203.332C203.082 235.81 202.282 236.63 200.912 236.63C199.172 236.63 198.232 235.36 198.232 233.8C198.232 232.13 199.352 231.02 200.882 231.02C202.542 231.02 203.512 232.38 203.402 234.13H199.302C199.402 235.12 200.032 235.74 200.872 235.74C201.622 235.74 202.062 235.43 202.282 234.92ZM199.322 233.31H202.322C202.292 232.51 201.732 231.87 200.872 231.87C200.062 231.87 199.462 232.29 199.322 233.31ZM207.223 232.19C207.033 232.17 206.853 232.16 206.683 232.16C205.883 232.16 205.463 232.55 205.463 233.68V236.5H204.423V231.12H205.443V232.07C205.723 231.46 206.263 231.11 206.933 231.1C207.023 231.1 207.133 231.1 207.223 231.11V232.19ZM211.628 234.92H212.678C212.428 235.81 211.628 236.63 210.258 236.63C208.518 236.63 207.578 235.36 207.578 233.8C207.578 232.13 208.698 231.02 210.228 231.02C211.888 231.02 212.858 232.38 212.748 234.13H208.648C208.748 235.12 209.378 235.74 210.218 235.74C210.968 235.74 211.408 235.43 211.628 234.92ZM208.668 233.31H211.668C211.638 232.51 211.078 231.87 210.218 231.87C209.408 231.87 208.808 232.29 208.668 233.31ZM214.808 231.9C215.118 231.37 215.658 231.02 216.498 231.02C217.798 231.02 218.298 231.86 218.298 233.11V236.5H217.258V233.39C217.258 232.61 217.128 231.89 216.148 231.89C215.248 231.89 214.808 232.54 214.808 233.61V236.5H213.768V231.12H214.808V231.9ZM224.158 232.94H223.118C223.008 232.33 222.458 231.91 221.778 231.91C221.028 231.91 220.338 232.5 220.338 233.81C220.338 235.14 221.038 235.74 221.778 235.74C222.438 235.74 223.018 235.35 223.158 234.71H224.208C223.998 235.84 222.948 236.63 221.758 236.63C220.208 236.63 219.228 235.44 219.228 233.82C219.228 232.22 220.238 231.02 221.828 231.02C223.058 231.02 223.998 231.89 224.158 232.94ZM228.913 234.92H229.963C229.713 235.81 228.913 236.63 227.543 236.63C225.803 236.63 224.863 235.36 224.863 233.8C224.863 232.13 225.983 231.02 227.513 231.02C229.173 231.02 230.143 232.38 230.033 234.13H225.933C226.033 235.12 226.663 235.74 227.503 235.74C228.253 235.74 228.693 235.43 228.913 234.92ZM225.953 233.31H228.953C228.923 232.51 228.363 231.87 227.503 231.87C226.693 231.87 226.093 232.29 225.953 233.31ZM234.133 232.62C233.983 232.07 233.523 231.85 232.913 231.85C232.403 231.85 231.853 232.06 231.853 232.5C231.853 232.9 232.113 233.07 232.603 233.17L233.373 233.32C234.393 233.52 235.283 233.87 235.283 234.92C235.283 236.01 234.263 236.63 233.023 236.63C231.663 236.63 230.833 235.84 230.703 234.83H231.763C231.903 235.44 232.303 235.8 233.053 235.8C233.723 235.8 234.243 235.52 234.243 235.04C234.243 234.54 233.773 234.34 233.213 234.23L232.403 234.07C231.593 233.91 230.833 233.55 230.833 232.54C230.833 231.59 231.833 231.01 233.013 231.01C234.093 231.01 234.963 231.58 235.163 232.62H234.133Z" fill="#B2B2B2"/>
<rect x="20.5" y="122.5" width="93" height="58" rx="29" fill="white"/>
<rect x="20.5" y="122.5" width="93" height="58" rx="29" stroke="#D9D9D9"/>
<path d="M38.4493 147.3C41.2093 147.3 43.2493 148.296 43.2493 151.644C43.2493 155.004 41.2093 156 38.4493 156H36.0733V147.3H38.4493ZM38.3893 148.428H37.4413V154.872H38.3893C40.1293 154.872 41.8333 154.512 41.8333 151.644C41.8333 148.788 40.1293 148.428 38.3893 148.428ZM44.206 154.26C44.206 152.688 46.054 152.268 48.562 152.004V151.872C48.562 150.732 47.962 150.348 47.17 150.348C46.306 150.348 45.814 150.792 45.766 151.584H44.506C44.614 150.216 45.742 149.388 47.218 149.388C48.886 149.388 49.846 150.192 49.822 152.124C49.822 152.28 49.798 153.396 49.798 153.672C49.798 154.632 49.858 155.424 49.978 156H48.778C48.73 155.748 48.694 155.556 48.67 155.148C48.286 155.796 47.554 156.156 46.51 156.156C45.202 156.156 44.206 155.436 44.206 154.26ZM48.622 152.928C46.618 153.12 45.562 153.396 45.562 154.236C45.562 154.824 46.03 155.196 46.786 155.196C47.818 155.196 48.622 154.68 48.622 153.396V152.928ZM51.6154 147.888H52.8634V149.544H54.1354V150.492H52.8634V154.176C52.8634 154.836 52.9714 155.004 53.5954 155.004H54.1234V156H53.2114C51.9034 156 51.6154 155.676 51.6154 154.344V150.492H50.6314V149.544H51.6154V147.888ZM54.9638 154.26C54.9638 152.688 56.8118 152.268 59.3198 152.004V151.872C59.3198 150.732 58.7198 150.348 57.9278 150.348C57.0638 150.348 56.5718 150.792 56.5238 151.584H55.2638C55.3718 150.216 56.4998 149.388 57.9758 149.388C59.6438 149.388 60.6038 150.192 60.5798 152.124C60.5798 152.28 60.5558 153.396 60.5558 153.672C60.5558 154.632 60.6158 155.424 60.7358 156H59.5358C59.4878 155.748 59.4518 155.556 59.4278 155.148C59.0438 155.796 58.3118 156.156 57.2678 156.156C55.9598 156.156 54.9638 155.436 54.9638 154.26ZM59.3798 152.928C57.3758 153.12 56.3198 153.396 56.3198 154.236C56.3198 154.824 56.7878 155.196 57.5438 155.196C58.5758 155.196 59.3798 154.68 59.3798 153.396V152.928ZM66.4218 156H65.0538V147.3H66.4218V156ZM69.4747 150.48C69.8467 149.844 70.4947 149.424 71.5027 149.424C73.0627 149.424 73.6627 150.432 73.6627 151.932V156H72.4147V152.268C72.4147 151.332 72.2587 150.468 71.0827 150.468C70.0027 150.468 69.4747 151.248 69.4747 152.532V156H68.2267V149.544H69.4747V150.48ZM79.5188 149.544H80.7668V155.244C80.7668 156.432 80.5148 157.068 80.0708 157.512C79.5788 158.028 78.7988 158.292 77.8148 158.292C76.3748 158.292 75.3188 157.668 75.1148 156.312H76.3988C76.5308 156.9 76.9028 157.248 77.8388 157.248C78.4508 157.248 78.8708 157.08 79.1348 156.78C79.3868 156.504 79.5188 156.168 79.5188 155.508V154.824C79.1228 155.484 78.4748 155.892 77.5268 155.892C76.0268 155.892 74.7788 154.704 74.7788 152.652C74.7788 150.612 76.0268 149.424 77.5268 149.424C78.4748 149.424 79.1228 149.832 79.5188 150.492V149.544ZM77.8148 150.456C76.7828 150.456 76.1108 151.272 76.1108 152.652C76.1108 154.056 76.7828 154.872 77.8148 154.872C78.7748 154.872 79.5668 154.2 79.5668 152.652C79.5668 151.116 78.7748 150.456 77.8148 150.456ZM86.8458 154.104H88.1058C87.8058 155.172 86.8458 156.156 85.2018 156.156C83.1138 156.156 81.9858 154.632 81.9858 152.76C81.9858 150.756 83.3298 149.424 85.1658 149.424C87.1578 149.424 88.3218 151.056 88.1898 153.156H83.2698C83.3898 154.344 84.1458 155.088 85.1538 155.088C86.0538 155.088 86.5818 154.716 86.8458 154.104ZM83.2938 152.172H86.8938C86.8578 151.212 86.1858 150.444 85.1538 150.444C84.1818 150.444 83.4618 150.948 83.2938 152.172ZM93.1097 151.344C92.9297 150.684 92.3777 150.42 91.6457 150.42C91.0337 150.42 90.3737 150.672 90.3737 151.2C90.3737 151.68 90.6857 151.884 91.2737 152.004L92.1977 152.184C93.4217 152.424 94.4897 152.844 94.4897 154.104C94.4897 155.412 93.2657 156.156 91.7777 156.156C90.1457 156.156 89.1497 155.208 88.9937 153.996H90.2657C90.4337 154.728 90.9137 155.16 91.8137 155.16C92.6177 155.16 93.2417 154.824 93.2417 154.248C93.2417 153.648 92.6777 153.408 92.0057 153.276L91.0337 153.084C90.0617 152.892 89.1497 152.46 89.1497 151.248C89.1497 150.108 90.3497 149.412 91.7657 149.412C93.0617 149.412 94.1057 150.096 94.3457 151.344H93.1097ZM95.9943 147.888H97.2423V149.544H98.5143V150.492H97.2423V154.176C97.2423 154.836 97.3503 155.004 97.9743 155.004H98.5023V156H97.5903C96.2823 156 95.9943 155.676 95.9943 154.344V150.492H95.0103V149.544H95.9943V147.888Z" fill="#666666"/>
<rect x="199" y="122.5" width="134" height="58" rx="9.5" fill="white"/>
<rect x="199" y="122.5" width="134" height="58" rx="9.5" stroke="#D9D9D9"/>
<path d="M215.986 156H214.738V149.544H215.986V150.48C216.358 149.844 216.97 149.424 217.894 149.424C218.89 149.424 219.478 149.844 219.766 150.564C220.306 149.76 221.062 149.424 221.902 149.424C223.414 149.424 224.002 150.432 224.002 151.932V156H222.754V152.268C222.754 151.332 222.61 150.468 221.482 150.468C220.498 150.468 219.994 151.248 219.994 152.532V156H218.746V152.268C218.746 151.332 218.602 150.468 217.474 150.468C216.478 150.468 215.986 151.248 215.986 152.532V156ZM225.196 158.1V157.104H225.688C226.36 157.104 226.648 157.056 226.96 156.132L227.008 155.988L224.68 149.544H226.06L227.62 154.356L229.144 149.544H230.44L228.16 156.144C227.632 157.668 227.248 158.1 225.796 158.1H225.196ZM231.513 149.112C231.513 147.684 231.933 147.3 233.445 147.3H234.009V148.296H233.529C232.893 148.296 232.761 148.428 232.761 149.1V149.544H234.009V150.492H232.761V156H231.513V150.492H230.613V149.544H231.513V149.112ZM238.466 150.828C238.238 150.804 238.022 150.792 237.818 150.792C236.858 150.792 236.354 151.26 236.354 152.616V156H235.106V149.544H236.33V150.684C236.666 149.952 237.314 149.532 238.118 149.52C238.226 149.52 238.358 149.52 238.466 149.532V150.828ZM245.18 152.796C245.18 155.124 243.572 156.156 242.036 156.156C240.512 156.156 238.904 155.124 238.904 152.796C238.904 150.456 240.512 149.424 242.036 149.424C243.572 149.424 245.18 150.456 245.18 152.796ZM242.036 155.1C242.984 155.1 243.86 154.368 243.86 152.796C243.86 151.188 242.984 150.48 242.036 150.48C241.1 150.48 240.224 151.164 240.224 152.796C240.224 154.392 241.1 155.1 242.036 155.1ZM245.946 154.98L249.546 150.564H246.186V149.544H251.058V150.564L247.458 154.98H251.13V156H245.946V154.98ZM256.736 154.104H257.996C257.696 155.172 256.736 156.156 255.092 156.156C253.004 156.156 251.876 154.632 251.876 152.76C251.876 150.756 253.22 149.424 255.056 149.424C257.048 149.424 258.212 151.056 258.08 153.156H253.16C253.28 154.344 254.036 155.088 255.044 155.088C255.944 155.088 256.472 154.716 256.736 154.104ZM253.184 152.172H256.784C256.748 151.212 256.076 150.444 255.044 150.444C254.072 150.444 253.352 150.948 253.184 152.172ZM260.553 150.48C260.925 149.844 261.573 149.424 262.581 149.424C264.141 149.424 264.741 150.432 264.741 151.932V156H263.493V152.268C263.493 151.332 263.337 150.468 262.161 150.468C261.081 150.468 260.553 151.248 260.553 152.532V156H259.305V149.544H260.553V150.48ZM266.263 156V154.5H267.763V156H266.263ZM273.434 147.3H274.682V156H273.434V155.088C273.038 155.748 272.366 156.156 271.418 156.156C269.918 156.156 268.634 154.896 268.634 152.784C268.634 150.684 269.918 149.424 271.418 149.424C272.366 149.424 273.038 149.832 273.434 150.492V147.3ZM271.706 150.468C270.674 150.468 269.966 151.332 269.966 152.784C269.966 154.236 270.674 155.112 271.706 155.112C272.666 155.112 273.482 154.38 273.482 152.784C273.482 151.188 272.666 150.468 271.706 150.468ZM280.351 155.088C279.979 155.736 279.355 156.156 278.383 156.156C276.859 156.156 276.271 155.208 276.271 153.648V149.544H277.519V153.312C277.519 154.248 277.675 155.1 278.803 155.1C279.847 155.1 280.363 154.32 280.363 153.048V149.544H281.611V156H280.351V155.088ZM288.753 151.728H287.505C287.373 150.996 286.713 150.492 285.897 150.492C284.997 150.492 284.169 151.2 284.169 152.772C284.169 154.368 285.009 155.088 285.897 155.088C286.689 155.088 287.385 154.62 287.553 153.852H288.813C288.561 155.208 287.301 156.156 285.873 156.156C284.013 156.156 282.837 154.728 282.837 152.784C282.837 150.864 284.049 149.424 285.957 149.424C287.433 149.424 288.561 150.468 288.753 151.728ZM291.233 147.3V152.304L293.801 149.544H295.325L292.817 152.208L295.505 156H294.017L291.965 153.108L291.233 153.888V156H289.985V147.3H291.233ZM297.455 156H296.207V147.3H297.455V156ZM298.753 154.26C298.753 152.688 300.601 152.268 303.109 152.004V151.872C303.109 150.732 302.509 150.348 301.717 150.348C300.853 150.348 300.361 150.792 300.313 151.584H299.053C299.161 150.216 300.289 149.388 301.765 149.388C303.433 149.388 304.393 150.192 304.369 152.124C304.369 152.28 304.345 153.396 304.345 153.672C304.345 154.632 304.405 155.424 304.525 156H303.325C303.277 155.748 303.241 155.556 303.217 155.148C302.833 155.796 302.101 156.156 301.057 156.156C299.749 156.156 298.753 155.436 298.753 154.26ZM303.169 152.928C301.165 153.12 300.109 153.396 300.109 154.236C300.109 154.824 300.577 155.196 301.333 155.196C302.365 155.196 303.169 154.68 303.169 153.396V152.928ZM307.158 147.3V152.304L309.726 149.544H311.25L308.742 152.208L311.43 156H309.942L307.89 153.108L307.158 153.888V156H305.91V147.3H307.158ZM316.373 154.104H317.633C317.333 155.172 316.373 156.156 314.729 156.156C312.641 156.156 311.513 154.632 311.513 152.76C311.513 150.756 312.857 149.424 314.693 149.424C316.685 149.424 317.849 151.056 317.717 153.156H312.797C312.917 154.344 313.673 155.088 314.681 155.088C315.581 155.088 316.109 154.716 316.373 154.104ZM312.821 152.172H316.421C316.385 151.212 315.713 150.444 314.681 150.444C313.709 150.444 312.989 150.948 312.821 152.172Z" fill="#666666"/>
<path d="M373.5 0.5H568.5C573.747 0.5 578 4.75329 578 10V409.891C578 415.137 573.747 419.391 568.5 419.391H373.5C368.253 419.391 364 415.137 364 409.891V10C364 4.7533 368.253 0.5 373.5 0.5Z" fill="#FAFAFA"/>
<path d="M373.5 0.5H568.5C573.747 0.5 578 4.75329 578 10V409.891C578 415.137 573.747 419.391 568.5 419.391H373.5C368.253 419.391 364 415.137 364 409.891V10C364 4.7533 368.253 0.5 373.5 0.5Z" fill="#E6E6E6"/>
<path d="M373.5 0.5H568.5C573.747 0.5 578 4.75329 578 10V409.891C578 415.137 573.747 419.391 568.5 419.391H373.5C368.253 419.391 364 415.137 364 409.891V10C364 4.7533 368.253 0.5 373.5 0.5Z" stroke="#D9D9D9"/>
<path d="M413.292 26.192H415.468C415.164 28.544 413.212 30.208 410.444 30.208C406.988 30.208 405.02 27.856 405.02 24.144C405.02 20.48 407.132 18.192 410.508 18.192C413.228 18.192 415.084 19.744 415.468 22.16H413.292C412.86 20.544 411.772 20.016 410.492 20.016C408.748 20.016 407.388 21.456 407.388 24.144C407.388 26.912 408.748 28.384 410.412 28.384C411.788 28.384 412.908 27.776 413.292 26.192ZM419.096 18.4V30H416.888V18.4H419.096ZM421.091 21.392H423.299V30H421.091V21.392ZM421.091 18.4H423.299V20.448H421.091V18.4ZM433.279 26.304H426.927C427.055 27.776 428.047 28.496 429.103 28.496C429.791 28.496 430.463 28.256 430.911 27.504H433.183C432.719 28.784 431.471 30.208 429.119 30.208C426.351 30.208 424.735 28.144 424.735 25.664C424.735 23.104 426.511 21.2 429.055 21.2C431.711 21.2 433.359 23.264 433.279 26.304ZM429.039 22.816C428.207 22.816 427.135 23.328 426.959 24.784H431.039C430.991 23.328 429.967 22.816 429.039 22.816ZM436.925 21.392V22.528C437.421 21.648 438.349 21.2 439.421 21.2C441.485 21.2 442.397 22.448 442.397 24.576V30H440.189V25.056C440.189 23.952 439.949 22.976 438.701 22.976C437.245 22.976 436.925 24.16 436.925 25.52V30H434.717V21.392H436.925ZM444.568 21.392V19.056H446.776V21.392H448.568V22.912H446.776V27.36C446.776 28.24 447.08 28.416 447.864 28.416H448.536V30H446.92C444.936 30 444.568 29.392 444.568 27.68V22.912H443.352V21.392H444.568ZM461.545 26.192H463.721C463.417 28.544 461.465 30.208 458.697 30.208C455.241 30.208 453.273 27.856 453.273 24.144C453.273 20.48 455.385 18.192 458.761 18.192C461.481 18.192 463.337 19.744 463.721 22.16H461.545C461.113 20.544 460.025 20.016 458.745 20.016C457.001 20.016 455.641 21.456 455.641 24.144C455.641 26.912 457.001 28.384 458.665 28.384C460.041 28.384 461.161 27.776 461.545 26.192ZM469.119 22.928C467.903 22.928 467.039 23.904 467.039 25.712C467.039 27.52 467.903 28.48 469.119 28.48C470.335 28.48 471.199 27.52 471.199 25.712C471.199 23.904 470.335 22.928 469.119 22.928ZM469.119 30.208C466.943 30.208 464.799 28.72 464.799 25.712C464.799 22.688 466.943 21.2 469.119 21.2C471.295 21.2 473.439 22.688 473.439 25.712C473.439 28.72 471.295 30.208 469.119 30.208ZM485.452 30V24.992C485.452 24.048 485.372 22.976 484.076 22.976C482.604 22.976 482.364 24.208 482.364 25.52V30H480.156V24.992C480.156 24.048 480.076 22.976 478.78 22.976C477.308 22.976 477.068 24.208 477.068 25.52V30H474.86V21.392H477.068V22.528C477.564 21.68 478.428 21.2 479.468 21.2C480.924 21.2 481.58 21.984 481.916 22.608C482.604 21.648 483.452 21.2 484.748 21.2C486.908 21.2 487.66 22.544 487.66 24.576V30H485.452ZM493.676 28.512C494.828 28.512 495.644 27.392 495.644 25.712C495.644 24.032 494.828 22.896 493.676 22.896C492.46 22.896 491.66 23.968 491.66 25.696C491.66 27.472 492.46 28.512 493.676 28.512ZM491.74 32.8H489.532V21.392H491.74V22.496C492.204 21.68 493.132 21.2 494.22 21.2C496.3 21.2 497.964 22.992 497.964 25.696C497.964 28.448 496.252 30.208 494.204 30.208C493.308 30.208 492.3 29.872 491.74 28.912V32.8ZM504.703 30V28.864C504.207 29.744 503.263 30.208 502.191 30.208C500.127 30.208 499.295 28.944 499.295 26.832V21.392H501.503V26.352C501.503 27.504 501.679 28.432 502.911 28.432C504.383 28.432 504.703 27.232 504.703 25.872V21.392H506.911V30H504.703ZM509.212 21.392V19.056H511.42V21.392H513.212V22.912H511.42V27.36C511.42 28.24 511.724 28.416 512.508 28.416H513.18V30H511.564C509.58 30 509.212 29.392 509.212 27.68V22.912H507.996V21.392H509.212ZM522.626 26.304H516.274C516.402 27.776 517.394 28.496 518.45 28.496C519.138 28.496 519.81 28.256 520.258 27.504H522.53C522.066 28.784 520.818 30.208 518.466 30.208C515.698 30.208 514.082 28.144 514.082 25.664C514.082 23.104 515.858 21.2 518.402 21.2C521.058 21.2 522.706 23.264 522.626 26.304ZM518.386 22.816C517.554 22.816 516.482 23.328 516.306 24.784H520.386C520.338 23.328 519.314 22.816 518.386 22.816ZM528.993 21.44V23.52C528.673 23.472 528.401 23.472 528.081 23.472C526.993 23.472 526.273 23.872 526.273 25.488V30H524.065V21.392H526.241V22.896C526.737 21.824 527.505 21.408 528.513 21.408C528.657 21.408 528.849 21.424 528.993 21.44ZM537.055 23.984H534.991C534.815 23.264 534.175 22.752 533.151 22.752C532.335 22.752 531.759 23.056 531.759 23.584C531.759 24.048 532.095 24.4 532.911 24.576L534.063 24.832C535.775 25.216 537.231 25.648 537.231 27.424C537.231 29.152 535.455 30.208 533.503 30.208C531.391 30.208 529.791 29.12 529.583 27.152H531.711C531.839 27.984 532.415 28.608 533.567 28.608C534.527 28.608 535.119 28.256 535.119 27.632C535.119 26.992 534.463 26.752 533.711 26.576L532.431 26.304C530.815 25.968 529.743 25.296 529.743 23.728C529.743 22.192 531.407 21.168 533.263 21.168C535.055 21.168 536.751 22 537.055 23.984Z" fill="#0D0D0D"/>
<rect x="441" y="79.5" width="60" height="34" rx="17" fill="white"/>
<rect x="441" y="79.5" width="60" height="34" rx="17" stroke="#D9D9D9"/>
<path d="M462.048 96.728H460.8C460.668 95.996 460.008 95.492 459.192 95.492C458.292 95.492 457.464 96.2 457.464 97.772C457.464 99.368 458.304 100.088 459.192 100.088C459.984 100.088 460.68 99.62 460.848 98.852H462.108C461.856 100.208 460.596 101.156 459.168 101.156C457.308 101.156 456.132 99.728 456.132 97.784C456.132 95.864 457.344 94.424 459.252 94.424C460.728 94.424 461.856 95.468 462.048 96.728ZM464.527 101H463.279V92.3H464.527V101ZM467.457 92.3V93.68H466.209V92.3H467.457ZM467.457 94.544V101H466.209V94.544H467.457ZM473.555 99.104H474.815C474.515 100.172 473.555 101.156 471.911 101.156C469.823 101.156 468.695 99.632 468.695 97.76C468.695 95.756 470.039 94.424 471.875 94.424C473.867 94.424 475.031 96.056 474.899 98.156H469.979C470.099 99.344 470.855 100.088 471.863 100.088C472.763 100.088 473.291 99.716 473.555 99.104ZM470.003 97.172H473.603C473.567 96.212 472.895 95.444 471.863 95.444C470.891 95.444 470.171 95.948 470.003 97.172ZM477.371 95.48C477.743 94.844 478.391 94.424 479.399 94.424C480.959 94.424 481.559 95.432 481.559 96.932V101H480.311V97.268C480.311 96.332 480.155 95.468 478.979 95.468C477.899 95.468 477.371 96.248 477.371 97.532V101H476.123V94.544H477.371V95.48ZM483.371 92.888H484.619V94.544H485.891V95.492H484.619V99.176C484.619 99.836 484.727 100.004 485.351 100.004H485.879V101H484.967C483.659 101 483.371 100.676 483.371 99.344V95.492H482.387V94.544H483.371V92.888Z" fill="#666666"/>
<rect x="441" y="124.5" width="60" height="34" rx="17" fill="white"/>
<rect x="441" y="124.5" width="60" height="34" rx="17" stroke="#D9D9D9"/>
<path d="M462.048 141.728H460.8C460.668 140.996 460.008 140.492 459.192 140.492C458.292 140.492 457.464 141.2 457.464 142.772C457.464 144.368 458.304 145.088 459.192 145.088C459.984 145.088 460.68 144.62 460.848 143.852H462.108C461.856 145.208 460.596 146.156 459.168 146.156C457.308 146.156 456.132 144.728 456.132 142.784C456.132 140.864 457.344 139.424 459.252 139.424C460.728 139.424 461.856 140.468 462.048 141.728ZM464.527 146H463.279V137.3H464.527V146ZM467.457 137.3V138.68H466.209V137.3H467.457ZM467.457 139.544V146H466.209V139.544H467.457ZM473.555 144.104H474.815C474.515 145.172 473.555 146.156 471.911 146.156C469.823 146.156 468.695 144.632 468.695 142.76C468.695 140.756 470.039 139.424 471.875 139.424C473.867 139.424 475.031 141.056 474.899 143.156H469.979C470.099 144.344 470.855 145.088 471.863 145.088C472.763 145.088 473.291 144.716 473.555 144.104ZM470.003 142.172H473.603C473.567 141.212 472.895 140.444 471.863 140.444C470.891 140.444 470.171 140.948 470.003 142.172ZM477.371 140.48C477.743 139.844 478.391 139.424 479.399 139.424C480.959 139.424 481.559 140.432 481.559 141.932V146H480.311V142.268C480.311 141.332 480.155 140.468 478.979 140.468C477.899 140.468 477.371 141.248 477.371 142.532V146H476.123V139.544H477.371V140.48ZM483.371 137.888H484.619V139.544H485.891V140.492H484.619V144.176C484.619 144.836 484.727 145.004 485.351 145.004H485.879V146H484.967C483.659 146 483.371 145.676 483.371 144.344V140.492H482.387V139.544H483.371V137.888Z" fill="#666666"/>
<rect x="441" y="169.5" width="60" height="34" rx="17" fill="white"/>
<rect x="441" y="169.5" width="60" height="34" rx="17" stroke="#D9D9D9"/>
<path d="M462.048 186.728H460.8C460.668 185.996 460.008 185.492 459.192 185.492C458.292 185.492 457.464 186.2 457.464 187.772C457.464 189.368 458.304 190.088 459.192 190.088C459.984 190.088 460.68 189.62 460.848 188.852H462.108C461.856 190.208 460.596 191.156 459.168 191.156C457.308 191.156 456.132 189.728 456.132 187.784C456.132 185.864 457.344 184.424 459.252 184.424C460.728 184.424 461.856 185.468 462.048 186.728ZM464.527 191H463.279V182.3H464.527V191ZM467.457 182.3V183.68H466.209V182.3H467.457ZM467.457 184.544V191H466.209V184.544H467.457ZM473.555 189.104H474.815C474.515 190.172 473.555 191.156 471.911 191.156C469.823 191.156 468.695 189.632 468.695 187.76C468.695 185.756 470.039 184.424 471.875 184.424C473.867 184.424 475.031 186.056 474.899 188.156H469.979C470.099 189.344 470.855 190.088 471.863 190.088C472.763 190.088 473.291 189.716 473.555 189.104ZM470.003 187.172H473.603C473.567 186.212 472.895 185.444 471.863 185.444C470.891 185.444 470.171 185.948 470.003 187.172ZM477.371 185.48C477.743 184.844 478.391 184.424 479.399 184.424C480.959 184.424 481.559 185.432 481.559 186.932V191H480.311V187.268C480.311 186.332 480.155 185.468 478.979 185.468C477.899 185.468 477.371 186.248 477.371 187.532V191H476.123V184.544H477.371V185.48ZM483.371 182.888H484.619V184.544H485.891V185.492H484.619V189.176C484.619 189.836 484.727 190.004 485.351 190.004H485.879V191H484.967C483.659 191 483.371 190.676 483.371 189.344V185.492H482.387V184.544H483.371V182.888Z" fill="#666666"/>
<path d="M440.5 140.501L424.999 140.501C421.41 140.501 418.5 143.411 418.5 147.001C418.5 150.59 415.59 153.5 412.001 153.5L333 153.5" stroke="#CCCCCC"/>
<path d="M440.597 96H406.005C400.482 96 396.005 100.477 396.005 106V130.5C396.005 136.022 391.528 140.5 386.005 140.5L332.874 140.5" stroke="#CCCCCC"/>
<path d="M440.598 187L391.477 186.889C385.963 186.876 381.5 182.403 381.5 176.889L381.5 176.004C381.5 170.481 377.022 166.004 371.5 166.004L332.874 166.004" stroke="#CCCCCC"/>
</svg>
