<svg width="750" height="457" viewBox="0 0 750 457" fill="none" xmlns="http://www.w3.org/2000/svg">
<path d="M10 0.5H740C745.247 0.5 749.5 4.7533 749.5 10V446.367C749.5 451.614 745.247 455.867 740 455.867H10C4.75346 455.867 0.500264 451.614 0.5 446.367V10C0.5 4.7533 4.75329 0.5 10 0.5Z" fill="#F2F2F2"/>
<path d="M10 0.5H740C745.247 0.5 749.5 4.7533 749.5 10V446.367C749.5 451.614 745.247 455.867 740 455.867H10C4.75346 455.867 0.500264 451.614 0.5 446.367V10C0.5 4.7533 4.75329 0.5 10 0.5Z" fill="#E6E6E6"/>
<path d="M10 0.5H740C745.247 0.5 749.5 4.7533 749.5 10V446.367C749.5 451.614 745.247 455.867 740 455.867H10C4.75346 455.867 0.500264 451.614 0.5 446.367V10C0.5 4.7533 4.75329 0.5 10 0.5Z" stroke="#D9D9D9"/>
<path d="M579.883 264.196H487.154C484.473 264.196 482.3 266.371 482.3 269.054V364.571C482.3 367.254 484.473 369.429 487.154 369.429H579.883C582.564 369.429 584.738 367.254 584.738 364.571V269.054C584.738 266.371 582.564 264.196 579.883 264.196Z" fill="#F2F2F2" stroke="#B2B2B2" stroke-width="1.30888" stroke-miterlimit="10"/>
<path d="M487.2 264.196H579.929C582.612 264.196 584.784 266.369 584.784 269.054V289.413H482.346V269.054C482.346 266.369 484.518 264.196 487.2 264.196Z" fill="#F2F2F2" stroke="#B2B2B2" stroke-width="1.30888" stroke-miterlimit="10"/>
<path d="M490.93 281.034C492.994 281.034 494.668 279.359 494.668 277.293C494.668 275.227 492.994 273.552 490.93 273.552C488.865 273.552 487.191 275.227 487.191 277.293C487.191 279.359 488.865 281.034 490.93 281.034Z" fill="#F2F2F2" stroke="#B2B2B2" stroke-width="1.30888" stroke-miterlimit="10"/>
<path d="M502.179 281.034C504.244 281.034 505.917 279.359 505.917 277.293C505.917 275.227 504.244 273.552 502.179 273.552C500.115 273.552 498.441 275.227 498.441 277.293C498.441 279.359 500.115 281.034 502.179 281.034Z" fill="#F2F2F2" stroke="#B2B2B2" stroke-width="1.30888" stroke-miterlimit="10"/>
<path d="M513.411 281.034C515.476 281.034 517.149 279.359 517.149 277.293C517.149 275.227 515.476 273.552 513.411 273.552C511.347 273.552 509.673 275.227 509.673 277.293C509.673 279.359 511.347 281.034 513.411 281.034Z" fill="#F2F2F2" stroke="#B2B2B2" stroke-width="1.30888" stroke-miterlimit="10"/>
<path d="M350.023 129.087C349.767 128.831 349.767 128.417 350.023 128.162L354.187 123.997C354.443 123.741 354.857 123.741 355.113 123.997C355.369 124.252 355.369 124.667 355.113 124.922L351.411 128.624L355.113 132.326C355.369 132.582 355.369 132.996 355.113 133.252C354.857 133.507 354.443 133.507 354.187 133.252L350.023 129.087ZM428.335 128.162C428.591 128.417 428.591 128.831 428.335 129.087L424.17 133.252C423.915 133.507 423.501 133.507 423.245 133.252C422.989 132.996 422.989 132.582 423.245 132.326L426.947 128.624L423.245 124.922C422.989 124.667 422.989 124.252 423.245 123.997C423.501 123.741 423.915 123.741 424.17 123.997L428.335 128.162ZM350.485 128.624L350.485 127.97H427.873L427.873 128.624L427.873 129.279H350.485L350.485 128.624Z" fill="#CCCCCC"/>
<path d="M236.212 204.816C236.561 204.723 236.92 204.93 237.013 205.279L238.537 210.968C238.631 211.317 238.424 211.676 238.074 211.77C237.725 211.863 237.366 211.656 237.273 211.307L235.918 206.25L230.861 207.605C230.512 207.698 230.153 207.491 230.059 207.142C229.966 206.793 230.173 206.434 230.522 206.34L236.212 204.816ZM216.655 240.537C216.306 240.63 215.947 240.423 215.854 240.074L214.329 234.385C214.236 234.035 214.443 233.677 214.792 233.583C215.141 233.49 215.5 233.697 215.594 234.046L216.949 239.103L222.006 237.748C222.355 237.655 222.714 237.862 222.807 238.211C222.901 238.56 222.694 238.919 222.345 239.012L216.655 240.537ZM236.381 205.448L236.948 205.776L217.053 240.232L216.486 239.905L215.919 239.577L235.814 205.121L236.381 205.448Z" fill="#CCCCCC"/>
<path d="M279.48 204.816C279.131 204.723 278.772 204.93 278.679 205.279L277.155 210.968C277.061 211.317 277.268 211.676 277.617 211.77C277.967 211.863 278.325 211.656 278.419 211.307L279.774 206.25L284.831 207.605C285.18 207.698 285.539 207.491 285.632 207.142C285.726 206.793 285.519 206.434 285.17 206.34L279.48 204.816ZM299.037 240.537C299.386 240.63 299.745 240.423 299.838 240.074L301.362 234.385C301.456 234.035 301.249 233.677 300.9 233.583C300.551 233.49 300.192 233.697 300.098 234.046L298.743 239.103L293.686 237.748C293.337 237.655 292.978 237.862 292.885 238.211C292.791 238.56 292.998 238.919 293.347 239.012L299.037 240.537ZM279.311 205.448L278.744 205.776L298.639 240.232L299.206 239.905L299.773 239.577L279.878 205.121L279.311 205.448Z" fill="#CCCCCC"/>
<path d="M512.207 204.816C511.858 204.723 511.499 204.93 511.405 205.279L509.881 210.968C509.788 211.317 509.995 211.676 510.344 211.77C510.693 211.863 511.052 211.656 511.145 211.307L512.5 206.25L517.558 207.605C517.907 207.698 518.265 207.491 518.359 207.142C518.453 206.793 518.245 206.434 517.896 206.34L512.207 204.816ZM531.763 240.537C532.112 240.63 532.471 240.423 532.565 240.074L534.089 234.385C534.183 234.035 533.975 233.677 533.626 233.583C533.277 233.49 532.918 233.697 532.825 234.046L531.47 239.103L526.413 237.748C526.064 237.655 525.705 237.862 525.611 238.211C525.518 238.56 525.725 238.919 526.074 239.012L531.763 240.537ZM512.038 205.448L511.471 205.776L531.366 240.232L531.933 239.905L532.499 239.577L512.604 205.121L512.038 205.448Z" fill="#CCCCCC"/>
<path d="M250.292 264.196H157.563C154.881 264.196 152.708 266.371 152.708 269.054V364.571C152.708 367.254 154.881 369.429 157.563 369.429H250.292C252.973 369.429 255.146 367.254 255.146 364.571V269.054C255.146 266.371 252.973 264.196 250.292 264.196Z" fill="#F2F2F2" stroke="#B2B2B2" stroke-width="1.30888" stroke-miterlimit="10"/>
<path d="M160.869 296.907L171.34 302.951L160.869 308.996" stroke="#B2B2B2" stroke-width="1.30888" stroke-miterlimit="10"/>
<path d="M174.612 311.305H186.392" stroke="#B2B2B2" stroke-width="1.30888" stroke-miterlimit="10"/>
<path d="M490.706 296.907L501.177 302.951L490.706 308.996" stroke="#B2B2B2" stroke-width="1.30888" stroke-miterlimit="10"/>
<path d="M504.449 311.305H516.229" stroke="#B2B2B2" stroke-width="1.30888" stroke-miterlimit="10"/>
<path d="M157.562 264.196H250.291C252.974 264.196 255.146 266.369 255.146 269.054V289.413H152.708V269.054C152.708 266.369 154.88 264.196 157.562 264.196Z" fill="#F2F2F2" stroke="#B2B2B2" stroke-width="1.30888" stroke-miterlimit="10"/>
<path d="M161.291 281.034C163.356 281.034 165.03 279.359 165.03 277.293C165.03 275.227 163.356 273.552 161.291 273.552C159.227 273.552 157.553 275.227 157.553 277.293C157.553 279.359 159.227 281.034 161.291 281.034Z" fill="#F2F2F2" stroke="#B2B2B2" stroke-width="1.30888" stroke-miterlimit="10"/>
<path d="M172.541 281.034C174.606 281.034 176.279 279.359 176.279 277.293C176.279 275.227 174.606 273.552 172.541 273.552C170.476 273.552 168.803 275.227 168.803 277.293C168.803 279.359 170.476 281.034 172.541 281.034Z" fill="#F2F2F2" stroke="#B2B2B2" stroke-width="1.30888" stroke-miterlimit="10"/>
<path d="M183.772 281.034C185.837 281.034 187.511 279.359 187.511 277.293C187.511 275.227 185.837 273.552 183.772 273.552C181.708 273.552 180.034 275.227 180.034 277.293C180.034 279.359 181.708 281.034 183.772 281.034Z" fill="#F2F2F2" stroke="#B2B2B2" stroke-width="1.30888" stroke-miterlimit="10"/>
<path d="M478.534 75.0407L452.544 119.323C452.525 119.355 452.524 119.396 452.54 119.43L478.554 172.771C478.569 172.801 478.595 172.822 478.627 172.831L496.365 177.506C496.394 177.514 496.418 177.533 496.433 177.558L504.159 190.722C504.203 190.796 504.31 190.796 504.354 190.722L517.4 168.493C517.426 168.45 517.477 168.428 517.526 168.441L529.245 171.53C529.296 171.544 529.349 171.521 529.374 171.474L557.19 119.439C557.211 119.4 557.207 119.353 557.18 119.317L527.06 79.8586C527.05 79.8465 527.039 79.8364 527.026 79.8289L510.355 70.3606C510.337 70.3508 510.323 70.3367 510.313 70.3196L504.354 60.166C504.31 60.0916 504.203 60.0916 504.159 60.166L493.252 78.7497C493.227 78.7934 493.175 78.8147 493.126 78.8018L478.66 74.9886C478.611 74.9757 478.559 74.997 478.534 75.0407Z" fill="#CCEBFF" stroke="#B2B2B2" stroke-width="1.30888" stroke-miterlimit="10"/>
<path d="M527.12 164.71L532.356 154.239" stroke="#B2B2B2" stroke-width="1.30888" stroke-miterlimit="10" stroke-linecap="round"/>
<path d="M470.838 96.6486L477.383 84.8687" stroke="#B2B2B2" stroke-width="1.30888" stroke-miterlimit="10" stroke-linecap="round"/>
<path d="M529.738 135.915L534.973 126.753" stroke="#B2B2B2" stroke-width="1.30888" stroke-miterlimit="10" stroke-linecap="round"/>
<path d="M525.811 87.4866L540.209 108.429" stroke="#B2B2B2" stroke-width="1.30888" stroke-miterlimit="10" stroke-linecap="round"/>
<path d="M476.074 150.313L482.618 167.328" stroke="#B2B2B2" stroke-width="1.30888" stroke-miterlimit="10" stroke-linecap="round"/>
<path d="M510.105 70.4709L495.707 95.3397" stroke="#B2B2B2" stroke-width="1.30888" stroke-miterlimit="10" stroke-linecap="round"/>
<path d="M545.444 120.208L532.056 143.217C531.793 143.669 531.36 143.998 530.854 144.13L508.183 150.034C507.519 150.207 506.812 150.02 506.32 149.542L499.447 142.861" stroke="#B2B2B2" stroke-width="1.30888" stroke-miterlimit="10" stroke-linecap="round"/>
<path d="M524.502 120.209L510.998 101.26C510.743 100.903 510.377 100.641 509.956 100.517L489.071 94.3367C488.428 94.1463 487.731 94.2978 487.225 94.7383L474.258 106.022C473.758 106.458 473.511 107.116 473.602 107.773L475.328 120.209" stroke="#B2B2B2" stroke-width="1.30888" stroke-miterlimit="10" stroke-linecap="round"/>
<path d="M497.016 177.799L514.031 149.004" stroke="#B2B2B2" stroke-width="1.30888" stroke-miterlimit="10" stroke-linecap="round"/>
<path d="M442.043 120.208L570.313 120.208" stroke="#B2B2B2" stroke-width="1.30888" stroke-miterlimit="10" stroke-linecap="round"/>
<path d="M471.326 125.367V135.517H469.73V125.367H471.326ZM476.554 127.845C478.276 127.845 479.592 129.063 479.816 130.533H478.36C478.206 129.679 477.436 129.091 476.484 129.091C475.434 129.091 474.468 129.917 474.468 131.751C474.468 133.613 475.434 134.453 476.484 134.453C477.422 134.453 478.206 133.907 478.416 133.011H479.886C479.578 134.593 478.122 135.699 476.456 135.699C474.272 135.699 472.914 134.047 472.914 131.765C472.914 129.539 474.328 127.845 476.554 127.845ZM484.499 134.453C485.563 134.453 486.151 134.019 486.473 133.305H487.943C487.607 134.551 486.459 135.699 484.555 135.699C482.133 135.699 480.803 133.921 480.803 131.737C480.803 129.399 482.371 127.845 484.513 127.845C486.837 127.845 488.195 129.749 488.041 132.199H482.301C482.455 133.599 483.309 134.453 484.499 134.453ZM484.499 129.035C483.365 129.035 482.539 129.609 482.329 131.051H486.529C486.487 129.945 485.689 129.035 484.499 129.035ZM490.869 131.765C490.869 133.627 491.821 134.481 492.941 134.481C494.159 134.481 494.971 133.459 494.971 131.765C494.971 130.071 494.159 129.063 492.941 129.063C491.821 129.063 490.869 129.903 490.869 131.765ZM489.469 125.367H490.925V129.091C491.387 128.307 492.157 127.845 493.277 127.845C495.027 127.845 496.525 129.301 496.525 131.765C496.525 134.229 495.027 135.699 493.277 135.699C492.157 135.699 491.387 135.237 490.925 134.453V135.517H489.469V125.367ZM501.261 134.453C502.325 134.453 502.913 134.019 503.235 133.305H504.705C504.369 134.551 503.221 135.699 501.317 135.699C498.895 135.699 497.565 133.921 497.565 131.737C497.565 129.399 499.133 127.845 501.275 127.845C503.599 127.845 504.957 129.749 504.803 132.199H499.063C499.217 133.599 500.071 134.453 501.261 134.453ZM501.261 129.035C500.127 129.035 499.301 129.609 499.091 131.051H503.291C503.249 129.945 502.451 129.035 501.261 129.035ZM510.151 127.971V129.483C509.885 129.455 509.633 129.441 509.395 129.441C508.275 129.441 507.687 129.987 507.687 131.569V135.517H506.231V127.985H507.659V129.315C508.051 128.461 508.793 127.971 509.745 127.957C509.871 127.957 510.025 127.957 510.151 127.971ZM516.179 129.091V127.985H517.635V134.635C517.635 136.021 517.341 136.763 516.823 137.281C516.249 137.883 515.353 138.191 514.191 138.191C512.497 138.191 511.279 137.463 511.041 135.881H512.539C512.693 136.567 513.113 136.973 514.219 136.973C514.905 136.973 515.409 136.791 515.731 136.427C516.025 136.105 516.179 135.727 516.179 134.943V134.145C515.717 134.929 514.975 135.391 513.855 135.391C512.105 135.391 510.649 134.019 510.649 131.611C510.649 129.217 512.105 127.845 513.855 127.845C514.975 127.845 515.717 128.307 516.179 129.091ZM516.235 131.611C516.235 129.819 515.311 129.049 514.191 129.049C512.973 129.049 512.203 129.987 512.203 131.611C512.203 133.249 512.973 134.201 514.191 134.201C515.311 134.201 516.235 133.403 516.235 131.611Z" fill="#B2B2B2"/>
<path d="M378.619 264H285.088C282.384 264 280.191 266.164 280.191 268.834V363.876C280.191 366.546 282.384 368.71 285.088 368.71H378.619C381.324 368.71 383.516 366.546 383.516 363.876V268.834C383.516 266.164 381.324 264 378.619 264Z" fill="#F2F2F2" stroke="#B2B2B2" stroke-width="1.30888" stroke-miterlimit="10"/>
<path d="M285.68 262.876H378.681C381.353 262.876 383.516 265.133 383.516 267.92V285.127H280.191V267.92C280.191 265.133 283.008 262.876 285.68 262.876Z" fill="#F2F2F2" stroke="#B2B2B2" stroke-width="1.30888" stroke-miterlimit="10"/>
<path d="M290.47 278.212C292.535 278.212 294.208 276.537 294.208 274.471C294.208 272.405 292.535 270.73 290.47 270.73C288.406 270.73 286.732 272.405 286.732 274.471C286.732 276.537 288.406 278.212 290.47 278.212Z" fill="#F2F2F2" stroke="#B2B2B2" stroke-width="1.30888" stroke-miterlimit="10"/>
<path d="M301.72 278.212C303.785 278.212 305.458 276.537 305.458 274.471C305.458 272.405 303.785 270.73 301.72 270.73C299.656 270.73 297.982 272.405 297.982 274.471C297.982 276.537 299.656 278.212 301.72 278.212Z" fill="#F2F2F2" stroke="#B2B2B2" stroke-width="1.30888" stroke-miterlimit="10"/>
<path d="M312.952 278.212C315.016 278.212 316.69 276.537 316.69 274.471C316.69 272.405 315.016 270.73 312.952 270.73C310.887 270.73 309.213 272.405 309.213 274.471C309.213 276.537 310.887 278.212 312.952 278.212Z" fill="#F2F2F2" stroke="#B2B2B2" stroke-width="1.30888" stroke-miterlimit="10"/>
<path d="M280.357 285.127H310.572V296.907H383.759" stroke="#B2B2B2" stroke-width="1.30888" stroke-miterlimit="10"/>
<path d="M322.341 78.9176C325.406 78.9176 327.89 81.423 327.89 84.5144V163.105C327.89 164.134 327.486 165.122 326.765 165.856L313.753 179.104C312.936 179.936 311.823 180.365 310.661 180.269C298.541 179.268 228.907 173.493 211.872 171.508C209.384 171.218 207.397 169.281 207.023 166.782C205.266 155.032 199.401 106.777 198.166 96.5826C198.019 95.3658 198.453 94.1841 199.332 93.3299L213.02 80.0281C213.753 79.3159 214.734 78.9175 215.756 78.9175L322.341 78.9176Z" fill="#CCCCCC" stroke="#B2B2B2" stroke-width="1.30888" stroke-miterlimit="10"/>
<rect x="196.84" y="92.4714" width="117.493" height="89.2494" rx="5.6487" fill="#F2F2F2" stroke="#B2B2B2" stroke-width="1.30888" stroke-miterlimit="10"/>
<rect x="208.476" y="106.925" width="6.64858" height="6.64858" rx="3.32429" fill="#F2F2F2" stroke="#B2B2B2" stroke-width="1.30888" stroke-miterlimit="10"/>
<rect x="219.279" y="106.925" width="6.64858" height="6.64858" rx="3.32429" fill="#F2F2F2" stroke="#B2B2B2" stroke-width="1.30888" stroke-miterlimit="10"/>
<rect x="230.083" y="106.925" width="6.64858" height="6.64858" rx="3.32429" fill="#F2F2F2" stroke="#B2B2B2" stroke-width="1.30888" stroke-miterlimit="10"/>
<rect x="273.298" y="106.925" width="29.0876" height="6.64858" rx="3.32429" fill="#F2F2F2" stroke="#B2B2B2" stroke-width="1.30888" stroke-miterlimit="10"/>
<rect x="208.476" y="134.356" width="6.64858" height="6.64858" rx="3.32429" fill="#F2F2F2" stroke="#B2B2B2" stroke-width="1.30888" stroke-miterlimit="10"/>
<rect x="219.279" y="134.356" width="6.64858" height="6.64858" rx="3.32429" fill="#F2F2F2" stroke="#B2B2B2" stroke-width="1.30888" stroke-miterlimit="10"/>
<rect x="230.083" y="134.356" width="6.64858" height="6.64858" rx="3.32429" fill="#F2F2F2" stroke="#B2B2B2" stroke-width="1.30888" stroke-miterlimit="10"/>
<rect x="208.476" y="161.776" width="6.64858" height="6.64858" rx="3.32429" fill="#F2F2F2" stroke="#B2B2B2" stroke-width="1.30888" stroke-miterlimit="10"/>
<rect x="219.279" y="161.776" width="6.64858" height="6.64858" rx="3.32429" fill="#F2F2F2" stroke="#B2B2B2" stroke-width="1.30888" stroke-miterlimit="10"/>
<rect x="230.083" y="161.776" width="6.64858" height="6.64858" rx="3.32429" fill="#F2F2F2" stroke="#B2B2B2" stroke-width="1.30888" stroke-miterlimit="10"/>
<path d="M197.282 152.93L314.427 152.93" stroke="#B2B2B2" stroke-width="1.30888" stroke-miterlimit="10"/>
<line x1="196.84" y1="124.58" x2="314.333" y2="124.58" stroke="#B2B2B2" stroke-width="1.30888" stroke-miterlimit="10"/>
<path d="M313.252 94.6853L326.76 81.1772" stroke="#B2B2B2" stroke-width="1.30888" stroke-miterlimit="10"/>
<path d="M229.505 385.695C231.227 385.695 232.543 386.913 232.767 388.383H231.311C231.157 387.529 230.387 386.941 229.435 386.941C228.385 386.941 227.419 387.767 227.419 389.601C227.419 391.463 228.385 392.303 229.435 392.303C230.373 392.303 231.157 391.757 231.367 390.861H232.837C232.529 392.443 231.073 393.549 229.407 393.549C227.223 393.549 225.865 391.897 225.865 389.615C225.865 387.389 227.279 385.695 229.505 385.695ZM235.659 383.217V393.367H234.203V383.217H235.659ZM237.621 385.835H239.077V393.367H237.621V385.835ZM237.621 383.217H239.077V384.827H237.621V383.217ZM244.217 392.303C245.281 392.303 245.869 391.869 246.191 391.155H247.661C247.325 392.401 246.177 393.549 244.273 393.549C241.851 393.549 240.521 391.771 240.521 389.587C240.521 387.249 242.089 385.695 244.231 385.695C246.555 385.695 247.913 387.599 247.759 390.049H242.019C242.173 391.449 243.027 392.303 244.217 392.303ZM244.217 386.885C243.083 386.885 242.257 387.459 242.047 388.901H246.247C246.205 387.795 245.407 386.885 244.217 386.885ZM250.644 385.835V386.927C251.078 386.185 251.834 385.695 253.01 385.695C254.83 385.695 255.53 386.871 255.53 388.621V393.367H254.074V389.013C254.074 387.935 253.906 386.913 252.52 386.913C251.246 386.913 250.644 387.809 250.644 389.321V393.367H249.188V385.835H250.644ZM257.644 385.835V383.903H259.1V385.835H260.584V386.941H259.1V391.239C259.1 392.009 259.226 392.205 259.954 392.205H260.57V393.367H259.506C257.98 393.367 257.644 392.989 257.644 391.435V386.941H256.496V385.835H257.644ZM267.395 390.231H261.235V388.887H267.395V390.231ZM274.724 387.935H273.282C273.072 387.151 272.428 386.857 271.574 386.857C270.86 386.857 270.09 387.151 270.09 387.767C270.09 388.327 270.454 388.551 271.14 388.705L272.218 388.915C273.632 389.209 274.892 389.671 274.892 391.155C274.892 392.681 273.464 393.549 271.728 393.549C269.81 393.549 268.662 392.443 268.48 391.029H269.964C270.174 391.883 270.706 392.387 271.77 392.387C272.722 392.387 273.436 391.995 273.436 391.323C273.436 390.637 272.778 390.343 271.994 390.189L270.86 389.965C269.726 389.741 268.662 389.251 268.662 387.823C268.662 386.493 270.076 385.681 271.714 385.681C273.24 385.681 274.43 386.479 274.724 387.935ZM279.532 392.303C280.596 392.303 281.184 391.869 281.506 391.155H282.976C282.64 392.401 281.492 393.549 279.588 393.549C277.166 393.549 275.836 391.771 275.836 389.587C275.836 387.249 277.404 385.695 279.546 385.695C281.87 385.695 283.228 387.599 283.074 390.049H277.334C277.488 391.449 278.342 392.303 279.532 392.303ZM279.532 386.885C278.398 386.885 277.572 387.459 277.362 388.901H281.562C281.52 387.795 280.722 386.885 279.532 386.885ZM288.422 385.821V387.333C288.156 387.305 287.904 387.291 287.666 387.291C286.546 387.291 285.958 387.837 285.958 389.419V393.367H284.502V385.835H285.93V387.165C286.322 386.311 287.064 385.821 288.016 385.807C288.142 385.807 288.296 385.807 288.422 385.821ZM290.204 385.835L292.108 391.421L293.998 385.835H295.51L292.724 393.367H291.394L288.594 385.835H290.204ZM299.533 392.303C300.597 392.303 301.185 391.869 301.507 391.155H302.977C302.641 392.401 301.493 393.549 299.589 393.549C297.167 393.549 295.837 391.771 295.837 389.587C295.837 387.249 297.405 385.695 299.547 385.695C301.871 385.695 303.229 387.599 303.075 390.049H297.335C297.489 391.449 298.343 392.303 299.533 392.303ZM299.533 386.885C298.399 386.885 297.573 387.459 297.363 388.901H301.563C301.521 387.795 300.723 386.885 299.533 386.885ZM308.424 385.821V387.333C308.158 387.305 307.906 387.291 307.668 387.291C306.548 387.291 305.96 387.837 305.96 389.419V393.367H304.504V385.835H305.932V387.165C306.324 386.311 307.066 385.821 308.018 385.807C308.144 385.807 308.298 385.807 308.424 385.821Z" fill="#666666"/>
<path d="M475.621 385.695C477.343 385.695 478.659 386.913 478.883 388.383H477.427C477.273 387.529 476.503 386.941 475.551 386.941C474.501 386.941 473.535 387.767 473.535 389.601C473.535 391.463 474.501 392.303 475.551 392.303C476.489 392.303 477.273 391.757 477.483 390.861H478.953C478.645 392.443 477.189 393.549 475.523 393.549C473.339 393.549 471.981 391.897 471.981 389.615C471.981 387.389 473.395 385.695 475.621 385.695ZM481.775 383.217V393.367H480.319V383.217H481.775ZM483.737 385.835H485.193V393.367H483.737V385.835ZM483.737 383.217H485.193V384.827H483.737V383.217ZM490.333 392.303C491.397 392.303 491.985 391.869 492.307 391.155H493.777C493.441 392.401 492.293 393.549 490.389 393.549C487.967 393.549 486.637 391.771 486.637 389.587C486.637 387.249 488.205 385.695 490.347 385.695C492.671 385.695 494.029 387.599 493.875 390.049H488.135C488.289 391.449 489.143 392.303 490.333 392.303ZM490.333 386.885C489.199 386.885 488.373 387.459 488.163 388.901H492.363C492.321 387.795 491.523 386.885 490.333 386.885ZM496.76 385.835V386.927C497.194 386.185 497.95 385.695 499.126 385.695C500.946 385.695 501.646 386.871 501.646 388.621V393.367H500.19V389.013C500.19 387.935 500.022 386.913 498.636 386.913C497.362 386.913 496.76 387.809 496.76 389.321V393.367H495.304V385.835H496.76ZM503.76 385.835V383.903H505.216V385.835H506.7V386.941H505.216V391.239C505.216 392.009 505.342 392.205 506.07 392.205H506.686V393.367H505.622C504.096 393.367 503.76 392.989 503.76 391.435V386.941H502.612V385.835H503.76ZM511.999 390.231H507.491V388.887H511.999V390.231ZM513.624 385.835H515.08V393.367H513.624V385.835ZM513.624 383.217H515.08V384.827H513.624V383.217ZM522.768 387.935H521.326C521.116 387.151 520.472 386.857 519.618 386.857C518.904 386.857 518.134 387.151 518.134 387.767C518.134 388.327 518.498 388.551 519.184 388.705L520.262 388.915C521.676 389.209 522.936 389.671 522.936 391.155C522.936 392.681 521.508 393.549 519.772 393.549C517.854 393.549 516.706 392.443 516.524 391.029H518.008C518.218 391.883 518.75 392.387 519.814 392.387C520.766 392.387 521.48 391.995 521.48 391.323C521.48 390.637 520.822 390.343 520.038 390.189L518.904 389.965C517.77 389.741 516.706 389.251 516.706 387.823C516.706 386.493 518.12 385.681 519.758 385.681C521.284 385.681 522.474 386.479 522.768 387.935ZM528.692 390.231H524.184V388.887H528.692V390.231ZM530.475 385.835V383.903H531.931V385.835H533.415V386.941H531.931V391.239C531.931 392.009 532.057 392.205 532.785 392.205H533.401V393.367H532.337C530.811 393.367 530.475 392.989 530.475 391.435V386.941H529.327V385.835H530.475ZM536.422 383.217V386.927C536.856 386.185 537.612 385.695 538.788 385.695C540.608 385.695 541.308 386.871 541.308 388.621V393.367H539.852V389.013C539.852 387.935 539.684 386.913 538.298 386.913C537.024 386.913 536.422 387.809 536.422 389.321V393.367H534.966V383.217H536.422ZM546.306 392.303C547.37 392.303 547.958 391.869 548.28 391.155H549.75C549.414 392.401 548.266 393.549 546.362 393.549C543.94 393.549 542.61 391.771 542.61 389.587C542.61 387.249 544.178 385.695 546.32 385.695C548.644 385.695 550.002 387.599 549.848 390.049H544.108C544.262 391.449 545.116 392.303 546.306 392.303ZM546.306 386.885C545.172 386.885 544.346 387.459 544.136 388.901H548.336C548.294 387.795 547.496 386.885 546.306 386.885ZM555.708 390.231H551.2V388.887H555.708V390.231ZM563.196 387.935H561.754C561.544 387.151 560.9 386.857 560.046 386.857C559.332 386.857 558.562 387.151 558.562 387.767C558.562 388.327 558.926 388.551 559.612 388.705L560.69 388.915C562.104 389.209 563.364 389.671 563.364 391.155C563.364 392.681 561.936 393.549 560.2 393.549C558.282 393.549 557.134 392.443 556.952 391.029H558.436C558.646 391.883 559.178 392.387 560.242 392.387C561.194 392.387 561.908 391.995 561.908 391.323C561.908 390.637 561.25 390.343 560.466 390.189L559.332 389.965C558.198 389.741 557.134 389.251 557.134 387.823C557.134 386.493 558.548 385.681 560.186 385.681C561.712 385.681 562.902 386.479 563.196 387.935ZM568.003 392.303C569.067 392.303 569.655 391.869 569.977 391.155H571.447C571.111 392.401 569.963 393.549 568.059 393.549C565.637 393.549 564.307 391.771 564.307 389.587C564.307 387.249 565.875 385.695 568.017 385.695C570.341 385.695 571.699 387.599 571.545 390.049H565.805C565.959 391.449 566.813 392.303 568.003 392.303ZM568.003 386.885C566.869 386.885 566.043 387.459 565.833 388.901H570.033C569.991 387.795 569.193 386.885 568.003 386.885ZM576.894 385.821V387.333C576.628 387.305 576.376 387.291 576.138 387.291C575.018 387.291 574.43 387.837 574.43 389.419V393.367H572.974V385.835H574.402V387.165C574.794 386.311 575.536 385.821 576.488 385.807C576.614 385.807 576.768 385.807 576.894 385.821ZM578.676 385.835L580.58 391.421L582.47 385.835H583.982L581.196 393.367H579.866L577.066 385.835H578.676ZM588.005 392.303C589.069 392.303 589.657 391.869 589.979 391.155H591.449C591.113 392.401 589.965 393.549 588.061 393.549C585.639 393.549 584.309 391.771 584.309 389.587C584.309 387.249 585.877 385.695 588.019 385.695C590.343 385.695 591.701 387.599 591.547 390.049H585.807C585.961 391.449 586.815 392.303 588.005 392.303ZM588.005 386.885C586.871 386.885 586.045 387.459 585.835 388.901H590.035C589.993 387.795 589.195 386.885 588.005 386.885ZM596.896 385.821V387.333C596.63 387.305 596.378 387.291 596.14 387.291C595.02 387.291 594.432 387.837 594.432 389.419V393.367H592.976V385.835H594.404V387.165C594.796 386.311 595.538 385.821 596.49 385.807C596.616 385.807 596.77 385.807 596.896 385.821Z" fill="#666666"/>
</svg>
