<svg width="750" height="457" viewBox="0 0 750 457" fill="none" xmlns="http://www.w3.org/2000/svg">
<path d="M10 0.5H740C745.247 0.5 749.5 4.7533 749.5 10V446.37C749.5 451.617 745.247 455.87 740 455.87H10C4.75336 455.87 0.500099 451.617 0.5 446.37V10L0.512695 9.51074C0.767335 4.49142 4.91739 0.5 10 0.5Z" fill="#F2F2F2"/>
<path d="M10 0.5H740C745.247 0.5 749.5 4.7533 749.5 10V446.37C749.5 451.617 745.247 455.87 740 455.87H10C4.75336 455.87 0.500099 451.617 0.5 446.37V10L0.512695 9.51074C0.767335 4.49142 4.91739 0.5 10 0.5Z" fill="#E6E6E6"/>
<path d="M10 0.5H740C745.247 0.5 749.5 4.7533 749.5 10V446.37C749.5 451.617 745.247 455.87 740 455.87H10C4.75336 455.87 0.500099 451.617 0.5 446.37V10L0.512695 9.51074C0.767335 4.49142 4.91739 0.5 10 0.5Z" stroke="#D9D9D9"/>
<path d="M604.691 281.974H503.813C500.897 281.974 498.532 284.339 498.532 287.255V391.089C498.532 394.006 500.897 396.37 503.813 396.37H604.691C607.608 396.37 609.972 394.006 609.972 391.089V287.255C609.972 284.339 607.608 281.974 604.691 281.974Z" fill="#F2F2F2" stroke="#B2B2B2" stroke-width="1.42284" stroke-miterlimit="10"/>
<path d="M553.989 366.757C543.915 366.757 535.78 358.622 535.78 348.549C535.78 338.475 543.915 330.34 553.989 330.34C564.062 330.34 572.198 338.475 572.198 348.549C572.198 358.622 564.062 366.757 553.989 366.757Z" fill="#F2F2F2" stroke="#B2B2B2" stroke-width="1.42284" stroke-miterlimit="10" stroke-linecap="round"/>
<path d="M563.725 345.849H560.153V351.24H563.725C565.206 351.24 566.437 350.009 566.437 348.528C566.437 347.036 565.206 345.849 563.725 345.849Z" fill="#FFF100" stroke="#B2B2B2" stroke-width="1.42284" stroke-miterlimit="10" stroke-linecap="round"/>
<path d="M542.652 348.603C542.652 352.79 546.039 356.198 550.199 356.198C554.36 356.198 557.747 352.79 557.747 348.603C557.747 344.417 554.36 341.009 550.199 341.009C546.039 341.009 542.652 344.417 542.652 348.603Z" fill="#FFF100" stroke="#B2B2B2" stroke-width="1.42284" stroke-miterlimit="10" stroke-linecap="round"/>
<path d="M503.864 281.974H604.742C607.66 281.974 610.023 284.337 610.023 287.255V309.387H498.583V287.255C498.583 284.337 500.946 281.974 503.864 281.974Z" fill="#F2F2F2" stroke="#B2B2B2" stroke-width="1.42284" stroke-miterlimit="10"/>
<path d="M507.921 300.279C510.167 300.279 511.988 298.458 511.988 296.212C511.988 293.966 510.167 292.145 507.921 292.145C505.675 292.145 503.854 293.966 503.854 296.212C503.854 298.458 505.675 300.279 507.921 300.279Z" fill="#F2F2F2" stroke="#B2B2B2" stroke-width="1.42284" stroke-miterlimit="10"/>
<path d="M520.159 300.279C522.405 300.279 524.225 298.458 524.225 296.212C524.225 293.966 522.405 292.145 520.159 292.145C517.913 292.145 516.092 293.966 516.092 296.212C516.092 298.458 517.913 300.279 520.159 300.279Z" fill="#F2F2F2" stroke="#B2B2B2" stroke-width="1.42284" stroke-miterlimit="10"/>
<path d="M532.378 300.279C534.624 300.279 536.445 298.458 536.445 296.212C536.445 293.966 534.624 292.145 532.378 292.145C530.132 292.145 528.311 293.966 528.311 296.212C528.311 298.458 530.132 300.279 532.378 300.279Z" fill="#F2F2F2" stroke="#B2B2B2" stroke-width="1.42284" stroke-miterlimit="10"/>
<path d="M354.392 135.102C354.115 134.824 354.115 134.374 354.392 134.096L358.92 129.568C359.198 129.291 359.648 129.291 359.926 129.568C360.204 129.846 360.204 130.297 359.926 130.574L355.902 134.599L359.926 138.623C360.204 138.901 360.204 139.352 359.926 139.629C359.648 139.907 359.198 139.907 358.92 139.629L354.392 135.102ZM439.524 134.096C439.801 134.374 439.801 134.824 439.524 135.102L434.996 139.629C434.718 139.907 434.268 139.907 433.99 139.629C433.712 139.352 433.712 138.901 433.99 138.623L438.014 134.599L433.99 130.574C433.712 130.297 433.712 129.846 433.99 129.568C434.268 129.291 434.718 129.291 434.996 129.568L439.524 134.096ZM354.896 134.599L354.896 133.887H439.021L439.021 134.599L439.021 135.31H354.896L354.896 134.599Z" fill="#CCCCCC"/>
<path d="M230.673 217.425C231.052 217.323 231.442 217.548 231.544 217.928L233.201 224.113C233.303 224.492 233.077 224.882 232.698 224.984C232.318 225.085 231.928 224.86 231.826 224.481L230.354 218.983L224.856 220.456C224.477 220.558 224.087 220.332 223.985 219.953C223.883 219.573 224.108 219.183 224.488 219.082L230.673 217.425ZM209.414 256.255C209.034 256.357 208.644 256.132 208.542 255.752L206.885 249.568C206.784 249.188 207.009 248.798 207.388 248.696C207.768 248.595 208.158 248.82 208.26 249.199L209.733 254.697L215.23 253.224C215.61 253.122 216 253.348 216.101 253.727C216.203 254.107 215.978 254.497 215.598 254.598L209.414 256.255ZM230.857 218.112L231.473 218.468L209.846 255.924L209.229 255.568L208.613 255.212L230.241 217.756L230.857 218.112Z" fill="#CCCCCC"/>
<path d="M277.709 217.425C277.329 217.323 276.939 217.548 276.837 217.928L275.18 224.113C275.079 224.492 275.304 224.882 275.684 224.984C276.063 225.085 276.453 224.86 276.555 224.481L278.028 218.983L283.525 220.456C283.905 220.558 284.295 220.332 284.396 219.953C284.498 219.573 284.273 219.183 283.893 219.082L277.709 217.425ZM298.968 256.255C299.347 256.357 299.737 256.132 299.839 255.752L301.496 249.568C301.598 249.188 301.372 248.798 300.993 248.696C300.613 248.595 300.223 248.82 300.122 249.199L298.649 254.697L293.151 253.224C292.772 253.122 292.382 253.348 292.28 253.727C292.178 254.107 292.404 254.497 292.783 254.598L298.968 256.255ZM277.525 218.112L276.909 218.468L298.536 255.924L299.152 255.568L299.768 255.212L278.141 217.756L277.525 218.112Z" fill="#CCCCCC"/>
<path d="M530.697 217.425C530.318 217.323 529.928 217.548 529.826 217.928L528.169 224.113C528.068 224.492 528.293 224.882 528.672 224.984C529.052 225.085 529.442 224.86 529.544 224.481L531.016 218.983L536.514 220.456C536.893 220.558 537.284 220.332 537.385 219.953C537.487 219.573 537.262 219.183 536.882 219.082L530.697 217.425ZM551.957 256.255C552.336 256.357 552.726 256.132 552.828 255.752L554.485 249.568C554.586 249.188 554.361 248.798 553.982 248.696C553.602 248.595 553.212 248.82 553.11 249.199L551.638 254.697L546.14 253.224C545.761 253.122 545.37 253.348 545.269 253.727C545.167 254.107 545.392 254.497 545.772 254.598L551.957 256.255ZM530.513 218.112L529.897 218.468L551.525 255.924L552.141 255.568L552.757 255.212L531.129 217.756L530.513 218.112Z" fill="#CCCCCC"/>
<path d="M246.136 281.974H145.259C142.342 281.974 139.978 284.339 139.978 287.255V391.089C139.978 394.006 142.342 396.37 145.259 396.37H246.136C249.053 396.37 251.417 394.006 251.417 391.089V287.255C251.417 284.339 249.053 281.974 246.136 281.974Z" fill="#F2F2F2" stroke="#B2B2B2" stroke-width="1.42284" stroke-miterlimit="10"/>
<path d="M148.769 317.534L160.151 324.103L148.769 330.675" stroke="#B2B2B2" stroke-width="1.42284" stroke-miterlimit="10"/>
<path d="M163.708 333.185H176.514" stroke="#B2B2B2" stroke-width="1.42284" stroke-miterlimit="10"/>
<path d="M145.258 281.974H246.136C249.054 281.974 251.417 284.337 251.417 287.255V309.387H139.977V287.255C139.977 284.337 142.34 281.974 145.258 281.974Z" fill="#F2F2F2" stroke="#B2B2B2" stroke-width="1.42284" stroke-miterlimit="10"/>
<path d="M149.316 300.279C151.562 300.279 153.383 298.458 153.383 296.212C153.383 293.966 151.562 292.145 149.316 292.145C147.07 292.145 145.249 293.966 145.249 296.212C145.249 298.458 147.07 300.279 149.316 300.279Z" fill="#F2F2F2" stroke="#B2B2B2" stroke-width="1.42284" stroke-miterlimit="10"/>
<path d="M161.553 300.279C163.799 300.279 165.62 298.458 165.62 296.212C165.62 293.966 163.799 292.145 161.553 292.145C159.307 292.145 157.486 293.966 157.486 296.212C157.486 298.458 159.307 300.279 161.553 300.279Z" fill="#F2F2F2" stroke="#B2B2B2" stroke-width="1.42284" stroke-miterlimit="10"/>
<path d="M173.772 300.279C176.018 300.279 177.839 298.458 177.839 296.212C177.839 293.966 176.018 292.145 173.772 292.145C171.526 292.145 169.705 293.966 169.705 296.212C169.705 298.458 171.526 300.279 173.772 300.279Z" fill="#F2F2F2" stroke="#B2B2B2" stroke-width="1.42284" stroke-miterlimit="10"/>
<path d="M383.495 281.963H281.744C278.802 281.963 276.417 284.316 276.417 287.218V390.535C276.417 393.437 278.802 395.79 281.744 395.79H383.495C386.436 395.79 388.821 393.437 388.821 390.535V287.218C388.821 284.316 386.436 281.963 383.495 281.963Z" fill="#F2F2F2" stroke="#B2B2B2" stroke-width="1.42284" stroke-miterlimit="10"/>
<path d="M282.372 280.54H383.546C386.453 280.54 388.806 282.993 388.806 286.022V304.728H276.401V286.022C276.401 282.993 279.466 280.54 282.372 280.54Z" fill="#F2F2F2" stroke="#B2B2B2" stroke-width="1.42284" stroke-miterlimit="10"/>
<path d="M286.582 297.211C288.828 297.211 290.649 295.39 290.649 293.144C290.649 290.898 288.828 289.077 286.582 289.077C284.336 289.077 282.516 290.898 282.516 293.144C282.516 295.39 284.336 297.211 286.582 297.211Z" fill="#F2F2F2" stroke="#B2B2B2" stroke-width="1.42284" stroke-miterlimit="10"/>
<path d="M298.821 297.211C301.067 297.211 302.887 295.39 302.887 293.144C302.887 290.898 301.067 289.077 298.821 289.077C296.575 289.077 294.754 290.898 294.754 293.144C294.754 295.39 296.575 297.211 298.821 297.211Z" fill="#F2F2F2" stroke="#B2B2B2" stroke-width="1.42284" stroke-miterlimit="10"/>
<path d="M311.038 297.211C313.284 297.211 315.105 295.39 315.105 293.144C315.105 290.898 313.284 289.077 311.038 289.077C308.792 289.077 306.972 290.898 306.972 293.144C306.972 295.39 308.792 297.211 311.038 297.211Z" fill="#F2F2F2" stroke="#B2B2B2" stroke-width="1.42284" stroke-miterlimit="10"/>
<path d="M494.093 76.3502L465.841 124.488C465.82 124.523 465.818 124.567 465.836 124.604L494.115 182.59C494.131 182.622 494.16 182.645 494.195 182.655L513.477 187.737C513.508 187.745 513.535 187.766 513.551 187.794L521.95 202.104C521.997 202.184 522.114 202.184 522.161 202.104L536.343 177.94C536.371 177.892 536.427 177.869 536.48 177.883L549.22 181.241C549.275 181.256 549.333 181.23 549.36 181.18L579.598 124.614C579.62 124.572 579.616 124.52 579.587 124.482L546.844 81.5876C546.834 81.5745 546.821 81.5635 546.807 81.5553L528.685 71.2627C528.666 71.252 528.65 71.2366 528.639 71.218L522.161 60.1805C522.114 60.0996 521.997 60.0996 521.95 60.1805L510.093 80.3822C510.065 80.4297 510.009 80.4528 509.956 80.4388L494.23 76.2936C494.177 76.2796 494.121 76.3027 494.093 76.3502Z" fill="#CCEBFF" stroke="#B2B2B2" stroke-width="1.42284" stroke-miterlimit="10"/>
<path d="M546.909 173.827L552.601 162.444" stroke="#B2B2B2" stroke-width="1.42284" stroke-miterlimit="10" stroke-linecap="round"/>
<path d="M485.727 99.8395L492.841 87.0339" stroke="#B2B2B2" stroke-width="1.42284" stroke-miterlimit="10" stroke-linecap="round"/>
<path d="M549.755 142.525L555.446 132.565" stroke="#B2B2B2" stroke-width="1.42284" stroke-miterlimit="10" stroke-linecap="round"/>
<path d="M545.486 89.8796L561.138 112.645" stroke="#B2B2B2" stroke-width="1.42284" stroke-miterlimit="10" stroke-linecap="round"/>
<path d="M491.418 158.176L498.533 176.673" stroke="#B2B2B2" stroke-width="1.42284" stroke-miterlimit="10" stroke-linecap="round"/>
<path d="M528.412 71.3826L512.761 98.4165" stroke="#B2B2B2" stroke-width="1.42284" stroke-miterlimit="10" stroke-linecap="round"/>
<path d="M566.829 125.45L552.275 150.462C551.989 150.954 551.519 151.311 550.968 151.454L526.324 157.873C525.601 158.061 524.833 157.858 524.298 157.338L516.826 150.076" stroke="#B2B2B2" stroke-width="1.42284" stroke-miterlimit="10" stroke-linecap="round"/>
<path d="M544.063 125.45L529.383 104.852C529.106 104.464 528.708 104.18 528.251 104.044L505.547 97.326C504.848 97.119 504.091 97.2836 503.541 97.7625L489.445 110.029C488.901 110.502 488.632 111.218 488.732 111.932L490.608 125.45" stroke="#B2B2B2" stroke-width="1.42284" stroke-miterlimit="10" stroke-linecap="round"/>
<path d="M514.184 188.056L532.681 156.753" stroke="#B2B2B2" stroke-width="1.42284" stroke-miterlimit="10" stroke-linecap="round"/>
<path d="M454.425 125.451L593.863 125.451" stroke="#B2B2B2" stroke-width="1.42284" stroke-miterlimit="10" stroke-linecap="round"/>
<path d="M490.719 132.146V142.296H489.123V132.146H490.719ZM495.947 134.624C497.669 134.624 498.985 135.842 499.209 137.312H497.753C497.599 136.458 496.829 135.87 495.877 135.87C494.827 135.87 493.861 136.696 493.861 138.53C493.861 140.392 494.827 141.232 495.877 141.232C496.815 141.232 497.599 140.686 497.809 139.79H499.279C498.971 141.372 497.515 142.478 495.849 142.478C493.665 142.478 492.307 140.826 492.307 138.544C492.307 136.318 493.721 134.624 495.947 134.624ZM503.892 141.232C504.956 141.232 505.544 140.798 505.866 140.084H507.336C507 141.33 505.852 142.478 503.948 142.478C501.526 142.478 500.196 140.7 500.196 138.516C500.196 136.178 501.764 134.624 503.906 134.624C506.23 134.624 507.588 136.528 507.434 138.978H501.694C501.848 140.378 502.702 141.232 503.892 141.232ZM503.892 135.814C502.758 135.814 501.932 136.388 501.722 137.83H505.922C505.88 136.724 505.082 135.814 503.892 135.814ZM510.262 138.544C510.262 140.406 511.214 141.26 512.334 141.26C513.552 141.26 514.364 140.238 514.364 138.544C514.364 136.85 513.552 135.842 512.334 135.842C511.214 135.842 510.262 136.682 510.262 138.544ZM508.862 132.146H510.318V135.87C510.78 135.086 511.55 134.624 512.67 134.624C514.42 134.624 515.918 136.08 515.918 138.544C515.918 141.008 514.42 142.478 512.67 142.478C511.55 142.478 510.78 142.016 510.318 141.232V142.296H508.862V132.146ZM520.654 141.232C521.718 141.232 522.306 140.798 522.628 140.084H524.098C523.762 141.33 522.614 142.478 520.71 142.478C518.288 142.478 516.958 140.7 516.958 138.516C516.958 136.178 518.526 134.624 520.668 134.624C522.992 134.624 524.35 136.528 524.196 138.978H518.456C518.61 140.378 519.464 141.232 520.654 141.232ZM520.654 135.814C519.52 135.814 518.694 136.388 518.484 137.83H522.684C522.642 136.724 521.844 135.814 520.654 135.814ZM529.544 134.75V136.262C529.278 136.234 529.026 136.22 528.788 136.22C527.668 136.22 527.08 136.766 527.08 138.348V142.296H525.624V134.764H527.052V136.094C527.444 135.24 528.186 134.75 529.138 134.736C529.264 134.736 529.418 134.736 529.544 134.75ZM535.572 135.87V134.764H537.028V141.414C537.028 142.8 536.734 143.542 536.216 144.06C535.642 144.662 534.746 144.97 533.584 144.97C531.89 144.97 530.672 144.242 530.434 142.66H531.932C532.086 143.346 532.506 143.752 533.612 143.752C534.298 143.752 534.802 143.57 535.124 143.206C535.418 142.884 535.572 142.506 535.572 141.722V140.924C535.11 141.708 534.368 142.17 533.248 142.17C531.498 142.17 530.042 140.798 530.042 138.39C530.042 135.996 531.498 134.624 533.248 134.624C534.368 134.624 535.11 135.086 535.572 135.87ZM535.628 138.39C535.628 136.598 534.704 135.828 533.584 135.828C532.366 135.828 531.596 136.766 531.596 138.39C531.596 140.028 532.366 140.98 533.584 140.98C534.704 140.98 535.628 140.182 535.628 138.39Z" fill="#B2B2B2"/>
<path d="M276.401 304.729H309.247V317.534H388.806" stroke="#B2B2B2" stroke-width="1.42284" stroke-miterlimit="10"/>
<path d="M324.301 80.5646C327.632 80.5646 330.333 83.2882 330.333 86.6487V172.082C330.333 173.2 329.894 174.274 329.11 175.073L314.965 189.474C314.077 190.379 312.867 190.844 311.604 190.74C298.429 189.652 222.731 183.375 204.214 181.216C201.509 180.901 199.349 178.796 198.943 176.079C197.033 163.306 190.657 110.85 189.315 99.7676C189.154 98.4448 189.626 97.1603 190.581 96.2317L205.462 81.7718C206.258 80.9976 207.325 80.5645 208.436 80.5645L324.301 80.5646Z" fill="#CCCCCC" stroke="#B2B2B2" stroke-width="1.42284" stroke-miterlimit="10"/>
<rect x="187.873" y="95.2986" width="127.723" height="97.0201" rx="6.14051" fill="#F2F2F2" stroke="#B2B2B2" stroke-width="1.42284" stroke-miterlimit="10"/>
<rect x="200.521" y="111.011" width="7.22745" height="7.22745" rx="3.61373" fill="#F2F2F2" stroke="#B2B2B2" stroke-width="1.42284" stroke-miterlimit="10"/>
<rect x="212.266" y="111.011" width="7.22745" height="7.22745" rx="3.61373" fill="#F2F2F2" stroke="#B2B2B2" stroke-width="1.42284" stroke-miterlimit="10"/>
<rect x="224.011" y="111.011" width="7.22745" height="7.22745" rx="3.61373" fill="#F2F2F2" stroke="#B2B2B2" stroke-width="1.42284" stroke-miterlimit="10"/>
<rect x="270.988" y="111.011" width="31.6201" height="7.22745" rx="3.61373" fill="#F2F2F2" stroke="#B2B2B2" stroke-width="1.42284" stroke-miterlimit="10"/>
<rect x="200.521" y="140.83" width="7.22745" height="7.22745" rx="3.61373" fill="#F2F2F2" stroke="#B2B2B2" stroke-width="1.42284" stroke-miterlimit="10"/>
<rect x="212.266" y="140.83" width="7.22745" height="7.22745" rx="3.61373" fill="#F2F2F2" stroke="#B2B2B2" stroke-width="1.42284" stroke-miterlimit="10"/>
<rect x="224.011" y="140.83" width="7.22745" height="7.22745" rx="3.61373" fill="#F2F2F2" stroke="#B2B2B2" stroke-width="1.42284" stroke-miterlimit="10"/>
<rect x="200.521" y="170.637" width="7.22745" height="7.22745" rx="3.61373" fill="#F2F2F2" stroke="#B2B2B2" stroke-width="1.42284" stroke-miterlimit="10"/>
<rect x="212.266" y="170.637" width="7.22745" height="7.22745" rx="3.61373" fill="#F2F2F2" stroke="#B2B2B2" stroke-width="1.42284" stroke-miterlimit="10"/>
<rect x="224.011" y="170.637" width="7.22745" height="7.22745" rx="3.61373" fill="#F2F2F2" stroke="#B2B2B2" stroke-width="1.42284" stroke-miterlimit="10"/>
<path d="M188.354 161.021L315.698 161.021" stroke="#B2B2B2" stroke-width="1.42284" stroke-miterlimit="10"/>
<line x1="187.873" y1="130.203" x2="315.596" y2="130.203" stroke="#B2B2B2" stroke-width="1.42284" stroke-miterlimit="10"/>
<path d="M314.421 97.7052L329.104 83.021" stroke="#B2B2B2" stroke-width="1.42284" stroke-miterlimit="10"/>
<path d="M287.137 178.942C277.063 178.942 268.928 170.807 268.928 160.734C268.928 150.66 277.063 142.525 287.137 142.525C297.21 142.525 305.346 150.66 305.346 160.734C305.346 170.807 297.21 178.942 287.137 178.942Z" fill="#F2F2F2" stroke="#B2B2B2" stroke-width="1.42284" stroke-miterlimit="10" stroke-linecap="round"/>
<path d="M296.873 158.034H293.301V163.425H296.873C298.354 163.425 299.585 162.194 299.585 160.713C299.585 159.221 298.354 158.034 296.873 158.034Z" fill="#FFF100" stroke="#B2B2B2" stroke-width="1.42284" stroke-miterlimit="10" stroke-linecap="round"/>
<path d="M275.8 160.788C275.8 164.975 279.187 168.383 283.347 168.383C287.507 168.383 290.894 164.975 290.894 160.788C290.894 156.602 287.507 153.194 283.347 153.194C279.187 153.194 275.8 156.602 275.8 160.788Z" fill="#FFF100" stroke="#B2B2B2" stroke-width="1.42284" stroke-miterlimit="10" stroke-linecap="round"/>
</svg>
