<svg xmlns="http://www.w3.org/2000/svg" viewBox="0 0 800 420" width="800" height="420">
  <rect width="800" height="420" fill="#ffffff"/>
  <text x="400" y="36" text-anchor="middle" font-family="Arial, sans-serif" font-size="24" font-weight="700" fill="#111827">论证链: 先分层, 再决策</text>

  <rect x="36" y="78" width="150" height="88" rx="8" fill="#eff6ff" stroke="#2563eb"/>
  <text x="111" y="107" text-anchor="middle" font-family="Arial, sans-serif" font-size="15" font-weight="700" fill="#1e3a8a">前提A</text>
  <text x="111" y="132" text-anchor="middle" font-family="Arial, sans-serif" font-size="13" fill="#1f2937">交易所股票</text>
  <text x="111" y="152" text-anchor="middle" font-family="Arial, sans-serif" font-size="13" fill="#1f2937">有上市标准</text>

  <rect x="36" y="204" width="150" height="88" rx="8" fill="#ecfdf5" stroke="#059669"/>
  <text x="111" y="233" text-anchor="middle" font-family="Arial, sans-serif" font-size="15" font-weight="700" fill="#065f46">前提B</text>
  <text x="111" y="258" text-anchor="middle" font-family="Arial, sans-serif" font-size="13" fill="#1f2937">主板和成长板</text>
  <text x="111" y="278" text-anchor="middle" font-family="Arial, sans-serif" font-size="13" fill="#1f2937">定位不同</text>

  <rect x="244" y="78" width="150" height="88" rx="8" fill="#fff7ed" stroke="#f97316"/>
  <text x="319" y="107" text-anchor="middle" font-family="Arial, sans-serif" font-size="15" font-weight="700" fill="#9a3412">前提C</text>
  <text x="319" y="132" text-anchor="middle" font-family="Arial, sans-serif" font-size="13" fill="#1f2937">OTC披露</text>
  <text x="319" y="152" text-anchor="middle" font-family="Arial, sans-serif" font-size="13" fill="#1f2937">流动性差异大</text>

  <rect x="244" y="204" width="150" height="88" rx="8" fill="#fef2f2" stroke="#dc2626"/>
  <text x="319" y="233" text-anchor="middle" font-family="Arial, sans-serif" font-size="15" font-weight="700" fill="#991b1b">前提D</text>
  <text x="319" y="258" text-anchor="middle" font-family="Arial, sans-serif" font-size="13" fill="#1f2937">券商页面</text>
  <text x="319" y="278" text-anchor="middle" font-family="Arial, sans-serif" font-size="13" fill="#1f2937">容易隐藏层级</text>

  <path d="M186 122 H224" stroke="#6b7280" stroke-width="2"/>
  <polygon points="224,122 214,116 214,128" fill="#6b7280"/>
  <path d="M186 248 H224" stroke="#6b7280" stroke-width="2"/>
  <polygon points="224,248 214,242 214,254" fill="#6b7280"/>
  <path d="M394 122 C448 122 448 188 492 188" stroke="#6b7280" stroke-width="2" fill="none"/>
  <polygon points="492,188 481,183 483,195" fill="#6b7280"/>
  <path d="M394 248 C448 248 448 214 492 214" stroke="#6b7280" stroke-width="2" fill="none"/>
  <polygon points="492,214 481,208 483,220" fill="#6b7280"/>

  <rect x="492" y="150" width="130" height="92" rx="8" fill="#f3f4f6" stroke="#6b7280"/>
  <text x="557" y="180" text-anchor="middle" font-family="Arial, sans-serif" font-size="16" font-weight="700" fill="#111827">推导</text>
  <text x="557" y="205" text-anchor="middle" font-family="Arial, sans-serif" font-size="13" fill="#374151">同样叫美股</text>
  <text x="557" y="225" text-anchor="middle" font-family="Arial, sans-serif" font-size="13" fill="#374151">风险边界不同</text>

  <path d="M622 196 H668" stroke="#6b7280" stroke-width="2"/>
  <polygon points="668,196 658,190 658,202" fill="#6b7280"/>

  <rect x="668" y="128" width="96" height="136" rx="8" fill="#111827"/>
  <text x="716" y="163" text-anchor="middle" font-family="Arial, sans-serif" font-size="15" font-weight="700" fill="#ffffff">结论</text>
  <text x="716" y="190" text-anchor="middle" font-family="Arial, sans-serif" font-size="13" fill="#e5e7eb">先查层级</text>
  <text x="716" y="212" text-anchor="middle" font-family="Arial, sans-serif" font-size="13" fill="#e5e7eb">再查披露</text>
  <text x="716" y="234" text-anchor="middle" font-family="Arial, sans-serif" font-size="13" fill="#e5e7eb">最后定仓位</text>

  <rect x="84" y="335" width="632" height="44" rx="8" fill="#f9fafb" stroke="#d1d5db"/>
  <text x="400" y="363" text-anchor="middle" font-family="Arial, sans-serif" font-size="15" fill="#111827">操作结论: NYSE/Nasdaq宽基和大盘股优先学习, NYSE American谨慎筛, OTC默认不交易</text>
</svg>
