<?xml version="1.0" encoding="UTF-8" standalone="no"?>
<!DOCTYPE svg PUBLIC "-//W3C//DTD SVG 1.1//EN" "http://www.w3.org/Graphics/SVG/1.1/DTD/svg11.dtd">
<svg width="100%" height="100%" viewBox="0 0 1240 886" version="1.1" xmlns="http://www.w3.org/2000/svg" xmlns:xlink="http://www.w3.org/1999/xlink" xml:space="preserve" xmlns:serif="http://www.serif.com/" style="fill-rule:evenodd;clip-rule:evenodd;stroke-linecap:round;stroke-linejoin:round;stroke-miterlimit:1.5;">
    <g transform="matrix(1,0,0,1,-337.097,-1340.94)">
        <g transform="matrix(2.5777,0,0,2.52983,-701.717,351.773)">
            <path d="M884,419.012C884,403.552 871.681,391 856.508,391L430.492,391C415.319,391 403,403.552 403,419.012L403,712.988C403,728.448 415.319,741 430.492,741L856.508,741C871.681,741 884,728.448 884,712.988L884,419.012Z" style="fill:rgb(242,242,242);"/>
        </g>
        <g transform="matrix(1,0,0,1,295,0)">
            <g transform="matrix(0.491103,0,0,1.01237,198.606,1417.15)">
                <path d="M884,426C884,406.683 851.671,391 811.85,391L475.15,391C435.329,391 403,406.683 403,426L403,706C403,725.317 435.329,741 475.15,741L811.85,741C851.671,741 884,725.317 884,706L884,426Z" style="fill:rgb(204,204,204);stroke:black;stroke-width:5.24px;"/>
            </g>
            <g transform="matrix(1,0,0,1,-6.47988,1421.99)">
                <text x="445.854px" y="563.222px" style="font-family:'Menlo-Regular', 'Menlo', monospace;font-size:41.667px;">Sorted</text>
                <text x="458.397px" y="604.888px" style="font-family:'Menlo-Regular', 'Menlo', monospace;font-size:41.667px;">Run 2</text>
            </g>
        </g>
        <g transform="matrix(1,0,0,1,590.293,0)">
            <g transform="matrix(0.491103,0,0,1.01237,198.606,1417.15)">
                <path d="M884,426C884,406.683 851.671,391 811.85,391L475.15,391C435.329,391 403,406.683 403,426L403,706C403,725.317 435.329,741 475.15,741L811.85,741C851.671,741 884,725.317 884,706L884,426Z" style="fill:rgb(204,204,204);stroke:black;stroke-width:5.24px;"/>
            </g>
            <g transform="matrix(1,0,0,1,-6.47988,1421.99)">
                <text x="445.854px" y="563.222px" style="font-family:'Menlo-Regular', 'Menlo', monospace;font-size:41.667px;">Sorted</text>
                <text x="458.397px" y="604.888px" style="font-family:'Menlo-Regular', 'Menlo', monospace;font-size:41.667px;">Run 3</text>
            </g>
        </g>
        <g transform="matrix(1,0,0,1,885.293,2.27374e-13)">
            <g transform="matrix(0.491103,0,0,1.01237,198.606,1417.15)">
                <path d="M884,426C884,406.683 851.671,391 811.85,391L475.15,391C435.329,391 403,406.683 403,426L403,706C403,725.317 435.329,741 475.15,741L811.85,741C851.671,741 884,725.317 884,706L884,426Z" style="fill:rgb(204,204,204);stroke:black;stroke-width:5.24px;"/>
            </g>
            <g transform="matrix(1,0,0,1,-6.47988,1421.99)">
                <text x="445.854px" y="563.222px" style="font-family:'Menlo-Regular', 'Menlo', monospace;font-size:41.667px;">Sorted</text>
                <text x="458.397px" y="604.888px" style="font-family:'Menlo-Regular', 'Menlo', monospace;font-size:41.667px;">Run 4</text>
            </g>
        </g>
        <g>
            <g transform="matrix(0.491103,0,0,1.01237,198.606,1417.15)">
                <path d="M884,426C884,406.683 851.671,391 811.85,391L475.15,391C435.329,391 403,406.683 403,426L403,706C403,725.317 435.329,741 475.15,741L811.85,741C851.671,741 884,725.317 884,706L884,426Z" style="fill:rgb(204,204,204);stroke:black;stroke-width:5.24px;"/>
            </g>
            <g transform="matrix(1,0,0,1,-6.47988,1421.99)">
                <text x="445.854px" y="563.222px" style="font-family:'Menlo-Regular', 'Menlo', monospace;font-size:41.667px;">Sorted</text>
                <text x="458.397px" y="604.888px" style="font-family:'Menlo-Regular', 'Menlo', monospace;font-size:41.667px;">Run 1</text>
            </g>
        </g>
        <g transform="matrix(0.491103,0,0,1.01237,641.009,1003.77)">
            <path d="M884,426C884,406.683 851.671,391 811.85,391L475.15,391C435.329,391 403,406.683 403,426L403,706C403,725.317 435.329,741 475.15,741L811.85,741C851.671,741 884,725.317 884,706L884,426Z" style="fill:rgb(204,204,204);stroke:black;stroke-width:5.24px;"/>
        </g>
        <g transform="matrix(1,0,0,1,435.923,1008.61)">
            <text x="445.854px" y="506.112px" style="font-family:'Menlo-Regular', 'Menlo', monospace;font-size:41.667px;">Output</text>
            <text x="433.311px" y="547.779px" style="font-family:'Menlo-Regular', 'Menlo', monospace;font-size:41.667px;">Chunk 1</text>
        </g>
        <path d="M396.52,1893.99L632.741,1893.99" style="fill:none;stroke:black;stroke-width:4.17px;"/>
        <path d="M514.63,1855L957.034,1576.77" style="fill:none;stroke:black;stroke-width:4.17px;"/>
        <path d="M809.63,1880L957.034,1576.77" style="fill:none;stroke:black;stroke-width:4.17px;"/>
        <path d="M1104.92,1846L957.034,1576.77" style="fill:none;stroke:black;stroke-width:4.17px;"/>
        <path d="M1399.92,1870L957.034,1576.77" style="fill:none;stroke:black;stroke-width:4.17px;"/>
        <g transform="matrix(1,0,0,1,295,31)">
            <path d="M396.52,1893.99L632.741,1893.99" style="fill:none;stroke:black;stroke-width:4.17px;"/>
        </g>
        <g transform="matrix(1,0,0,1,590.293,-14)">
            <path d="M396.52,1893.99L632.741,1893.99" style="fill:none;stroke:black;stroke-width:4.17px;"/>
        </g>
        <g transform="matrix(1,0,0,1,885.293,28)">
            <path d="M396.52,1893.99L632.741,1893.99" style="fill:none;stroke:black;stroke-width:4.17px;"/>
        </g>
    </g>
</svg>
