<?xml version="1.0" encoding="UTF-8" standalone="no"?>
<!DOCTYPE svg PUBLIC "-//W3C//DTD SVG 1.1//EN" "http://www.w3.org/Graphics/SVG/1.1/DTD/svg11.dtd">
<svg width="100%" height="100%" viewBox="0 0 2008 473" version="1.1" xmlns="http://www.w3.org/2000/svg" xmlns:xlink="http://www.w3.org/1999/xlink" xml:space="preserve" xmlns:serif="http://www.serif.com/" style="fill-rule:evenodd;clip-rule:evenodd;stroke-linecap:round;stroke-linejoin:round;stroke-miterlimit:1.5;">
    <g transform="matrix(1,0,0,1,-219.097,-329.78)">
        <g transform="matrix(4.17437,0,0,1.34983,-1463.18,-198.004)">
            <path d="M884,443.5C884,414.524 876.393,391 867.024,391L419.976,391C410.607,391 403,414.524 403,443.5L403,688.5C403,717.476 410.607,741 419.976,741L867.024,741C876.393,741 884,717.476 884,688.5L884,443.5Z" style="fill:rgb(242,242,242);"/>
        </g>
        <g>
            <g transform="matrix(0.982206,0,0,1.01237,-117.419,-7.00337)">
                <path d="M884,443.5C884,414.524 859.753,391 829.887,391L457.113,391C427.247,391 403,414.524 403,443.5L403,688.5C403,717.476 427.247,741 457.113,741L829.887,741C859.753,741 884,717.476 884,688.5L884,443.5Z" style="fill:rgb(204,204,204);stroke:black;stroke-width:4.18px;"/>
                <g transform="matrix(1.01812,0,0,0.987778,-7.30102,4.77889)">
                    <text x="451.08px" y="584.055px" style="font-family:'Menlo-Regular', 'Menlo', monospace;font-size:41.667px;">Tuples 0 - 10 K</text>
                </g>
            </g>
            <g transform="matrix(0.982206,0,0,1.01237,591.106,-7.00337)">
                <path d="M884,443.5C884,414.524 859.753,391 829.887,391L457.113,391C427.247,391 403,414.524 403,443.5L403,688.5C403,717.476 427.247,741 457.113,741L829.887,741C859.753,741 884,717.476 884,688.5L884,443.5Z" style="fill:rgb(204,204,204);stroke:black;stroke-width:4.18px;"/>
                <g transform="matrix(1.01812,0,0,0.987778,-7.30102,4.77889)">
                    <text x="413.451px" y="584.055px" style="font-family:'Menlo-Regular', 'Menlo', monospace;font-size:41.667px;">Tuples 10 K - 20 K</text>
                </g>
            </g>
            <g transform="matrix(0.982206,0,0,1.01237,1299.39,-7.00337)">
                <path d="M884,443.5C884,414.524 859.753,391 829.887,391L457.113,391C427.247,391 403,414.524 403,443.5L403,688.5C403,717.476 427.247,741 457.113,741L829.887,741C859.753,741 884,717.476 884,688.5L884,443.5Z" style="fill:rgb(204,204,204);stroke:black;stroke-width:4.18px;"/>
                <g transform="matrix(1.01812,0,0,0.987778,-7.30102,4.77889)">
                    <text x="412.618px" y="584.055px" style="font-family:'Menlo-Regular', 'Menlo', monospace;font-size:41.667px;">Tuples</text>
                    <text x="588.216px" y="584.055px" style="font-family:'Menlo-Regular', 'Menlo', monospace;font-size:41.667px;">2</text>
                    <text x="614.968px" y="584.055px" style="font-family:'Menlo-Regular', 'Menlo', monospace;font-size:41.667px;">0 K - 30 K</text>
                </g>
            </g>
            <g transform="matrix(1,0,0,1,-12.7226,0)">
                <g transform="matrix(1,-0,-0,1,231.819,329.78)">
                    <path d="M743.507,74.977L767.838,61.22L764.244,88.939L743.507,74.977Z"/>
                    <path d="M532.181,411.22C532.181,411.22 709.893,147.281 756.668,77.81" style="fill:none;stroke:black;stroke-width:4.17px;"/>
                </g>
            </g>
            <g transform="matrix(1,0,0,1,695.376,0)">
                <g transform="matrix(1,-0,-0,1,-476.279,329.78)">
                    <path d="M1451.61,74.977L1475.94,61.22L1472.34,88.939L1451.61,74.977Z"/>
                    <path d="M1240.28,411.22C1240.28,411.22 1417.99,147.281 1464.77,77.81" style="fill:none;stroke:black;stroke-width:4.17px;"/>
                </g>
            </g>
        </g>
    </g>
</svg>
