<svg width="1041" height="606" viewBox="0 0 1041 606" fill="none" xmlns="http://www.w3.org/2000/svg">
<path d="M15 0.5H1026C1034.01 0.500012 1040.5 6.99188 1040.5 15V591C1040.5 599.008 1034.01 605.5 1026 605.5H15C6.99188 605.5 0.5 599.008 0.5 591V15C0.500007 7.11693 6.79071 0.703272 14.626 0.504883L15 0.5Z" fill="#F2F2F2"/>
<path d="M15 0.5H1026C1034.01 0.500012 1040.5 6.99188 1040.5 15V591C1040.5 599.008 1034.01 605.5 1026 605.5H15C6.99188 605.5 0.5 599.008 0.5 591V15C0.500007 7.11693 6.79071 0.703272 14.626 0.504883L15 0.5Z" stroke="#E6E6E6"/>
<path d="M30 35C30 32.2386 32.2386 30 35 30H297C299.761 30 302 32.2386 302 35V76C302 78.7614 299.761 81 297 81H35C32.2386 81 30 78.7614 30 76V35Z" fill="#E6E6E6"/>
<path d="M49.63 55.966C49.63 52.06 47.308 51.466 44.932 51.466H43.744V60.484H44.932C47.308 60.484 49.63 59.908 49.63 55.966ZM41.17 49.45H45.04C49.18 49.45 52.294 50.782 52.294 55.966C52.294 61.15 49.18 62.5 45.04 62.5H41.17V49.45ZM59.8006 62.5V61.222C59.2426 62.212 58.1806 62.734 56.9746 62.734C54.6526 62.734 53.7166 61.312 53.7166 58.936V52.816H56.2006V58.396C56.2006 59.692 56.3986 60.736 57.7846 60.736C59.4406 60.736 59.8006 59.386 59.8006 57.856V52.816H62.2846V62.5H59.8006ZM68.7425 52.6C70.7765 52.6 72.7925 53.734 73.1345 56.128H70.7585C70.5605 55.192 69.6965 54.526 68.7425 54.526C67.4465 54.526 66.4205 55.624 66.4205 57.64C66.4205 59.674 67.3925 60.808 68.7605 60.808C69.6245 60.808 70.5065 60.358 70.8485 59.206H73.2245C72.6485 61.852 70.6505 62.734 68.6345 62.734C65.7365 62.734 63.8825 60.61 63.8825 57.676C63.8825 54.724 65.8445 52.6 68.7425 52.6ZM74.7078 49.45H77.1918V56.704L80.7198 52.816H83.5098L80.0358 56.524L83.7078 62.5H80.9178L78.3798 58.306L77.1918 59.584V62.5H74.7078V49.45ZM93.2062 55.966C93.2062 52.06 90.8842 51.466 88.5082 51.466H87.3202V60.484H88.5082C90.8842 60.484 93.2062 59.908 93.2062 55.966ZM84.7462 49.45H88.6162C92.7562 49.45 95.8702 50.782 95.8702 55.966C95.8702 61.15 92.7562 62.5 88.6162 62.5H84.7462V49.45ZM97.6837 62.5V49.45H102.76C105.046 49.45 107.512 50.17 107.512 52.852C107.512 54.076 106.702 55.174 106.036 55.606C107.044 56.092 107.98 56.848 107.98 58.648C107.98 61.456 105.658 62.5 102.976 62.5H97.6837ZM100.258 56.776V60.484H103.102C104.614 60.484 105.352 59.854 105.352 58.648C105.352 57.424 104.596 56.776 102.994 56.776H100.258ZM100.258 51.466V54.832H102.922C104.146 54.832 104.866 54.256 104.866 53.104C104.866 52.078 104.128 51.466 102.922 51.466H100.258ZM118.503 62.734C115.011 62.734 113.247 59.908 113.247 55.948C113.247 51.988 115.011 49.216 118.503 49.216C121.959 49.216 123.741 51.988 123.741 55.948C123.741 59.908 121.959 62.734 118.503 62.734ZM118.503 60.862C120.285 60.862 121.203 59.098 121.203 55.948C121.203 52.798 120.285 51.088 118.503 51.088C116.721 51.088 115.785 52.798 115.785 55.948C115.785 59.098 116.721 60.862 118.503 60.862ZM127.5 62.5H124.836V59.8H127.5V62.5ZM132.121 49.45V51.322L133.903 50.638L134.497 52.204L132.661 52.834L133.759 54.364L132.463 55.336L131.293 53.77L130.231 55.336L128.827 54.382L129.925 52.852L128.125 52.204L128.701 50.638L130.447 51.322V49.45H132.121Z" fill="#0D0D0D"/>
<rect x="307" y="30" width="151" height="51" rx="5" fill="#E6E6E6"/>
<rect x="463" y="30" width="151" height="51" rx="5" fill="#E6E6E6"/>
<rect x="619" y="30" width="151" height="51" rx="5" fill="#E6E6E6"/>
<rect x="775" y="30" width="151" height="51" rx="5" fill="#E6E6E6"/>
<rect x="931" y="30" width="75.5" height="51" rx="5" fill="#E6E6E6"/>
<rect x="285" y="43" width="93" height="26" rx="6" fill="#666666"/>
<path d="M30 91C30 88.2386 32.2386 86 35 86H297C299.761 86 302 88.2386 302 91V132C302 134.761 299.761 137 297 137H35C32.2386 137 30 134.761 30 132V91Z" fill="#F2F2F2"/>
<path d="M49.63 111.966C49.63 108.06 47.308 107.466 44.932 107.466H43.744V116.484H44.932C47.308 116.484 49.63 115.908 49.63 111.966ZM41.17 105.45H45.04C49.18 105.45 52.294 106.782 52.294 111.966C52.294 117.15 49.18 118.5 45.04 118.5H41.17V105.45ZM59.8006 118.5V117.222C59.2426 118.212 58.1806 118.734 56.9746 118.734C54.6526 118.734 53.7166 117.312 53.7166 114.936V108.816H56.2006V114.396C56.2006 115.692 56.3986 116.736 57.7846 116.736C59.4406 116.736 59.8006 115.386 59.8006 113.856V108.816H62.2846V118.5H59.8006ZM68.7425 108.6C70.7765 108.6 72.7925 109.734 73.1345 112.128H70.7585C70.5605 111.192 69.6965 110.526 68.7425 110.526C67.4465 110.526 66.4205 111.624 66.4205 113.64C66.4205 115.674 67.3925 116.808 68.7605 116.808C69.6245 116.808 70.5065 116.358 70.8485 115.206H73.2245C72.6485 117.852 70.6505 118.734 68.6345 118.734C65.7365 118.734 63.8825 116.61 63.8825 113.676C63.8825 110.724 65.8445 108.6 68.7425 108.6ZM74.7078 105.45H77.1918V112.704L80.7198 108.816H83.5098L80.0358 112.524L83.7078 118.5H80.9178L78.3798 114.306L77.1918 115.584V118.5H74.7078V105.45ZM93.2062 111.966C93.2062 108.06 90.8842 107.466 88.5082 107.466H87.3202V116.484H88.5082C90.8842 116.484 93.2062 115.908 93.2062 111.966ZM84.7462 105.45H88.6162C92.7562 105.45 95.8702 106.782 95.8702 111.966C95.8702 117.15 92.7562 118.5 88.6162 118.5H84.7462V105.45ZM97.6837 118.5V105.45H102.76C105.046 105.45 107.512 106.17 107.512 108.852C107.512 110.076 106.702 111.174 106.036 111.606C107.044 112.092 107.98 112.848 107.98 114.648C107.98 117.456 105.658 118.5 102.976 118.5H97.6837ZM100.258 112.776V116.484H103.102C104.614 116.484 105.352 115.854 105.352 114.648C105.352 113.424 104.596 112.776 102.994 112.776H100.258ZM100.258 107.466V110.832H102.922C104.146 110.832 104.866 110.256 104.866 109.104C104.866 108.078 104.128 107.466 102.922 107.466H100.258ZM117.819 118.5H115.335V108.744H112.527V107.052C114.399 106.998 115.317 106.872 115.929 105.45H117.819V118.5ZM122.578 118.5H119.914V115.8H122.578V118.5ZM128.927 118.734C125.435 118.734 123.671 115.908 123.671 111.948C123.671 107.988 125.435 105.216 128.927 105.216C132.383 105.216 134.165 107.988 134.165 111.948C134.165 115.908 132.383 118.734 128.927 118.734ZM128.927 116.862C130.709 116.862 131.627 115.098 131.627 111.948C131.627 108.798 130.709 107.088 128.927 107.088C127.145 107.088 126.209 108.798 126.209 111.948C126.209 115.098 127.145 116.862 128.927 116.862ZM151.115 118.5H147.767L142.547 108.546V118.5H140.117V105.45H143.465L148.685 115.404V105.45H151.115V118.5ZM153.405 108.816H155.889V118.5H153.405V108.816ZM153.405 105.45H155.889V107.754H153.405V105.45ZM159.61 108.816L161.878 115.98L164.146 108.816H166.612L163.138 118.5H160.528L157 108.816H159.61ZM167.731 108.816H170.215V118.5H167.731V108.816ZM167.731 105.45H170.215V107.754H167.731V105.45ZM180.218 111.732H177.896C177.698 110.922 176.978 110.346 175.826 110.346C174.908 110.346 174.26 110.688 174.26 111.282C174.26 111.804 174.638 112.2 175.556 112.398L176.852 112.686C178.778 113.118 180.416 113.604 180.416 115.602C180.416 117.546 178.418 118.734 176.222 118.734C173.846 118.734 172.046 117.51 171.812 115.296H174.206C174.35 116.232 174.998 116.934 176.294 116.934C177.374 116.934 178.04 116.538 178.04 115.836C178.04 115.116 177.302 114.846 176.456 114.648L175.016 114.342C173.198 113.964 171.992 113.208 171.992 111.444C171.992 109.716 173.864 108.564 175.952 108.564C177.968 108.564 179.876 109.5 180.218 111.732Z" fill="#0D0D0D"/>
<rect x="307" y="86" width="151" height="51" rx="5" fill="#F2F2F2"/>
<rect x="463" y="86" width="151" height="51" rx="5" fill="#F2F2F2"/>
<rect x="619" y="86" width="151" height="51" rx="5" fill="#F2F2F2"/>
<rect x="775" y="86" width="151" height="51" rx="5" fill="#F2F2F2"/>
<rect x="931" y="86" width="75.5" height="51" rx="5" fill="#F2F2F2"/>
<rect x="377" y="98" width="47" height="28" rx="6" fill="#666666"/>
<path d="M30 147C30 144.239 32.2386 142 35 142H297C299.761 142 302 144.239 302 147V188C302 190.761 299.761 193 297 193H35C32.2386 193 30 190.761 30 188V147Z" fill="#E6E6E6"/>
<path d="M49.63 167.966C49.63 164.06 47.308 163.466 44.932 163.466H43.744V172.484H44.932C47.308 172.484 49.63 171.908 49.63 167.966ZM41.17 161.45H45.04C49.18 161.45 52.294 162.782 52.294 167.966C52.294 173.15 49.18 174.5 45.04 174.5H41.17V161.45ZM59.8006 174.5V173.222C59.2426 174.212 58.1806 174.734 56.9746 174.734C54.6526 174.734 53.7166 173.312 53.7166 170.936V164.816H56.2006V170.396C56.2006 171.692 56.3986 172.736 57.7846 172.736C59.4406 172.736 59.8006 171.386 59.8006 169.856V164.816H62.2846V174.5H59.8006ZM68.7425 164.6C70.7765 164.6 72.7925 165.734 73.1345 168.128H70.7585C70.5605 167.192 69.6965 166.526 68.7425 166.526C67.4465 166.526 66.4205 167.624 66.4205 169.64C66.4205 171.674 67.3925 172.808 68.7605 172.808C69.6245 172.808 70.5065 172.358 70.8485 171.206H73.2245C72.6485 173.852 70.6505 174.734 68.6345 174.734C65.7365 174.734 63.8825 172.61 63.8825 169.676C63.8825 166.724 65.8445 164.6 68.7425 164.6ZM74.7078 161.45H77.1918V168.704L80.7198 164.816H83.5098L80.0358 168.524L83.7078 174.5H80.9178L78.3798 170.306L77.1918 171.584V174.5H74.7078V161.45ZM93.2062 167.966C93.2062 164.06 90.8842 163.466 88.5082 163.466H87.3202V172.484H88.5082C90.8842 172.484 93.2062 171.908 93.2062 167.966ZM84.7462 161.45H88.6162C92.7562 161.45 95.8702 162.782 95.8702 167.966C95.8702 173.15 92.7562 174.5 88.6162 174.5H84.7462V161.45ZM97.6837 174.5V161.45H102.76C105.046 161.45 107.512 162.17 107.512 164.852C107.512 166.076 106.702 167.174 106.036 167.606C107.044 168.092 107.98 168.848 107.98 170.648C107.98 173.456 105.658 174.5 102.976 174.5H97.6837ZM100.258 168.776V172.484H103.102C104.614 172.484 105.352 171.854 105.352 170.648C105.352 169.424 104.596 168.776 102.994 168.776H100.258ZM100.258 163.466V166.832H102.922C104.146 166.832 104.866 166.256 104.866 165.104C104.866 164.078 104.128 163.466 102.922 163.466H100.258ZM117.819 174.5H115.335V164.744H112.527V163.052C114.399 162.998 115.317 162.872 115.929 161.45H117.819V174.5ZM122.578 174.5H119.914V171.8H122.578V174.5ZM127.892 174.5H125.408V164.744H122.6V163.052C124.472 162.998 125.39 162.872 126.002 161.45H127.892V174.5ZM134.475 174.5V161.45H143.979V163.538H137.049V166.778H143.601V168.866H137.049V172.412H143.979V174.5H134.475ZM151.473 170.792V170.072C148.683 170.36 147.585 170.684 147.585 171.764C147.585 172.466 148.125 173.042 149.259 173.042C150.825 173.042 151.473 172.214 151.473 170.792ZM151.689 173.294C150.987 174.302 149.979 174.734 148.521 174.734C146.667 174.734 145.029 173.654 145.029 171.89C145.029 169.604 147.585 168.92 151.401 168.488V168.326C151.401 166.832 150.591 166.31 149.583 166.31C148.629 166.31 147.837 166.796 147.783 167.876H145.461C145.659 165.968 147.207 164.564 149.709 164.564C151.995 164.564 153.885 165.572 153.885 168.83C153.885 169.118 153.849 170.432 153.849 171.296C153.849 172.826 153.939 173.69 154.137 174.5H151.851C151.779 174.194 151.743 173.78 151.689 173.294ZM156.296 164.816V162.188H158.78V164.816H160.796V166.526H158.78V171.53C158.78 172.52 159.122 172.718 160.004 172.718H160.76V174.5H158.942C156.71 174.5 156.296 173.816 156.296 171.89V166.526H154.928V164.816H156.296ZM166.599 166.544C165.231 166.544 164.259 167.642 164.259 169.676C164.259 171.71 165.231 172.79 166.599 172.79C167.967 172.79 168.939 171.71 168.939 169.676C168.939 167.642 167.967 166.544 166.599 166.544ZM166.599 174.734C164.151 174.734 161.739 173.06 161.739 169.676C161.739 166.274 164.151 164.6 166.599 164.6C169.047 164.6 171.459 166.274 171.459 169.676C171.459 173.06 169.047 174.734 166.599 174.734ZM175.524 164.816V166.094C176.082 165.104 177.126 164.6 178.332 164.6C180.654 164.6 181.68 166.004 181.68 168.398V174.5H179.196V168.938C179.196 167.696 178.926 166.598 177.522 166.598C175.884 166.598 175.524 167.93 175.524 169.46V174.5H173.04V164.816H175.524ZM183.762 164.816H186.246V174.5H183.762V164.816ZM183.762 161.45H186.246V163.754H183.762V161.45Z" fill="#0D0D0D"/>
<rect x="307" y="142" width="151" height="51" rx="5" fill="#E6E6E6"/>
<rect x="463" y="142" width="151" height="51" rx="5" fill="#E6E6E6"/>
<rect x="619" y="142" width="151" height="51" rx="5" fill="#E6E6E6"/>
<rect x="775" y="142" width="151" height="51" rx="5" fill="#E6E6E6"/>
<rect x="931" y="142" width="75.5" height="51" rx="5" fill="#E6E6E6"/>
<rect x="423" y="153.5" width="62" height="29" rx="6" fill="#666666"/>
<path d="M30 203C30 200.239 32.2386 198 35 198H297C299.761 198 302 200.239 302 203V244C302 246.761 299.761 249 297 249H35C32.2386 249 30 246.761 30 244V203Z" fill="#F2F2F2"/>
<path d="M49.63 223.966C49.63 220.06 47.308 219.466 44.932 219.466H43.744V228.484H44.932C47.308 228.484 49.63 227.908 49.63 223.966ZM41.17 217.45H45.04C49.18 217.45 52.294 218.782 52.294 223.966C52.294 229.15 49.18 230.5 45.04 230.5H41.17V217.45ZM59.8006 230.5V229.222C59.2426 230.212 58.1806 230.734 56.9746 230.734C54.6526 230.734 53.7166 229.312 53.7166 226.936V220.816H56.2006V226.396C56.2006 227.692 56.3986 228.736 57.7846 228.736C59.4406 228.736 59.8006 227.386 59.8006 225.856V220.816H62.2846V230.5H59.8006ZM68.7425 220.6C70.7765 220.6 72.7925 221.734 73.1345 224.128H70.7585C70.5605 223.192 69.6965 222.526 68.7425 222.526C67.4465 222.526 66.4205 223.624 66.4205 225.64C66.4205 227.674 67.3925 228.808 68.7605 228.808C69.6245 228.808 70.5065 228.358 70.8485 227.206H73.2245C72.6485 229.852 70.6505 230.734 68.6345 230.734C65.7365 230.734 63.8825 228.61 63.8825 225.676C63.8825 222.724 65.8445 220.6 68.7425 220.6ZM74.7078 217.45H77.1918V224.704L80.7198 220.816H83.5098L80.0358 224.524L83.7078 230.5H80.9178L78.3798 226.306L77.1918 227.584V230.5H74.7078V217.45ZM93.2062 223.966C93.2062 220.06 90.8842 219.466 88.5082 219.466H87.3202V228.484H88.5082C90.8842 228.484 93.2062 227.908 93.2062 223.966ZM84.7462 217.45H88.6162C92.7562 217.45 95.8702 218.782 95.8702 223.966C95.8702 229.15 92.7562 230.5 88.6162 230.5H84.7462V217.45ZM97.6837 230.5V217.45H102.76C105.046 217.45 107.512 218.17 107.512 220.852C107.512 222.076 106.702 223.174 106.036 223.606C107.044 224.092 107.98 224.848 107.98 226.648C107.98 229.456 105.658 230.5 102.976 230.5H97.6837ZM100.258 224.776V228.484H103.102C104.614 228.484 105.352 227.854 105.352 226.648C105.352 225.424 104.596 224.776 102.994 224.776H100.258ZM100.258 219.466V222.832H102.922C104.146 222.832 104.866 222.256 104.866 221.104C104.866 220.078 104.128 219.466 102.922 219.466H100.258ZM117.819 230.5H115.335V220.744H112.527V219.052C114.399 218.998 115.317 218.872 115.929 217.45H117.819V230.5ZM122.578 230.5H119.914V227.8H122.578V230.5ZM129.564 217.216C132.174 217.216 133.848 218.44 133.848 220.726C133.848 223.156 131.472 225.73 127.458 228.412H134.154V230.5H124.56V228.484C128.754 225.118 131.346 222.922 131.346 220.852C131.346 219.7 130.644 219.052 129.42 219.052C128.322 219.052 127.206 219.718 127.206 221.662H124.794C124.74 218.98 126.684 217.216 129.564 217.216ZM148.225 217.45H150.799V230.5H148.225V224.866H142.375V230.5H139.801V217.45H142.375V222.778H148.225V217.45ZM153.089 220.816H155.573V230.5H153.089V220.816ZM153.089 217.45H155.573V219.754H153.089V217.45ZM165.576 223.732H163.254C163.056 222.922 162.336 222.346 161.184 222.346C160.266 222.346 159.618 222.688 159.618 223.282C159.618 223.804 159.996 224.2 160.914 224.398L162.21 224.686C164.136 225.118 165.774 225.604 165.774 227.602C165.774 229.546 163.776 230.734 161.58 230.734C159.204 230.734 157.404 229.51 157.17 227.296H159.564C159.708 228.232 160.356 228.934 161.652 228.934C162.732 228.934 163.398 228.538 163.398 227.836C163.398 227.116 162.66 226.846 161.814 226.648L160.374 226.342C158.556 225.964 157.35 225.208 157.35 223.444C157.35 221.716 159.222 220.564 161.31 220.564C163.326 220.564 165.234 221.5 165.576 223.732ZM167.792 220.816V218.188H170.276V220.816H172.292V222.526H170.276V227.53C170.276 228.52 170.618 228.718 171.5 228.718H172.256V230.5H170.438C168.206 230.5 167.792 229.816 167.792 227.89V222.526H166.424V220.816H167.792ZM179.428 220.87V223.21C179.068 223.156 178.762 223.156 178.402 223.156C177.178 223.156 176.368 223.606 176.368 225.424V230.5H173.884V220.816H176.332V222.508C176.89 221.302 177.754 220.834 178.888 220.834C179.05 220.834 179.266 220.852 179.428 220.87ZM180.704 220.816H183.188V230.5H180.704V220.816ZM180.704 217.45H183.188V219.754H180.704V217.45ZM189.627 222.544C188.259 222.544 187.287 223.642 187.287 225.676C187.287 227.71 188.259 228.79 189.627 228.79C190.995 228.79 191.967 227.71 191.967 225.676C191.967 223.642 190.995 222.544 189.627 222.544ZM189.627 230.734C187.179 230.734 184.767 229.06 184.767 225.676C184.767 222.274 187.179 220.6 189.627 220.6C192.075 220.6 194.487 222.274 194.487 225.676C194.487 229.06 192.075 230.734 189.627 230.734ZM198.551 220.816V222.094C199.109 221.104 200.153 220.6 201.359 220.6C203.681 220.6 204.707 222.004 204.707 224.398V230.5H202.223V224.938C202.223 223.696 201.953 222.598 200.549 222.598C198.911 222.598 198.551 223.93 198.551 225.46V230.5H196.067V220.816H198.551ZM206.79 220.816H209.274V230.5H206.79V220.816ZM206.79 217.45H209.274V219.754H206.79V217.45ZM215.731 220.6C217.765 220.6 219.781 221.734 220.123 224.128H217.747C217.549 223.192 216.685 222.526 215.731 222.526C214.435 222.526 213.409 223.624 213.409 225.64C213.409 227.674 214.381 228.808 215.749 228.808C216.613 228.808 217.495 228.358 217.837 227.206H220.213C219.637 229.852 217.639 230.734 215.623 230.734C212.725 230.734 210.871 228.61 210.871 225.676C210.871 222.724 212.833 220.6 215.731 220.6ZM227.654 230.5V229.222C227.096 230.212 226.034 230.734 224.828 230.734C222.506 230.734 221.57 229.312 221.57 226.936V220.816H224.054V226.396C224.054 227.692 224.252 228.736 225.638 228.736C227.294 228.736 227.654 227.386 227.654 225.856V220.816H230.138V230.5H227.654ZM240.142 223.732H237.82C237.622 222.922 236.902 222.346 235.75 222.346C234.832 222.346 234.184 222.688 234.184 223.282C234.184 223.804 234.562 224.2 235.48 224.398L236.776 224.686C238.702 225.118 240.34 225.604 240.34 227.602C240.34 229.546 238.342 230.734 236.146 230.734C233.77 230.734 231.97 229.51 231.736 227.296H234.13C234.274 228.232 234.922 228.934 236.218 228.934C237.298 228.934 237.964 228.538 237.964 227.836C237.964 227.116 237.226 226.846 236.38 226.648L234.94 226.342C233.122 225.964 231.916 225.208 231.916 223.444C231.916 221.716 233.788 220.564 235.876 220.564C237.892 220.564 239.8 221.5 240.142 223.732Z" fill="#0D0D0D"/>
<rect x="307" y="198" width="151" height="51" rx="5" fill="#F2F2F2"/>
<rect x="463" y="198" width="151" height="51" rx="5" fill="#F2F2F2"/>
<rect x="619" y="198" width="151" height="51" rx="5" fill="#F2F2F2"/>
<rect x="775" y="198" width="151" height="51" rx="5" fill="#F2F2F2"/>
<rect x="931" y="198" width="75.5" height="51" rx="5" fill="#F2F2F2"/>
<rect x="486" y="210.5" width="52" height="27" rx="6" fill="#666666"/>
<path d="M30 259C30 256.239 32.2386 254 35 254H297C299.761 254 302 256.239 302 259V300C302 302.761 299.761 305 297 305H35C32.2386 305 30 302.761 30 300V259Z" fill="#E6E6E6"/>
<path d="M49.63 279.966C49.63 276.06 47.308 275.466 44.932 275.466H43.744V284.484H44.932C47.308 284.484 49.63 283.908 49.63 279.966ZM41.17 273.45H45.04C49.18 273.45 52.294 274.782 52.294 279.966C52.294 285.15 49.18 286.5 45.04 286.5H41.17V273.45ZM59.8006 286.5V285.222C59.2426 286.212 58.1806 286.734 56.9746 286.734C54.6526 286.734 53.7166 285.312 53.7166 282.936V276.816H56.2006V282.396C56.2006 283.692 56.3986 284.736 57.7846 284.736C59.4406 284.736 59.8006 283.386 59.8006 281.856V276.816H62.2846V286.5H59.8006ZM68.7425 276.6C70.7765 276.6 72.7925 277.734 73.1345 280.128H70.7585C70.5605 279.192 69.6965 278.526 68.7425 278.526C67.4465 278.526 66.4205 279.624 66.4205 281.64C66.4205 283.674 67.3925 284.808 68.7605 284.808C69.6245 284.808 70.5065 284.358 70.8485 283.206H73.2245C72.6485 285.852 70.6505 286.734 68.6345 286.734C65.7365 286.734 63.8825 284.61 63.8825 281.676C63.8825 278.724 65.8445 276.6 68.7425 276.6ZM74.7078 273.45H77.1918V280.704L80.7198 276.816H83.5098L80.0358 280.524L83.7078 286.5H80.9178L78.3798 282.306L77.1918 283.584V286.5H74.7078V273.45ZM93.2062 279.966C93.2062 276.06 90.8842 275.466 88.5082 275.466H87.3202V284.484H88.5082C90.8842 284.484 93.2062 283.908 93.2062 279.966ZM84.7462 273.45H88.6162C92.7562 273.45 95.8702 274.782 95.8702 279.966C95.8702 285.15 92.7562 286.5 88.6162 286.5H84.7462V273.45ZM97.6837 286.5V273.45H102.76C105.046 273.45 107.512 274.17 107.512 276.852C107.512 278.076 106.702 279.174 106.036 279.606C107.044 280.092 107.98 280.848 107.98 282.648C107.98 285.456 105.658 286.5 102.976 286.5H97.6837ZM100.258 280.776V284.484H103.102C104.614 284.484 105.352 283.854 105.352 282.648C105.352 281.424 104.596 280.776 102.994 280.776H100.258ZM100.258 275.466V278.832H102.922C104.146 278.832 104.866 278.256 104.866 277.104C104.866 276.078 104.128 275.466 102.922 275.466H100.258ZM117.819 286.5H115.335V276.744H112.527V275.052C114.399 274.998 115.317 274.872 115.929 273.45H117.819V286.5ZM122.578 286.5H119.914V283.8H122.578V286.5ZM128.843 284.862C130.211 284.862 131.291 284.052 131.291 282.828C131.291 281.298 129.869 280.686 128.015 280.686H127.493V278.742H127.925C129.797 278.742 130.967 278.058 130.967 276.834C130.967 275.7 129.977 275.088 128.897 275.088C127.385 275.088 126.449 276.024 126.323 277.392H123.965C124.253 274.782 126.035 273.216 129.041 273.216C131.219 273.216 133.469 274.26 133.469 276.726C133.469 278.004 132.713 279.03 131.705 279.588C133.055 280.164 133.811 281.442 133.811 282.756C133.811 285.402 131.525 286.734 128.771 286.734C125.783 286.734 124.001 284.79 123.857 282.396H126.197C126.395 283.71 127.205 284.862 128.843 284.862ZM141.89 279.966C141.89 283.044 143.582 284.682 145.616 284.682C147.65 284.682 149.342 283.044 149.342 279.966C149.342 276.906 147.65 275.268 145.616 275.268C143.582 275.268 141.89 276.906 141.89 279.966ZM152.006 279.966C152.006 284.016 149.504 286.734 145.616 286.734C141.728 286.734 139.226 284.016 139.226 279.966C139.226 275.916 141.728 273.216 145.616 273.216C149.504 273.216 152.006 275.916 152.006 279.966ZM161.374 279.732H159.052C158.854 278.922 158.134 278.346 156.982 278.346C156.064 278.346 155.416 278.688 155.416 279.282C155.416 279.804 155.794 280.2 156.712 280.398L158.008 280.686C159.934 281.118 161.572 281.604 161.572 283.602C161.572 285.546 159.574 286.734 157.378 286.734C155.002 286.734 153.202 285.51 152.968 283.296H155.362C155.506 284.232 156.154 284.934 157.45 284.934C158.53 284.934 159.196 284.538 159.196 283.836C159.196 283.116 158.458 282.846 157.612 282.648L156.172 282.342C154.354 281.964 153.148 281.208 153.148 279.444C153.148 277.716 155.02 276.564 157.108 276.564C159.124 276.564 161.032 277.5 161.374 279.732ZM170.902 279.732H168.58C168.382 278.922 167.662 278.346 166.51 278.346C165.592 278.346 164.944 278.688 164.944 279.282C164.944 279.804 165.322 280.2 166.24 280.398L167.536 280.686C169.462 281.118 171.1 281.604 171.1 283.602C171.1 285.546 169.102 286.734 166.906 286.734C164.53 286.734 162.73 285.51 162.496 283.296H164.89C165.034 284.232 165.682 284.934 166.978 284.934C168.058 284.934 168.724 284.538 168.724 283.836C168.724 283.116 167.986 282.846 167.14 282.648L165.7 282.342C163.882 281.964 162.676 281.208 162.676 279.444C162.676 277.716 164.548 276.564 166.636 276.564C168.652 276.564 170.56 277.5 170.902 279.732ZM172.653 276.816H175.137V286.5H172.653V276.816ZM172.653 273.45H175.137V275.754H172.653V273.45ZM178.858 276.816L181.126 283.98L183.394 276.816H185.86L182.386 286.5H179.776L176.248 276.816H178.858ZM192.394 282.792V282.072C189.604 282.36 188.506 282.684 188.506 283.764C188.506 284.466 189.046 285.042 190.18 285.042C191.746 285.042 192.394 284.214 192.394 282.792ZM192.61 285.294C191.908 286.302 190.9 286.734 189.442 286.734C187.588 286.734 185.95 285.654 185.95 283.89C185.95 281.604 188.506 280.92 192.322 280.488V280.326C192.322 278.832 191.512 278.31 190.504 278.31C189.55 278.31 188.758 278.796 188.704 279.876H186.382C186.58 277.968 188.128 276.564 190.63 276.564C192.916 276.564 194.806 277.572 194.806 280.83C194.806 281.118 194.77 282.432 194.77 283.296C194.77 284.826 194.86 285.69 195.058 286.5H192.772C192.7 286.194 192.664 285.78 192.61 285.294ZM199.36 273.45V286.5H196.876V273.45H199.36ZM201.587 276.816H204.071V286.5H201.587V276.816ZM201.587 273.45H204.071V275.754H201.587V273.45ZM214.074 279.732H211.752C211.554 278.922 210.834 278.346 209.682 278.346C208.764 278.346 208.116 278.688 208.116 279.282C208.116 279.804 208.494 280.2 209.412 280.398L210.708 280.686C212.634 281.118 214.272 281.604 214.272 283.602C214.272 285.546 212.274 286.734 210.078 286.734C207.702 286.734 205.902 285.51 205.668 283.296H208.062C208.206 284.232 208.854 284.934 210.15 284.934C211.23 284.934 211.896 284.538 211.896 283.836C211.896 283.116 211.158 282.846 210.312 282.648L208.872 282.342C207.054 281.964 205.848 281.208 205.848 279.444C205.848 277.716 207.72 276.564 209.808 276.564C211.824 276.564 213.732 277.5 214.074 279.732Z" fill="#0D0D0D"/>
<rect x="307" y="254" width="151" height="51" rx="5" fill="#E6E6E6"/>
<rect x="463" y="254" width="151" height="51" rx="5" fill="#E6E6E6"/>
<rect x="619" y="254" width="151" height="51" rx="5" fill="#E6E6E6"/>
<rect x="775" y="254" width="151" height="51" rx="5" fill="#E6E6E6"/>
<rect x="931" y="254" width="75.5" height="51" rx="5" fill="#E6E6E6"/>
<rect x="537" y="265" width="56" height="29" rx="6" fill="#666666"/>
<path d="M30 315C30 312.239 32.2386 310 35 310H297C299.761 310 302 312.239 302 315V356C302 358.761 299.761 361 297 361H35C32.2386 361 30 358.761 30 356V315Z" fill="#F2F2F2"/>
<path d="M49.63 335.966C49.63 332.06 47.308 331.466 44.932 331.466H43.744V340.484H44.932C47.308 340.484 49.63 339.908 49.63 335.966ZM41.17 329.45H45.04C49.18 329.45 52.294 330.782 52.294 335.966C52.294 341.15 49.18 342.5 45.04 342.5H41.17V329.45ZM59.8006 342.5V341.222C59.2426 342.212 58.1806 342.734 56.9746 342.734C54.6526 342.734 53.7166 341.312 53.7166 338.936V332.816H56.2006V338.396C56.2006 339.692 56.3986 340.736 57.7846 340.736C59.4406 340.736 59.8006 339.386 59.8006 337.856V332.816H62.2846V342.5H59.8006ZM68.7425 332.6C70.7765 332.6 72.7925 333.734 73.1345 336.128H70.7585C70.5605 335.192 69.6965 334.526 68.7425 334.526C67.4465 334.526 66.4205 335.624 66.4205 337.64C66.4205 339.674 67.3925 340.808 68.7605 340.808C69.6245 340.808 70.5065 340.358 70.8485 339.206H73.2245C72.6485 341.852 70.6505 342.734 68.6345 342.734C65.7365 342.734 63.8825 340.61 63.8825 337.676C63.8825 334.724 65.8445 332.6 68.7425 332.6ZM74.7078 329.45H77.1918V336.704L80.7198 332.816H83.5098L80.0358 336.524L83.7078 342.5H80.9178L78.3798 338.306L77.1918 339.584V342.5H74.7078V329.45ZM93.2062 335.966C93.2062 332.06 90.8842 331.466 88.5082 331.466H87.3202V340.484H88.5082C90.8842 340.484 93.2062 339.908 93.2062 335.966ZM84.7462 329.45H88.6162C92.7562 329.45 95.8702 330.782 95.8702 335.966C95.8702 341.15 92.7562 342.5 88.6162 342.5H84.7462V329.45ZM97.6837 342.5V329.45H102.76C105.046 329.45 107.512 330.17 107.512 332.852C107.512 334.076 106.702 335.174 106.036 335.606C107.044 336.092 107.98 336.848 107.98 338.648C107.98 341.456 105.658 342.5 102.976 342.5H97.6837ZM100.258 336.776V340.484H103.102C104.614 340.484 105.352 339.854 105.352 338.648C105.352 337.424 104.596 336.776 102.994 336.776H100.258ZM100.258 331.466V334.832H102.922C104.146 334.832 104.866 334.256 104.866 333.104C104.866 332.078 104.128 331.466 102.922 331.466H100.258ZM117.819 342.5H115.335V332.744H112.527V331.052C114.399 330.998 115.317 330.872 115.929 329.45H117.819V342.5ZM122.578 342.5H119.914V339.8H122.578V342.5ZM129.645 332.6L125.919 337.262H129.645V332.6ZM134.343 337.262V339.368H132.111V342.5H129.645V339.368H123.201V337.424L129.681 329.45H132.111V337.262H134.343ZM138.525 342.5L143.385 329.45H145.977L150.855 342.5H148.065L147.147 339.854H142.071L141.153 342.5H138.525ZM144.609 332.6L142.809 337.748H146.409L144.609 332.6ZM154.448 332.816V334.094C155.006 333.104 156.05 332.6 157.256 332.6C159.578 332.6 160.604 334.004 160.604 336.398V342.5H158.12V336.938C158.12 335.696 157.85 334.598 156.446 334.598C154.808 334.598 154.448 335.93 154.448 337.46V342.5H151.964V332.816H154.448ZM171.542 342.5H169.058V341.276C168.428 342.356 167.276 342.734 166.268 342.734C163.964 342.734 162.056 340.754 162.056 337.658C162.056 334.616 163.928 332.6 166.268 332.6C167.492 332.6 168.536 333.14 169.058 334.058V329.45H171.542V342.5ZM166.88 340.826C168.248 340.826 169.148 339.656 169.148 337.658C169.148 335.714 168.248 334.508 166.88 334.508C165.584 334.508 164.666 335.786 164.666 337.676C164.666 339.566 165.584 340.826 166.88 340.826ZM173.778 332.816H176.262V342.5H173.778V332.816ZM173.778 329.45H176.262V331.754H173.778V329.45ZM184.447 342.5V341.222C183.889 342.212 182.827 342.734 181.621 342.734C179.299 342.734 178.363 341.312 178.363 338.936V332.816H180.847V338.396C180.847 339.692 181.045 340.736 182.431 340.736C184.087 340.736 184.447 339.386 184.447 337.856V332.816H186.931V342.5H184.447ZM201.075 342.5V336.866C201.075 335.804 200.985 334.598 199.527 334.598C197.871 334.598 197.601 335.984 197.601 337.46V342.5H195.117V336.866C195.117 335.804 195.027 334.598 193.569 334.598C191.913 334.598 191.643 335.984 191.643 337.46V342.5H189.159V332.816H191.643V334.094C192.201 333.14 193.173 332.6 194.343 332.6C195.981 332.6 196.719 333.482 197.097 334.184C197.871 333.104 198.825 332.6 200.283 332.6C202.713 332.6 203.559 334.112 203.559 336.398V342.5H201.075Z" fill="#0D0D0D"/>
<rect x="307" y="310" width="151" height="51" rx="5" fill="#F2F2F2"/>
<rect x="463" y="310" width="151" height="51" rx="5" fill="#F2F2F2"/>
<rect x="619" y="310" width="151" height="51" rx="5" fill="#F2F2F2"/>
<rect x="775" y="310" width="151" height="51" rx="5" fill="#F2F2F2"/>
<rect x="931" y="310" width="75.5" height="51" rx="5" fill="#F2F2F2"/>
<rect x="594" y="322" width="156" height="28" rx="6" fill="#00C770"/>
<path d="M30 371C30 368.239 32.2386 366 35 366H297C299.761 366 302 368.239 302 371V412C302 414.761 299.761 417 297 417H35C32.2386 417 30 414.761 30 412V371Z" fill="#E6E6E6"/>
<path d="M49.63 391.966C49.63 388.06 47.308 387.466 44.932 387.466H43.744V396.484H44.932C47.308 396.484 49.63 395.908 49.63 391.966ZM41.17 385.45H45.04C49.18 385.45 52.294 386.782 52.294 391.966C52.294 397.15 49.18 398.5 45.04 398.5H41.17V385.45ZM59.8006 398.5V397.222C59.2426 398.212 58.1806 398.734 56.9746 398.734C54.6526 398.734 53.7166 397.312 53.7166 394.936V388.816H56.2006V394.396C56.2006 395.692 56.3986 396.736 57.7846 396.736C59.4406 396.736 59.8006 395.386 59.8006 393.856V388.816H62.2846V398.5H59.8006ZM68.7425 388.6C70.7765 388.6 72.7925 389.734 73.1345 392.128H70.7585C70.5605 391.192 69.6965 390.526 68.7425 390.526C67.4465 390.526 66.4205 391.624 66.4205 393.64C66.4205 395.674 67.3925 396.808 68.7605 396.808C69.6245 396.808 70.5065 396.358 70.8485 395.206H73.2245C72.6485 397.852 70.6505 398.734 68.6345 398.734C65.7365 398.734 63.8825 396.61 63.8825 393.676C63.8825 390.724 65.8445 388.6 68.7425 388.6ZM74.7078 385.45H77.1918V392.704L80.7198 388.816H83.5098L80.0358 392.524L83.7078 398.5H80.9178L78.3798 394.306L77.1918 395.584V398.5H74.7078V385.45ZM93.2062 391.966C93.2062 388.06 90.8842 387.466 88.5082 387.466H87.3202V396.484H88.5082C90.8842 396.484 93.2062 395.908 93.2062 391.966ZM84.7462 385.45H88.6162C92.7562 385.45 95.8702 386.782 95.8702 391.966C95.8702 397.15 92.7562 398.5 88.6162 398.5H84.7462V385.45ZM97.6837 398.5V385.45H102.76C105.046 385.45 107.512 386.17 107.512 388.852C107.512 390.076 106.702 391.174 106.036 391.606C107.044 392.092 107.98 392.848 107.98 394.648C107.98 397.456 105.658 398.5 102.976 398.5H97.6837ZM100.258 392.776V396.484H103.102C104.614 396.484 105.352 395.854 105.352 394.648C105.352 393.424 104.596 392.776 102.994 392.776H100.258ZM100.258 387.466V390.832H102.922C104.146 390.832 104.866 390.256 104.866 389.104C104.866 388.078 104.128 387.466 102.922 387.466H100.258ZM117.819 398.5H115.335V388.744H112.527V387.052C114.399 386.998 115.317 386.872 115.929 385.45H117.819V398.5ZM122.578 398.5H119.914V395.8H122.578V398.5ZM128.673 396.862C130.041 396.862 131.031 395.872 131.031 394.216C131.031 392.416 129.825 391.552 128.619 391.552C127.467 391.552 126.657 392.11 126.387 392.74L124.119 392.632L124.983 385.45H133.029V387.538H127.017L126.657 390.328C127.215 389.914 128.025 389.608 129.249 389.608C131.481 389.608 133.551 391.192 133.551 394.198C133.551 397.078 131.319 398.734 128.637 398.734C125.577 398.734 123.957 396.646 123.813 394.396H126.153C126.297 395.746 127.071 396.862 128.673 396.862Z" fill="#0D0D0D"/>
<rect x="307" y="366" width="151" height="51" rx="5" fill="#E6E6E6"/>
<rect x="463" y="366" width="151" height="51" rx="5" fill="#E6E6E6"/>
<rect x="619" y="366" width="151" height="51" rx="5" fill="#E6E6E6"/>
<rect x="775" y="366" width="151" height="51" rx="5" fill="#E6E6E6"/>
<rect x="931" y="366" width="75.5" height="51" rx="5" fill="#E6E6E6"/>
<rect x="650" y="378" width="57" height="28" rx="6" fill="#666666"/>
<path d="M30 427C30 424.239 32.2386 422 35 422H297C299.761 422 302 424.239 302 427V468C302 470.761 299.761 473 297 473H35C32.2386 473 30 470.761 30 468V427Z" fill="#F2F2F2"/>
<path d="M49.63 447.966C49.63 444.06 47.308 443.466 44.932 443.466H43.744V452.484H44.932C47.308 452.484 49.63 451.908 49.63 447.966ZM41.17 441.45H45.04C49.18 441.45 52.294 442.782 52.294 447.966C52.294 453.15 49.18 454.5 45.04 454.5H41.17V441.45ZM59.8006 454.5V453.222C59.2426 454.212 58.1806 454.734 56.9746 454.734C54.6526 454.734 53.7166 453.312 53.7166 450.936V444.816H56.2006V450.396C56.2006 451.692 56.3986 452.736 57.7846 452.736C59.4406 452.736 59.8006 451.386 59.8006 449.856V444.816H62.2846V454.5H59.8006ZM68.7425 444.6C70.7765 444.6 72.7925 445.734 73.1345 448.128H70.7585C70.5605 447.192 69.6965 446.526 68.7425 446.526C67.4465 446.526 66.4205 447.624 66.4205 449.64C66.4205 451.674 67.3925 452.808 68.7605 452.808C69.6245 452.808 70.5065 452.358 70.8485 451.206H73.2245C72.6485 453.852 70.6505 454.734 68.6345 454.734C65.7365 454.734 63.8825 452.61 63.8825 449.676C63.8825 446.724 65.8445 444.6 68.7425 444.6ZM74.7078 441.45H77.1918V448.704L80.7198 444.816H83.5098L80.0358 448.524L83.7078 454.5H80.9178L78.3798 450.306L77.1918 451.584V454.5H74.7078V441.45ZM93.2062 447.966C93.2062 444.06 90.8842 443.466 88.5082 443.466H87.3202V452.484H88.5082C90.8842 452.484 93.2062 451.908 93.2062 447.966ZM84.7462 441.45H88.6162C92.7562 441.45 95.8702 442.782 95.8702 447.966C95.8702 453.15 92.7562 454.5 88.6162 454.5H84.7462V441.45ZM97.6837 454.5V441.45H102.76C105.046 441.45 107.512 442.17 107.512 444.852C107.512 446.076 106.702 447.174 106.036 447.606C107.044 448.092 107.98 448.848 107.98 450.648C107.98 453.456 105.658 454.5 102.976 454.5H97.6837ZM100.258 448.776V452.484H103.102C104.614 452.484 105.352 451.854 105.352 450.648C105.352 449.424 104.596 448.776 102.994 448.776H100.258ZM100.258 443.466V446.832H102.922C104.146 446.832 104.866 446.256 104.866 445.104C104.866 444.078 104.128 443.466 102.922 443.466H100.258ZM117.819 454.5H115.335V444.744H112.527V443.052C114.399 442.998 115.317 442.872 115.929 441.45H117.819V454.5ZM122.578 454.5H119.914V451.8H122.578V454.5ZM126.194 450.27C126.194 451.836 127.22 452.862 128.588 452.862C129.938 452.862 130.928 451.854 130.928 450.27C130.928 448.74 129.938 447.732 128.588 447.732C127.22 447.732 126.194 448.74 126.194 450.27ZM128.696 443.106C127.04 443.106 126.05 444.636 126.05 447.084C126.608 446.382 127.652 445.842 129.02 445.842C131.432 445.842 133.448 447.48 133.448 450.306C133.448 452.988 131.414 454.734 128.588 454.734C125.096 454.734 123.566 451.926 123.566 448.272C123.566 444.528 124.952 441.216 128.858 441.216C131.702 441.216 133.034 443.142 133.178 444.816H130.748C130.622 443.736 129.776 443.106 128.696 443.106Z" fill="#0D0D0D"/>
<rect x="307" y="422" width="151" height="51" rx="5" fill="#F2F2F2"/>
<rect x="463" y="422" width="151" height="51" rx="5" fill="#F2F2F2"/>
<rect x="619" y="422" width="151" height="51" rx="5" fill="#F2F2F2"/>
<rect x="775" y="422" width="151" height="51" rx="5" fill="#F2F2F2"/>
<rect x="931" y="422" width="75.5" height="51" rx="5" fill="#F2F2F2"/>
<rect x="706" y="433" width="176" height="29" rx="6" fill="#00C770"/>
<path d="M30 483C30 480.239 32.2386 478 35 478H297C299.761 478 302 480.239 302 483V524C302 526.761 299.761 529 297 529H35C32.2386 529 30 526.761 30 524V483Z" fill="#E6E6E6"/>
<path d="M49.63 503.966C49.63 500.06 47.308 499.466 44.932 499.466H43.744V508.484H44.932C47.308 508.484 49.63 507.908 49.63 503.966ZM41.17 497.45H45.04C49.18 497.45 52.294 498.782 52.294 503.966C52.294 509.15 49.18 510.5 45.04 510.5H41.17V497.45ZM59.8006 510.5V509.222C59.2426 510.212 58.1806 510.734 56.9746 510.734C54.6526 510.734 53.7166 509.312 53.7166 506.936V500.816H56.2006V506.396C56.2006 507.692 56.3986 508.736 57.7846 508.736C59.4406 508.736 59.8006 507.386 59.8006 505.856V500.816H62.2846V510.5H59.8006ZM68.7425 500.6C70.7765 500.6 72.7925 501.734 73.1345 504.128H70.7585C70.5605 503.192 69.6965 502.526 68.7425 502.526C67.4465 502.526 66.4205 503.624 66.4205 505.64C66.4205 507.674 67.3925 508.808 68.7605 508.808C69.6245 508.808 70.5065 508.358 70.8485 507.206H73.2245C72.6485 509.852 70.6505 510.734 68.6345 510.734C65.7365 510.734 63.8825 508.61 63.8825 505.676C63.8825 502.724 65.8445 500.6 68.7425 500.6ZM74.7078 497.45H77.1918V504.704L80.7198 500.816H83.5098L80.0358 504.524L83.7078 510.5H80.9178L78.3798 506.306L77.1918 507.584V510.5H74.7078V497.45ZM93.2062 503.966C93.2062 500.06 90.8842 499.466 88.5082 499.466H87.3202V508.484H88.5082C90.8842 508.484 93.2062 507.908 93.2062 503.966ZM84.7462 497.45H88.6162C92.7562 497.45 95.8702 498.782 95.8702 503.966C95.8702 509.15 92.7562 510.5 88.6162 510.5H84.7462V497.45ZM97.6837 510.5V497.45H102.76C105.046 497.45 107.512 498.17 107.512 500.852C107.512 502.076 106.702 503.174 106.036 503.606C107.044 504.092 107.98 504.848 107.98 506.648C107.98 509.456 105.658 510.5 102.976 510.5H97.6837ZM100.258 504.776V508.484H103.102C104.614 508.484 105.352 507.854 105.352 506.648C105.352 505.424 104.596 504.776 102.994 504.776H100.258ZM100.258 499.466V502.832H102.922C104.146 502.832 104.866 502.256 104.866 501.104C104.866 500.078 104.128 499.466 102.922 499.466H100.258ZM117.819 510.5H115.335V500.744H112.527V499.052C114.399 498.998 115.317 498.872 115.929 497.45H117.819V510.5ZM122.578 510.5H119.914V507.8H122.578V510.5ZM123.442 499.538V497.45H133.036V499.538C129.634 502.976 127.96 505.82 127.726 510.5H124.99C125.188 506 127.618 502.256 130.534 499.538H123.442Z" fill="#0D0D0D"/>
<rect x="307" y="478" width="151" height="51" rx="5" fill="#E6E6E6"/>
<rect x="463" y="478" width="151" height="51" rx="5" fill="#E6E6E6"/>
<rect x="619" y="478" width="151" height="51" rx="5" fill="#E6E6E6"/>
<rect x="775" y="478" width="151" height="51" rx="5" fill="#E6E6E6"/>
<rect x="931" y="478" width="75.5" height="51" rx="5" fill="#E6E6E6"/>
<rect x="778" y="489" width="57" height="29" rx="6" fill="#666666"/>
<path d="M312.512 557.716C314.798 557.716 316.508 559.012 316.508 561.226C316.508 564.25 313.592 566.914 310.262 569.578H316.742V571H307.94V569.578C312.314 566.176 314.744 563.728 314.744 561.442C314.744 560.092 313.97 559.12 312.494 559.12C311.144 559.12 309.902 559.948 309.866 562.09H308.174C308.138 559.606 309.866 557.716 312.512 557.716ZM323.933 571.234C320.639 571.234 319.379 568.462 319.379 564.412C319.379 560.362 320.639 557.716 323.933 557.716C327.227 557.716 328.505 560.362 328.505 564.412C328.505 568.462 327.227 571.234 323.933 571.234ZM321.053 564.412C321.053 564.646 321.053 564.862 321.071 565.078L326.705 562.504C326.417 560.236 325.499 559.12 323.933 559.12C321.971 559.12 321.053 560.848 321.053 564.412ZM323.933 569.812C325.895 569.812 326.831 567.976 326.831 564.412C326.831 564.214 326.831 564.034 326.813 563.836L321.179 566.446C321.485 568.678 322.385 569.812 323.933 569.812ZM335.785 557.716C338.071 557.716 339.781 559.012 339.781 561.226C339.781 564.25 336.865 566.914 333.535 569.578H340.015V571H331.213V569.578C335.587 566.176 338.017 563.728 338.017 561.442C338.017 560.092 337.243 559.12 335.767 559.12C334.417 559.12 333.175 559.948 333.139 562.09H331.447C331.411 559.606 333.139 557.716 335.785 557.716ZM348.34 560.182L343.912 566.23H348.34V560.182ZM352.174 566.23V567.778H349.996V571H348.34V567.778H342.184V566.23L348.322 557.95H349.996V566.23H352.174Z" fill="#0D0D0D"/>
<path d="M468.512 557.716C470.798 557.716 472.508 559.012 472.508 561.226C472.508 564.25 469.592 566.914 466.262 569.578H472.742V571H463.94V569.578C468.314 566.176 470.744 563.728 470.744 561.442C470.744 560.092 469.97 559.12 468.494 559.12C467.144 559.12 465.902 559.948 465.866 562.09H464.174C464.138 559.606 465.866 557.716 468.512 557.716ZM479.933 571.234C476.639 571.234 475.379 568.462 475.379 564.412C475.379 560.362 476.639 557.716 479.933 557.716C483.227 557.716 484.505 560.362 484.505 564.412C484.505 568.462 483.227 571.234 479.933 571.234ZM477.053 564.412C477.053 564.646 477.053 564.862 477.071 565.078L482.705 562.504C482.417 560.236 481.499 559.12 479.933 559.12C477.971 559.12 477.053 560.848 477.053 564.412ZM479.933 569.812C481.895 569.812 482.831 567.976 482.831 564.412C482.831 564.214 482.831 564.034 482.813 563.836L477.179 566.446C477.485 568.678 478.385 569.812 479.933 569.812ZM491.785 557.716C494.071 557.716 495.781 559.012 495.781 561.226C495.781 564.25 492.865 566.914 489.535 569.578H496.015V571H487.213V569.578C491.587 566.176 494.017 563.728 494.017 561.442C494.017 560.092 493.243 559.12 491.767 559.12C490.417 559.12 489.175 559.948 489.139 562.09H487.447C487.411 559.606 489.139 557.716 491.785 557.716ZM503.206 569.812C504.7 569.812 505.96 568.696 505.96 566.716C505.96 564.592 504.52 563.728 503.17 563.728C501.928 563.728 501.064 564.466 500.794 565.096L499.066 565.024L499.912 557.95H507.148V559.354H501.316L500.848 563.26C501.532 562.594 502.504 562.288 503.548 562.288C505.708 562.288 507.724 563.872 507.724 566.698C507.724 569.65 505.51 571.234 503.188 571.234C500.29 571.234 498.868 569.236 498.706 567.112H500.38C500.56 568.696 501.46 569.812 503.206 569.812Z" fill="#0D0D0D"/>
<path d="M624.512 557.716C626.798 557.716 628.508 559.012 628.508 561.226C628.508 564.25 625.592 566.914 622.262 569.578H628.742V571H619.94V569.578C624.314 566.176 626.744 563.728 626.744 561.442C626.744 560.092 625.97 559.12 624.494 559.12C623.144 559.12 621.902 559.948 621.866 562.09H620.174C620.138 559.606 621.866 557.716 624.512 557.716ZM635.933 571.234C632.639 571.234 631.379 568.462 631.379 564.412C631.379 560.362 632.639 557.716 635.933 557.716C639.227 557.716 640.505 560.362 640.505 564.412C640.505 568.462 639.227 571.234 635.933 571.234ZM633.053 564.412C633.053 564.646 633.053 564.862 633.071 565.078L638.705 562.504C638.417 560.236 637.499 559.12 635.933 559.12C633.971 559.12 633.053 560.848 633.053 564.412ZM635.933 569.812C637.895 569.812 638.831 567.976 638.831 564.412C638.831 564.214 638.831 564.034 638.813 563.836L633.179 566.446C633.485 568.678 634.385 569.812 635.933 569.812ZM647.785 557.716C650.071 557.716 651.781 559.012 651.781 561.226C651.781 564.25 648.865 566.914 645.535 569.578H652.015V571H643.213V569.578C647.587 566.176 650.017 563.728 650.017 561.442C650.017 560.092 649.243 559.12 647.767 559.12C646.417 559.12 645.175 559.948 645.139 562.09H643.447C643.411 559.606 645.139 557.716 647.785 557.716ZM656.578 566.824C656.578 568.606 657.64 569.812 659.278 569.812C660.862 569.812 661.996 568.588 661.996 566.824C661.996 565.078 660.88 563.8 659.296 563.8C657.676 563.8 656.578 565.078 656.578 566.824ZM659.53 559.12C657.532 559.12 656.47 561.136 656.398 564.106C656.956 563.098 658.018 562.324 659.674 562.324C661.978 562.324 663.76 564.16 663.76 566.752C663.76 569.146 661.96 571.234 659.296 571.234C656.2 571.234 654.688 568.948 654.688 564.988C654.688 561.316 656.038 557.716 659.62 557.716C662.05 557.716 663.292 559.318 663.544 560.938H661.762C661.564 559.786 660.718 559.12 659.53 559.12Z" fill="#0D0D0D"/>
<path d="M780.512 557.716C782.798 557.716 784.508 559.012 784.508 561.226C784.508 564.25 781.592 566.914 778.262 569.578H784.742V571H775.94V569.578C780.314 566.176 782.744 563.728 782.744 561.442C782.744 560.092 781.97 559.12 780.494 559.12C779.144 559.12 777.902 559.948 777.866 562.09H776.174C776.138 559.606 777.866 557.716 780.512 557.716ZM791.933 571.234C788.639 571.234 787.379 568.462 787.379 564.412C787.379 560.362 788.639 557.716 791.933 557.716C795.227 557.716 796.505 560.362 796.505 564.412C796.505 568.462 795.227 571.234 791.933 571.234ZM789.053 564.412C789.053 564.646 789.053 564.862 789.071 565.078L794.705 562.504C794.417 560.236 793.499 559.12 791.933 559.12C789.971 559.12 789.053 560.848 789.053 564.412ZM791.933 569.812C793.895 569.812 794.831 567.976 794.831 564.412C794.831 564.214 794.831 564.034 794.813 563.836L789.179 566.446C789.485 568.678 790.385 569.812 791.933 569.812ZM803.785 557.716C806.071 557.716 807.781 559.012 807.781 561.226C807.781 564.25 804.865 566.914 801.535 569.578H808.015V571H799.213V569.578C803.587 566.176 806.017 563.728 806.017 561.442C806.017 560.092 805.243 559.12 803.767 559.12C802.417 559.12 801.175 559.948 801.139 562.09H799.447C799.411 559.606 801.139 557.716 803.785 557.716ZM810.886 559.354V557.95H820.048V559.354C816.718 561.91 814.54 566.212 814.414 571H812.524C812.812 566.32 814.936 561.892 818.032 559.354H810.886Z" fill="#0D0D0D"/>
<path d="M936.512 557.716C938.798 557.716 940.508 559.012 940.508 561.226C940.508 564.25 937.592 566.914 934.262 569.578H940.742V571H931.94V569.578C936.314 566.176 938.744 563.728 938.744 561.442C938.744 560.092 937.97 559.12 936.494 559.12C935.144 559.12 933.902 559.948 933.866 562.09H932.174C932.138 559.606 933.866 557.716 936.512 557.716ZM947.933 571.234C944.639 571.234 943.379 568.462 943.379 564.412C943.379 560.362 944.639 557.716 947.933 557.716C951.227 557.716 952.505 560.362 952.505 564.412C952.505 568.462 951.227 571.234 947.933 571.234ZM945.053 564.412C945.053 564.646 945.053 564.862 945.071 565.078L950.705 562.504C950.417 560.236 949.499 559.12 947.933 559.12C945.971 559.12 945.053 560.848 945.053 564.412ZM947.933 569.812C949.895 569.812 950.831 567.976 950.831 564.412C950.831 564.214 950.831 564.034 950.813 563.836L945.179 566.446C945.485 568.678 946.385 569.812 947.933 569.812ZM959.785 557.716C962.071 557.716 963.781 559.012 963.781 561.226C963.781 564.25 960.865 566.914 957.535 569.578H964.015V571H955.213V569.578C959.587 566.176 962.017 563.728 962.017 561.442C962.017 560.092 961.243 559.12 959.767 559.12C958.417 559.12 957.175 559.948 957.139 562.09H955.447C955.411 559.606 957.139 557.716 959.785 557.716ZM971.224 557.716C973.762 557.716 975.454 559.138 975.454 561.046C975.454 562.09 974.968 563.35 973.744 564.034C975.364 564.736 975.85 566.158 975.85 567.328C975.85 569.776 973.78 571.234 971.224 571.234C968.668 571.234 966.598 569.776 966.598 567.328C966.598 566.158 967.066 564.736 968.704 564.034C967.462 563.35 966.976 562.09 966.976 561.046C966.976 559.138 968.686 557.716 971.224 557.716ZM971.224 564.772C969.478 564.772 968.344 565.816 968.344 567.328C968.344 568.84 969.478 569.812 971.224 569.812C972.97 569.812 974.086 568.84 974.086 567.328C974.086 565.816 972.97 564.772 971.224 564.772ZM973.798 561.208C973.798 559.876 972.772 559.138 971.224 559.138C969.676 559.138 968.65 559.93 968.65 561.208C968.65 562.504 969.676 563.494 971.224 563.494C972.772 563.494 973.798 562.504 973.798 561.208Z" fill="#0D0D0D"/>
<path d="M592.5 20C592.5 19.1716 593.172 18.5 594 18.5C594.828 18.5 595.5 19.1716 595.5 20L594 20L592.5 20ZM594 557C598.418 557 602 560.582 602 565C602 569.418 598.418 573 594 573C589.582 573 586 569.418 586 565C586 560.582 589.582 557 594 557ZM594 20L595.5 20L595.5 565H594H592.5L592.5 20L594 20Z" fill="#FF6900"/>
</svg>
