<svg xmlns="http://www.w3.org/2000/svg" viewBox="0 0 800 400" width="800" height="400">
  <rect width="800" height="400" fill="#f7f9fb"/>
  <text x="400" y="34" text-anchor="middle" font-size="22" font-weight="700" fill="#1f2937">期权卖方: 收入有限, 义务会放大</text>
  <rect x="55" y="75" width="310" height="245" rx="10" fill="#ffffff" stroke="#d1d5db"/>
  <rect x="435" y="75" width="310" height="245" rx="10" fill="#ffffff" stroke="#d1d5db"/>
  <text x="210" y="108" text-anchor="middle" font-size="18" font-weight="700" fill="#0f766e">平静行情</text>
  <text x="590" y="108" text-anchor="middle" font-size="18" font-weight="700" fill="#b91c1c">极端行情</text>
  <line x1="95" y1="260" x2="330" y2="260" stroke="#9ca3af" stroke-width="2"/>
  <line x1="95" y1="260" x2="95" y2="145" stroke="#9ca3af" stroke-width="2"/>
  <rect x="115" y="212" width="32" height="48" fill="#14b8a6"/>
  <rect x="160" y="198" width="32" height="62" fill="#14b8a6"/>
  <rect x="205" y="205" width="32" height="55" fill="#14b8a6"/>
  <rect x="250" y="190" width="32" height="70" fill="#14b8a6"/>
  <text x="210" y="292" text-anchor="middle" font-size="15" fill="#374151">多次小额权利金</text>
  <text x="210" y="318" text-anchor="middle" font-size="14" fill="#6b7280">最大收益 = 收到的权利金</text>
  <line x1="470" y1="170" x2="700" y2="170" stroke="#9ca3af" stroke-width="2"/>
  <line x1="470" y1="170" x2="470" y2="285" stroke="#9ca3af" stroke-width="2"/>
  <rect x="500" y="170" width="40" height="36" fill="#14b8a6"/>
  <rect x="560" y="170" width="40" height="74" fill="#f59e0b"/>
  <rect x="620" y="170" width="40" height="120" fill="#ef4444"/>
  <text x="520" y="226" text-anchor="middle" font-size="13" fill="#374151">收钱</text>
  <text x="580" y="264" text-anchor="middle" font-size="13" fill="#374151">回吐</text>
  <text x="640" y="312" text-anchor="middle" font-size="13" fill="#374151">倒亏</text>
  <text x="590" y="340" text-anchor="middle" font-size="14" fill="#6b7280">一次大波动可覆盖很多次小赚</text>
  <path d="M365 200 C390 200 410 200 435 200" fill="none" stroke="#64748b" stroke-width="3"/>
  <polygon points="435,200 423,193 423,207" fill="#64748b"/>
  <text x="400" y="186" text-anchor="middle" font-size="14" fill="#374151">波动率上升</text>
  <text x="400" y="218" text-anchor="middle" font-size="14" fill="#374151">标的跳涨/跳跌</text>
  <rect x="120" y="355" width="560" height="26" rx="13" fill="#e5e7eb"/>
  <text x="400" y="374" text-anchor="middle" font-size="14" fill="#374151">核心: 卖方赚的是权利金, 承担的是被行权、追加保证金和强平的义务</text>
</svg>
