<svg xmlns="http://www.w3.org/2000/svg" xmlns:xlink="http://www.w3.org/1999/xlink" width="289" height="213" fill="#000" fill-opacity="1" stroke="#000" stroke-dasharray="none" stroke-dashoffset="0" stroke-linecap="square" stroke-linejoin="miter" stroke-miterlimit="10" stroke-opacity="1" stroke-width="1" color-interpolation="auto" color-rendering="auto" font-family="'Dialog'" font-size="12" font-style="normal" font-weight="normal" image-rendering="auto" shape-rendering="auto" text-rendering="auto"><g><defs id="defs1"><clipPath id="clipPath1" clipPathUnits="userSpaceOnUse"><path d="M0 0 L289 0 L289 213 L0 213 L0 0 Z"/></clipPath><clipPath id="clipPath2" clipPathUnits="userSpaceOnUse"><path d="M-1 -1 L288 -1 L288 212 L-1 212 L-1 -1 Z"/></clipPath></defs><g stroke-linecap="butt" stroke-miterlimit="1.45" shape-rendering="geometricPrecision" text-rendering="geometricPrecision"><path fill="none" d="M68.9235 185.0455 L100.8767 191.4014" clip-path="url(#clipPath2)" transform="matrix(1,0,0,1,1,1)"/></g><g stroke-linecap="butt" stroke-miterlimit="1.45" shape-rendering="geometricPrecision" text-rendering="geometricPrecision"><path stroke="none" d="M108.723 192.9622 L97.929 185.7172 L99.8959 191.2064 L95.9781 195.525 Z" clip-path="url(#clipPath2)" transform="matrix(1,0,0,1,1,1)"/><path fill="none" d="M169.6472 165.0104 L142.5585 183.1104" clip-path="url(#clipPath2)" transform="matrix(1,0,0,1,1,1)"/><path stroke="none" d="M135.9068 187.555 L148.6623 185.0455 L143.39 182.5548 L143.1066 176.7308 Z" clip-path="url(#clipPath2)" transform="matrix(1,0,0,1,1,1)"/><path fill="none" d="M94.6509 28.1162 L123.4884 173.0918" clip-path="url(#clipPath2)" transform="matrix(1,0,0,1,1,1)"/><path stroke="none" d="M125.0491 180.9381 L127.6119 168.1932 L123.2933 172.111 L117.8041 170.1441 Z" clip-path="url(#clipPath2)" transform="matrix(1,0,0,1,1,1)"/><path fill="none" d="M89.0797 29.8922 L62.9701 161.1537" clip-path="url(#clipPath2)" transform="matrix(1,0,0,1,1,1)"/><path stroke="none" d="M61.4094 169 L68.6544 158.2061 L63.1652 160.173 L58.8466 156.2552 Z" clip-path="url(#clipPath2)" transform="matrix(1,0,0,1,1,1)"/><path fill="none" d="M23.3336 135.9068 L41.4336 162.9954" clip-path="url(#clipPath2)" transform="matrix(1,0,0,1,1,1)"/><path stroke="none" d="M45.8781 169.6472 L43.3687 156.8917 L40.878 162.1639 L35.054 162.4474 Z" clip-path="url(#clipPath2)" transform="matrix(1,0,0,1,1,1)"/><path fill="none" d="M52.5858 167.227 L78.6953 35.9655" clip-path="url(#clipPath2)" transform="matrix(1,0,0,1,1,1)"/><path stroke="none" d="M80.2561 28.1192 L73.011 38.9131 L78.5002 36.9462 L82.8189 40.864 Z" clip-path="url(#clipPath2)" transform="matrix(1,0,0,1,1,1)"/><path fill="none" d="M116.2376 182.7723 L87.4002 37.7967" clip-path="url(#clipPath2)" transform="matrix(1,0,0,1,1,1)"/><path stroke="none" d="M85.8394 29.9504 L83.2766 42.6953 L87.5953 38.7775 L93.0844 40.7444 Z" clip-path="url(#clipPath2)" transform="matrix(1,0,0,1,1,1)"/><path fill="none" d="M141.965 25.843 L110.0118 19.4871" clip-path="url(#clipPath2)" transform="matrix(1,0,0,1,1,1)"/><path stroke="none" d="M102.1656 17.9264 L112.9595 25.1714 L110.9926 19.6822 L114.9104 15.3635 Z" clip-path="url(#clipPath2)" transform="matrix(1,0,0,1,1,1)"/><path fill="none" d="M79.1202 27.472 L27.7781 104.3109" clip-path="url(#clipPath2)" transform="matrix(1,0,0,1,1,1)"/><path stroke="none" d="M23.3336 110.9627 L34.1577 103.7629 L28.3337 103.4795 L25.8431 98.2072 Z" clip-path="url(#clipPath2)" transform="matrix(1,0,0,1,1,1)"/><path fill="none" d="M110.9627 187.555 L34.1238 136.2129" clip-path="url(#clipPath2)" transform="matrix(1,0,0,1,1,1)"/><path stroke="none" d="M27.472 131.7683 L34.6718 142.5925 L34.9553 136.7684 L40.2275 134.2778 Z" clip-path="url(#clipPath2)" transform="matrix(1,0,0,1,1,1)"/><path fill="none" d="M169.6472 148.3433 L47.8931 66.9898" clip-path="url(#clipPath2)" transform="matrix(1,0,0,1,1,1)"/><path stroke="none" d="M41.2414 62.5453 L48.4411 73.3694 L48.7246 67.5454 L53.9968 65.0547 Z" clip-path="url(#clipPath2)" transform="matrix(1,0,0,1,1,1)"/><path fill="none" d="M74.9817 23.3336 L47.8931 41.4336" clip-path="url(#clipPath2)" transform="matrix(1,0,0,1,1,1)"/><path stroke="none" d="M41.2414 45.8781 L53.9968 43.3687 L48.7246 40.878 L48.4411 35.054 Z" clip-path="url(#clipPath2)" transform="matrix(1,0,0,1,1,1)"/><path fill="none" d="M131.7683 183.4165 L183.1104 106.5776" clip-path="url(#clipPath2)" transform="matrix(1,0,0,1,1,1)"/><path stroke="none" d="M187.555 99.9258 L176.7308 107.1256 L182.5548 107.409 L185.0455 112.6813 Z" clip-path="url(#clipPath2)" transform="matrix(1,0,0,1,1,1)"/><path fill="none" d="M165.0104 41.2414 L183.1104 68.33" clip-path="url(#clipPath2)" transform="matrix(1,0,0,1,1,1)"/><path stroke="none" d="M187.555 74.9817 L185.0455 62.2262 L182.5548 67.4985 L176.7308 67.7819 Z" clip-path="url(#clipPath2)" transform="matrix(1,0,0,1,1,1)"/><path fill="none" d="M257.4522 60.2706 L216.9287 78.1635" clip-path="url(#clipPath2)" transform="matrix(1,0,0,1,1,1)"/><path stroke="none" d="M209.6104 81.3949 L222.6075 81.1218 L217.8435 77.7596 L218.5683 71.9739 Z" clip-path="url(#clipPath2)" transform="matrix(1,0,0,1,1,1)"/><path fill="none" d="M256.4071 98.2466 L218.5312 91.4919" clip-path="url(#clipPath2)" transform="matrix(1,0,0,1,1,1)"/><path stroke="none" d="M210.6555 90.0873 L221.5913 97.1165 L219.5157 91.6674 L223.347 87.2718 Z" clip-path="url(#clipPath2)" transform="matrix(1,0,0,1,1,1)"/><path fill="none" d="M185.0455 141.965 L191.4014 110.0118" clip-path="url(#clipPath2)" transform="matrix(1,0,0,1,1,1)"/><path stroke="none" d="M192.9622 102.1656 L185.7172 112.9595 L191.2064 110.9926 L195.525 114.9104 Z" clip-path="url(#clipPath2)" transform="matrix(1,0,0,1,1,1)"/></g><g fill="#DDD" stroke="#DDD" shape-rendering="geometricPrecision" text-rendering="geometricPrecision" transform="matrix(1,0,0,1,1,1)"><circle cx="156.677" cy="28.769" r="15" stroke="none" clip-path="url(#clipPath2)"/></g><g stroke-linecap="butt" stroke-miterlimit="1.45" shape-rendering="geometricPrecision" text-rendering="geometricPrecision" transform="matrix(1,0,0,1,1,1)"><circle cx="156.677" cy="28.769" r="15" fill="none" clip-path="url(#clipPath2)"/><text x="152.987" y="33.209" stroke="none" clip-path="url(#clipPath2)" font-family="'Suisse Intl'" xml:space="preserve">6</text></g><g fill="#DDD" stroke="#DDD" shape-rendering="geometricPrecision" text-rendering="geometricPrecision" transform="matrix(1,0,0,1,1,1)"><circle cx="123.435" cy="195.888" r="15" stroke="none" clip-path="url(#clipPath2)"/></g><g stroke-linecap="butt" stroke-miterlimit="1.45" shape-rendering="geometricPrecision" text-rendering="geometricPrecision" transform="matrix(1,0,0,1,1,1)"><circle cx="123.435" cy="195.888" r="15" fill="none" clip-path="url(#clipPath2)"/><text x="119.793" y="200.328" stroke="none" clip-path="url(#clipPath2)" font-family="'Suisse Intl'" xml:space="preserve">5</text></g><g fill="#DDD" stroke="#DDD" shape-rendering="geometricPrecision" text-rendering="geometricPrecision" transform="matrix(1,0,0,1,1,1)"><circle cx="182.119" cy="156.677" r="15" stroke="none" clip-path="url(#clipPath2)"/></g><g stroke-linecap="butt" stroke-miterlimit="1.45" shape-rendering="geometricPrecision" text-rendering="geometricPrecision" transform="matrix(1,0,0,1,1,1)"><circle cx="182.119" cy="156.677" r="15" fill="none" clip-path="url(#clipPath2)"/><text x="178.579" y="161.117" stroke="none" clip-path="url(#clipPath2)" font-family="'Suisse Intl'" xml:space="preserve">2</text></g><g fill="#DDD" stroke="#DDD" shape-rendering="geometricPrecision" text-rendering="geometricPrecision" transform="matrix(1,0,0,1,1,1)"><circle cx="54.212" cy="182.119" r="15" stroke="none" clip-path="url(#clipPath2)"/></g><g stroke-linecap="butt" stroke-miterlimit="1.45" shape-rendering="geometricPrecision" text-rendering="geometricPrecision" transform="matrix(1,0,0,1,1,1)"><circle cx="54.212" cy="182.119" r="15" fill="none" clip-path="url(#clipPath2)"/><text x="52.004" y="186.559" stroke="none" clip-path="url(#clipPath2)" font-family="'Suisse Intl'" xml:space="preserve">1</text></g><g fill="#DDD" stroke="#DDD" shape-rendering="geometricPrecision" text-rendering="geometricPrecision" transform="matrix(1,0,0,1,1,1)"><circle cx="271.174" cy="54.212" r="15" stroke="none" clip-path="url(#clipPath2)"/></g><g stroke-linecap="butt" stroke-miterlimit="1.45" shape-rendering="geometricPrecision" text-rendering="geometricPrecision" transform="matrix(1,0,0,1,1,1)"><circle cx="271.174" cy="54.212" r="15" fill="none" clip-path="url(#clipPath2)"/><text x="268.096" y="58.652" stroke="none" clip-path="url(#clipPath2)" font-family="'Suisse Intl'" xml:space="preserve">7</text></g><g fill="#DDD" stroke="#DDD" shape-rendering="geometricPrecision" text-rendering="geometricPrecision" transform="matrix(1,0,0,1,1,1)"><circle cx="87.454" cy="15" r="15" stroke="none" clip-path="url(#clipPath2)"/></g><g stroke-linecap="butt" stroke-miterlimit="1.45" shape-rendering="geometricPrecision" text-rendering="geometricPrecision" transform="matrix(1,0,0,1,1,1)"><circle cx="87.454" cy="15" r="15" fill="none" clip-path="url(#clipPath2)"/><text x="83.932" y="19.44" stroke="none" clip-path="url(#clipPath2)" font-family="'Suisse Intl'" xml:space="preserve">3</text></g><g fill="#DDD" stroke="#DDD" shape-rendering="geometricPrecision" text-rendering="geometricPrecision" transform="matrix(1,0,0,1,1,1)"><circle cx="271.174" cy="100.88" r="15" stroke="none" clip-path="url(#clipPath2)"/></g><g stroke-linecap="butt" stroke-miterlimit="1.45" shape-rendering="geometricPrecision" text-rendering="geometricPrecision" transform="matrix(1,0,0,1,1,1)"><circle cx="271.174" cy="100.88" r="15" fill="none" clip-path="url(#clipPath2)"/><text x="267.514" y="105.32" stroke="none" clip-path="url(#clipPath2)" font-family="'Suisse Intl'" xml:space="preserve">9</text></g><g fill="#DDD" stroke="#DDD" shape-rendering="geometricPrecision" text-rendering="geometricPrecision" transform="matrix(1,0,0,1,1,1)"><circle cx="15" cy="123.435" r="15" stroke="none" clip-path="url(#clipPath2)"/></g><g stroke-linecap="butt" stroke-miterlimit="1.45" shape-rendering="geometricPrecision" text-rendering="geometricPrecision" transform="matrix(1,0,0,1,1,1)"><circle cx="15" cy="123.435" r="15" fill="none" clip-path="url(#clipPath2)"/><text x="11.244" y="127.875" stroke="none" clip-path="url(#clipPath2)" font-family="'Suisse Intl'" xml:space="preserve">8</text></g><g fill="#DDD" stroke="#DDD" shape-rendering="geometricPrecision" text-rendering="geometricPrecision" transform="matrix(1,0,0,1,1,1)"><circle cx="28.769" cy="54.212" r="15" stroke="none" clip-path="url(#clipPath2)"/></g><g stroke-linecap="butt" stroke-miterlimit="1.45" shape-rendering="geometricPrecision" text-rendering="geometricPrecision" transform="matrix(1,0,0,1,1,1)"><circle cx="28.769" cy="54.212" r="15" fill="none" clip-path="url(#clipPath2)"/><text x="22.595" y="58.652" stroke="none" clip-path="url(#clipPath2)" font-family="'Suisse Intl'" xml:space="preserve">10</text></g><g fill="#DDD" stroke="#DDD" shape-rendering="geometricPrecision" text-rendering="geometricPrecision" transform="matrix(1,0,0,1,1,1)"><circle cx="195.888" cy="87.454" r="15" stroke="none" clip-path="url(#clipPath2)"/></g><g stroke-linecap="butt" stroke-miterlimit="1.45" shape-rendering="geometricPrecision" text-rendering="geometricPrecision" transform="matrix(1,0,0,1,1,1)"><circle cx="195.888" cy="87.454" r="15" fill="none" clip-path="url(#clipPath2)"/><text x="192.144" y="91.894" stroke="none" clip-path="url(#clipPath2)" font-family="'Suisse Intl'" xml:space="preserve">4</text></g></g></svg>