<svg xmlns="http://www.w3.org/2000/svg" viewBox="0 0 800 400" width="800" height="400">
  <rect width="800" height="400" fill="#f8fafc"/>
  <text x="400" y="36" text-anchor="middle" font-family="Arial, sans-serif" font-size="24" font-weight="700" fill="#1f2937">成长股估值论证链</text>

  <rect x="32" y="88" width="150" height="80" rx="8" fill="#e0f2fe" stroke="#0284c7" stroke-width="2"/>
  <text x="107" y="116" text-anchor="middle" font-family="Arial, sans-serif" font-size="16" font-weight="700" fill="#0f172a">前提A</text>
  <text x="107" y="140" text-anchor="middle" font-family="Arial, sans-serif" font-size="13" fill="#334155">成长股价格</text>
  <text x="107" y="158" text-anchor="middle" font-family="Arial, sans-serif" font-size="13" fill="#334155">先反映未来</text>

  <rect x="222" y="88" width="150" height="80" rx="8" fill="#dcfce7" stroke="#16a34a" stroke-width="2"/>
  <text x="297" y="116" text-anchor="middle" font-family="Arial, sans-serif" font-size="16" font-weight="700" fill="#0f172a">前提B</text>
  <text x="297" y="140" text-anchor="middle" font-family="Arial, sans-serif" font-size="13" fill="#334155">收入必须</text>
  <text x="297" y="158" text-anchor="middle" font-family="Arial, sans-serif" font-size="13" fill="#334155">继续增长</text>

  <rect x="412" y="88" width="150" height="80" rx="8" fill="#fef3c7" stroke="#d97706" stroke-width="2"/>
  <text x="487" y="116" text-anchor="middle" font-family="Arial, sans-serif" font-size="16" font-weight="700" fill="#0f172a">前提C</text>
  <text x="487" y="140" text-anchor="middle" font-family="Arial, sans-serif" font-size="13" fill="#334155">利润率改善</text>
  <text x="487" y="158" text-anchor="middle" font-family="Arial, sans-serif" font-size="13" fill="#334155">才有现金流</text>

  <rect x="602" y="88" width="150" height="80" rx="8" fill="#ede9fe" stroke="#7c3aed" stroke-width="2"/>
  <text x="677" y="116" text-anchor="middle" font-family="Arial, sans-serif" font-size="16" font-weight="700" fill="#0f172a">前提D</text>
  <text x="677" y="140" text-anchor="middle" font-family="Arial, sans-serif" font-size="13" fill="#334155">市场空间决定</text>
  <text x="677" y="158" text-anchor="middle" font-family="Arial, sans-serif" font-size="13" fill="#334155">增长时长</text>

  <path d="M182 128 H222" stroke="#64748b" stroke-width="2"/>
  <path d="M372 128 H412" stroke="#64748b" stroke-width="2"/>
  <path d="M562 128 H602" stroke="#64748b" stroke-width="2"/>
  <polygon points="222,128 212,123 212,133" fill="#64748b"/>
  <polygon points="412,128 402,123 402,133" fill="#64748b"/>
  <polygon points="602,128 592,123 592,133" fill="#64748b"/>

  <rect x="130" y="235" width="540" height="88" rx="10" fill="#ffffff" stroke="#cbd5e1" stroke-width="2"/>
  <text x="400" y="264" text-anchor="middle" font-family="Arial, sans-serif" font-size="18" font-weight="700" fill="#111827">推导结论</text>
  <text x="400" y="290" text-anchor="middle" font-family="Arial, sans-serif" font-size="14" fill="#334155">收入高增 + 利润率改善 + 大市场空间同时成立</text>
  <text x="400" y="313" text-anchor="middle" font-family="Arial, sans-serif" font-size="14" fill="#334155">高估值才可能被未来业绩消化</text>

  <path d="M107 168 C120 210 185 236 255 244" fill="none" stroke="#94a3b8" stroke-width="2"/>
  <path d="M297 168 C310 210 330 230 370 235" fill="none" stroke="#94a3b8" stroke-width="2"/>
  <path d="M487 168 C475 210 455 230 430 235" fill="none" stroke="#94a3b8" stroke-width="2"/>
  <path d="M677 168 C665 210 600 236 520 244" fill="none" stroke="#94a3b8" stroke-width="2"/>
</svg>
